<?xml version="1.0" standalone="no"?>
<!DOCTYPE svg PUBLIC "-//W3C//DTD SVG 1.1//EN" "http://www.w3.org/Graphics/SVG/1.1/DTD/svg11.dtd" >
<svg xmlns="http://www.w3.org/2000/svg" xmlns:xlink="http://www.w3.org/1999/xlink" version="1.1">
<metadata>
Created by FontForge 20150804 at Tue Sep  5 23:25:50 2017
 By cloudconvert
Copyright (c) 2011 by vernon adams (vern@newtypography.co.uk), with Reserved Font Names "Bowlby" "Bowlby One" and "Bowlby One SC". This Font Software is licensed under the SIL Open Font License, Version 1.1. This license is available with a FAQ at: http://scripts.sil.org/OFL
</metadata>
<defs>
<font id="BowlbyOne" horiz-adv-x="1645" >
  <font-face 
    font-family="Bowlby One"
    font-weight="400"
    font-stretch="normal"
    units-per-em="2048"
    panose-1="2 0 5 5 6 0 0 2 0 4"
    ascent="1638"
    descent="-410"
    x-height="1196"
    cap-height="1512"
    bbox="-337.004 -932.003 2672 2276"
    underline-thickness="102"
    underline-position="-205"
    unicode-range="U+0020-FB02"
  />
<missing-glyph horiz-adv-x="732" 
 />
    <glyph glyph-name=".notdef" horiz-adv-x="732" 
 />
    <glyph glyph-name="space" unicode=" " horiz-adv-x="716" 
 />
    <glyph glyph-name="exclam" unicode="!" horiz-adv-x="792" 
d="M114 1379l-6.99902 121.001c0 8 53.667 13.333 161 16h56l64 5c40.667 3.33301 122.334 5.66602 245.001 6.99902c47.333 0 71.666 -7.33301 72.999 -22l-14 -188c-28.667 -345.333 -52 -597.333 -70 -756c-1.33301 -12.667 -32.666 -19 -93.999 -19h-60l-20 1l-41 -1
h-40l-84 -1h-31l-15 -1h-39c-22.667 10 -34.667 49.667 -36 119c0 34 -0.333008 55 -1 63l-10 130c-0.666992 8 -2.33398 27.667 -5.00098 59s-4.33398 55 -5.00098 71zM656.001 311.001c0 -0.666992 -0.166992 -1.83203 -0.5 -3.49902s-0.5 -46.5 -0.5 -134.5
s1.33301 -149.333 4 -184c-7.33301 -6.66699 -72.666 -12.334 -195.999 -17.001h-20l-202 -4h-8c-36 -1.33301 -62.333 -2 -79 -2l-10 15l-17 16c0 82.667 2.83301 158.5 8.5 227.5s9.16699 103.5 10.5 103.5c237.333 0 381.666 -0.833008 432.999 -2.5s77 -6.5 77 -14.5z
" />
    <glyph glyph-name="quotedbl" unicode="&#x22;" horiz-adv-x="1285" 
d="M503 875l-19 1c-118 -1.33301 -207 -3 -267 -5l-24 21c0 38 1.66699 84.333 5 139l5 253l-1 31l6 108v21l-2 33c0 29.333 3 47 9 53l37 -1h131l72 2c78 0 123 -4.66699 135 -14l-1 -4l14 -596c0 -18 -4 -29.5 -12 -34.5s-24 -7.5 -48 -7.5h-40zM1125 1519
c10 -194.667 15 -348.5 15 -461.5s-0.666992 -170.833 -2 -173.5l-123 -4c-58.667 0 -123 -1.66699 -193 -5l-65 -3c-14 18.667 -21 40.667 -21 66v64l10 291c1.33301 20 2 51.333 2 94v80l-1 15c0 28 1.66699 44.333 5 49h58c212 0 318 0.666992 318 2v-6
c-2 0 -3 -2.66699 -3 -8zM1136 884l16 -10c0 -7.33301 -5.33301 -11 -16 -11v20h-1z" />
    <glyph glyph-name="numbersign" unicode="#" horiz-adv-x="1548" 
d="M406 1118l63.001 -2.00195h5c13.333 0 24 25 32 75s15.667 98.667 23 146l26 183c9.33301 6.66699 73.666 10 192.999 10h13c34 0 54.333 -4.33301 61 -13c-10.667 -57.333 -20 -121.666 -28 -192.999l-3 -26c-1.33301 -12.667 -11.333 -76.667 -30 -192h147
c2.66699 20 9 87.833 19 203.5s23.333 186.5 40 212.5h242c6 0 10.333 -1.33301 13 -4c-12.667 -110 -27 -221.667 -43 -335l-11 -75l30 -1h33c22.667 0 38 0.333008 46 1h21l19 1c5.33301 -4 8 -22.667 8 -56l-1 -16v-92l2 -55v-16c0 -14.667 -33 -22 -99 -22l-75 3h-14
l-14 -101c0 -1.33301 -0.333008 -3.83301 -1 -7.5s-1 -6.5 -1 -8.5l-10 -87h128c17.333 0 26.666 -1 27.999 -3v-151l1 -27v-69c-1.33301 -4.66699 -3.66602 -7 -6.99902 -7l-178 4c-18 -128 -27 -205.333 -27 -232s-0.333008 -47 -1 -61
c-0.666992 -36.667 -8.16699 -68.167 -22.5 -94.5s-40.5 -39.5 -78.5 -39.5l-90 -3c-64 0 -101.667 6.66699 -113 20c0 2 4 35.667 12 101l6 49c10 79.333 21.333 162.333 34 249c-16.667 -2.66699 -36.167 -4.66699 -58.5 -6s-45.166 -4.66602 -68.499 -9.99902l-39 -325
c-5.33301 -43.333 -13.333 -67.833 -24 -73.5s-22 -8.5 -34 -8.5l-221 4c-4.66699 6.66699 -9.33398 11.667 -14.001 15l2 1l-10 16c4.66699 38 11 83 19 135l35 243h-49c-49.333 0 -78.833 2.66699 -88.5 8s-14.5 23 -14.5 53v140l-2 34c0 28 18 42 54 42l33 -1h108l24 189
h-46c-70 0 -105 6.66699 -105 20l3 237c0 12 32.667 18 98 18zM848.001 901.998l-119 6.00098h-12l-23 -40c-0.666992 -4 -8 -50.667 -22 -140l-14 -72c0.666992 -30.667 13.667 -48.334 39 -53.001h9l7 1l133 6c21.333 1.33301 34 12.333 38 33l36 209
c-4 33.333 -21 50 -51 50h-21zM344.001 -17.001l-14.999 -5c0 6 1.16699 9 3.5 9s6.16602 -1.33301 11.499 -4z" />
    <glyph glyph-name="dollar" unicode="$" horiz-adv-x="1444" 
d="M1422 1089l-65.9951 1.00391c-30.667 0 -70 -1 -118 -3l-60 -2c-88 -3.33301 -155.5 -5 -202.5 -5s-73.333 2.33301 -79 7s-11.167 16.667 -16.5 36c-16.667 58.667 -60 88.334 -130 89.001l-26 -6c-55.333 -13.333 -89 -30 -101 -50c-6 -10 -9 -22.333 -9 -37
s5.16699 -28.334 15.5 -41.001s21.833 -22.834 34.5 -30.501s30.834 -15.5 54.501 -23.5s42.167 -13.5 55.5 -16.5s33 -7.5 59 -13.5l152 -34c141.333 -37.333 246 -76.333 314 -117c125.333 -94.667 188 -224.667 188 -390c0 -110 -29.333 -200.167 -88 -270.5
s-129.834 -123.333 -213.501 -159s-176.167 -63.5 -277.5 -83.5l3 -174l1 -17c-1.33301 -12 -9 -18 -23 -18c-100 0 -200 2 -300 6l-28 26c0.666992 16 1 37.667 1 65c0 55.333 -6.83301 90 -20.5 104s-47.334 25.5 -101.001 34.5s-107.834 28.667 -162.501 59
s-99 67.833 -133 112.5c-66 86 -105 191 -117 315c1.33301 10.667 18 16 50 16l48 -2h478c8 -3.33301 15 -18.833 21 -46.5s12.667 -49.167 20 -64.5c17.333 -35.333 50.666 -53 99.999 -53s88.666 10.833 117.999 32.5s44 49 44 82s-10.667 57 -32 72s-40 23 -56 24
s-29.5 3.33301 -40.5 7s-25.333 8.5 -43 14.5s-33.834 11 -48.501 15l-38 10c-180 47.333 -296 83.666 -348 108.999c-158.667 71.333 -238 195.666 -238 372.999c0 222 105 373.333 315 454c62 23.333 129 42.666 201 57.999c-3.33301 45.333 -5 89.166 -5 131.499
s2 67.5 6 75.5c37.333 -1.33301 63.333 -2 78 -2l208 3c14.667 0 22 -27.667 22 -83l-4 -128c238.667 -16 398 -88 478 -216c40.667 -65.333 61 -146.666 61 -243.999z" />
    <glyph glyph-name="percent" unicode="%" horiz-adv-x="2153" 
d="M1420 832c98.667 82.667 202.332 124.001 310.999 124.001s203 -25.667 283 -77h-1c30 -24 57.667 -56 83 -96s44 -78 56 -114h-1c19.333 -58 29 -129 29 -213c0 -169.333 -44 -298 -132 -386s-198.667 -132 -332 -132c-221.333 0 -357.666 99.333 -408.999 298
c-15.333 60 -23 123.167 -23 189.5s10 140.166 30 221.499s55.333 143 106 185zM17.998 1003c0 27.333 1.33203 46.335 3.99902 57.002c15.333 172 57.333 295.333 126 370c104 82 213.667 123 329 123c184.667 0 310.334 -70.333 377.001 -211
c35.333 -75.333 53 -152.833 53 -232.5s-4.66699 -144.834 -14 -195.501c-20 -110 -66 -199.667 -138 -269s-174.333 -104 -307 -104c-190 0 -316.667 73.667 -380 221c-33.333 77.333 -50 157.666 -50 240.999zM572.997 -88.9971l-5 1.00098l-19 51
c72 135.333 182.5 336.333 331.5 603s259.833 468 332.5 604l219 394c104 0 172 2.33301 204 7l-19 -39c-60.667 -114 -117.667 -224.667 -171 -332l-94 -185v2l-88 -166c-67.333 -124.667 -119 -226.334 -155 -305.001l-310 -619c-6.66699 -12 -35 -18 -85 -18
s-94.333 0.666992 -133 2h-8zM1636 1571l11.999 20l16 -12c-3.33301 -3.33301 -12.666 -6 -27.999 -8zM1856 510.004l0.999023 23c0 141.333 -41.667 212 -125 212l-5 -1c-40 -1.33301 -69 -22 -87 -62c-24 -54.667 -36 -134 -36 -238v-36
c2.66699 -86 8.33398 -140.167 17.001 -162.5s17.667 -41.5 27 -57.5c17.333 -32 47 -48 89 -48c80 0 120 70 120 210v29l-1 31v100zM586.995 1131c0 144 -36.667 216 -110 216c-80.667 0 -125.667 -67.667 -135 -203c-2.66699 -32.667 -4 -79.667 -4 -141
c0 -175.333 45 -263 135 -263c76 0 114 73.667 114 221v41l-1 21v86z" />
    <glyph glyph-name="ampersand" unicode="&#x26;" horiz-adv-x="1815" 
d="M1522 792l159.999 -4.00195h2c44 0 75 0.666992 93 2c5.33301 -3.33301 10 -9.66602 14 -18.999l-5 -35c-6.66699 -76 -27.167 -152 -61.5 -228s-81.166 -143.667 -140.499 -203l195 -202c18.667 -20 34.334 -38.333 47.001 -55l20 -19c22.667 -22 34.667 -38 36 -48
c0 -10.667 -20 -16 -60 -16l-47 1h-259c-76 0 -147.333 1.33301 -214 4c-22 12 -41.667 26.667 -59 44l-39 33l-53 -27c-142.667 -53.333 -261.667 -83 -357 -89l-89 -3c-132 0 -250.667 19.333 -356 58s-187 91.667 -245 159s-87 142.333 -87 225
c0 196 133.333 343 400 441c-71.333 46 -130.166 101.333 -176.499 166s-69.5 124.667 -69.5 180c0 103.333 34 186.666 102 249.999c41.333 38.667 106.333 72.334 195 101.001s186 43 292 43c224 0 391.333 -38.667 502 -116c84 -59.333 126 -141 126 -245
c0 -76 -25.5 -145.667 -76.5 -209s-127.167 -131.666 -228.5 -204.999c35.333 -35.333 62.666 -61 81.999 -77v1l108 -103c36.667 49.333 56.167 90.5 58.5 123.5s10.166 52.833 23.499 59.5c17.333 8 73 12 167 12zM1012 280.998
c-28.667 22.667 -51.002 43.3311 -67.002 61.998s-26 30 -30 34l-151 144c-8.66699 0 -15.167 4.16699 -19.5 12.5s-17.666 23.333 -39.999 45s-42.166 32.834 -59.499 33.501c-36 -17.333 -68.833 -47.666 -98.5 -90.999s-44.5 -85.5 -44.5 -126.5
s13.333 -77.167 40 -108.5c50 -56.667 115.667 -85 197 -85s172.333 26.667 273 80zM761.997 974.995l-1.00098 1.00098c8.66699 -5.33301 17.667 -8 27 -8s17.666 1.66699 24.999 5c75.333 57.333 122.333 106.666 141 147.999c8.66699 20 13 44 13 72
s-11.333 53.333 -34 76c-38 38 -86.167 57 -144.5 57s-105.166 -14.167 -140.499 -42.5s-53 -66.5 -53 -114.5c6.66699 -65.333 62.334 -130 167.001 -194z" />
    <glyph glyph-name="quotesingle" unicode="'" horiz-adv-x="803" 
d="M214 1461l-1.00098 17.998c0 28 2.33301 44.667 7 50h66c102 0 205 -1 309 -3c2.66699 -0.666992 4 -4 4 -10l3 -185c4 -274 6 -411.667 6 -413c0 -19.333 -17.833 -32.166 -53.5 -38.499s-88.167 -9.5 -157.5 -9.5h-111l-39 1h-25c-16 10 -24 22.667 -24 38l11 321
c2.66699 84.667 4.33398 149.334 5.00098 194.001v37z" />
    <glyph glyph-name="parenleft" unicode="(" horiz-adv-x="832" 
d="M805 -306l-22.998 -30h-50l-336 8c-22.667 12.667 -61.667 109.667 -117 291l-19 50c-66.667 176 -106.667 377 -120 603c10.667 95.333 32.667 214.833 66 358.5s67.333 269.5 102 377.5s59.667 163.667 75 167c17.333 8.66699 151.666 13 402.999 13
c5.33301 -4 8.66602 -8.33301 9.99902 -13l-54 -205c-84.667 -297.333 -127 -533.333 -127 -708c8.66699 -208 53 -445.333 133 -712zM805.002 -306l4 6l-3 -10z" />
    <glyph glyph-name="parenright" unicode=")" horiz-adv-x="835" 
d="M379 1543l63.002 1c8.66699 0 18 -7.33301 28 -22v2l55 -151c39.333 -108.667 69.5 -194.834 90.5 -258.501s42 -145.167 63 -244.5s31.5 -190.333 31.5 -273c-3.33301 -108 -17.833 -209.667 -43.5 -305s-62.834 -215.666 -111.501 -360.999s-82.334 -227 -101.001 -245
c-70.667 -4 -127 -6 -169 -6h-32l-30 1h-61c-47.333 0 -81.333 -1 -102 -3l10 28c0 0.666992 0.333008 1.33398 1 2.00098l5 11c104 351.333 156 643 156 875c0 167.333 -42.333 401 -127 701l-64 226c6 9.33301 12.667 16.666 20 21.999h318zM459.002 -334l-6 11.001v-15
h-4l-4 18c6 2.66699 15 5.66699 27 9c0 -14.667 -5 -23.334 -15 -26.001c0 0.666992 0.666992 1.66699 2 3zM59.002 -330.999l-11 10c3.33301 0 7 -0.333008 11 -1h1c-0.666992 -2 -1 -5 -1 -9zM455.002 -337.999l1 1z" />
    <glyph glyph-name="asterisk" unicode="*" horiz-adv-x="930" 
d="M584 1537c108.667 -50 162.998 -80.5 162.998 -91.5s-10.833 -31.833 -32.5 -62.5s-46.167 -76.334 -73.5 -137.001l66 6c20 4 50 6 90 6h13c22.667 0 36.667 -1.83301 42 -5.5s8 -19.5 8 -47.5s-2 -52.667 -6 -74v-58c0 -2.66699 -68.667 -4 -206 -4l42 -65h-1
c14.667 -27.333 24.334 -47.333 29.001 -60l14 -23c10.667 -14.667 18.667 -29.667 24 -45l-129 -83l1 2l-39 -21l1 1c-12 8.66699 -47.333 68 -106 178l-42 -81v1c-34.667 -69.333 -55.167 -104 -61.5 -104s-22 6.16699 -47 18.5s-44.167 25.166 -57.5 38.499l-71 45l-8 2
c4.66699 18.667 28.334 62 71.001 130l22 45l-97 -2h-14c-36.667 0 -60.334 3.33301 -71.001 10s-16.5 23.667 -17.5 51s-1.5 56 -1.5 86s6.33301 51 19 63c65.333 0 132 -2 200 -6l-56 87c-30 46.667 -47.333 82.334 -52 107.001c1.33301 2.66699 14.333 8.66699 39 18
c62.667 50.667 107.334 76 134.001 76c0.666992 0 3.66699 -5 9 -15s13 -24.167 23 -42.5s18 -33.166 24 -44.499l61 -112l16 65l18 41l10 19c2 4 8.5 17.333 19.5 40s21.167 38.667 30.5 48zM758.998 869c0 0.666992 -0.333008 3.66699 -1 9l23 13
c12.667 -16 19 -31.667 19 -47l-41 8v17zM194.998 874l2 -1l-1 -2v1zM192.998 875l2 -1c-1.33301 0 -2 0.333008 -2 1z" />
    <glyph glyph-name="plus" unicode="+" horiz-adv-x="1271" 
d="M1189 503l-0.999023 -38v-35c0 -20.667 -0.333008 -33.667 -1 -39h-4c-11.333 -0.666992 -27.333 -1 -48 -1h-269l-78 1c2.66699 -66.667 4 -173.667 4 -321v-50c0 -22 -25.333 -33 -76 -33l-87 1h-50c-50.667 0 -76 -0.666992 -76 -2l-5 386l-28 -1h-102l-22 1l-22 -1
h-136l-39 1h-37c-10 6 -15 31 -15 75l1 15v69l-1 33v64c0 22 2 36.333 6 43s14.333 10 31 10c86.667 0 204.667 0.666992 354 2v66l3 255v33c0 16.667 2.16699 27.667 6.5 33s15.166 8 32.499 8l19 -1h109l60 2c44.667 0 70.667 -4 78 -12l-3 -393l387 2
c6 -2.66699 9 -19.667 9 -51v-122z" />
    <glyph glyph-name="comma" unicode="," horiz-adv-x="735" 
d="M383 419l151.001 3.00195c91.333 0 137 -3.66699 137 -11v-4c-38 -112.667 -65.667 -198 -83 -256l-13 -43c-3.33301 -12.667 -9 -30.667 -17 -54l-32 -103l-65 -186c-12.667 -10 -80.334 -15 -203.001 -15l-42 1h-189c-6 4.66699 -12 11.334 -18 20.001
c2.66699 9.33301 6.83398 29.166 12.501 59.499s10.167 53.166 13.5 68.499l8 35c4 18 10.333 45.667 19 83s15.667 67.666 21 90.999s11.666 51.666 18.999 84.999c32 136.667 54.333 211.334 67 224.001c12 1.33301 30.667 2 56 2h158z" />
    <glyph glyph-name="hyphen" unicode="-" horiz-adv-x="859" 
d="M812 550l-1 -42v-115c-1.33301 -12 -3.66602 -18 -6.99902 -18l-731 -20c-8.66699 7.33301 -16.334 15.333 -23.001 24l1 28v30l2 130v15l-2 66c0 56 3.66699 84 11 84h221l71 -1l304 3h34l38 -1h68c9.33301 -10 14 -66.333 14 -169v-14z" />
    <glyph glyph-name="period" unicode="." horiz-adv-x="775" 
d="M652 254c0 -71.333 1 -122 3 -152v-69l1 -13c0 -25.333 -0.833008 -38 -2.5 -38s-58 -2.83301 -169 -8.5s-221.5 -8.5 -331.5 -8.5l-23 36c-0.666992 6 -1 14 -1 24l3 104v54c0 146 4.66699 224 14 234c156 -1.33301 274 -2 354 -2h46l23 1c53.333 0 80 -3 80 -9z" />
    <glyph glyph-name="slash" unicode="/" horiz-adv-x="804" 
d="M794 1565l10 0.999023c28 0 42 -3.66699 42 -11c-10 -44.667 -21.667 -85.667 -35 -123l-29 -77c-59.333 -172 -119.333 -350 -180 -534l-22 -63c-8 -22.667 -40.833 -119.667 -98.5 -291s-103.167 -300 -136.5 -386l-18 -47h2c-19.333 -53.333 -44.333 -85 -75 -95
c-16 -5.33301 -36.667 -8.33301 -62 -9h-43c-25.333 -3.33301 -61.333 -5 -108 -5h-51c-14 28.667 -23.333 49 -28 61c14.667 48 24 74 28 78l60 165c116.667 320.667 271.667 736.334 465 1247l34 87c11.333 3.33301 38 5 80 5l139 -3h26z" />
    <glyph glyph-name="zero" unicode="0" horiz-adv-x="1462" 
d="M818.5 1221.5c-20.333 10.333 -44.168 15.502 -71.501 15.502s-51.833 -5.83301 -73.5 -17.5s-39.667 -26.167 -54 -43.5s-26.5 -41 -36.5 -71c-26.667 -80 -40 -191.667 -40 -335c0 -137.333 3.66699 -225.333 11 -264c15.333 -84 36.166 -144.333 62.499 -181
s63.166 -55 110.499 -55c75.333 0 127.666 38.667 156.999 116c24.667 66 37 166 37 300v19c2.66699 40.667 4 89.334 4 146.001s-0.666992 95.5 -2 116.5s-3.66602 45.667 -6.99902 74s-9.16602 53.166 -17.499 74.499s-18.666 41.666 -30.999 60.999
s-28.666 34.166 -48.999 44.499zM1368 348.002c-74.667 -201.333 -220.333 -328.667 -437 -382c-66.667 -16.667 -139.5 -25 -218.5 -25s-152.833 10 -221.5 30c-126 36.667 -225.5 102.5 -298.5 197.5s-120.5 206.833 -142.5 335.5c-6 28.667 -12.333 86.667 -19 174l-5 66
c0 313.333 96.667 540 290 680c112.667 81.333 253 130.333 421 147h14c229.333 0 401.5 -71.833 516.5 -215.5s172.5 -353.167 172.5 -628.5c0 -128 -24 -254.333 -72 -379z" />
    <glyph glyph-name="one" unicode="1" horiz-adv-x="1579" 
d="M1119 1410l-1.99805 -293.999c0 -196 1.66699 -364.667 5 -506l9 -621c-16.667 -15.333 -59.667 -23 -129 -23l-86 2h-17l-41 -1h-41l-63 -1c-67.333 0 -134 1 -200 3l-16 25c-6.66699 9.33301 -10 30.333 -10 63s2.66699 249 8 649l4 274
c-109.333 -74.667 -216 -128.334 -320 -161.001c-4.66699 0.666992 -7.33398 3.66699 -8.00098 9v106l-1 45c0 175.333 1.33301 263.5 4 264.5s12.5 6.16699 29.5 15.5s36.5 18.333 58.5 27s35.167 14.667 39.5 18s9.5 6.33301 15.5 9c171.333 82 276 152.667 314 212
l308 -6c61.333 0 106.666 1.33301 135.999 4c2 -4 3 -22.667 3 -56v-57z" />
    <glyph glyph-name="two" unicode="2" horiz-adv-x="1458" 
d="M1436 219l-4.99512 -196.002v-20c0 -16.667 -7.33301 -25.667 -22 -27l-412 9c-286.667 0 -586.334 -6.66699 -899.001 -20l-13 17c-11.333 8 -17 37.833 -17 89.5s0.666992 107.5 2 167.5v7c1.33301 54.667 2 96.334 2 125.001c0 10.667 53 51 159 121l173 115
c120 82.667 211.333 152.334 274 209.001c109.333 99.333 164 188.666 164 267.999c0 34.667 -10.5 62.167 -31.5 82.5s-47.833 30.5 -80.5 30.5s-57.834 -7.83301 -75.501 -23.5s-28.5 -33.167 -32.5 -52.5c-12.667 -56 -24.334 -87 -35.001 -93
c-20.667 -0.666992 -51.667 -1 -93 -1h-303l-45 1h-39c-22.667 0 -35.667 3 -39 9c5.33301 80.667 14.333 140 27 178c17.333 63.333 48.166 118.5 92.499 165.5s97.166 83.5 158.499 109.5c119.333 49.333 253.333 74 402 74c234 0 412 -52.667 534 -158
c91.333 -77.333 137 -179.666 137 -306.999c0 -161.333 -73 -309 -219 -443c-72 -66 -167.333 -137.667 -286 -215l-70 -63l488 9c40.667 0 68.167 -14 82.5 -42s21.5 -70 21.5 -126z" />
    <glyph glyph-name="three" unicode="3" horiz-adv-x="1454" 
d="M636 608l-78.998 -1.00293c-20 0 -33.833 6.83301 -41.5 20.5s-11.5 47.834 -11.5 102.501s2 96.667 6 126s14.333 44 31 44h38l21 -1h21c62.667 0 111.334 13.5 146.001 40.5s52 74.833 52 143.5c0 36.667 -10.5 66.834 -31.5 90.501s-51.5 35.5 -91.5 35.5
s-67.333 -9.66699 -82 -29c-6.66699 -8 -11.334 -14 -14.001 -18c-6.66699 -7.33301 -14 -30.666 -22 -69.999l1 1l-4 -11c-6.66699 -26.667 -14 -43 -22 -49c-128.667 0 -259 2 -391 6h-37l-17 -1c-35.333 0 -55 6.33301 -59 19c1.33301 10.667 3.16602 34.667 5.49902 72
s8.83301 70.333 19.5 99c39.333 109.333 99.333 189.666 180 240.999v-1c114 65.333 276 98 486 98c77.333 0 137.666 -3.83301 180.999 -11.5s87 -19.167 131 -34.5c88.667 -30 164.5 -77.667 227.5 -143s94.5 -146.5 94.5 -243.5s-30.167 -170 -90.5 -219
s-134.5 -87.833 -222.5 -116.5c126.667 -39.333 216.167 -87 268.5 -143s78.5 -128.667 78.5 -218c0 -218 -108.667 -365 -326 -441c-108 -37.333 -249.667 -56 -425 -56c-226.667 0 -401.334 60 -524.001 180c-66.667 58 -103 166.667 -109 326c0 8.66699 3.66699 13 11 13
l495 8c10 0 15.667 -4.33301 17 -13c14 -104.667 63.667 -157 149 -157c44 0 78.167 12.667 102.5 38s36.5 55.833 36.5 91.5s-5 64.834 -15 87.501c-18.667 39.333 -47.167 64.833 -85.5 76.5s-71.166 17.5 -98.499 17.5z" />
    <glyph glyph-name="four" unicode="4" horiz-adv-x="1433" 
d="M1399 618l21.998 1.00098c12 0 20.333 -2.33301 25 -7s7.33398 -14.334 8.00098 -29.001l-4 -4l6 -252c0 -70.667 -4.66699 -106 -14 -106h-58l-23 -1h-85c2 -62 3 -131 3 -207c0 -28 -6.66699 -42.667 -20 -44c-89.333 1.33301 -156.666 2 -201.999 2h-37
c-126.667 0 -223.667 -2 -291 -6l-1 1v-1l-24 33l2 178v36c0 28.667 -25 43 -75 43s-100.667 -10.333 -152 -31l-286 -3l-120 -4c-39.333 0 -64.666 9 -75.999 27c0 148.667 2 269 6 361c37.333 93.333 78.166 178.833 122.499 256.5s102.166 170.5 173.499 278.5v-1
c10 14 18.667 28.333 26 43c104.667 160.667 173.334 267.667 206.001 321c6.66699 6.66699 26.667 10 60 10s53.333 0.333008 60 1l90 3c132.667 4.66699 243.667 7 333 7h185l16 -5c0 -0.666992 0.333008 -1 1 -1v-48l-7 -578l1 -96v-24l-2 -55c0 -66 22 -99 66 -99h65z
M1454 583.001l9 10l5 -12h-14v2zM1471 575.001l-3 6h7c0 -4 -1.33301 -6 -4 -6zM777.998 711.001l2.99902 134.001c0 224 -23 337.667 -69 341c-15.333 -8.66699 -26.666 -18.334 -33.999 -29.001l-51 -91c-7.33301 -12.667 -20 -35.5 -38 -68.5s-32 -58.167 -42 -75.5
l-56 -98c-38.667 -68 -74 -131.333 -106 -190l13 -27v-26l22 -22h32l280 5c28 12.667 43.667 30.667 47 54v21l-1 22v50z" />
    <glyph glyph-name="five" unicode="5" horiz-adv-x="1469" 
d="M351 411l274.999 -4.99902c6 -4.66699 12.333 -19 19 -43c22 -36 47.333 -58.333 76 -67c82.667 0 124 65 124 195c0 77.333 -9.83301 131 -29.5 161s-52.5 45 -98.5 45s-74.667 -24.333 -86 -73v-1c-1.33301 -4.66699 -2.33301 -10.834 -3 -18.501
s-1.66699 -14.5 -3 -20.5s-8 -9.66699 -20 -11c-47.333 2 -116.333 3 -207 3h-230c-24.667 0 -37 32.333 -37 97v42l1 14l-3 220c-1.33301 89.333 -2 155.333 -2 198v192c0 36 0.666992 63.667 2 83v36c0 36.667 6 64 18 82c32.667 -1.33301 78 -2 136 -2l984 -9l15 1
c24.667 0 39.667 -4.66699 45 -14v-258c0 -37.333 -1.16699 -62.5 -3.5 -75.5s-9.5 -19.5 -21.5 -19.5h-19c-246 0 -465 -1.33301 -657 -4c-5.33301 -21.333 -8 -44.333 -8 -69s-0.333008 -40 -1 -46l-7 -96c0 -2.66699 -0.166992 -9.5 -0.5 -20.5s-0.5 -17.5 -0.5 -19.5
c100 66 205 99 315 99c147.333 0 265.5 -45 354.5 -135s133.5 -205.667 133.5 -347c0 -84.667 -13.333 -161 -40 -229c-48 -122 -134.667 -214 -260 -276c-108.667 -53.333 -239.167 -80 -391.5 -80s-286.166 28.667 -401.499 86c-68 33.333 -122.667 76.333 -164 129
c-36 54.667 -62.333 135 -79 241c4.66699 10.667 33 16 85 16l23 -1h167zM631.999 625.001l17 -9l-18 7c0 0.666992 0.166992 1 0.5 1s0.5 0.333008 0.5 1z" />
    <glyph glyph-name="six" unicode="6" horiz-adv-x="1457" 
d="M779 720c-130 0 -194.999 -85.3301 -194.999 -255.997c0 -94.667 32.333 -162.334 97 -203.001l12 15c2 -0.666992 5.33301 -1 10 -1l-4 -20l15 -5l-1 1c33.333 -10.667 59.166 -16 77.499 -16s39.5 5 63.5 15c76.667 33.333 115 113.666 115 240.999
c0 72.667 -14.333 128.667 -43 168s-77.667 59.666 -147 60.999zM603.001 841.003c82.667 98 193.166 146.996 331.499 146.996s256.333 -45.167 354 -135.5s146.5 -203.833 146.5 -340.5c0 -176.667 -70.333 -318 -211 -424c-110 -82.667 -250.667 -130 -422 -142
c-127.333 1.33301 -232.5 15 -315.5 41s-142.167 54.667 -177.5 86v-1c-112 112.667 -187.333 238.667 -226 378c-20 89.333 -30 188.666 -30 297.999c0 156.667 29.833 296.334 89.5 419.001s145.334 220 257.001 292s241.167 111.667 388.5 119
c226 -5.33301 387.333 -71.666 484 -198.999c50.667 -67.333 82.334 -146.666 95.001 -237.999c-58.667 -14.667 -220.334 -22 -485.001 -22c-13.333 0 -20.333 -1.33301 -21 -4l-2 60c-14 22.667 -39.667 34 -77 34c-72 0 -121 -34 -147 -102
c-22 -57.333 -33 -120.666 -33 -189.999v-45c0 -7.33301 0.333008 -17.666 1 -30.999z" />
    <glyph glyph-name="seven" unicode="7" horiz-adv-x="1462" 
d="M76 1421l-4.00098 64c0 41.333 9 62 27 62c240 0 594.667 -4.66699 1064 -14l207 -4c16 -0.666992 24 -49.334 24 -146.001v-47c0 -152 -15.333 -260 -46 -324s-65.667 -129.333 -105 -196c-128 -218 -274.333 -495.667 -439 -833c-3.33301 -10 -12.333 -15 -27 -15
l-90 1h-49l-50 1h-89l-65 -1c-160.667 0 -241 6.66699 -241 20c0 8 3.66699 18.833 11 32.5s12.333 23.834 15 30.501l422 842c60.667 120 98.334 193 113.001 219h-70c-64.667 0 -171 -1.33301 -319 -4h-240c-10.667 0 -19 1.83301 -25 5.5s-14 12.5 -24 26.5v280z" />
    <glyph glyph-name="eight" unicode="8" horiz-adv-x="1451" 
d="M1386 1088c0 -150.667 -81.9951 -254.668 -245.995 -312.001c109.333 -54.667 177.666 -99.334 204.999 -134.001c57.333 -72 86 -155 86 -249c0 -139.333 -57 -249.666 -171 -330.999c-60.667 -42.667 -130.334 -73.5 -209.001 -92.5s-181.167 -28.5 -307.5 -28.5
s-227.833 8.66699 -304.5 26c-138 31.333 -239.333 88 -304 170c-52.667 66.667 -85.334 151.334 -98.001 254.001c15.333 166.667 105.333 291 270 373c-148.667 68.667 -223 177.667 -223 327c0 68.667 13.333 130.667 40 186c47.333 100 127.166 173.5 239.499 220.5
s232.166 70.5 359.499 70.5c224 0 398.333 -52.667 523 -158c93.333 -78.667 140 -186 140 -322zM916.005 428.999c0 144.667 -61.333 217.001 -184 217.001c-54.667 0 -99.334 -20.333 -134.001 -61s-52 -90.334 -52 -149.001c6.66699 -59.333 25.834 -106.5 57.501 -141.5
s75.5 -52.5 131.5 -52.5s100.167 17.167 132.5 51.5s48.5 79.5 48.5 135.5zM728.005 1262c-50 0 -88.333 -20.5 -115 -61.5s-40 -84.167 -40 -129.5c0 -126.667 54.333 -190 163 -190c54 0 93.833 18.5 119.5 55.5s38.5 82.833 38.5 137.5c0 125.333 -55.333 188 -166 188z
" />
    <glyph glyph-name="nine" unicode="9" horiz-adv-x="1456" 
d="M113 378c10.667 14 20.335 24.6689 29.002 32.002l461 -7c5.33301 -2 11.833 -14.833 19.5 -38.5s17.834 -40.667 30.501 -51s31 -15.5 55 -15.5s44.167 3.16699 60.5 9.5s29.833 14.333 40.5 24s20.334 22.5 29.001 38.5c22.667 42 37 108.667 43 200v21
c0 3.33301 0.166992 10.166 0.5 20.499s0.5 15.833 0.5 16.5c-80.667 -52 -174.334 -80 -281.001 -84c-110 0 -212.5 25.5 -307.5 76.5s-163.5 123.167 -205.5 216.5c-22.667 50.667 -35.334 105.667 -38.001 165c15.333 207.333 119.666 363.333 312.999 468
c110.667 60 231.667 90 363 90c237.333 0 412.666 -66.667 525.999 -200v1c64.667 -81.333 110.5 -167.833 137.5 -259.5s40.5 -194.834 40.5 -309.501c0 -248 -52 -448.333 -156 -601c-118 -173.333 -335.667 -260 -653 -260c-146 0 -267.333 39.333 -364 118
c-89.333 66 -137.333 175.667 -144 329zM505.001 1005c8.66699 -145.333 75.332 -218 199.999 -218s187 79 187 237s-61.667 237 -185 237c-83.333 0 -141.666 -38 -174.999 -114c-18 -40.667 -27 -88 -27 -142z" />
    <glyph glyph-name="colon" unicode=":" horiz-adv-x="771" 
d="M333 419l56.001 -1h152c59.333 0 94 -4 104 -12v-188l2 -94v-72c0 -28.667 0.333008 -50 1 -64c-14 -15.333 -122.333 -23 -325 -23l-63 1h-39c-32.667 0 -57.334 -0.333008 -74.001 -1c-15.333 20.667 -23 33 -23 37v33c0 118 3.66699 242.333 11 373
c0 7.33301 66 11 198 11zM648.001 974l-1.00098 -35v-8l5 -136l-7 -47c6 -24.667 9 -48.667 9 -72s-4 -35 -12 -35c-183.333 -10 -346.666 -15 -489.999 -15l-23 36c-0.666992 13.333 -1 31.666 -1 54.999v20l2 70v60c0 130 5 200.333 15 211c25.333 -0.666992 62 -1 110 -1
l72 1h69l115 1c90 0 135 -3.66699 135 -11c1.33301 -41.333 2 -72.666 2 -93.999z" />
    <glyph glyph-name="semicolon" unicode=";" horiz-adv-x="733" 
d="M288 437l249.997 3c88 0 132 -3.66699 132 -11v-12c-24 -67.333 -56 -162.333 -96 -285l-47 -147l-14 -49l-22 -54c-3.33301 -10 -9.16602 -24.333 -17.499 -43s-14.166 -32.667 -17.499 -42c-6.66699 -10.667 -80 -16 -220 -16l-159 2h-50c-12 12 -17.667 19 -17 21
l6 32c12 62 20.667 103 26 123c0 18 16.333 102.333 49 253s57.334 226 74.001 226h30l31 -1h62zM351.997 1060l119.999 0.999023c129.333 0 194 -1 194 -3c4.66699 -164.667 7 -301 7 -409v-34l-4 1c-5.33301 -5.33301 -62 -8 -170 -8l-326 -13
c-12.667 17.333 -20.5 30.333 -23.5 39s-4.5 21 -4.5 37v13c0.666992 2.66699 1 4.33398 1 5.00098l3 92c0.666992 8 1.83398 54.167 3.50098 138.5s6.5 130.833 14.5 139.5h37l74 1h74z" />
    <glyph glyph-name="less" unicode="&#x3c;" horiz-adv-x="1271" 
d="M90 577l-1.00195 17c0 41.333 10 74.333 30 99l923 348c46.667 19.333 91.334 36 134.001 50h4c10 0 15 -23 15 -69v-12c0 -120 -4.33301 -187.667 -13 -203c-177.333 -67.333 -416.666 -161.666 -717.999 -282.999c94.667 -36.667 236.167 -90.834 424.5 -162.501
s285.5 -109.834 291.5 -114.501c12.667 -10.667 19 -45.167 19 -103.5s-2.66699 -109.5 -8 -153.5v-2c0 -17.333 -3.66699 -26 -11 -26c-0.666992 0 -4.33398 0.666992 -11.001 2l-958 377c-2 0.666992 -5.66699 2.16699 -11 4.5s-12.666 4.83301 -21.999 7.5
c-19.333 6 -39 15.833 -59 29.5s-30 36.834 -30 69.501v58l1 21v46zM1175 1091v21l7 1l3 -19z" />
    <glyph glyph-name="equal" unicode="=" horiz-adv-x="1273" 
d="M1187 173l0.998047 -13c0 -24 -4.33301 -36 -13 -36l-285 -4l-772 -15l-21 26c-2 32 -3 59.667 -3 83s0.333008 39 1 47v19l1 20v25l-1 15v15c0 32.667 4 58 12 76l2 -1c0.666992 0.666992 1.33398 1 2.00098 1h22c296.667 -18.667 549.334 -28 758.001 -28l38 1
c156 4 239 6.33301 249 7c6 -10.667 9 -55.667 9 -135v-103zM208.998 933l969 -3.99902c4.66699 -10.667 7 -58.334 7 -143.001v-125c-0.666992 0 -1 0.333008 -1 1l-286 -10c-87.333 -4 -217.333 -8.83301 -390 -14.5s-302.667 -10.5 -390 -14.5l-21 27v6
c-1.33301 25.333 -2 44.333 -2 57v84l1 28v24l-1 14v12c0 38.667 4 58 12 58h102zM1195 650.001l-10 -11v22z" />
    <glyph glyph-name="greater" unicode="&#x3e;" horiz-adv-x="1269" 
d="M103 843l1 9.99902v30c0 116.667 -1 183.334 -3 200.001c8 -6 149 -60.333 423 -163l111 -42c168.667 -63.333 311.667 -118.333 429 -165l122 -50c8 -17.333 12 -64.5 12 -141.5s-0.666992 -116.167 -2 -117.5l-11 -10l-3 -3h3
c-310.667 -123.333 -541 -217.666 -691 -282.999l-137 -57c-110.667 -45.333 -189.667 -76.333 -237 -93l-31 34c0 86 3.33301 168.667 10 248c10 22.667 153.667 85.334 431 188.001l32 13c102 36.667 181.667 67 239 91c-51.333 20.667 -147.833 61.167 -289.5 121.5
s-276.5 113.166 -404.5 158.499c-2.66699 5.33301 -4 15.666 -4 30.999zM104 1083l-2.00098 -1c-1.33301 0 -2.66602 1 -3.99902 3z" />
    <glyph glyph-name="question" unicode="?" horiz-adv-x="1121" 
d="M721 493c-14 -5.33301 -24.667 -7.99805 -32 -7.99805l-120 -2c-88.667 0 -211 -2.66699 -367 -8c-7.33301 4 -11 25.5 -11 64.5s4 72.333 12 100s22.833 56.167 44.5 85.5s45.167 55.833 70.5 79.5s50.666 47.5 75.999 71.5c58 57.333 92.667 114.666 104 171.999
c-4.66699 36.667 -19.167 61.334 -43.5 74.001s-55.5 19 -93.5 19l-5 -1c-82.667 -2.66699 -173 -22.667 -271 -60l-33 27v16c1.33301 158.667 2 277.667 2 357c0 46 127 75.333 381 88l39 2c159.333 0 292 -24.333 398 -73l45 -23l-1 1c56 -36 98.333 -76.333 127 -121
l12 -25c23.333 -55.333 36.333 -98 39 -128v-5c2.66699 -20.667 6.33398 -39 11.001 -55c-4 -84 -24 -152.333 -60 -205c-40.667 -50 -98.167 -100.333 -172.5 -151s-120.333 -89.834 -138 -117.501s-27.167 -54.834 -28.5 -81.501c6 -24.667 9 -55.667 9 -93h6zM709 78.002
l1 -32.001v-60c-23.333 -2.66699 -58.166 -4 -104.499 -4s-77.833 -0.666992 -94.5 -2l-54 -3c-26.667 -2.66699 -61 -5 -103 -7l-75 -3c-32 -1.33301 -55.667 -2 -71 -2c-14.667 20.667 -22 35 -22 43v90l1 19v83l-1 21c0 64 6 104.333 18 121l86 -3
c52 -2 122.667 -4 212 -6s145.666 -5.66699 168.999 -11s35.333 -20.666 36 -45.999zM709 -35.999l-0.000976562 21h2h-2l1 1h2l-1 -1l13 2c0 -5.33301 -1.66699 -10.5 -5 -15.5s-6.66602 -7.5 -9.99902 -7.5z" />
    <glyph glyph-name="at" unicode="@" horiz-adv-x="1671" 
d="M1286 445c133.333 56 199.998 194.997 199.998 416.997c0 60 -11 122.667 -33 188c-40.667 121.333 -111.334 209 -212.001 263s-217 81 -349 81c-177.333 0 -329.333 -56.667 -456 -170c-61.333 -55.333 -110.166 -126.666 -146.499 -213.999s-54.5 -180 -54.5 -278
c0 -188.667 65.5 -338.167 196.5 -448.5s283.5 -165.5 457.5 -165.5c91.333 0 170 9.33301 236 28c2 -6.66699 3.83301 -13.667 5.5 -21s3.5 -13.666 5.5 -18.999l23 -71c-92 -31.333 -194.833 -47 -308.5 -47s-216.167 19 -307.5 57s-171 89.5 -239 154.5
s-122.5 143.833 -163.5 236.5s-61.5 195 -61.5 307s22.5 218.5 67.5 319.5s104.667 184.5 179 250.5s158.833 117.333 253.5 154s191.334 55 290.001 55s192.5 -13.833 281.5 -41.5s168.333 -66.5 238 -116.5s125.334 -113.667 167.001 -191s62.5 -162.666 62.5 -255.999
s-18.333 -184.833 -55 -274.5s-83.667 -162.667 -141 -219s-116.333 -87.833 -177 -94.5c-77.333 5.33301 -136.333 62 -177 170h-33c-39.333 -49.333 -81 -86.666 -125 -111.999s-102.833 -38 -176.5 -38s-140.167 29.167 -199.5 87.5s-89 128.5 -89 210.5v35
c0 105.333 35.333 199.666 106 282.999c74.667 88 179.667 132 315 132c73.333 0 136.333 -25.333 189 -76l72 -107l10 36c2.66699 10 8.66699 31.5 18 64.5s16 57.5 20 73.5l84 -3l-68 -382c-10 -38 -15 -78.333 -15 -121s7.83301 -76.167 23.5 -100.5
s44.5 -36.5 86.5 -36.5zM1058 757.997c0 47.333 -15.333 91.166 -46 131.499s-79.167 60.5 -145.5 60.5s-121.5 -23.833 -165.5 -71.5s-71 -106.167 -81 -175.5c0 -66 15 -118.167 45 -156.5s67.333 -58.166 112 -59.499c83.333 0 151 27.167 203 81.5s78 117.5 78 189.5z
" />
    <glyph glyph-name="A" unicode="A" horiz-adv-x="1639" 
d="M1697 -11c-0.666992 -8.66699 -18.999 -12.999 -54.999 -12.999h-92l-62 -1h-61l-97 -1c-96.667 0 -177 2.33301 -241 7c-2 0.666992 -4.33301 4.66699 -7 12l-5 21c-6 68.667 -21.667 135 -47 199l-428 -4c-2.66699 -11.333 -11.334 -45 -26.001 -101
s-25.667 -98.333 -33 -127c-6.66699 -6.66699 -38.334 -10 -95.001 -10l-25 1h-58l-260 -6h-30l-28 -1h-70c-4.66699 4.66699 -9.66699 10.667 -15 18c66.667 230.667 157 516.667 271 858l23 71h-1l27 83c8.66699 26.667 33.5 100.667 74.5 222s66.667 199.666 77 234.999
s16.5 53.666 18.5 54.999h166l355 5l96 -5l79 5c40 0 60 -8 60 -24c66.667 -186 155.667 -453.667 267 -803s174 -545.666 188 -588.999l14 -50c4.66699 -18 11.334 -37 20.001 -57zM707.001 535.001l41.001 -0.999023l239 1c-10 79.333 -17.667 137.666 -23 174.999
l-38 171c-40 176.667 -60.667 266.667 -62 270s-2.5 6.5 -3.5 9.5s-1.83301 5 -2.5 6s-1.5 2.83301 -2.5 5.5s-2 4.5 -3 5.5s-2.16699 2.5 -3.5 4.5c-4.66699 8 -14.334 15 -29.001 21c-18 -4 -71.667 -204.667 -161 -602l-11 -66h59z" />
    <glyph glyph-name="B" unicode="B" horiz-adv-x="1571" 
d="M109 1116l-0.99707 19.998v62c0 86 1.66699 184.667 5 296l-2 2l54 3c174 9.33301 287 14 339 14h466c159.333 0 291.666 -33 396.999 -99c37.333 -32 67.666 -75 90.999 -129s35 -115 35 -183c0 -131.333 -88 -243 -264 -335
c99.333 -27.333 175.5 -71.166 228.5 -131.499s79.5 -134.166 79.5 -221.499c0 -154.667 -69.333 -272 -208 -352c-102 -60 -231 -90 -387 -90l-298 4c-128.667 0 -299.334 -3 -512.001 -9c-18.667 39.333 -28 195 -28 467s1.66699 499.333 5 682zM731.003 278.998
c172.667 0 259 60.332 259 180.999c0 76.667 -23.333 128 -70 154c-42 22.667 -106.333 35.334 -193 38.001h-29l-18 -56c-4.66699 -68.667 -7 -136.167 -7 -202.5s7 -104.5 21 -114.5h37zM946.003 947.997c13.333 25.333 20 56 20 92c0 70 -25 117 -75 141
s-102.333 36 -157 36s-82 -20 -82 -60c0 -71.333 1.66699 -144.333 5 -219l2 -53c1.33301 -25.333 16 -40.333 44 -45l49 6c101.333 12 166 46 194 102z" />
    <glyph glyph-name="C" unicode="C" horiz-adv-x="1556" 
d="M49 797c16 152 42.6699 266.33 80.0029 342.997c71.333 148 177.666 253 318.999 315c126 55.333 263 83 411 83c248 0 429 -68 543 -204c68.667 -80.667 108.334 -181 119.001 -301l9 -94c-11.333 -10.667 -83 -16 -215 -16l-159 2h-13l-87 2l-24 -1h-20
c-18.667 0 -32.834 27.333 -42.501 82s-24.334 90.834 -44.001 108.501s-42.5 26.5 -68.5 26.5s-48.833 -4.66699 -68.5 -14s-35.834 -20.5 -48.501 -33.5s-23.334 -31.5 -32.001 -55.5c-16 -41.333 -25.667 -85.166 -29 -131.499s-5 -98.166 -5 -155.499v-24l-4 -101
c0 -184 52 -278 156 -282c26.667 0 45.334 4.66699 56.001 14c28.667 25.333 53.667 76.333 75 153c4.66699 16 10.334 29 17.001 39h38l46 -1h162l49 1l95 -1h58l59 -1h40c8 -0.666992 13.667 -7.66699 17 -21l-3 -33c-6 -78.667 -24.333 -150 -55 -214
c-56.667 -117.333 -145.834 -204.5 -267.501 -261.5s-255.167 -85.5 -400.5 -85.5c-254 0 -444.667 75 -572 225s-191 362.333 -191 637z" />
    <glyph glyph-name="D" unicode="D" horiz-adv-x="1648" 
d="M514 1512l187 2.99902c326 0 555 -54 687 -162c28 -20.667 58.667 -55.334 92 -104.001c96.667 -140.667 145 -296 145 -466c0 -303.333 -104.333 -527.666 -313 -672.999c-124.667 -87.333 -268 -131.666 -430 -132.999l-4 -4h-25l-266 3
c-120.667 0 -271.667 -3 -453 -9c-12.667 24 -19 52.333 -19 85l1 36v156l2 222v366c-1.33301 84 -2 146.667 -2 188v164l1 23v286c0 5.33301 36.333 9.83301 109 13.5s130.667 5.5 174 5.5h114zM938 1166c-38 27.333 -79.999 42.6631 -125.999 45.9961
c-16 0.666992 -37.833 1.33398 -65.5 2.00098s-47.834 1.33398 -60.501 2.00098c-12 -18 -20 -31.333 -24 -40l-18 -37v-56c0 -115.333 2.66699 -271.666 8 -468.999l6 -289c4 -20.667 17.333 -33 40 -37c68.667 1.33301 121.667 6 159 14
c131.333 46.667 197 206.334 197 479.001c0 202 -38.667 330.333 -116 385z" />
    <glyph glyph-name="E" unicode="E" horiz-adv-x="1306" 
d="M114 1238l-5.00195 262.998c0.666992 0 3 -1 7 -3c506.667 8.66699 888.334 13.334 1145 14.001c2.66699 -1.33301 4.66699 -3.33301 6 -6v-282c0 -27.333 -0.666992 -49.666 -2 -66.999c-3.33301 -10.667 -23 -16 -59 -16h-7c-161.333 0 -329.333 2.66699 -504 8
c0 -6 -0.833008 -16.667 -2.5 -32s-2.83398 -26.333 -3.50098 -33l-5 -38c-3.33301 -25.333 -5.66602 -69.333 -6.99902 -132l310 7c53.333 1.33301 92 2 116 2h16c40.667 0 67.334 -1.16699 80.001 -3.5s19 -9.16602 19 -20.499l-1 -8v-24l5 -257l-1 -1v1
c-202.667 -10 -364.667 -15 -486 -15h-47v-242l543 17c30 0 49 -4.33301 57 -13c-0.666992 -17.333 -1 -42 -1 -74l7 -272c0 -16.667 -7.33301 -26.334 -22 -29.001l-332 3c-65.333 0 -195.333 -2.33301 -390 -7l-164 -4c-116 -4 -202 -6 -258 -6l-3 2h1l-19 19v35l6 1069z
" />
    <glyph glyph-name="F" unicode="F" horiz-adv-x="1265" 
d="M1270 1463l-1.00098 -93.002c0 -91.333 -1.33301 -172.666 -4 -243.999c-78 -6.66699 -184.667 -10 -320 -10l-231 -1v-29l-2 -88c0 -23.333 1 -46 3 -68c166.667 14 290.167 21 370.5 21s129.5 -6 147.5 -18v-335c0 -22 -4.33301 -36.667 -13 -44s-22 -11 -40 -11h-13
l-54 2c-119.333 -6.66699 -251.666 -11.667 -396.999 -15l7 -398l-1 -34v-94c0 -20 -6 -30.667 -18 -32l-572 -5c-1.33301 4 -6.33301 13 -15 27c-2.66699 44 -4 81.333 -4 112l6 1391c0 8.66699 45.333 13 136 13l25 -1h68l483 5l343 -4h34l15 1
c18.667 0 31.167 -4.16699 37.5 -12.5s9.5 -20.166 9.5 -35.499z" />
    <glyph glyph-name="G" unicode="G" horiz-adv-x="1681" 
d="M1613 58c0 -0.666992 0.332031 -2 0.999023 -4l-3 -8h1v-2c0 -1.33301 -0.333008 -2.33301 -1 -3c-31.333 -24 -107.833 -46 -229.5 -66s-205.334 -30 -251.001 -30s-71.167 0.333008 -76.5 1l-51 -3c-53.333 -3.33301 -84 -5 -92 -5c-280 0 -493.167 70.333 -639.5 211
s-219.5 340.5 -219.5 599.5s78.833 455.5 236.5 589.5s371.167 201 640.5 201c49.333 0 110.166 -4.66699 182.499 -14s135.833 -23 190.5 -41c66.667 -27.333 123.834 -66.833 171.501 -118.5s78.834 -108.834 93.501 -171.501
c2.66699 -17.333 5.83398 -44.5 9.50098 -81.5s6.83398 -64.167 9.50098 -81.5c-4 -10 -18.333 -15 -43 -15l-508 9c-2.66699 1.33301 -6 10.333 -10 27v-3c-12 54 -35.667 87 -71 99c-16 6 -37 9 -63 9s-50.5 -4.33301 -73.5 -13s-42.167 -20.667 -57.5 -36
s-29 -33.166 -41 -53.499s-21 -42.166 -27 -65.499s-11.333 -47.333 -16 -72s-7.5 -49 -8.5 -73s-2 -47 -3 -69s-1.16699 -40.167 -0.5 -54.5s1 -23.833 1 -28.5v-69c0 -43.333 2 -73.5 6 -90.5s8.66699 -35.667 14 -56s11.666 -35.833 18.999 -46.5
c26 -36.667 54.167 -62.167 84.5 -76.5s77.666 -21.5 141.999 -21.5s125.5 9.66699 183.5 29l5 158l-72 6l-10 -5h-104l-12 -1l-25 26c-1.33301 11.333 -2 29.333 -2 54v224c0 11.333 8 22.666 24 33.999h67c58 0 123 -0.666992 195 -2h10c65.333 -1.33301 115 -2 149 -2h60
l23 1c118.667 0 186.334 -7.66699 203.001 -23l-12 -759v-14z" />
    <glyph glyph-name="H" unicode="H" horiz-adv-x="1654" 
d="M1564 342l-1.00098 -119c0 -50 0.666992 -129 2 -237c-9.33301 -12.667 -83.333 -19 -222 -19s-262.667 2 -372 6c-1.33301 1.33301 -7.66602 9.66602 -18.999 24.999v160l2 307c0 30 -3.33301 47.667 -10 53s-27 8 -61 8h-14c-63.333 0 -113.333 -3 -150 -9v-140
l-2 -387c-10 -10.667 -93.667 -16 -251 -16h-48c-136 0 -235 2 -297 6c-12.667 4 -19 51.333 -19 142l6 221l10 896v48c0.666992 10 1 44.833 1 104.5s3.66699 97.5 11 113.5h5c44 -1.33301 76.333 -2 97 -2h112l121 2h38c113.333 0 179.333 -13 198 -39
c9.33301 -13.333 14 -33.666 14 -60.999l-3 -125v-47l-6 -198c0 -14.667 1 -34 3 -58h62l25 -1h80c29.333 0 59.333 2.33301 90 7v237l1 74v69l-1 16v51c0 39.333 1.83301 63.333 5.5 72s13.167 13 28.5 13l20 -1h65l216 6c172 0 258 -13.667 258 -41v-71l1 -24l-1 -52v-155
l5 -638c0 -10.667 -0.666992 -24.667 -2 -42v-48c0 -21.333 0.666992 -49.333 2 -84v-23z" />
    <glyph glyph-name="I" unicode="I" horiz-adv-x="842" 
d="M103 107c0 135.333 3.66797 229.333 11.001 282c0 290 4 582.333 12 877c-2 42 -3 84.333 -3 127v33c-2.66699 20.667 -4 39 -4 55s1.66699 26.333 5 31c142.667 -8.66699 267.667 -13 375 -13s181 2 221 6c1.33301 -2 2.33301 -7.66699 3 -17h-7v-362l7 -814
c0 -6 1 -11 3 -15v-2c2 -4 3 -8.33301 3 -13l8 -291c-3.33301 -7.33301 -9.33301 -13 -18 -17h-34l-560 -9c-6.66699 3.33301 -15.334 8.33301 -26.001 15l1 17z" />
    <glyph glyph-name="J" unicode="J" horiz-adv-x="1383" 
d="M130 497l119.998 -0.998047h35l13 1l169 -3c30 -2 46.667 -20.667 50 -56c1.33301 -14 3 -28 5 -42c4.66699 -33.333 28.834 -50 72.501 -50s71.5 20.667 83.5 62c8.66699 32 13 70 13 114v26h-3l-4 142c-2.66699 92.667 -4 229.667 -4 411s1.33301 312.666 4 393.999
l-1 1c0 5.33301 2 9.33301 6 12l13 2l49 -1h366l73 1h98c5.33301 0 9.33301 -3 12 -9c-1.33301 -14.667 -2 -37 -2 -67v-16l-1 -17l-2 -51c-4.66699 -126.667 -7 -314.667 -7 -564v-110c0 -94 -0.333008 -172.5 -1 -235.5s-16.167 -126 -46.5 -189
s-68.333 -113.333 -114 -151s-98.5 -68.834 -158.5 -93.501c-106 -43.333 -216.667 -65 -332 -65s-211.666 11.667 -288.999 35c-68.667 17.333 -125.5 43.833 -170.5 79.5s-79.833 69.5 -104.5 101.5c-54.667 72 -82 160.667 -82 266v26l-1 12c0 26 4 39 12 39z" />
    <glyph glyph-name="K" unicode="K" horiz-adv-x="1646" 
d="M115 1360l-3 86c0 36.667 3.66699 59.334 11 68.001c18 0.666992 52.167 1 102.5 1s93.833 -0.333008 130.5 -1l141 -2c26 2 63.667 3 113 3s80.666 -6.66699 93.999 -20c-3.33301 -162.667 -5 -356 -5 -580l35 -6c10 26 28.167 65 54.5 117s41.5 82.333 45.5 91l11 24
c2.66699 6 14.834 31.833 36.501 77.5s43.834 97 66.501 154s47 101.833 73 134.5c46.667 0.666992 103.5 1 170.5 1s145.167 -1.16699 234.5 -3.5s156.333 -3.5 201 -3.5c-190 -343.333 -325 -581 -405 -713l23 -37c27.333 -34 87 -131 179 -291s158.667 -273.667 200 -341
l24 -39c29.333 -48.667 44 -76.334 44 -83.001s-2 -12.667 -6 -18h-6c-37.333 1.33301 -67.5 2 -90.5 2s-53.167 -0.666992 -90.5 -2h-449c-102.667 192 -209.334 400.333 -320.001 625c-5.33301 -53.333 -13.333 -179.333 -24 -378v-13l2 -227c-8 -12 -43 -18 -105 -18
l-21 1h-54l-283 -2h-92c-18.667 0 -32 7 -40 21l-3 3v152l2 157v565z" />
    <glyph glyph-name="L" unicode="L" horiz-adv-x="1265" 
d="M1270 384c-4.66699 -18.667 -6.99805 -38.667 -6.99805 -60v-23c0 -35.333 2.33301 -60.666 7 -75.999c0 -100.667 -0.333008 -178.334 -1 -233.001c-4 -17.333 -333 -26 -987 -26c-30 0 -79.667 0.666992 -149 2c-10.667 20 -16 53 -16 99l2 65v227l1 190v188l1 303
c0 56 -0.666992 108.667 -2 158v11l-3 144c0 84.667 7 139.667 21 165c13.333 -0.666992 31.666 -1 54.999 -1h48l168 2c191.333 0 296.666 -12 315.999 -36l-8 -349l-3 -293l-1 -12l-4 -416l40 -23c120.667 7.33301 237.5 11 350.5 11s170.167 -5.66699 171.5 -17z" />
    <glyph glyph-name="M" unicode="M" horiz-adv-x="2193" 
d="M631 860c-8 -188.667 -12.001 -382.667 -12.001 -582v-298h-73l-25 1l-355 -3c-22.667 0 -34.667 -0.333008 -36 -1c0 0.666992 1.33301 6.33398 4 17.001v6l1 4c-3.33301 48 -5 106.333 -5 175l4 1117l-1 52v50l-2 94c0 6.66699 3.66699 13.667 11 21h137l80 1
c188 0 322.5 -2.66699 403.5 -8s139.167 -8 174.5 -8c19.333 -114.667 48 -266.667 86 -456l71 -358h35l128 654c2 10 6.66699 39.167 14 87.5s13 75.166 17 80.499h4l651 6l39 -1h112c6 -2.66699 9.33301 -15 10 -37l10 -378c8 -313.333 13.667 -557.333 17 -732
c0 -134.667 -2 -261 -6 -379c-2 -8 -15.333 -12.667 -40 -14l-45 -2c-36 -1.33301 -62.667 -2 -80 -2h-52c-64.667 -0.666992 -160 -1 -286 -1c-23.333 20.667 -35 110 -35 268l2 314v81c0 71.333 -0.333008 124 -1 158l-38 7c-22 -80.667 -64.333 -260.334 -127 -539.001
l-9 -40c-4.66699 -20.667 -12.5 -57.5 -23.5 -110.5s-19.833 -93.167 -26.5 -120.5c-8 -9.33301 -43.333 -14 -106 -14h-13l-112 3l-61 -1h-47l-79 -1h-28c-30.667 0 -47.667 7 -51 21l1 -1l-91 397c-2.66699 10 -8.66699 31.833 -18 65.5s-14.666 61.834 -15.999 84.501
l-75 324z" />
    <glyph glyph-name="N" unicode="N" horiz-adv-x="1727" 
d="M1627 700l-1.00098 -66.998v-370l2 -176v-50l1 -47c-4 -5.33301 -20.333 -8 -49 -8h-26l-314 -4c-133.333 0 -232.666 0.333008 -297.999 1c-10 10.667 -46.333 107.667 -109 291l-191 507l-36 -5l-1 -102v-271l4 -271v-112c0 -30 -6.66699 -45.667 -20 -47
c-66 2 -129 3 -189 3h-31l-151 -4h-20l-72 -2l-3 2c-22 20.667 -33 35.667 -33 45v18l1 20l5 390c0 428 4 751.667 12 971l2 83c0 6 229.667 11.333 689 16c4 -2.66699 10 -17.334 18 -44.001v3l6 -20c49.333 -141.333 109.333 -303.5 180 -486.5s106.667 -276.5 108 -280.5
l34 2l4 815c0 5.33301 48.667 8 146 8l251 -5h74c4.66699 -220.667 7 -488.334 7 -803.001z" />
    <glyph glyph-name="O" unicode="O" 
d="M610 760c0 -0.666992 -0.332031 -2.33008 -0.999023 -4.99707v-3c-2.66699 -28 -4 -59.333 -4 -94s2.83301 -71.334 8.5 -110.001s15 -77.334 28 -116.001s33.167 -70 60.5 -94c29.333 -25.333 62.166 -38 98.499 -38s67 5.16699 92 15.5s46 23.5 63 39.5
s31.833 37.667 44.5 65c32 72.667 48 185.334 48 338.001c0 155.333 -17.833 264.166 -53.5 326.499s-89.5 93.5 -161.5 93.5c-36 0 -67.5 -8.66699 -94.5 -26s-47.333 -35.333 -61 -54s-27.667 -58.334 -42 -119.001s-21.5 -116.667 -21.5 -168zM35.001 752.004
l1.99707 22.001c8 83.333 18.667 157.166 32 221.499s35 124.5 65 180.5c71.333 123.333 170.833 216.833 298.5 280.5s265.334 95.5 413.001 95.5s281.834 -29.667 402.501 -89c72 -35.333 128.333 -80 169 -134c78 -97.333 129.333 -187 154 -269s37 -176.667 37 -284
c0 -238.667 -49.333 -420.667 -148 -546l-46 -61c-62 -72 -149.667 -127.5 -263 -166.5s-225.666 -59.167 -336.999 -60.5c-190.667 0 -347 40 -469 120c-206.667 134 -310 364 -310 690z" />
    <glyph glyph-name="P" unicode="P" horiz-adv-x="1527" 
d="M117 661l2.00098 411v417c1.33301 0.666992 7.66602 1 18.999 1h37c14 0 24.667 0.666992 32 2l124 5c32 1.33301 56.667 2 74 2h159l294 7c40 0 84 -1.66699 132 -5h7c22.667 1.33301 37 2 43 2c133.333 0 247.333 -42.333 342 -127c46 -40.667 82.333 -93 109 -157
s40 -130.167 40 -198.5s-7 -126.5 -21 -174.5s-32 -88.667 -54 -122c-88 -134.667 -258.333 -213.334 -511 -236.001l-216 -9c-6.66699 -160 -10 -284.333 -10 -373l1 -31v-81c-2.66699 -9.33301 -7.66699 -15.666 -15 -18.999l-571 -9c-11.333 32 -17 83.333 -17 154v541z
M992.001 1090c-26.667 70 -97.333 107.334 -212 112.001c-16.667 0.666992 -39.667 1 -69 1c-8 0 -13 -98.333 -15 -295l-2 -75l3 -60c82 1.33301 154.167 18.666 216.5 51.999s93.5 94 93.5 182c0 37.333 -5 65 -15 83z" />
    <glyph glyph-name="Q" unicode="Q" horiz-adv-x="1642" 
d="M1529 366l65.002 1.99805c45.333 -2 68 -16.667 68 -44l-1 -11v-10c-0.666992 -4.66699 -1 -12.667 -1 -24v-37l1 -13l1 -97l-1 -26v-49l-1 -35l1 -17v-28c-2.66699 -9.33301 -10.334 -17 -23.001 -23c-85.333 10.667 -171 16 -257 16s-189.333 -6.66699 -310 -20
s-210.334 -20 -269.001 -20c-140.667 0 -259.5 27.5 -356.5 82.5s-179.167 134.5 -246.5 238.5c-8.66699 0 -13 -0.666992 -13 -2l-14 14c-82 128 -123 289.333 -123 484c0 113.333 15.333 216 46 308c56 168 159 295 309 381c133.333 77.333 288.333 116 465 116
c116 0 221.5 -19.667 316.5 -59s173.833 -93.666 236.5 -162.999c130 -144 195 -325 195 -543c0 -69.333 -12.667 -141.666 -38 -216.999s-60.333 -143.333 -105 -204h55zM816.002 287.998l12.001 1.00195h18l20 -2c42 0 75.667 15 101 45s41.333 59.333 48 88
c18 70.667 28.333 152 31 244v18l3 130c0 118 -12 204.667 -36 260s-56.333 92 -97 110c-24 11.333 -55.5 17 -94.5 17s-74.5 -15.167 -106.5 -45.5s-58.333 -80.833 -79 -151.5s-31 -160.334 -31 -269.001s4.33301 -182.334 13 -221.001
c17.333 -80 41.166 -137.333 71.499 -172s72.5 -52 126.5 -52z" />
    <glyph glyph-name="R" unicode="R" horiz-adv-x="1561" 
d="M559 1504l321.001 3.00098c68 0 129.667 -1.33301 185 -4c148.667 -4 261.834 -39 339.501 -105s116.5 -159 116.5 -279c0 -83.333 -24.333 -154.5 -73 -213.5s-119.667 -110.833 -213 -155.5c148 -46.667 237.667 -160 269 -340
c7.33301 -39.333 13.166 -84.333 17.499 -135s7.83301 -84.667 10.5 -102l10 -51c10.667 -60 20 -103.333 28 -130l-4 -3c-113.333 -7.33301 -216.833 -11 -310.5 -11s-176.5 1.66699 -248.5 5h-6c-20.667 0 -42.667 98.333 -66 295l-5 43
c-2.66699 73.333 -15.5 122.666 -38.5 147.999s-62.833 38 -119.5 38l-13 -1h-53v-304l1 -32v-183c-2 -6.66699 -7 -10.667 -15 -12c-73.333 -2.66699 -176.833 -4 -310.5 -4s-221.834 -0.333008 -264.501 -1l-6 2l-2 -1c-1.33301 0 -3.33301 1 -6 3l2 90l-1 30l4 415v73
l1 75l1 259l1 34l-3 227l4 319c0 5.33301 19 8 57 8l64 -1h61l127 -1zM1576 -4.99902l-5 -3v2c0 0.666992 1.66699 1 5 1zM1571 -7.99902v-1c-0.666992 0 -1 0.333008 -1 1h1zM929.001 1178c-40 17.333 -93.333 26.002 -160 26.002h-58
c-7.33301 -10.667 -11 -66.834 -11 -168.501s1.66699 -169.834 5 -204.501c208.667 4.66699 313 76.667 313 216c0 59.333 -29.667 103 -89 131z" />
    <glyph glyph-name="S" unicode="S" horiz-adv-x="1484" 
d="M62 413l528.997 8.99805c13.333 0 24.5 -11.333 33.5 -34s17.833 -40.667 26.5 -54c20.667 -32 54.834 -48 102.501 -48s86.167 11.167 115.5 33.5s44 51.166 44 86.499s-9 59.5 -27 72.5s-37.667 25.667 -59 38s-52.833 21.833 -94.5 28.5s-64.5 10.667 -68.5 12h2
l-57 15c-36.667 6.66699 -67.334 14 -92.001 22c-159.333 42.667 -274.5 96.334 -345.5 161.001s-106.5 151.667 -106.5 261c0 79.333 14.667 150.666 44 213.999s67.666 115 114.999 155c136.667 115.333 325.334 173 566.001 173c191.333 0 341.666 -34.667 450.999 -104
h-1c70 -50.667 118 -100.5 144 -149.5s42.333 -109.5 49 -181.5l-26 -26c-175.333 -6.66699 -330.666 -10 -465.999 -10c-40.667 0 -65 12 -73 36c-3.33301 10 -7 20 -11 30c-9.33301 24 -39.333 36 -90 36h-4c-39.333 0 -73 -9.16699 -101 -27.5
s-42.167 -36.166 -42.5 -53.499s3.33398 -31.666 11.001 -42.999s15.834 -20.333 24.501 -27s22 -13.5 40 -20.5s31.5 -11.667 40.5 -14s23.167 -6.16602 42.5 -11.499l35 -9c14 -4 54.833 -14 122.5 -30s124.167 -31.333 169.5 -46v1
c142 -48 238.833 -107.833 290.5 -179.5s77.5 -155.167 77.5 -250.5c0 -254 -151.667 -418.667 -455 -494c-88 -22 -182 -37.667 -282 -47c-122.667 0 -244 18 -364 54s-200.333 94.667 -241 176c-27.333 39.333 -45.666 75.5 -54.999 108.5s-17 79.167 -23 138.5
c2 -0.666992 5 -1 9 -1z" />
    <glyph glyph-name="T" unicode="T" horiz-adv-x="1318" 
d="M1337 1135c0 -22 -2.33301 -33.001 -7 -33.001l-362 3c-1.33301 -64.667 -2 -165.667 -2 -303s0.333008 -232.666 1 -285.999l4 -530c-3.33301 -9.33301 -10 -14.333 -20 -15l-211 3l-1 -1l-66 1h-183c-49.333 0 -86.333 -0.333008 -111 -1l-17 15
c-0.666992 0.666992 -5 6 -13 16c0 58.667 2.33301 189 7 391l11 532l-2 25c-4.66699 66 -9.16699 105.167 -13.5 117.5s-12.833 19 -25.5 20s-22 1.5 -28 1.5l-40 -2l-248 4c-8.66699 17.333 -13 56.333 -13 117l2 88v27c-0.666992 106.667 -1.66699 163.667 -3 171
c1.33301 0 4 -0.666992 8 -2l1273 11c26 0 42.333 -1.83301 49 -5.5s10 -10.5 10 -20.5v-264z" />
    <glyph glyph-name="U" unicode="U" horiz-adv-x="1615" 
d="M1546 775l-3.00098 -280.999c0 -86 -13.833 -162 -41.5 -228s-64.167 -119.333 -109.5 -160c-123.333 -112 -305.666 -168 -546.999 -168s-429 58.667 -563 176c-47.333 40.667 -87.166 93.5 -119.499 158.5s-51.833 138.5 -58.5 220.5
c3.33301 278.667 5 536.334 5 773.001c-3.33301 0 -5 35 -5 105s3 113.333 9 130h21c98 5.33301 231.667 8 401 8c12 -2.66699 33.833 -4.33398 65.5 -5.00098s53.5 -1.66699 65.5 -3l31 -4c4.66699 -132 7.66699 -313.667 9 -545l-6 -402c0 -133.333 38.667 -200 116 -200
c32.667 0 60.167 14.333 82.5 43s34.166 61 35.499 97l4 10l3 337l1 30c0 154.667 -2 304 -6 448l-2 73c-1.33301 29.333 -2 55.666 -2 78.999s3.66699 39.333 11 48c257.333 0 451.333 -1 582 -3c4.66699 -4.66699 10.667 -9 18 -13h-1l11 -7
c-5.33301 -126 -8 -288 -8 -486v-172z" />
    <glyph glyph-name="V" unicode="V" horiz-adv-x="1555" 
d="M1068 -25l-126.001 3.00098h-75c-21.333 -2.66699 -67.5 -4 -138.5 -4s-176.5 -1.66699 -316.5 -5c-26 23.333 -50.333 90.833 -73 202.5s-51.5 226.334 -86.5 344.001s-56.833 191.834 -65.5 222.501l-30 106c-8.66699 30.667 -23.667 83 -45 157
c-67.333 228.667 -111.666 395 -132.999 499c0 5.33301 195.333 8 586 8c12 0 21.333 -4.33301 28 -13c52.667 -312.667 112 -653.334 178 -1022l8 -53h40l9 52c20.667 130 60 339.667 118 629l24 113c8 38 26.333 132.667 55 284c30.667 8 200.334 12 509.001 12h45
c8 -4.66699 13 -9 15 -13l-201 -727c-14.667 -52.667 -23.334 -86.334 -26.001 -101.001l-47 -184c-75.333 -320.667 -129.333 -491.334 -162 -512.001c-18 0 -46.333 0.666992 -85 2h-5z" />
    <glyph glyph-name="W" unicode="W" horiz-adv-x="2130" 
d="M815 1506l173.995 1.00195h389c2.66699 0 4.66699 -0.666992 6 -2l36 -234c9.33301 -68 24.5 -170.5 45.5 -307.5s34.167 -223.5 39.5 -259.5l8 -54h38c17.333 192.667 50 446.334 98 761.001l4 23c0.666992 5.33301 1 12.666 1 21.999
c0.666992 16 3.83398 29.167 9.50098 39.5s23.167 15.5 52.5 15.5c214 0 370.333 -6 469 -18c2.66699 -2.66699 5.33398 -10.334 8.00098 -23.001c-16 -74.667 -42.333 -191 -79 -349s-64 -278.333 -82 -361l-8 -37c-1.33301 -4 -5.5 -16 -12.5 -36s-10.167 -34 -9.5 -42
l-70 -317l-32 -157c-18 -88.667 -30.333 -152.334 -37 -191.001l-5 2c-46.667 -2.66699 -117.667 -4 -213 -4h-156l-54 1c-75.333 0 -144 -1.33301 -206 -4c-6 0 -15.667 52.667 -29 158s-20.666 161.666 -21.999 168.999l-9 50c-21.333 140 -42.666 287.667 -63.999 443
l-37 1c-38 -196 -71.667 -434 -101 -714c-7.33301 -73.333 -21.666 -111.666 -42.999 -114.999c-95.333 3.33301 -187.666 5 -276.999 5s-204 -2.33301 -344 -7c-19.333 15.333 -34 55.666 -44 120.999l-6 39c-25.333 134.667 -78 382.667 -158 744l-21 97
c-8 38.667 -24.667 115.167 -50 229.5s-47 215.833 -65 304.5c0.666992 5.33301 5.33398 10 14.001 14c15.333 -2 31.666 -3 48.999 -3h12l95 3l138 3c45.333 0 80.333 -1 105 -3h63c6 0 17 -0.666992 33 -2h14c21.333 0 51.333 -166.667 90 -500
c17.333 -150.667 27.666 -238.667 30.999 -264l7 -57l39 -1c24.667 154.667 52 335.334 82 542.001c0 24 5.33301 71.667 16 143s21.667 115.333 33 132c7.33301 -0.666992 19 -1 35 -1z" />
    <glyph glyph-name="X" unicode="X" horiz-adv-x="1600" 
d="M1632 1488l-1.00195 -7.99609l-236 -378c-1.33301 -2.66699 -20 -32.334 -56 -89.001l-172 -273l22 -40l31 -43l86 -131l24 -42c5.33301 -9.33301 14.333 -23.333 27 -42s19.667 -29 21 -31v1l180 -278v1l90 -143c2 -2 3 -4.33301 3 -7c0 -9.33301 -16.667 -15 -50 -17
l-513 -4c-40 0 -67.667 4.66699 -83 14c-4.66699 12 -12.667 29 -24 51s-18.666 36.667 -21.999 44l-161 337c-39.333 -74.667 -65.666 -127.334 -78.999 -158.001c-72.667 -158 -124.667 -252 -156 -282c-101.333 2.66699 -212.333 4 -333 4l-65 -1h-187
c-3.33301 2 -5 4 -5 6c0 19.333 32 76.333 96 171c4.66699 4.66699 8 9.66699 10 15l376 589l-92 151c-72.667 129.333 -143.667 251.666 -213 366.999l-139 230c-0.666992 1.33301 -1 2.66602 -1 3.99902h159c130 0 234 -2.66699 312 -8c61.333 0 108.333 0.333008 141 1
c25.333 -24.667 77.666 -133 156.999 -325l15 -40l34 -67l31 70c20 48 50.667 116.667 92 206s68 141 80 155l5 -3l114 4c222.667 8 380.334 12 473.001 12c6 -3.33301 9 -11 9 -23zM1650 -7.99609h-2v3zM1647 -1.99609l1 -3c-0.666992 0.666992 -1 1.66699 -1 3z" />
    <glyph glyph-name="Y" unicode="Y" horiz-adv-x="1524" 
d="M1530 1507l32.998 1.00195c6.66699 -3.33301 11.667 -11.666 15 -24.999l-30 -59v1l-65 -125c-98 -181.333 -161.333 -302.333 -190 -363l-34 -65c-36.667 -70.667 -99 -195.334 -187 -374.001c-1.33301 -22.667 -2 -56.667 -2 -102v-413
c-3.33301 -10.667 -10 -16 -20 -16l-573 -4c-14.667 18.667 -22 40 -22 64l2 125v29l1 30l1 73c0 139.333 -35.667 288.666 -107 447.999c-15.333 33.333 -37.666 80.333 -66.999 141l-149 298c-4 7.33301 -14.667 27.666 -32 60.999s-36.333 69.333 -57 108v-1
c-53.333 81.333 -80 135.333 -80 162c0 3.33301 10.667 5 32 5h257c142 0 249 -1 321 -3c21.333 -4 77 -164.333 167 -481l45 -159c68 181.333 139.667 394 215 638c0.666992 5.33301 50 8 148 8h128c30.667 0 56.334 -0.666992 77.001 -2h173z" />
    <glyph glyph-name="Z" unicode="Z" horiz-adv-x="1395" 
d="M1351 1379l-3.00195 -200v-13c-10 -66.667 -83 -174 -219 -322l-77 -84c-86 -101.333 -155.667 -184.666 -209 -249.999l-114 -139h53l580 8c10 0 15 -59.333 15 -178v-112l2 -65c0 -21.333 -4.16699 -34.833 -12.5 -40.5s-23.166 -8.5 -44.499 -8.5h-26l-1199 -10
c-18.667 0 -32.667 2 -42 6s-19 13.333 -29 28c0 182 -2.33301 295.333 -7 340l16 13l141 171c206.667 258.667 367 456.334 481 593.001l-295 -3l-74 -2c-72.667 -2 -145.667 -3 -219 -3c-7.33301 4 -10.5 14 -9.5 30s0.833008 28.667 -0.5 38v19l1 8v59l-9 229l1 6
c1.33301 0 4.33301 -1.33301 9 -4h196.5c113.667 0 384.5 3.33301 812.5 10l217 3c22.667 -0.666992 39.334 -4.83398 50.001 -12.501s16 -23.834 16 -48.501l-2 -56v-10z" />
    <glyph glyph-name="bracketleft" unicode="[" horiz-adv-x="1035" 
d="M380 1529l496 8.00195c45.333 0 75.333 -10.167 90 -30.5s22 -45.5 22 -75.5c0 -144 -1 -223 -3 -237c-38.667 -1.33301 -79.667 -2 -123 -2s-115 4 -215 12c-4 -278.667 -6 -516.667 -6 -714s1.66699 -351.666 5 -462.999l290 4h37
c12.667 -12.667 19 -60.334 19 -143.001l-2 -100v-25l2 -29c0 -40.667 -7.66699 -62 -23 -64l-759 -9l-13 14c-16.667 17.333 -25 43.666 -25 78.999l2 57v77l1 27v134c0 655.333 7.66699 1146.67 23 1474c0 5.33301 10 8 30 8l114 -2h38zM985 1193l2.00098 1
c-0.666992 -0.666992 -1.33398 -1 -2.00098 -1z" />
    <glyph glyph-name="backslash" unicode="\" horiz-adv-x="809" 
d="M268 1564c-0.666992 -3.33301 -1.00293 -9.16699 -1.00293 -17.5s91 -252.833 273 -733.5l58 -157c28.667 -78 71.834 -194.667 129.501 -350s100.834 -272 129.501 -350c0 -4.66699 0.666992 -8.66699 2 -12c0 -10.667 -7 -16 -21 -16h-40l-22 -1h-117l-31 1h-28
c-43.333 0 -69.666 -0.666992 -78.999 -2l-99 296c-190 577.333 -339.333 1025 -448 1343l6 4c70 -4 127.167 -6 171.5 -6s82.5 0.666992 114.5 2z" />
    <glyph glyph-name="bracketright" unicode="]" horiz-adv-x="1036" 
d="M866 452l-10.001 -665.997v-79c0 -14 -3.66699 -25 -11 -33c-45.333 -2.66699 -94.333 -4 -147 -4h-33l-303 3c-168.667 2 -260.334 3 -275.001 3c-5.33301 1.33301 -8.66602 8.66602 -9.99902 21.999v3c-3.33301 93.333 -5 166.666 -5 219.999s1.83301 83.5 5.5 90.5
s10.834 10.5 21.501 10.5h32c132 0 227 1 285 3v115c0 232.667 -4.66699 577 -14 1033h-150l-166 -3c-12 12 -19.333 20.333 -22 25v199l1 53v32l-1 13c0 27.333 4 45.666 12 54.999h82l190 -2l142 1h70l73 1l247 -10v-71l-1 -49v-175c0 -102 -3 -306.667 -9 -614z
M879.999 1537v10l10 -10h-10z" />
    <glyph glyph-name="asciicircum" unicode="^" horiz-adv-x="1275" 
d="M1007 756l-103.001 3.00293h-22c-10 0 -22.667 16.167 -38 48.5s-26.666 56.5 -33.999 72.5s-12.666 27 -15.999 33l-40 82c-36.667 81.333 -72.334 155.666 -107.001 222.999l-208 -437c-4.66699 -4.66699 -8 -7.66699 -10 -9h-20l-212 -2l-27 1
c-7.33301 0 -12.333 -0.666992 -15 -2c37.333 84 88 190 152 318l77 161c15.333 31.333 38.333 79.166 69 143.499s53.667 112.166 69 143.499l2 2c54 -0.666992 108.5 -1 163.5 -1s84.5 0.333008 88.5 1c0.666992 -0.666992 2 -7 4 -19
c41.333 -82 104.333 -204.833 189 -368.5s147.667 -286.167 189 -367.5c-8 -17.333 -58.333 -26 -151 -26zM153.999 768.003l-3 -7h-6l-8 8zM136.999 768.003h-4l1 3zM153.999 767.003c0 -3.33301 -1 -5.33301 -3 -6zM154.999 769.003l-1 -1c0 0.666992 0.333008 1 1 1z" />
    <glyph glyph-name="underscore" unicode="_" horiz-adv-x="1050" 
d="M326 -168l374 2.00098c149.333 0 244.333 -1 285 -3s66 -6.33301 76 -13s15 -23.334 15 -50.001l-1 -30c0 -11.333 -5 -17 -15 -17h-12l-68 1h-42l-44 1c-280.667 0 -574 -8.33301 -880 -25l-23 30v3c-4 20 -6 41.833 -6 65.5s5 35.5 15 35.5h326zM1091 -285.999l-18 9
l1 2z" />
    <glyph glyph-name="grave" unicode="`" horiz-adv-x="633" 
d="M214 1430l-9.00098 -3.99902c-1.33301 1.33301 -13.333 16 -36 44v-1l-31 38c-59.333 71.333 -116.666 134.833 -171.999 190.5s-83 91.834 -83 108.501c0 3.33301 3 7.66602 9 12.999c136.667 -12 283.334 -18 440.001 -18h30l6 1
c14.667 -10.667 49.167 -61.834 103.5 -153.501s88.166 -147 101.499 -166s20 -32.5 20 -40.5s-20.333 -12 -61 -12h-318z" />
    <glyph glyph-name="a" unicode="a" horiz-adv-x="1575" 
d="M564 664l9.99512 -1.00391h24c22.667 0 40.334 1.66699 53.001 5l54 7c92 6.66699 147.333 31.334 166 74.001c9.33301 21.333 14 48.333 14 81c-4 6.66699 -6 19.334 -6 38.001s-9.5 38.334 -28.5 59.001s-41.5 31 -67.5 31h-5c-64 0 -96 -54.333 -96 -163
c-3.33301 -5.33301 -8.83301 -7.33301 -16.5 -6s-26.167 2 -55.5 2h-516c3.33301 46 15.333 95.667 36 149c39.333 102.667 115.5 176.5 228.5 221.5s225.167 69.5 336.5 73.5l60 3l32 3c4 0 8 -1 12 -3h13l45 2c9.33301 0 30.333 -2.33301 63 -7l29 -4
c4.66699 -0.666992 12 -1 22 -1s31 -2.16699 63 -6.5s72 -15.833 120 -34.5c162.667 -64 261.334 -186.667 296.001 -368c14.667 -76.667 22 -161.667 22 -255c4.66699 -15.333 7 -29.333 7 -42l-5 -69v-116c0.666992 -1.33301 1 -7 1 -17l-2 -68v-9c2 -3.33301 3 -8 3 -14
l-1 -9v-21c0 -63.333 9.66699 -123.333 29 -180l10 -22h-452l-36 1c-26.667 0 -47 -0.333008 -61 -1c-21.333 40 -41.666 94.667 -60.999 164c-8.66699 -18 -23.5 -38.5 -44.5 -61.5s-36.5 -34.5 -46.5 -34.5c-98.667 -48 -173.667 -75.333 -225 -82
c-76 -12.667 -116.833 -19 -122.5 -19h-8.5c-159.333 0 -279.666 55.333 -360.999 166c-40.667 56.667 -61 122.334 -61 197.001c0 162 75.333 261.333 226 298c38.667 9.33301 113.334 19 224.001 29l33 3zM891.995 431.996l1.00098 32.001c0 33.333 -2.66699 65.333 -8 96
c-14.667 -8 -36 -17 -64 -27s-50.333 -18.5 -67 -25.5s-31.834 -19.333 -45.501 -37s-20.5 -41.834 -20.5 -72.501s9.83301 -58.667 29.5 -84s41.167 -38 64.5 -38c50 0 85.667 18 107 54l2 10l1 62v30z" />
    <glyph glyph-name="b" unicode="b" horiz-adv-x="1524" 
d="M1476 677l1.99902 -17.999v-6l-1 -51c-3.33301 -316 -105 -516 -305 -600c-61.333 -25.333 -132 -38 -212 -38c-109.333 0 -216 49 -320 147l-46 -32l-43 -84h-512l-1 780v780c136.667 1.33301 336.334 2 599.001 2c1.33301 -62.667 2 -138.167 2 -226.5
s-0.666992 -171.833 -2 -250.5c58.667 50 121 89 187 117s128.667 42 188 42c114 0 209.667 -38.667 287 -116c15.333 -12.667 27 -25.334 35 -38.001s14 -20.667 18 -24v1l10 -8c40.667 -54 73 -124.667 97 -212c12 -51.333 18 -90 18 -116s-0.333008 -42.333 -1 -49z
M857.999 559.001c0 64 -6.33301 122.331 -19 174.998c-24 98.667 -60.667 148 -110 148c-40 0 -71 -31.333 -93 -94s-33 -150.667 -33 -264c0 -77.333 19.667 -144.666 59 -201.999c21.333 -30 43.833 -45 67.5 -45s44.167 8.83301 61.5 26.5s32.833 47 46.5 88
s20.5 74.333 20.5 100s-0.333008 39.5 -1 41.5v2c0.666992 2.66699 1 6.33398 1 11.001v13z" />
    <glyph glyph-name="c" unicode="c" horiz-adv-x="1520" 
d="M786 -31l-80 -5c-40.667 0 -80.667 4.66699 -120 14c-26.667 0 -62.667 7 -108 21c-152 36 -265.333 98.333 -340 187l-18 21c-58 74.667 -95.667 175 -113 301l-3 21c-2.66699 21.333 -4 46.833 -4 76.5s5.66699 69.834 17 120.501
c42 187.333 130.333 316.666 265 387.999l135 72c100 36 224.667 54 374 54c56.667 0 109 -7.33301 157 -22l20 -6c-0.666992 0 -1 0.333008 -1 1h2c226 -60 376.333 -159.333 451 -298l2 -7c33.333 -67.333 55.666 -142.666 66.999 -225.999l-23 8h-626l-5 37
c-10.667 76.667 -28.667 127.667 -54 153l-20 12c-58.667 -4 -91.667 -84 -99 -240c-0.666992 -21.333 -1.66699 -34 -3 -38l1 -32l3 -58c0 -4.66699 0.333008 -9.66699 1 -15l10 -10h-11c3.33301 -50 13.833 -88.333 31.5 -115s35.5 -40 53.5 -40c34 0 57.333 20.667 70 62
s19 79 19 113c51.333 2.66699 128.666 4 231.999 4h38l96 -1h96l193 -1c-20.667 -214 -121.667 -365.333 -303 -454c-13.333 -4.66699 -31.666 -12.334 -54.999 -23.001l-38 -18c-106 -40.667 -203 -61 -291 -61c-9.33301 0 -15.666 1.33301 -18.999 4z" />
    <glyph glyph-name="d" unicode="d" horiz-adv-x="1528" 
d="M871 1188l3.00293 100.999v265h298l300 1l1 -1561h-510c-14 22.667 -24.333 43.667 -31 63l-40 70c-64 -56.667 -124.167 -98 -180.5 -124s-125.5 -39 -207.5 -39c-132.667 0 -244.334 52.667 -335.001 158s-136 240.333 -136 405c0 108.667 12.333 211.334 37 308.001
c26.667 93.333 69.667 180.5 129 261.5s136.666 126.833 231.999 137.5l15 -1l85 6c81.333 0 173.666 -35.667 276.999 -107l21 -13l-1 1c15.333 -10 25 -17.333 29 -22l31 14c-11.333 34 -17 57.333 -17 70v6zM657.003 572.999l-1 -35v-28c0 -36.667 7 -74.334 21 -113.001
l-1 1c4.66699 -20 18 -45.5 40 -76.5s44.333 -46.5 67 -46.5c8.66699 0 15.667 1.66699 21 5c69.333 30 104 123.333 104 280c0 108.667 -18 195.334 -54 260.001c-22 40 -46.167 60 -72.5 60s-49.5 -20 -69.5 -60c-36.667 -72.667 -55 -155 -55 -247z" />
    <glyph glyph-name="e" unicode="e" horiz-adv-x="1475" 
d="M553 1226c30 8.66699 62.0039 13.0029 96.0039 13.0029s66.333 -1.33301 97 -4l42 -4c66 -6 116.667 -13.667 152 -23v1l21 -9c140 -43.333 249 -109.333 327 -198v1c18 -21.333 40.167 -53.5 66.5 -96.5s39.5 -72.833 39.5 -89.5l8 -27l5 -29
c12.667 -44.667 19 -82 19 -112s0.333008 -53 1 -69h-824v-33c4 -15.333 6 -31.333 6 -48s0.166992 -29.834 0.5 -39.501s1.16602 -19 2.49902 -28s2.16602 -16.333 2.49902 -22s1.83301 -12.334 4.5 -20.001s4.16699 -12.834 4.5 -15.501s2.33301 -8 6 -16
s6.66699 -15.5 9 -22.5s6.83301 -13.833 13.5 -20.5v1l11 -21c12.667 -14 30 -24 52 -30c36.667 8 61.5 27 74.5 57s23.833 67.333 32.5 112c24 6.66699 58 10 102 10l128 -3h369c-8 -81.333 -32 -156 -72 -224h1c-34.667 -54.667 -88.667 -101.667 -162 -141
c-207.333 -72.667 -340.333 -109 -399 -109c-10.667 0 -19.334 0.666992 -26.001 2h-23l-9 -1h-9c-5.33301 0 -12 0.666992 -20 2c-6.66699 -4 -14.667 -6 -24 -6l-87 10c-4.66699 -2 -14.167 -3 -28.5 -3s-51.833 9 -112.5 27v-1l-24 7l-24 8
c-100 29.333 -185.667 80.833 -257 154.5s-117 159.5 -137 257.5c-2 12 -5.66699 30.167 -11 54.5s-8 40.833 -8 49.5v48c0 11.333 0.333008 20 1 26v15c0 141.333 42 263.5 126 366.5s196.667 175.5 338 217.5l24 7c35.333 6 60.666 12.333 75.999 19zM852.004 712.003
l20.998 12.999c-11.333 72 -22 118.167 -32 138.5s-19.667 37.833 -29 52.5c-17.333 28 -40.166 42 -68.499 42s-52.5 -14 -72.5 -42c-35.333 -49.333 -57.666 -118.666 -66.999 -207.999c42.667 2.66699 82 4 118 4h130z" />
    <glyph glyph-name="f" unicode="f" horiz-adv-x="893" 
d="M164 1173l-2 80c0 32 11.167 78.333 33.5 139s52.5 107.667 90.5 141c35.333 25.333 105.833 38 211.5 38s217.167 -1 334.5 -3v-213h-34c-24 0 -41.333 0.333008 -52 1c-52.667 -19.333 -79 -74.666 -79 -165.999c1.33301 -4 2 -6.83301 2 -8.5
s-0.333008 -3.83398 -1 -6.50098v-28c21.333 -4 46 -6 74 -6h45c17.333 0 31 -0.333008 41 -1v-307h-163v-834l-209 -1c-62 0 -160.333 0.666992 -295 2v834h-114l-1 151v150h118v38z" />
    <glyph glyph-name="g" unicode="g" horiz-adv-x="1599" 
d="M932 126l4.00293 57.999c0 10 -3 37 -9 81c-8.66699 -15.333 -20.5 -30.666 -35.5 -45.999s-27.5 -24.333 -37.5 -27c-72.667 -32 -160.834 -48 -264.501 -48s-196.667 21.167 -279 63.5s-148.333 103.5 -198 183.5s-74.5 165.333 -74.5 256s13.5 171.167 40.5 241.5
s64.667 131.5 113 183.5s108.166 93 179.499 123s149.333 45 234 45c135.333 0 248.333 -37.667 339 -113c16.667 -18 34 -33 52 -45l14 44v70h259l260 1l1 -933c0 -11.333 -0.666992 -29 -2 -53v-4c-0.666992 -12.667 -1 -32.667 -1 -60v-11l2 -53l-6 -56
c0 -3.33301 0.166992 -5.33301 0.5 -6s-2.5 -15.667 -8.5 -45s-13.333 -55.333 -22 -78c-27.333 -73.333 -81.666 -140.166 -162.999 -200.499s-152 -94.833 -212 -103.5c-6.66699 -6.66699 -19.667 -11.834 -39 -15.501s-31 -6.16699 -35 -7.5v1
c-64.667 -21.333 -126.5 -32 -185.5 -32s-89.5 0.666992 -91.5 2h-30c-6 -2 -21.833 -3 -47.5 -3s-72.5 7.66699 -140.5 23l-32 7c-48.667 10 -93 24.333 -133 43c-94.667 38 -169 88.667 -223 152s-90.667 151 -110 263l-2 9c21.333 -1.33301 52.666 -2 93.999 -2l164 3
h443l-1 -4c0 -34.667 7.5 -66.167 22.5 -94.5s34.833 -42.5 59.5 -42.5c43.333 0 72.666 24.667 87.999 74c12 38.667 18 79.667 18 123v20c-2 0 -3 -1.33301 -3 -4c-1.33301 2 -2 7.66699 -2 17zM960.003 669.999l1 12c-6 193.333 -48.667 290 -128 290
c-22.667 0 -42.667 -8.33301 -60 -25c-28 -26.667 -47.167 -66.667 -57.5 -120s-15.5 -99.666 -15.5 -138.999l3 -35v-9l-1 -7v-6c0 -54.667 13 -107.834 39 -159.501s59 -77.5 99 -77.5c44 0 80.667 54.667 110 164h-5c10 26 15 52.667 15 80v32z" />
    <glyph glyph-name="h" unicode="h" horiz-adv-x="1438" 
d="M1373 665l1.00098 -311.001v-183l1 -172h-568l-1 512l3 111c0 60.667 -8.83301 105.834 -26.5 135.501s-39.5 44.5 -65.5 44.5c-49.333 0 -80 -24.667 -92 -74c-8.66699 -34.667 -13 -80 -13 -136v-128l1 -42v-422l-287 -1h-285l-1 784v785c134 1.33301 327 2 579 2
l1 -504c46.667 52.667 103.5 94.667 170.5 126s128.167 47 183.5 47s109.666 -13.333 162.999 -40s97.333 -62 132 -106c29.333 -46 54.333 -101.5 75 -166.5s31 -119.167 31 -162.5z" />
    <glyph glyph-name="i" unicode="i" horiz-adv-x="764" 
d="M680 1578l1 -274h-616c0 64 -0.666992 109.667 -2 137l-1 135zM52 1576l10 10v-10h-10zM684 317l1 -9.00098l1 -150c0 -27.333 -1.33301 -60 -4 -98s-5 -57.667 -7 -59l-18 -2h-364l-42 -4c-104 0 -167.333 1.33301 -190 4v7l-1 19v45c0 131.333 2 240.333 6 327l11 770
v30l78 1l17 -1h29l25 -1l13 1h72l15 1l341 -4c2.66699 0.666992 4.66699 1 6 1s2 -2 2 -6l1 -95c0.666992 -63.333 2 -148.166 4 -254.499s3 -181.5 3 -225.5l-1 -125v-53l3 -53v-31c0 -0.666992 -0.333008 -2 -1 -4v-31z" />
    <glyph glyph-name="j" unicode="j" horiz-adv-x="918" 
d="M254 1294l-3 260h292l292 1l1 -261h-582zM64 -532c-19.333 13.333 -27 28.334 -23 45.001v3c2 8 3 13 3 15v19l3 96v228h33c84 0 135.333 28.667 154 86c9.33301 27.333 14 62.666 14 105.999v15l2 127v988h292l293 1c2 -430 3 -865 3 -1305v-4
c2 -13.333 3 -26.333 3 -39c0 -55.333 -11.5 -112.833 -34.5 -172.5s-52.833 -102.167 -89.5 -127.5h1c-85.333 -56 -211.333 -84 -378 -84l-106 3h-6l-6 -1h-18c-4 0 -7.33301 0.666992 -10 2h-18c-10 -3.33301 -21 -5 -33 -5s-26 0.666992 -42 2h-6
c-12 1.33301 -22.333 2 -31 2zM47 -125.999h-8l8 10v-10z" />
    <glyph glyph-name="k" unicode="k" horiz-adv-x="1632" 
d="M1367 1198l18.999 -1.00098h77c4 0 9.83301 0.333008 17.5 1s14.167 1 19.5 1c-6 -31.333 -25.667 -73.333 -59 -126c-11.333 -13.333 -21.666 -29.333 -30.999 -48v1c-34 -51.333 -98 -158.666 -192 -321.999c48 -103.333 91.333 -194.5 130 -273.5
s68.667 -140.5 90 -184.5l121 -247h-688l-69 206c-28 81.333 -62.333 188.666 -103 321.999l-38 -86v-440c-64.667 -2 -167.667 -3 -309 -3s-252 0.666992 -332 2v1569h318l318 1c0 -80.667 0.833008 -225.667 2.5 -435s2.5 -356.333 2.5 -441l38 112
c24 76.667 68 207.334 132 392.001h536z" />
    <glyph glyph-name="l" unicode="l" horiz-adv-x="770" 
d="M62 1570l254 1c77.333 0 197.333 -0.666992 360 -2v-1570h-612z" />
    <glyph glyph-name="m" unicode="m" horiz-adv-x="2224" 
d="M1349 996c124 162 247.666 242.999 370.999 242.999s232 -45.667 326 -137c46 -45.333 77 -95.666 93 -150.999l7 -27c18 -62.667 27 -101.5 27 -116.5s-1.33301 -27.167 -4 -36.5c4.66699 -4 7 -10 7 -18l-2 -39c1.33301 -48 2 -81.667 2 -101v-614h-606l-1 588l1 22
c0 96.667 -27 145 -81 145c-60.667 0 -91 -53.333 -91 -160l2 -69v-525l-278 -1h-277l-1 537l2 65c0 86.667 -26.667 138 -80 154c-62.667 -3.33301 -94 -51.666 -94 -144.999l2 -60v-550l-322 -1h-320l-1 601v597l274 1h275l7 -24
c24.667 -87.333 43.334 -155.333 56.001 -204c43.333 74.667 93.833 138.167 151.5 190.5s115.167 78.5 172.5 78.5h54c58 0 117.333 -23.833 178 -71.5s110.667 -104.834 150 -171.501z" />
    <glyph glyph-name="n" unicode="n" horiz-adv-x="1460" 
d="M316 1196l268.001 1.00293c3.33301 -14 9.33301 -36 18 -66s17 -60 25 -90l19 -75c26.667 67.333 43 104.666 49 111.999l16 20c67.333 94.667 170.666 142 309.999 142c66 0 128.833 -19.833 188.5 -59.5s106.167 -91.334 139.5 -155.001s50 -130.834 50 -201.501
c0 -8 -1 -14.333 -3 -19v-615l1 -191h-585l-2 500l4 102c0 102 -27 153 -81 153c-58 0 -87 -48.333 -87 -145c0 -21.333 0.333008 -36 1 -44v-15l1 -17v-533l-298 -1h-299l-1 600v598z" />
    <glyph glyph-name="o" unicode="o" horiz-adv-x="1569" 
d="M1513 605c-1.33301 -6.66699 -2.00195 -10.668 -2.00195 -12.001v-8c-2 -110 -27.333 -209 -76 -297h1c-68 -104 -162.833 -184 -284.5 -240s-241.5 -84 -359.5 -84s-215.833 11.5 -293.5 34.5s-149.5 56.5 -215.5 100.5s-115 86.333 -147 127
c-76 96 -114 231.667 -114 407c0 6 1 11 3 15v16c-2 2.66699 -3 5.33398 -3 8.00098l2 11h-1c12.667 116.667 37.334 193.334 74.001 230.001c0 7.33301 4.66699 15.666 14 24.999v-1l15 24c78.667 100.667 168.667 169.667 270 207l35 13c44 21.333 105.667 37.333 185 48
l32 3c4.66699 0.666992 14.167 1.33398 28.5 2.00098s24.5 2 30.5 4l43 -1c2 0.666992 4.33301 1 7 1s5.66699 -0.333008 9 -1l-1 1c4 -2 10 -3 18 -3c2.66699 2.66699 7.33398 4 14.001 4c144.667 0 267.667 -29.667 369 -89l20 -9c218 -104.667 327 -283.334 327 -536.001
zM890.998 598.999c-2.66699 132.667 -21.665 222.333 -56.998 269c-14.667 19.333 -32.5 29 -53.5 29s-39.5 -12.167 -55.5 -36.5s-28.833 -62.5 -38.5 -114.5s-14.5 -98.167 -14.5 -138.5s1.83301 -75 5.5 -104s9.16699 -59.667 16.5 -92s18.666 -59.333 33.999 -81
s32.666 -32.5 51.999 -32.5c74 0 111 100.333 111 301z" />
    <glyph glyph-name="p" unicode="p" horiz-adv-x="1552" 
d="M34 1196l258 1.00098h261c12.667 -26 24 -48 34 -66l38 -70c70.667 64.667 135.834 110.5 195.501 137.5s124.834 40.5 195.501 40.5s134 -13 190 -39c98.667 -46 171.834 -124 219.501 -234s71.5 -227.333 71.5 -352c0 -16 -1.33301 -30.667 -4 -44
c-10.667 -116 -30.834 -212.167 -60.501 -288.5s-81.834 -148.833 -156.501 -217.5v1c-66.667 -57.333 -130 -86 -190 -86c-17.333 -8 -34.833 -12 -52.5 -12s-42.334 2.16699 -74.001 6.5s-52.5 9.16602 -62.5 14.499c-92.667 20 -167.667 59.333 -225 118l-38 -1
c6 -38 9 -70.667 9 -98l-1 -18v-306l-304 -1h-303l-1 757v757zM871 503.001l5.00098 63c-0.666992 0.666992 -1 2 -1 4s0.333008 3.66699 1 5v17c0 32.667 -1.33301 59.667 -4 81l-6 42c-1.33301 6.66699 -5 27 -11 61c-16 86 -49.667 129 -101 129
c-82.667 0 -124 -108.667 -124 -326c0 -119.333 18.333 -206.333 55 -261c17.333 -25.333 38.666 -41 63.999 -47c69.333 6 110 83.333 122 232z" />
    <glyph glyph-name="q" unicode="q" horiz-adv-x="1556" 
d="M1493 858l4.99707 -1177h-608l-1 439c-34.667 -16 -63 -33 -85 -51c-29.333 -29.333 -74 -53.5 -134 -72.5s-115.333 -28.5 -166 -28.5c-87.333 0 -167.166 27 -239.499 81s-127.833 122.167 -166.5 204.5s-58 168.166 -58 257.499c-4.66699 8.66699 -7 18.667 -7 30
s2 24 6 38c-3.33301 6 -5 10.667 -5 14c0 83.333 12.333 167 37 251s60.334 156.667 107.001 218c102 118.667 230.667 178 386 178c27.333 -2.66699 62.333 -8.66699 105 -18s69.667 -20 81 -32c37.333 -17.333 78.333 -51 123 -101l12 -11l27 -17
c11.333 28.667 21.5 51.5 30.5 68.5s14.833 28.5 17.5 34.5l10 21c0 0.666992 1.83301 4 5.5 10s5.83398 10 6.50098 12c45.333 -6.66699 215.333 -10 510 -10zM908.997 547.001l2 45.0029c0 192 -40.667 296.667 -122 314c-38 -5.33301 -63.5 -22 -76.5 -50
s-22 -55.333 -27 -82s-10.333 -51.834 -16 -75.501s-8.5 -50.834 -8.5 -81.501v-47c0 -177.333 39.667 -277 119 -299c31.333 2.66699 53 11 65 25c20.667 25.333 36.667 63.666 48 114.999l17 122z" />
    <glyph glyph-name="r" unicode="r" horiz-adv-x="1186" 
d="M44 1197l266.002 1.00098h266l22 -134c15.333 -94 24.333 -147.333 27 -160h35c24.667 114 72 195 142 243l40 23c2 4 14 11.333 36 22l-4 -1l23 9c65.333 26 121.666 39.333 168.999 40c10 0 16.667 -0.666992 20 -2h37v-558c-14 3.33301 -36 5 -66 5
s-60.833 -4.33301 -92.5 -13s-58.334 -19.834 -80.001 -33.501s-40.5 -31.167 -56.5 -52.5c-49.333 -66 -74 -165 -74 -297l2 -105v-184l-356 -1h-355l-1 597v601z" />
    <glyph glyph-name="s" unicode="s" horiz-adv-x="1638" 
d="M1273 937l-90.998 1c-54 0 -137.667 -0.666992 -251 -2c-8 22 -24.167 40.667 -48.5 56s-51.166 23 -80.499 23s-53.333 -6.5 -72 -19.5s-28 -31.167 -28 -54.5s8.83301 -44.333 26.5 -63s42.5 -31.834 74.5 -39.501s63.833 -12.834 95.5 -15.501
s68.667 -5.33398 111 -8.00098s74.333 -5.83398 96 -9.50098s49.167 -7.5 82.5 -11.5c59.333 -8 111.833 -18.833 157.5 -32.5s93.5 -42.167 143.5 -85.5c10 -4.66699 23.333 -17 40 -37c30 -46 49 -112.667 57 -200c-3.33301 -96 -38.333 -181.167 -105 -255.5
s-151 -128.166 -253 -161.499c-8 -4 -18 -6.66699 -30 -8l-34 -8c-64.667 -18.667 -120.667 -28 -168 -28c-28.667 -9.33301 -74.667 -14 -138 -14l-25 1h-73l-11 -1c-103.333 0 -214 16.667 -332 50v-1c-251.333 62 -377.333 170 -378 324
c35.333 -2.66699 84.333 -4 147 -4s147.5 0.5 254.5 1.5s188.167 1.5 243.5 1.5c-0.666992 -4 -1 -10.667 -1 -20c0 -29.333 15 -53.333 45 -72s64.667 -28 104 -28s70.333 7.66699 93 23s34 35.166 34 59.499s-6.33301 44.666 -19 60.999s-31.334 28.5 -56.001 36.5
s-47.5 13.833 -68.5 17.5s-48.167 6.83398 -81.5 9.50098s-58 5.33398 -74 8.00098s-39.667 6.16699 -71 10.5s-58.833 8 -82.5 11s-51.334 7.5 -83.001 13.5s-59.667 12.167 -84 18.5s-50.5 14.833 -78.5 25.5s-52.333 22.334 -73 35.001
c-100.667 62.667 -151 154 -151 274c0 107.333 30.333 190.333 91 249c76 72.667 199.333 120 370 142c17.333 2.66699 42 7.5 74 14.5s54 10.5 66 10.5s20 -0.666992 24 -2l127 7l176 -8c6.66699 -0.666992 26 -2 58 -4c79.333 -6 149.166 -17.167 209.499 -33.5
s118 -48.166 173 -95.499s86.5 -98.666 94.5 -153.999l-7 2z" />
    <glyph glyph-name="t" unicode="t" horiz-adv-x="1042" 
d="M789 498l-1 -14.999c0 -23.333 0.833008 -40.5 2.5 -51.5s8.5 -24 20.5 -39s51 -22.5 117 -22.5l27 -1c10 0 19 1 27 3l1 -373h-547l-34 -2h-11c-24.667 0 -51.667 8 -81 24s-51.166 30.167 -65.499 42.5s-26.5 28.166 -36.5 47.499
c-18.667 36 -29.834 71.5 -33.501 106.5s-5.5 78.5 -5.5 130.5v554h-118l-1 140v143h115v331h309l309 1l1 -330h167l1 -143v-142h-163v-404z" />
    <glyph glyph-name="u" unicode="u" horiz-adv-x="1538" 
d="M691 1100l-1.99902 -635.001c0 -68 24.333 -102 73 -102c40.667 0 61 36 61 108v724l329 1h326l1 -1195h-560l-47 162c-85.333 -132.667 -202.333 -199 -351 -199c-128 0 -235.667 36.667 -323 110l1 7c-11.333 3.33301 -25.333 15.5 -42 36.5
s-29.334 39.167 -38.001 54.5c-43.333 78.667 -65 194.334 -65 347.001l1 32v644h318l318 1v-96z" />
    <glyph glyph-name="v" unicode="v" horiz-adv-x="1663" 
d="M-5 1196l380 1h372c3.33301 -19.333 6.66602 -46 9.99902 -80l22 -218c8 -82.667 23 -216.667 45 -402h2l108 700h705l-3 -20h-3c-110.667 -386.667 -224.667 -779 -342 -1177h-966c-49.333 169.333 -89.666 309 -120.999 419l-18 72
c-61.333 235.333 -125 470.333 -191 705z" />
    <glyph glyph-name="w" unicode="w" horiz-adv-x="1966" 
d="M1141 1186l73.998 -477.998h2c9.33301 50.667 21.333 123.334 36 218.001l16 104l14 74c4.66699 45.333 9.33398 76.666 14.001 93.999h655c-38.667 -180.667 -110 -507 -214 -979l-56 -220h-636l-22 167c-11.333 73.333 -23.166 161.166 -35.499 263.499
s-19.166 153.5 -20.499 153.5l-88 -584h-677c-22.667 105.333 -45.667 233.166 -69 383.499s-37.333 240.166 -42 269.499l-21 133c0 0.666992 -23.333 138.667 -70 414h335l333 1c1.33301 -18 3 -31.333 5 -40l6 -43c24 -210 38.667 -350 44 -420h4
c2.66699 16 6.66699 42.833 12 80.5s9.66602 66.834 12.999 87.501l49 293l2 26c72.667 1.33301 185 2 337 2z" />
    <glyph glyph-name="x" unicode="x" horiz-adv-x="1624" 
d="M411 1197l315.004 1.00195c8 -43.333 18 -107 30 -191s20.667 -139.333 26 -166l13 -66h35l39 190c1.33301 6.66699 7.66602 41.667 18.999 105s20.333 106 27 128h627l-154 -330l-17 -40c-4.66699 -11.333 -14.834 -31.5 -30.501 -60.5s-23.5 -45.5 -23.5 -49.5l-27 -50
c37.333 -91.333 79.833 -198.166 127.5 -320.499s94.5 -238.5 140.5 -348.5h-635c-29.333 118 -70.666 298.333 -123.999 541h-36c-2.66699 -14 -9.33398 -48.667 -20.001 -104s-18.334 -97 -23.001 -125l-18 -108c-8 -50 -20.333 -118.333 -37 -205h-10
c-110.667 1.33301 -192.334 2 -245.001 2h-101l-102 -1h-174c9.33301 29.333 20 58.666 32 87.999l19 48c8 21.333 28 77.666 60 168.999s62 167.666 90 228.999l52 137c-21.333 52.667 -49.333 129.667 -84 231h1l-17 51c-10.667 32 -25.667 75.833 -45 131.5
s-32 93.5 -38 113.5h308z" />
    <glyph glyph-name="y" unicode="y" horiz-adv-x="1403" 
d="M238 -139c62 21.333 93.002 81.668 93.002 181.001c0 37.333 -12.667 96.333 -38 177l-16 50c-78 250 -175.667 558.667 -293 926h305l301 1l45 -259c3.33301 -28.667 8.66602 -69.334 15.999 -122.001s12.666 -92.334 15.999 -119.001l97 500h591v2l20 -2l-5 -20h-2
l-264 -732c-27.333 -68.667 -47.666 -126.167 -60.999 -172.5s-28.333 -89.833 -45 -130.5s-45.834 -120.5 -87.501 -239.5s-81.5 -212.5 -119.5 -280.5c-60 -102 -155.667 -157.333 -287 -166l-94 -1l-81 -4c-15.333 0 -28.333 1 -39 3
c-4.66699 -1.33301 -11.667 -2 -21 -2l-61 3l-39 -3c-3.33301 0 -11.666 0.666992 -24.999 2h-84l-19 51c-1.33301 4 -2 9.16699 -2 15.5s0.333008 10.833 1 13.5v7l1 10v114c0 78.667 -0.333008 137 -1 175c9.33301 1.33301 19.5 2 30.5 2s19.833 -1 26.5 -3
c9.33301 2 21.666 3 36.999 3h8c5.33301 3.33301 17.333 6.33301 36 9s33 5.33398 43 8.00098s15.667 4 17 4v-1z" />
    <glyph glyph-name="z" unicode="z" horiz-adv-x="1440" 
d="M456 819l-227.999 2.00098h-82v375h1253c-0.666992 -2 -2 -3 -4 -3l-113 -182c-162.667 -280.667 -284.334 -494.334 -365.001 -641.001h189l219 -1v-370h-1180l-87 -3c-19.333 0 -35 1 -47 3l1 -1c-2 0 -4.66699 0.5 -8 1.5s-5.66602 1.5 -6.99902 1.5
c7.33301 16 53.666 89.5 138.999 220.5s143.333 221.5 174 271.5l202 326h-56z" />
    <glyph glyph-name="braceleft" unicode="{" horiz-adv-x="1032" 
d="M818 1534l79 -2.99902h8l25 -23l-1 -163v-83l1 -43c0 -37.333 -6.33301 -56 -19 -56l-19 1h-48c-38.667 0 -67.167 -8.33301 -85.5 -25s-29.166 -48 -32.499 -94l-3 -80c-1.33301 -36 -2 -90.667 -2 -164c0 -47.333 -19.5 -88.333 -58.5 -123s-86.5 -61.667 -142.5 -81
l85 -32c46.667 -22 77.5 -52 92.5 -90s22.5 -98 22.5 -180v-36l-2 -56v-18c0 -59.333 6.83301 -98.333 20.5 -117s31 -30.834 52 -36.501s49.167 -8.5 84.5 -8.5h14c16.667 0 26.334 -1.66699 29.001 -5v-22l-1 -12v-80l1 -33c0 -121.333 -4.33301 -186.666 -13 -195.999
l-184 8c-122.667 0 -213.334 9.5 -272.001 28.5s-103.334 47.667 -134.001 86s-47.334 83.833 -50.001 136.5s-4.16699 99 -4.5 139s-0.5 71.833 -0.5 95.5s-0.333008 48.167 -1 73.5s-1.5 44.666 -2.5 57.999s-3.16699 27.333 -6.5 42c-6 21.333 -16.333 37.5 -31 48.5
s-39.667 19.5 -75 25.5l-35 4c-32.667 4 -49 6.33301 -49 7c-4 98 -6 178.667 -6 242s4 99 12 107c120.667 1.33301 184.334 38 191.001 110l-2 269l-1 8v25c0 189.333 87.333 299.333 262 330c47.333 8 105.333 12.667 174 14z" />
    <glyph glyph-name="bar" unicode="|" horiz-adv-x="492" 
d="M388 1557l-2.99707 -57.001l4 -341c4 -365.333 8.33301 -658.333 13 -879l5 -340c-7.33301 -16 -45.333 -24 -114 -24h-74c-52.667 0 -88.667 1.66699 -108 5l-11 12c-1.33301 0.666992 -5.33301 4.33398 -12 11.001c0 226.667 3.66699 517.667 11 873l3 148
c1.33301 54 3.66602 238.667 6.99902 554v7l-1 8v13c0 12 1.33301 19.667 4 23c31.333 0.666992 77.666 1 138.999 1s106.666 -0.333008 135.999 -1c0.666992 -0.666992 1 -5 1 -13z" />
    <glyph glyph-name="braceright" unicode="}" horiz-adv-x="1035" 
d="M258 1512c1.33301 0 3.66895 0.332031 7.00195 0.999023h98c117.333 0 201 -12.333 251 -37c101.333 -49.333 155.333 -165.333 162 -348v-46l-6 -188c0 -73.333 47.333 -113.333 142 -120c14 -1.33301 31 -2 51 -2l4 1c4.66699 -1.33301 7 -5.66602 7 -12.999v-119
l-1 -42v-128l1 -44c-6 -7.33301 -25.333 -11.666 -58 -12.999s-58 -4 -76 -8c-42.667 -10.667 -64 -41.334 -64 -92.001c0 -15.333 0.666992 -33.333 2 -54l3 -68c2.66699 -54.667 4 -102.834 4 -144.501s-4.16699 -83.5 -12.5 -125.5s-20.5 -77.333 -36.5 -106
c-31.333 -58 -72.333 -97.167 -123 -117.5s-107 -30.5 -169 -30.5h-46l-16 1l-126 -1l-29 -2h-66l-25 1c-5.33301 0 -9.33301 -0.333008 -12 -1c-2 2.66699 -3.83301 5.5 -5.5 8.5s-3.33398 5.5 -5.00098 7.5s-3.5 4.33301 -5.5 7v-1l-8 10l3 155l-1 44
c0 84.667 5.66699 129.334 17 134.001h55c44 0 77.167 8.33301 99.5 25s33.5 50.667 33.5 102l-3 146c2.66699 90 18.167 154.5 46.5 193.5s86.5 73.5 174.5 103.5c-82.667 25.333 -138.834 56.833 -168.501 94.5s-44.5 94.167 -44.5 169.5l3 174
c0 50.667 -11.667 85.167 -35 103.5s-68 27.5 -134 27.5c-21.333 0 -32 1.33301 -32 4l2 141v60l-2 64c0 38 2.66699 63.333 8 76c20 -1.33301 47.667 -2 83 -2h27l7 -1h19z" />
    <glyph glyph-name="asciitilde" unicode="~" horiz-adv-x="1303" 
d="M1056 745c-2.66699 5.33301 -4.66602 12.333 -5.99902 21l10 4l10 -10l10 1c12 0 31 -36.333 57 -109s39 -118 39 -136s-0.333008 -28.333 -1 -31v-5c-42 -58.667 -85.667 -104.167 -131 -136.5s-96.333 -48.5 -153 -48.5s-123.667 19 -201 57
c-6 1.33301 -11 3.33301 -15 6l-24 12c-84 42 -148.167 63 -192.5 63s-79.166 -10.333 -104.499 -31s-50 -53 -74 -97l-69 10l-16 43c0 0.666992 -1.5 4.33398 -4.5 11.001s-5.16699 12.334 -6.5 17.001l1 -1c-31.333 83.333 -47 142.666 -47 177.999
c0 2 0.666992 3.66699 2 5c78 136 173.667 204 287 204c48.667 0 89 -6.83301 121 -20.5s66.333 -28.834 103 -45.501l33 -18c9.33301 -4.66699 14.666 -7 15.999 -7c86.667 -43.333 145 -65 175 -65c63.333 0 123.666 43 180.999 129z" />
    <glyph glyph-name="uni00A0" unicode="&#xa0;" horiz-adv-x="721" 
 />
    <glyph glyph-name="exclamdown" unicode="&#xa1;" horiz-adv-x="784" 
d="M235 696l62.002 -1h167c72.667 0 115.167 -4.66699 127.5 -14s19.166 -28.166 20.499 -56.499s4 -54.833 8 -79.5l8 -57c30 -311.333 51.333 -558.333 64 -741l6 -90c1.33301 -16 2 -30 2 -42c-6 -12.667 -32.667 -19.334 -80 -20.001l-9 -1l-512 -9l-20 15
c-0.666992 1.33301 -1.33398 2.33301 -2.00098 3l13 138c2.66699 59.333 9 127.833 19 205.5s22.167 218.167 36.5 421.5s28.833 311.333 43.5 324c2 2.66699 17.333 4 46 4zM593.002 1226l54.999 -1c7.33301 -14.667 11 -87.334 11 -218.001v-119
c-9.33301 -12 -59.666 -18 -150.999 -18l-36 1h-87l-231 -7c-10.667 10.667 -19 20.334 -25 29.001l5 154l1 23v15c0 92.667 2.66699 139 8 139h69l212 2h169zM660.001 890l-1 -2.00098c0 0.666992 0.333008 1.33398 1 2.00098z" />
    <glyph glyph-name="cent" unicode="&#xa2;" horiz-adv-x="1497" 
d="M934 1315l-4.99805 -219.997l9 -10c118.667 -6.66699 215.334 -43.834 290.001 -111.501s118.667 -167.834 132 -300.501c-8 -4 -45 -6 -111 -6l-33 1h-58l-216 -3c-21.333 0 -36.666 2.33301 -45.999 7v3c0 75.333 -14 123 -42 143c-14.667 10 -33.334 15 -56.001 15
c-95.333 -2.66699 -143 -106.334 -143 -311.001c0 -50.667 2 -90 6 -118v-7c0 -116.667 38 -175 114 -175c58 0 97.333 23.333 118 70c9.33301 21.333 17.333 45.666 24 72.999l6 24c103.333 -2 251.666 -3 444.999 -3c5.33301 0 9.33301 -5 12 -15
c-8 -104.667 -30 -178 -66 -220c-32.667 -49.333 -78.334 -88.833 -137.001 -118.5s-133.334 -58.167 -224.001 -85.5c3.33301 -58.667 5 -105.667 5 -141c0 -41.333 -1 -66.666 -3 -75.999s-8.33301 -14.666 -19 -15.999h-71c-83.333 0 -155.666 1.66699 -216.999 5l-25 29
l3 192c-142.667 36 -237.667 74.333 -285 115c-104 87.333 -160.667 182.666 -170 285.999c-18.667 71.333 -28 136.333 -28 195c0 272.667 162.333 456.667 487 552v55l-2 174c0 8.66699 48.667 13 146 13s150.666 -2.66699 159.999 -8v-7z" />
    <glyph glyph-name="sterling" unicode="&#xa3;" horiz-adv-x="1440" 
d="M1135 392l271.995 6.99902c10 -3.33301 15 -20.333 15 -51v-30l4 -303c-1.33301 -18 -7.33301 -30 -18 -36s-26 -9 -46 -9h-38l-21 -1h-215l-53 1c-235.333 0 -431.666 -1.66699 -588.999 -5l-36 -2c-32 -1.33301 -55 -2 -69 -2h-53l-28 1h-96
c-41.333 0 -73 0.666992 -95 2l-18 23l-1 18v20l-5 246c0 50 5.66699 81.333 17 94l142 10c2 98 3 153 3 165v29l1 41h-83l-20 1h-29l-13 -1c-34 0 -51 6 -51 18l1 80v38l1 38v15l-2 55c0 26 4 43 12 51l41 -1h41l106 -1c-1.33301 44 -2 87.333 -2 130
c0 112.667 23.333 211 70 295c53.333 77.333 131.5 136.5 234.5 177.5s212.5 61.5 328.5 61.5c259.333 0 440 -77.333 542 -232c36.667 -44 55 -124.333 55 -241c0 -13.333 -2.66699 -21.666 -8 -24.999c-244 2 -384 3.5 -420 4.5s-58.667 4.5 -68 10.5
s-14.666 13.333 -15.999 22c-3.33301 15.333 -11.666 32.833 -24.999 52.5s-35.333 29.5 -66 29.5c-68 -5.33301 -102 -58.333 -102 -159c0 -32 1 -59 3 -81v-6c1.33301 -13.333 2 -29 2 -47l251 5c29.333 0 47 -2.33301 53 -7l3 -252c0 -14.667 -4.66699 -22 -14 -22
s-16.666 0.333008 -21.999 1l-58 3c-13.333 0.666992 -48.666 1 -105.999 1s-88.833 -5.16699 -94.5 -15.5s-9.16699 -47.5 -10.5 -111.5l-3 -109c100.667 2.66699 214 4 340 4h56z" />
    <glyph glyph-name="currency" unicode="&#xa4;" horiz-adv-x="1478" 
d="M767 59c-66 8.66699 -110.334 15.1729 -133.001 19.5059s-55.334 15.666 -98.001 33.999s-81.334 42.166 -116.001 71.499l-71 -76c-40.667 -46.667 -67.667 -70 -81 -70c-3.33301 0 -10 4 -20 12c-8 1.33301 -17 5 -27 11c23.333 41.333 53 81 89 119l57 60
c-28.667 36 -49.334 73.667 -62.001 113h1l-12 33c-19.333 46 -32.333 89.333 -39 130l-6 110c1.33301 68.667 12.833 141.5 34.5 218.5s57.834 141.5 108.501 193.5l-53 55c-78 79.333 -117 122.5 -117 129.5s6.83301 15.167 20.5 24.5s23.5 14.666 29.5 15.999l170 -182
c96.667 68 202.667 102 318 102c151.333 0 267.333 -37.333 348 -112l23 -19l200 210c2.66699 -0.666992 19 -13 49 -37c-1.33301 -8.66699 -19.166 -30.834 -53.499 -66.501s-57.666 -59.5 -69.999 -71.5s-20.833 -20.667 -25.5 -26h1l-53 -57
c77.333 -102 116 -241.667 116 -419c0 -116 -29.667 -221.333 -89 -316l85 -89c40 -42 70 -82 90 -120c-7.33301 -5.33301 -15.666 -9 -24.999 -11l-17 -10l-5 -1c-12 0 -37.333 21 -76 63c-2.66699 3.33301 -4.66699 5.66602 -6 6.99902l-96 102
c-50 -50 -103.167 -85.833 -159.5 -107.5s-117.833 -35.834 -184.5 -42.501zM1329 1263.01l4 2l-2 -3zM269.999 1265.01l7 -3h-4zM732.999 300.006l9.00098 1.00098h25c66.667 0 112.667 6.33301 138 19c96 49.333 144 138 144 266c0 146 -23.667 243.333 -71 292
c-29.333 29.333 -60.833 47.666 -94.5 54.999s-71.834 11 -114.501 11h-35c-124 0 -203.667 -59.667 -239 -179c-11.333 -38 -17 -91.667 -17 -161c0 -137.333 53.667 -229 161 -275c24 -19.333 55.333 -29 94 -29z" />
    <glyph glyph-name="yen" unicode="&#xa5;" horiz-adv-x="1456" 
d="M1319 818l13.999 1.00098c8 -4 12 -20.333 12 -49l1 -96c0 -51.333 -4.33301 -79 -13 -83h-261l-46 30c0 -66 3.33301 -146.333 10 -241c78 6.66699 144 10 198 10s87.167 -3.66699 99.5 -11s18.5 -20.666 18.5 -39.999l-2 -39v-94
c0 -24.667 -3.16699 -40.334 -9.5 -47.001s-18.833 -10 -37.5 -10l-67 1h-33l-34 1c-40 0 -87.333 -1.33301 -142 -4l-1 -86l1 -43c0 -33.333 -8 -51.333 -24 -54l-184 -1h-91l-93 -1h-19c-0.666992 0 -2.66699 0.333008 -6 1l-149 3c-2 3.33301 -9.66699 13.333 -23 30v3
c0 9.33301 0.333008 17 1 23v13l1 21l-2 53v36l-219 -6c-59.333 0 -90 7.66699 -92 23v90l1 32l-3 57c0 32 11.667 48 35 48l33 -1h32l137 -2h49l41 6c0 132 -20 198 -60 198c-58 -3.33301 -141 -5 -249 -5c-9.33301 6 -14 35.667 -14 89v25l2 83c0 20 9.33301 31 28 33
c6.66699 0.666992 14.334 1 23.001 1h25l43 -2h33l-17 102l-123 252c-8 16.667 -23.167 50 -45.5 100s-45.5 93.667 -69.5 131l-5 11c-34.667 58 -52 95.667 -52 113c0 5.33301 60.333 8 181 8h74l148 3c109.333 0 170.333 -6 183 -18
c3.33301 -25.333 11.333 -54.5 24 -87.5s20.667 -54.5 24 -64.5l38 -118h-1l29 -92c2.66699 -8.66699 8.83398 -27 18.501 -55s16.5 -49.333 20.5 -64l25 -80l27 -99c74 238.667 117 378 129 418l56 186c9.33301 28.667 27 47.334 53 56.001s74.667 13 146 13l145 -2h39
l30 1h29l54 1c41.333 0 64.666 -3.33301 69.999 -10c-14 -25.333 -33.167 -64.833 -57.5 -118.5s-43.833 -93.834 -58.5 -120.501l-83 -169c-28 -68.667 -55 -137.334 -81 -206.001l-34 -85c34 -2 58.833 -3 74.5 -3s26.5 0.333008 32.5 1h13zM1362 602.001l-20 -2v4z" />
    <glyph glyph-name="brokenbar" unicode="&#xa6;" horiz-adv-x="494" 
d="M389 1557l-3.00098 -57l4 -341l6 -364c-6.66699 -17.333 -42 -26 -106 -26h-74l-27 -2h-12c-38 0 -59.333 5.33301 -64 16l-13 14l10 722v7l-1 8v13c0 12 1.33301 19.667 4 23c31.333 0.666992 77.833 1 139.5 1s106.834 -0.333008 135.501 -1
c0.666992 -0.666992 1 -5 1 -13zM388.999 477l-1 -35c0 -11.333 0.666992 -18.666 2 -21.999v-414l2 -16l4 -338c-6.66699 -16.667 -42 -25 -106 -25h-74l-27 -2h-12c-38 0 -59.333 5.33301 -64 16l-13 14l10 785l-1 9v18c0 18 28.667 27 86 27s122 -1 194 -3
c-0.666992 -0.666992 -1 -1.33398 -1 -2.00098z" />
    <glyph glyph-name="section" unicode="&#xa7;" horiz-adv-x="1819" 
d="M253 299c146 -48.667 259 -73.001 339 -73.001c19.333 0 38 4.83301 56 14.5s27 25.167 27 46.5c0 28.667 -41 58.334 -123 89.001c-7.33301 3.33301 -42.333 17.333 -105 42s-109.667 48.334 -141 71.001h1c-71.333 62 -107 137.333 -107 226
c0 58.667 21.167 114.834 63.5 168.501s100.5 93.5 174.5 119.5c-52 27.333 -93.333 62.166 -124 104.499s-47 87.833 -49 136.5c16 122 76 208.667 180 260c90 36.667 196.667 55 320 55s278 -14.667 464 -44l1 -188l1 -65c0 -10.667 -1.33301 -17.334 -4 -20.001
c-116 26 -205.167 39 -267.5 39s-93.5 -15 -93.5 -45s49 -60.667 147 -92l64 -21l-1 1l26 -9c78 -31.333 139 -73.333 183 -126s70 -109 78 -169c-2 -71.333 -9.33301 -119.666 -22 -144.999c-33.333 -79.333 -101.666 -145.666 -204.999 -198.999
c43.333 -29.333 78 -64.333 104 -105s39 -83.334 39 -128.001s-10.667 -86.334 -32 -125.001c-36.667 -66 -95.834 -113.5 -177.501 -142.5s-162.167 -43.5 -241.5 -43.5c-208.667 0 -398 15.667 -568 47l-24 28c-2 52.667 -3 114.5 -3 185.5s6.66699 106.5 20 106.5z
M638 842.999l15.001 -13.002l-15 12c-13.333 -21.333 -20 -43.5 -20 -66.5s12.333 -46.167 37 -69.5s62 -44.166 112 -62.499s84.333 -27.5 103 -27.5s40.167 7.66699 64.5 23s36.5 34.833 36.5 58.5s-25.833 47.334 -77.5 71.001s-100.834 41.167 -147.501 52.5
s-72 17 -76 17h-7l45 45c-28.667 0 -52 -13.333 -70 -40zM1341 674.997v-3v3z" />
    <glyph glyph-name="dieresis" unicode="&#xa8;" horiz-adv-x="659" 
d="M586 1810l170 3c40.667 0 62 -2.66699 64 -8c3.33301 -101.333 5.66602 -215.333 6.99902 -342c-2 -4 -3 -7.33301 -3 -10l-7 1l-333 -14l-26 29c0 56.667 2 126.167 6 208.5s10 127.5 18 135.5c36.667 -2 71.334 -3 104.001 -3zM458 1468v1v-1zM823 1452l14 -1
c0 -11.333 -4.66699 -17 -14 -17c-4 0 -7.33301 1.33301 -10 4zM253 1741l1.99902 -98.002v-31c0 -72.667 0.333008 -124.667 1 -156c-6.66699 -7.33301 -33.667 -11 -81 -11l-21 1h-51l-187 -7l-24 35c0 209.333 7.33301 322.333 22 339
c24 -0.666992 74.833 -1.16699 152.5 -1.5s137.834 -1.16602 180.501 -2.49902c4.66699 -1.33301 7 -9.66602 7 -24.999l-1 -11v-32z" />
    <glyph glyph-name="copyright" unicode="&#xa9;" horiz-adv-x="1646" 
d="M1475 242c-177.333 -205.333 -394.331 -308 -650.998 -308c-134.667 0 -276.334 42 -425.001 126v-1c-168.667 105.333 -285.667 274.666 -351 507.999c-16 58.667 -28 118 -36 178c9.33301 226 84 413 224 561c76.667 82 168.5 144.5 275.5 187.5
s213.167 64.5 318.5 64.5s207.666 -21.333 306.999 -64s186 -100.667 260 -174s134.167 -161 180.5 -263s72.166 -210 77.499 -324c-2 -89.333 -18.667 -177.166 -50 -263.499s-74.666 -162.5 -129.999 -228.5v1zM843.002 1356l-14 0.000976562
c-83.333 0 -163 -17.333 -239 -52s-141.833 -82 -197.5 -142s-94.834 -119.833 -117.501 -179.5s-40 -134.5 -52 -224.5c0 -106.667 27.167 -207.5 81.5 -302.5s127.833 -171.167 220.5 -228.5s185.5 -86 278.5 -86s177 16.333 252 49s140.333 77 196 133
s100.334 123.667 134.001 203s50.5 161 50.5 245s-16.167 161.667 -48.5 233s-75.5 132.333 -129.5 183s-117.167 91.167 -189.5 121.5s-147.5 46.166 -225.5 47.499zM1157 650.001l14 1h13c30.667 0 48.334 -6.66699 53.001 -20c-22 -96 -67 -176.167 -135 -240.5
s-145 -96.5 -231 -96.5c-176.667 0 -305.667 68.667 -387 206c-45.333 76.667 -69.333 162.334 -72 257.001c5.33301 83.333 30.333 159.333 75 228s100.167 121.667 166.5 159s135.833 56 208.5 56c100.667 0 181.167 -28.833 241.5 -86.5
s101.166 -134.834 122.499 -231.501c-2.66699 -6 -18.334 -9 -47.001 -9l-23 1h-149l-8 8c-24.667 76 -74 114 -148 114c-96 0 -156.333 -55.333 -181 -166c-6 -26.667 -9 -54 -9 -82c0 -64 14.833 -118.667 44.5 -164s72.834 -68 129.501 -68s92.667 14 108 42
c24.667 44.667 45 74.667 61 90c18 1.33301 42.333 2 73 2h80zM1227 883.001v-2l-1 1z" />
    <glyph glyph-name="ordfeminine" unicode="&#xaa;" horiz-adv-x="845" 
d="M540 1311c0 97.333 -32.833 145.999 -98.5 145.999s-109.167 -19.333 -130.5 -58c-24 0 -59.5 -0.333008 -106.5 -1s-82.5 -1 -106.5 -1c33.333 77.333 145 116 335 116h56c118 0 207 -21.667 267 -65c24 -27.333 36 -67.666 36 -120.999l-1 -110v-279
c-1.33301 0 -3.66602 -0.333008 -6.99902 -1l-8 1h-18c-22.667 0 -57.334 0.666992 -104.001 2h-6c-44 1.33301 -76.667 2 -98 2l-2 21c-0.666992 2 -1 3.33301 -1 4v55c-94 -65.333 -179 -98 -255 -98c-152 0 -228 51 -228 153c0 116.667 105.667 175 317 175
c60.667 0 113.667 -1 159 -3v62zM514 1235c-146 0 -219.001 -40.667 -219.001 -122c0 -38 11.667 -65.833 35 -83.5s52.833 -26.5 88.5 -26.5s63.334 7.33301 83.001 22s32.5 40.667 38.5 78v31l1 49l-2 34v18h-25z" />
    <glyph glyph-name="guillemotleft" unicode="&#xab;" horiz-adv-x="1335" 
d="M1255 1046l71.0029 -1.99805h28c18 0 28 -3 30 -9l-79 -172c-64 -140 -117.333 -252.333 -160 -337l15 -36v-6c60 -139.333 94.333 -218 103 -236l28 -60c28 -60 57.667 -126 89 -198c-4 -9.33301 -23.667 -14 -59 -14l-16 1h-41l-69 -1h-204
c-12.667 0 -24.334 3.33301 -35.001 10c-6.66699 10.667 -49.334 77.667 -128.001 201h2l-37 56c-56.667 86 -110 171.667 -160 257l2 16c37.333 61.333 94.166 152.666 170.499 273.999s127.833 203.666 154.5 246.999c6 4 24.667 6 56 6h22zM1183 487.002l1 -6h-20l-2 17
c14 0 21 -3.66699 21 -11zM579.003 1044l31.998 1h131l9 -3c0.666992 0 1.33398 0.333008 2.00098 1c-2 -25.333 -21.333 -70.666 -58 -135.999l-25 -45c-1.33301 -3.33301 -4 -9 -8 -17s-6.66699 -14 -8 -18l-139 -306c28.667 -69.333 70.167 -162.833 124.5 -280.5
s91.833 -200.5 112.5 -248.5c-6 -7.33301 -52 -11 -138 -11l-264 -6c-5.33301 0 -8.66602 3.66699 -9.99902 11l-38 56c-20.667 30 -121 182 -301 456c2.66699 30.667 23.667 74.667 63 132c10 14.667 18 26.5 24 35.5s14.667 21.833 26 38.5l34 48
c28.667 41.333 45 65.666 49 72.999h-1l137 213c1.33301 1.33301 6 4 14 8h3c61.333 -1.33301 106 -2 134 -2h95z" />
    <glyph glyph-name="logicalnot" unicode="&#xac;" horiz-adv-x="1283" 
d="M1144 227l-16 1c-63.333 0 -134.333 -1.66699 -213 -5l-30 34v360l-772 3c-3.33301 2.66699 -5 8.66699 -5 18l3 173v23l-1 25v51l1079 12c11.333 -2.66699 17.666 -4.66699 18.999 -6l3 -335c1.33301 -149.333 2 -260.333 2 -333c-3.33301 -14 -10.666 -21 -21.999 -21
h-47zM103 911l7.99902 5c-0.666992 -2.66699 -1 -4.66699 -1 -6c-1.33301 0.666992 -3.66602 1 -6.99902 1z" />
    <glyph glyph-name="registered" unicode="&#xae;" horiz-adv-x="1710" 
d="M402 79c-204 133.333 -319.331 355.668 -345.998 667.001c9.33301 218.667 73.333 398 192 538c57.333 67.333 120.666 120.333 189.999 159c137.333 76.667 281.333 115 432 115c106.667 0 209.334 -21.333 308.001 -64s185.167 -100.334 259.5 -173.001
s135 -160.167 182 -262.5s73.167 -210.833 78.5 -325.5c-2.66699 -104 -24.334 -204.667 -65.001 -302s-95.667 -182 -165 -254c-76.667 -76 -165.834 -135.5 -267.501 -178.5s-199.5 -64.5 -293.5 -64.5c-187.333 0 -356 48.333 -506 145h1zM1338 1153
c-132 132 -286.001 198.001 -462.001 198.001c-94.667 0 -177.667 -12.833 -249 -38.5s-136.666 -71.5 -195.999 -137.5c-54 -66 -92.333 -129.333 -115 -190s-34 -132.834 -34 -216.501s13.5 -162 40.5 -235s65 -137.333 114 -193s110.167 -99.834 183.5 -132.501
s160.5 -49 261.5 -49s197.333 26.833 289 80.5s163.167 128.334 214.5 224.001s77 208 77 337s-41.333 246.5 -124 352.5zM620.001 1118l264.002 6.99805c79.333 0 144.5 -16 195.5 -48s76.5 -79.667 76.5 -143c0 -90.667 -34.667 -152.667 -104 -186
c-30 -14 -59.333 -21 -88 -21l106 -201c7.33301 -8.66699 16.666 -24 27.999 -46l46 -78v-10c-32 -3.33301 -72 -5 -120 -5c-16.667 30 -38.334 74.833 -65.001 134.5s-46.667 102.5 -60 128.5l-33 63h-137v-97c0 -27.333 -0.833008 -66.666 -2.5 -117.999
s-2.5 -86.666 -2.5 -105.999c-6 0.666992 -16.333 1 -31 1h-55l-22 1v512c-1.33301 61.333 -2 107 -2 137v75h6zM744.003 379.001h-20v13c13.333 -0.666992 20 -5 20 -13zM1145 392.001c4 1.33301 7 2 9 2l-10 -11v9h1zM1024 387.001l4 -7l-10 7h6zM728.003 808.001
l174 -4.00098c47.333 0 83.333 7.16699 108 21.5s37 40.333 37 78s-7 66.834 -21 87.501c-14 17.333 -33.833 28.333 -59.5 33s-60.167 7 -103.5 7s-88 -2.33301 -134 -7l-1 -60v-156z" />
    <glyph glyph-name="overscore" unicode="&#xaf;" horiz-adv-x="678" 
d="M-116 1358l-1.00098 20.999c0 41.333 6 75 18 101c278.667 -17.333 503.667 -26 675 -26h67l152 4c2.66699 -3.33301 4 -12.666 4 -27.999l-1 -13v-72c0 -28 0.333008 -47.333 1 -58v-26l1 -28c0 -16.667 -10.333 -25 -31 -25h-30l-12 1l-136 -2l-25 -1h-26
c-55.333 0 -105.666 -1.33301 -150.999 -4l-269 -3c-96 -2.66699 -168 -4 -216 -4l-21 24v64l1 18v57z" />
    <glyph glyph-name="degree" unicode="&#xb0;" horiz-adv-x="878" 
d="M748 1265v-14.002c-1.33301 -75.333 -30.666 -143.666 -87.999 -204.999s-125.666 -92 -204.999 -92s-152.333 24.667 -219 74c-32.667 24 -59.334 57 -80.001 99s-31.334 89.667 -32.001 143c16 85.333 51 156.333 105 213s123.333 85 208 85s157.667 -28.667 219 -86
s92 -129.666 92 -216.999z" />
    <glyph glyph-name="plusminus" unicode="&#xb1;" horiz-adv-x="1266" 
d="M385 669l-197.999 -2.99805h-46c-28.667 0 -43 4.33301 -43 13v81l-1 28v169c0 10 53.333 15 160 15h24l26 1l177 3v172c0 19.333 1.66699 33.166 5 41.499s13.666 12.5 30.999 12.5l22 -1h206l13 1c22 0 35 -3.66699 39 -11l-1 -11l-3 -213h180l56 -1h150
c4.66699 -2.66699 7 -11.667 7 -27l-3 -236l1 -9c0 -12 -2 -18 -6 -18h-391l-1 -106c1.33301 -28 2 -50.333 2 -67v-25c0 -16.667 0.333008 -25 1 -25h-39l-16 1l-222 -3h-12c-4.66699 59.333 -7.66699 130.666 -9 213.999c-38.667 2.66699 -75 4 -109 4zM499.001 455.002
l5 -9c-8 -4.66699 -14.333 -7 -19 -7s-7 5 -7 15zM94.001 163.002l-2 49c0 39.333 8 65 24 77l24 -3c110.667 -8.66699 233 -13 367 -13l168 1h85l84 1c148.667 0 261.334 -3 338.001 -9c2.66699 -2.66699 4 -31 4 -85l-1 -28v-171c-2.66699 -4.66699 -12.334 -7 -29.001 -7
l-9 1l-694 -8h-93l-135 -2h-61c-24.667 0 -42 -0.333008 -52 -1l-21 29l3 155v14z" />
    <glyph glyph-name="twosuperior" unicode="&#xb2;" horiz-adv-x="1160" 
d="M1073 148l-4 -138.001v-13c0 -8 -2.66699 -12.333 -8 -13l-53 1c-145.333 3.33301 -268.5 5 -369.5 5s-264.833 -4.33301 -491.5 -13l-7 8c-7.33301 6 -11 27 -11 63l3 206c0 4 12 14 36 30l214 144c69.333 48.667 126.333 93 171 133c78 70 117 134.333 117 193
c0 26 -7.83301 46.5 -23.5 61.5s-35.5 22.5 -59.5 22.5s-42.667 -5.16699 -56 -15.5s-21.666 -21.666 -24.999 -33.999s-6.66602 -25.666 -9.99902 -39.999s-7.33301 -23.833 -12 -28.5c-16.667 -0.666992 -38 -1 -64 -1h-179l-33 1h-59
c-10.667 0 -17.334 0.666992 -20.001 2c2.66699 48 9.5 91 20.5 129s31.833 73 62.5 105s77 61.167 139 87.5s134.167 39.5 216.5 39.5s150.5 -6.16699 204.5 -18.5s103 -30.833 147 -55.5s78.833 -58 104.5 -100s38.5 -86.833 38.5 -134.5s-6.66699 -90.5 -20 -128.5
c-24.667 -68 -66.167 -128.833 -124.5 -182.5s-126.833 -105.5 -205.5 -155.5l1 1c-10.667 -6.66699 -31.334 -25.334 -62.001 -56.001l357 5c25.333 0 42.5 -9.33301 51.5 -28s13.5 -46 13.5 -82z" />
    <glyph glyph-name="threesuperior" unicode="&#xb3;" horiz-adv-x="1227" 
d="M552 425l-53.9961 -1c-10.667 0 -18.334 4.5 -23.001 13.5s-7 25.833 -7 50.5c0 38 0.833008 69 2.5 93s7.5 36 17.5 36l13 -1h44c45.333 0 80.666 10.167 105.999 30.5s38 50.166 38 89.499c0 73.333 -29.667 110 -89 110c-24.667 0 -43.834 -5 -57.501 -15
s-21.834 -21.333 -24.501 -34c-8.66699 -41.333 -17 -66 -25 -74c-98 0 -188 1.33301 -270 4h-37c-20 0 -32 2 -36 6c1.33301 6 2.83301 23.333 4.5 52s5.83398 51.334 12.501 68.001c30.667 75.333 70.834 128.333 120.501 159s105.167 50.334 166.5 59.001
s122.666 13 183.999 13s114.666 -6.16699 159.999 -18.5s88.333 -30 129 -53s73.834 -54.167 99.501 -93.5s38.5 -79.333 38.5 -120c0 -74 -22.667 -128.333 -68 -163s-101.333 -62.334 -168 -83.001c92.667 -28.667 159 -63 199 -103s60 -90.333 60 -151
c0 -192 -123 -304 -369 -336c-43.333 -4 -95.333 -6 -156 -6s-123.834 9.5 -189.501 28.5s-121.5 51.5 -167.5 97.5c-45.333 40 -69.666 114.333 -72.999 223c0 2 0.333008 3 1 3l322 4l24 1c3.33301 0 5.66602 -2 6.99902 -6c4 -37.333 14.167 -65.333 30.5 -84
s42 -28 77 -28s61.333 9.5 79 28.5s26.5 41.5 26.5 67.5c0 88.667 -49.333 133 -148 133zM168.004 857l1 2.00098c0 -0.666992 -0.333008 -1.33398 -1 -2.00098z" />
    <glyph glyph-name="acute" unicode="&#xb4;" horiz-adv-x="641" 
d="M125 1410l-15.998 -0.996094h-49l-15 29l168 286c28.667 42 45 65.333 49 70h70l418 -10v-3c-26.667 -30.667 -70.334 -79.834 -131.001 -147.501s-105.334 -117.834 -134.001 -150.501s-53.5 -52.334 -74.5 -59.001s-55.167 -10.334 -102.5 -11.001z" />
    <glyph glyph-name="mu" unicode="&#xb5;" horiz-adv-x="1358" 
d="M1156 -19l-52.001 -1h-133c-61.333 0 -116.333 1.33301 -165 4c-7.33301 6 -11 35.333 -11 88v21l-34 6l-17 -32c-41.333 -76.667 -81 -115 -119 -115c-2.66699 0 -16 3.66699 -40 11v-82l4 -297h-6l-116 -6c-54.667 -3.33301 -102.334 -5 -143.001 -5h-52l-19 1h-106
l-9 -1c-31.333 0 -49 0.666992 -53 2c3.33301 10 5.66602 18 6.99902 24l-6 337c-4.66699 262.667 -7 487.334 -7 674.001l-3 215v69l-2 139c0 12.667 3 21.667 9 27c36.667 0.666992 91.334 1 164.001 1l29 -1h314c8 -3.33301 14.667 -12.666 20 -27.999
c-2 -27.333 -3 -66.333 -3 -117l-4 -355l-1 -17v-18l-2 -69c0 -72 7.16699 -120.333 21.5 -145s33.5 -37 57.5 -37c42.667 0 69.334 15 80.001 45s16 66.667 16 110l-1 68v17l3 128c0.666992 30.667 1 77.667 1 141v261c0 5.33301 26.333 8 79 8s83.334 -1 92.001 -3h19
l331 6c6 -2.66699 10.333 -11.334 13 -26.001l1 -84l-10 -643c0 -9.33301 0.5 -15.333 1.5 -18s1.5 -4.33398 1.5 -5.00098l1 1l6 -141l6 -8c-5.33301 -90.667 -8 -136.667 -8 -138c-4.66699 -8.66699 -18 -13 -40 -13h-11l-10 1h-94zM591.999 -416l17 -5.99902
c1.33301 -4 2 -8 2 -12s-3.83301 -6 -11.5 -6s-11.5 2.66699 -11.5 8s1.33301 10.666 4 15.999z" />
    <glyph glyph-name="paragraph" unicode="&#xb6;" horiz-adv-x="1323" 
d="M810 1303c-10 -120 -14.999 -448.667 -14.999 -986v-90l1 -88v-170l-234 -3c-39.333 0 -59 3 -59 9v199l3 625c-304.667 14 -462.334 133.667 -473.001 359c9.33301 129.333 67.666 222.333 174.999 279c93.333 49.333 225 74 395 74l23 -2h99l11 2l194 4
c133.333 2.66699 233.333 4 300 4c20 0 30 -14 30 -42v-47l1 -15l-1 -16l-4 -362c-0.666992 -48 -1.16699 -133.167 -1.5 -255.5s-1.16602 -216.166 -2.49902 -281.499l-9 -525c0 -0.666992 0.333008 -2.66699 1 -6c-2.66699 -8.66699 -12 -14.167 -28 -16.5
s-45 -3.5 -87 -3.5l-174 3c-4.66699 0 -14 11.333 -28 34v11l-1 15v34c0 70 2.33301 237.333 7 502l11 737l-63 5c-17.333 1.33301 -41 5.66602 -71 12.999zM796.001 -31h1c0.666992 0 1 -0.333008 1 -1c-1.33301 0 -2 0.333008 -2 1z" />
    <glyph glyph-name="middot" unicode="&#xb7;" horiz-adv-x="791" 
d="M393 779l11.001 -0.00195312c3.33301 0 10.333 -0.666992 21 -2h12c58 0 110.167 -27 156.5 -81s69.5 -116.167 69.5 -186.5s-25.333 -132.166 -76 -185.499s-113 -80 -187 -80s-135.833 25.5 -185.5 76.5s-77.834 111.833 -84.501 182.5
c6.66699 17.333 15 46.833 25 88.5s28 76.834 54 105.501h-1c48 54.667 109.667 82 185 82z" />
    <glyph glyph-name="cedilla" unicode="&#xb8;" horiz-adv-x="605" 
d="M247 -1l8.00195 -1.00391h17l138 -2c7.33301 -1.33301 11 -5.16602 11 -11.499s-2.16699 -13.166 -6.5 -20.499s-11.833 -19 -22.5 -35s-20.667 -32.667 -30 -50c80 0 142 -16.667 186 -50s66 -77 66 -131c0 -72.667 -31.333 -129.667 -94 -171
s-132.334 -62 -209.001 -62s-147 6.33301 -211 19s-96 28.334 -96 47.001c0 14 9.66699 37.667 29 71l13 29c0 2.66699 2 8.66699 6 18s9.66699 16 17 20c5.33301 -2 14.666 -5.66699 27.999 -11c59.333 -24 108 -36 146 -36c73.333 0 110 21 110 63c0 29.333 -26 44 -78 44
c-5.33301 -2 -16 -4.66699 -32 -8l-22 -7c-7.33301 0 -19 5.33301 -35 16l-22 14h1c-29.333 16.667 -44 36.334 -44 59.001c34.667 60.667 70 124 106 190c2.66699 2.66699 7.66699 4.66699 15 6h5zM221.002 -286.004v-20l-5 -1l-2 19z" />
    <glyph glyph-name="onesuperior" unicode="&#xb9;" horiz-adv-x="1030" 
d="M785 938l-0.999023 -40.998v-123c0 -116 1 -234 3 -354l5 -434c-6 -5.33301 -34 -8 -84 -8l-22 1h-197l-52 -1h-10l-18 -1l-9 1l-12 15v-1c-3.33301 5.33301 -5 12.666 -5 21.999c0 218.667 2.66699 444.667 8 678c-80.667 -54.667 -156.334 -94.334 -227.001 -119.001
c-2 0 -3 0.333008 -3 1v287l93 45c2 2 4.66699 3 8 3l19 9c103.333 48 170.333 93.667 201 137c92.667 -2 164.5 -3 215.5 -3s79.833 0.333008 86.5 1c0.666992 -3.33301 1 -15 1 -35v-80z" />
    <glyph glyph-name="ordmasculine" unicode="&#xba;" horiz-adv-x="938" 
d="M-17 1215l-0.000976562 10.002c26.667 162.667 125.334 267.667 296.001 315c47.333 12.667 101 19 161 19c130 0 243.667 -23 341 -69c110.667 -51.333 170 -140.333 178 -267c-13.333 -178.667 -126.333 -290.334 -339 -335.001c-58.667 -12 -118.667 -18 -180 -18
c-116 0 -216.833 25.167 -302.5 75.5s-137.167 140.166 -154.5 269.499z" />
    <glyph glyph-name="guillemotright" unicode="&#xbb;" horiz-adv-x="1332" 
d="M915 -21l-86.9971 2.00098h-19c-34.667 -2 -81.334 -3 -140.001 -3h-30c-24.667 0 -37.667 1 -39 3l219 535l-15 33l5 5l-207 480c-0.666992 0.666992 -1 2.66699 -1 6s20.333 5 61 5h219l100 3c25.333 0 47.333 -14.333 66 -43v1c5.33301 -10.667 10 -19.334 14 -26.001
l177 -284h-1l29 -47c52.667 -75.333 79 -118.333 79 -129s-1.66699 -20.167 -5 -28.5s-8.66602 -18.333 -15.999 -30s-13.833 -21.834 -19.5 -30.501s-13.834 -20.667 -24.501 -36s-18 -26 -22 -32l-22 -32c-26.667 -38.667 -62.834 -96.167 -108.501 -172.5
s-80.834 -133.166 -105.501 -170.499c-11.333 -6 -47 -9 -107 -9zM11.0029 1028l-1.99902 15c0 6 29.167 9 87.5 9s165.5 -2 321.5 -6c0 -1.33301 0.333008 -3 1 -5l160 -254c16 -26 42.167 -69.5 78.5 -130.5s65.166 -108.167 86.499 -141.5l-3 -3
c-32.667 -55.333 -68 -114.333 -106 -177h1c-26.667 -42 -57.667 -92.667 -93 -152l-112 -189c-10 -6 -36.333 -9 -79 -9h-32l-65 -1c-62.667 -4.66699 -119.5 -7 -170.5 -7s-76.5 2.66699 -76.5 8c0 19.333 16.667 61 50 125l57 132c27.333 63.333 43.333 100 48 110
l66 155zM801.004 559.001l3 -10l-31 -32l8 42h20zM447.004 -19.999l-3 -3l-14 14l3 3zM746.004 516.001h-1l-1 4zM745.004 516.001l-1 -1z" />
    <glyph glyph-name="onequarter" unicode="&#xbc;" horiz-adv-x="2592" 
d="M733 1563l-1 -40.998v-123c0 -116 1 -234 3 -354l5 -434c-6 -5.33301 -34 -8 -84 -8l-22 1h-197l-52 -1h-10l-18 -1l-9 1l-12 15v-1c-3.33301 5.33301 -5 12.666 -5 21.999c0 218.667 2.66699 444.667 8 678c-80.667 -54.667 -156.334 -94.334 -227.001 -119.001
c-2 0 -3 0.333008 -3 1v287l93 45c2 2 4.66699 3 8 3l19 9c103.333 48 170.333 93.667 201 137c93.333 -2 165.333 -3 216 -3s79.334 0.333008 86.001 1c0.666992 -3.33301 1 -15 1 -35v-80zM1553 1572l10 0.999023c28 0 42 -3.66699 42 -11
c-10 -44.667 -21.667 -85.667 -35 -123l-29 -77c-59.333 -172 -119.333 -350 -180 -534l-22 -63c-8 -22.667 -40.833 -119.667 -98.5 -291s-103.167 -300 -136.5 -386l-18 -47h2c-19.333 -53.333 -44 -85 -74 -95c-16.667 -5.33301 -37.667 -8.33301 -63 -9h-43
c-25.333 -3.33301 -61.333 -5 -108 -5h-51c-14 28.667 -23.333 49 -28 61c14.667 48 24 74 28 78l60 165c116.667 320.667 271.667 736.334 465 1247l34 87c11.333 3.33301 38 5 80 5l139 -3h26zM2451 433.001l16.0039 1c13.333 0 22.333 -1.33301 27 -4s7.66699 -10 9 -22
c8 1.33301 15.333 2 22 2l-24 -24l5 -171c0 -34.667 -1.5 -57.834 -4.5 -69.501s-9.83301 -17.5 -20.5 -17.5h-41l-15 -1h-46c1.33301 -57.333 2 -97.333 2 -120s-1.5 -37.334 -4.5 -44.001s-10.167 -10.667 -21.5 -12c-62.667 1.33301 -128.167 2 -196.5 2
s-129.166 -1.66699 -182.499 -5l-27 30l3 132v25c0 10 -12.833 15 -38.5 15s-59.834 -6.66699 -102.501 -20l-183 -2l-95 -2h-27c-14.667 0 -23.334 1 -26.001 3s-5.33398 3.66699 -8.00098 5s-4.83398 2.83301 -6.50098 4.5s-3.33398 3.83398 -5.00098 6.50098
s-3.5 5.33398 -5.5 8.00098c0 122.667 1.66699 209.334 5 260.001c30 76.667 63.333 145 100 205s64.667 105 84 135s33 50.667 41 62s12.667 18 14 20v-1l141 222c5.33301 0.666992 18.333 1.16699 39 1.5s36 1.16602 46 2.49902l66 2c60 3.33301 133.333 5 220 5h145
l23 -5l2 -10l-2 1v-37l-5 -390c0 -38.667 0.333008 -66 1 -82v-5l-1 -13v-12c-0.666992 -4.66699 -1 -13 -1 -25c0 -37.333 11 -56 33 -56h45zM1757 430.001l19 -37.001h12l194 3c10.667 6 17.667 14.333 21 25l-1 14v49l2 110c0 134.667 -10 204.334 -30 209.001
c-7.33301 -4 -12 -8 -14 -12l-53 -93c-14 -24.667 -26 -46 -36 -64z" />
    <glyph glyph-name="onehalf" unicode="&#xbd;" horiz-adv-x="2601" 
d="M733 1563l-1 -40.998v-123c0 -116 1 -234 3 -354l5 -434c-6 -5.33301 -34 -8 -84 -8l-22 1h-197l-52 -1h-10l-18 -1l-9 1l-12 15v-1c-3.33301 5.33301 -5 12.666 -5 21.999c0 218.667 2.66699 444.667 8 678c-80.667 -54.667 -156.334 -94.334 -227.001 -119.001
c-2 0 -3 0.333008 -3 1v287l93 45c2 2 4.66699 3 8 3l19 9c103.333 48 170.333 93.667 201 137c93.333 -2 165.333 -3 216 -3s79.334 0.333008 86.001 1c0.666992 -3.33301 1 -15 1 -35v-80zM1553 1572l10 0.999023c28 0 42 -3.66699 42 -11
c-10 -44.667 -21.667 -85.667 -35 -123l-29 -77c-59.333 -172 -119.333 -350 -180 -534l-22 -63c-8 -22.667 -40.833 -119.667 -98.5 -291s-103.167 -300 -136.5 -386l-18 -47h2c-19.333 -53.333 -44 -85 -74 -95c-16.667 -5.33301 -37.667 -8.33301 -63 -9h-43
c-25.333 -3.33301 -61.333 -5 -108 -5h-51c-14 28.667 -23.333 49 -28 61c14.667 48 24 74 28 78l60 165c116.667 320.667 271.667 736.334 465 1247l34 87c11.333 3.33301 38 5 80 5l139 -3h26zM2398 141.001l-4 -138v-13c0 -8 -2.66699 -12.333 -8 -13l-53 1
c-144.667 3.33301 -267.667 5 -369 5s-265.333 -4.33301 -492 -13l-7 8c-7.33301 6 -11 27 -11 63l3 206c0 4 9.66699 12.333 29 25s31.333 20.667 36 24s11 7.66602 19 12.999l166 112c69.333 48.667 126.333 93 171 133c78 70 117 134.333 117 193
c0 26 -7.83301 46.5 -23.5 61.5s-35.5 22.5 -59.5 22.5s-42.667 -5.16699 -56 -15.5s-21.666 -21.666 -24.999 -33.999s-6.66602 -25.666 -9.99902 -39.999s-7.33301 -23.833 -12 -28.5c-16.667 -0.666992 -38 -1 -64 -1h-179l-33 1h-59
c-10.667 0 -17.334 0.666992 -20.001 2c2.66699 48 9.5 91 20.5 129s31.833 73 62.5 105s77 61.167 139 87.5s134.167 39.5 216.5 39.5s150.5 -6.16699 204.5 -18.5s103 -30.833 147 -55.5s78.833 -58 104.5 -100s38.5 -86.833 38.5 -134.5s-7 -90.5 -21 -128.5
c-24 -68 -65.167 -128.833 -123.5 -182.5s-126.833 -105.5 -205.5 -155.5l1 1c-10.667 -6.66699 -31.334 -25.334 -62.001 -56.001l357 5c25.333 0 42.5 -9.33301 51.5 -28s13.5 -46 13.5 -82z" />
    <glyph glyph-name="threequarters" unicode="&#xbe;" horiz-adv-x="2588" 
d="M448 1049c-20.667 0 -30.9971 16.999 -30.9971 50.999c0 46.667 0.833008 82 2.5 106s7.5 36 17.5 36l13 -1h44c45.333 0 80.666 10.167 105.999 30.5s38 49.833 38 88.5c0 74 -29.667 111 -89 111c-24.667 0 -43.834 -5 -57.501 -15s-21.834 -21.333 -24.501 -34
c-8.66699 -41.333 -17 -66 -25 -74c-98 0 -188 1.33301 -270 4h-37c-20 0 -32 2 -36 6c1.33301 6 2.83301 23.333 4.5 52s5.83398 51.334 12.501 68.001c30.667 75.333 70.834 128.333 120.501 159s105.167 50.334 166.5 59.001s122.666 13 183.999 13
s114.666 -6.16699 159.999 -18.5s88.333 -30 129 -53s73.834 -54.167 99.501 -93.5s38.5 -79.333 38.5 -120c0 -74 -22.667 -128.333 -68 -163s-101.333 -62.334 -168 -83.001c92.667 -28.667 159 -63 199 -103s60 -90.333 60 -151c0 -192 -123 -304 -369 -336
c-43.333 -4 -95.333 -6 -156 -6s-123.834 9.5 -189.501 28.5s-121.5 51.5 -167.5 97.5c-45.333 40 -69.666 114.333 -72.999 223c0 2 0.333008 3 1 3l322 4l24 1c3.33301 0 5.66602 -2 6.99902 -6c4 -37.333 14.167 -65.333 30.5 -84s42 -28 77 -28s61.333 9.5 79 28.5
s26.5 41.5 26.5 67.5c0 88.667 -49.333 133 -148 133zM117.003 1482l1 2.00098c0 -0.666992 -0.333008 -1.33398 -1 -2.00098zM1694 1572l10 0.999023c28 0 42 -3.66699 42 -11c-10 -44.667 -21.667 -85.667 -35 -123l-29 -77c-59.333 -172 -119.333 -350 -180 -534l-22 -63
c-8 -22.667 -40.833 -119.667 -98.5 -291s-103.167 -300 -136.5 -386l-18 -47h2c-19.333 -53.333 -44.333 -85 -75 -95c-16 -5.33301 -36.667 -8.33301 -62 -9h-43c-25.333 -3.33301 -61.333 -5 -108 -5h-51c-14 28.667 -23.333 49 -28 61c14.667 48 24 74 28 78l60 165
c116.667 320.667 271.667 736.334 465 1247l34 87c11.333 3.33301 38 5 80 5l139 -3h26zM2477 432.999l16.0039 1c13.333 0 22.333 -1.33301 27 -4s7.66699 -10 9 -22c8 1.33301 15.333 2 22 2l-24 -24l5 -171c0 -34.667 -1.5 -57.834 -4.5 -69.501
s-9.83301 -17.5 -20.5 -17.5h-41l-15 -1h-46c1.33301 -57.333 2 -97.333 2 -120s-1.5 -37.334 -4.5 -44.001s-10.167 -10.667 -21.5 -12c-62.667 1.33301 -128.167 2 -196.5 2s-129.166 -1.66699 -182.499 -5l-27 30l3 132v25c0 10 -12.833 15 -38.5 15
s-59.834 -6.66699 -102.501 -20l-183 -2l-95 -2h-27c-14.667 0 -23.334 1 -26.001 3s-5.33398 3.66699 -8.00098 5s-4.83398 2.83301 -6.50098 4.5s-3.33398 3.83398 -5.00098 6.50098s-3.5 5.33398 -5.5 8.00098c0 122.667 1.66699 209.334 5 260.001
c30 76.667 63.333 145 100 205s64.667 105 84 135s33 50.667 41 62s12.667 18 14 20v-1l141 222c5.33301 0.666992 18.333 1.16699 39 1.5s36 1.16602 46 2.49902l66 2c60 3.33301 133.333 5 220 5h145l23 -5l2 -10l-2 1v-37l-5 -390c0 -38.667 0.333008 -66 1 -82v-5
l-1 -13v-12c-0.666992 -4.66699 -1 -13 -1 -25c0 -37.333 11 -56 33 -56h45zM1783.01 429.999l19 -37.001h12l194 3c10.667 6 17.667 14.333 21 25l-1 14v49l2 110c0 134.667 -10 204.334 -30 209.001c-7.33301 -4 -12 -8 -14 -12l-53 -93c-14 -24.667 -26 -46 -36 -64z" />
    <glyph glyph-name="questiondown" unicode="&#xbf;" horiz-adv-x="1121" 
d="M451 851l-10.002 95.001c2 2 4.33301 3.66699 7 5h1c5.33301 1.33301 12 2 20 2l120 2l38 -1c12 0 87 2 225 6l102 3c7.33301 -6.66699 11 -45.334 11 -116.001v-9c0 -70 -17.667 -128.667 -53 -176c-20.667 -28.667 -43.667 -54.834 -69 -78.501
s-50.666 -47.834 -75.999 -72.501c-60 -58 -96 -116 -108 -174c6 -36.667 21.167 -61.167 45.5 -73.5s55.166 -18.5 92.499 -18.5l4 1c90 2.66699 180.333 22.667 271 60l33 -28v-15c-1.33301 -158.667 -2 -277.667 -2 -357c0 -49.333 -139.333 -79.666 -418 -90.999
c-159.333 0 -292.666 24.667 -399.999 74l-45 23l1 -1c-57.333 36.667 -99.333 77.334 -126 122.001l-13 24c-11.333 24.667 -21 59 -29 103s-15 72.667 -21 86c4 84 24.667 152 62 204c44.667 67.333 104 129.333 178 186c26.667 20 52 40.667 76 62
c52.667 45.333 80.334 96.333 83.001 153zM449.998 1226l-2.99805 92.001v155c10 0 154 5.66699 432 17l70 3c14.667 -20.667 22 -35 22 -43v-70l-1 -19v-102l1 -23c0 -64 -6 -103.667 -18 -119l-85 3c-72.667 4 -152.334 6.83301 -239.001 8.5
s-138.334 5.16699 -155.001 10.5s-25 21.666 -25 48.999v25zM447 1495v-20l-28 -2c14.667 14.667 24 22 28 22z" />
    <glyph glyph-name="Agrave" unicode="&#xc0;" horiz-adv-x="1639" 
d="M1697 -11c-0.666992 -8.66699 -18.999 -12.999 -54.999 -12.999h-92l-62 -1h-61l-97 -1c-96.667 0 -177 2.33301 -241 7c-2 0.666992 -4.33301 4.66699 -7 12l-5 21c-6 68.667 -21.667 135 -47 199l-428 -4c-2.66699 -11.333 -11.334 -45 -26.001 -101
s-25.667 -98.333 -33 -127c-6.66699 -6.66699 -38.334 -10 -95.001 -10l-25 1h-58l-260 -6h-30l-28 -1h-70c-4.66699 4.66699 -9.66699 10.667 -15 18c66.667 230.667 157 516.667 271 858l23 71h-1l27 83c8.66699 26.667 33.5 100.667 74.5 222s66.667 199.666 77 234.999
s16.5 53.666 18.5 54.999h166l355 5l96 -5l79 5c40 0 60 -8 60 -24c66.667 -186 155.667 -453.667 267 -803s174 -545.666 188 -588.999l14 -50c4.66699 -18 11.334 -37 20.001 -57zM707.001 535.001l41.001 -0.999023l239 1c-10 79.333 -17.667 137.666 -23 174.999
l-38 171c-40 176.667 -60.667 266.667 -62 270s-2.5 6.5 -3.5 9.5s-1.83301 5 -2.5 6s-1.5 2.83301 -2.5 5.5s-2 4.5 -3 5.5s-2.16699 2.5 -3.5 4.5c-4.66699 8 -14.334 15 -29.001 21c-18 -4 -71.667 -204.667 -161 -602l-11 -66h59zM800.002 1657l-9.00098 -3.99902
c-1.33301 1.33301 -13.333 16 -36 44v-1l-31 38c-59.333 71.333 -116.666 134.833 -171.999 190.5s-83 91.834 -83 108.501c0 3.33301 3 7.66602 9 12.999c136.667 -12 283.334 -18 440.001 -18h30l6 1c14.667 -10.667 49.167 -61.834 103.5 -153.501
s88.166 -147 101.499 -166s20 -32.5 20 -40.5s-20.333 -12 -61 -12h-318z" />
    <glyph glyph-name="Aacute" unicode="&#xc1;" horiz-adv-x="1639" 
d="M1697 -11c-0.666992 -8.66699 -18.999 -12.999 -54.999 -12.999h-92l-62 -1h-61l-97 -1c-96.667 0 -177 2.33301 -241 7c-2 0.666992 -4.33301 4.66699 -7 12l-5 21c-6 68.667 -21.667 135 -47 199l-428 -4c-2.66699 -11.333 -11.334 -45 -26.001 -101
s-25.667 -98.333 -33 -127c-6.66699 -6.66699 -38.334 -10 -95.001 -10l-25 1h-58l-260 -6h-30l-28 -1h-70c-4.66699 4.66699 -9.66699 10.667 -15 18c66.667 230.667 157 516.667 271 858l23 71h-1l27 83c8.66699 26.667 33.5 100.667 74.5 222s66.667 199.666 77 234.999
s16.5 53.666 18.5 54.999h166l355 5l96 -5l79 5c40 0 60 -8 60 -24c66.667 -186 155.667 -453.667 267 -803s174 -545.666 188 -588.999l14 -50c4.66699 -18 11.334 -37 20.001 -57zM707.001 535.001l41.001 -0.999023l239 1c-10 79.333 -17.667 137.666 -23 174.999
l-38 171c-40 176.667 -60.667 266.667 -62 270s-2.5 6.5 -3.5 9.5s-1.83301 5 -2.5 6s-1.5 2.83301 -2.5 5.5s-2 4.5 -3 5.5s-2.16699 2.5 -3.5 4.5c-4.66699 8 -14.334 15 -29.001 21c-18 -4 -71.667 -204.667 -161 -602l-11 -66h59zM557.002 1662l-15.998 -0.996094h-49
l-15 29l168 286c28.667 42 45 65.333 49 70h70l418 -10v-3c-26.667 -30.667 -70.334 -79.834 -131.001 -147.501s-105.334 -117.834 -134.001 -150.501s-53.5 -52.334 -74.5 -59.001s-55.167 -10.334 -102.5 -11.001z" />
    <glyph glyph-name="Acircumflex" unicode="&#xc2;" horiz-adv-x="1639" 
d="M1697 -11c-0.666992 -8.66699 -18.999 -12.999 -54.999 -12.999h-92l-62 -1h-61l-97 -1c-96.667 0 -177 2.33301 -241 7c-2 0.666992 -4.33301 4.66699 -7 12l-5 21c-6 68.667 -21.667 135 -47 199l-428 -4c-2.66699 -11.333 -11.334 -45 -26.001 -101
s-25.667 -98.333 -33 -127c-6.66699 -6.66699 -38.334 -10 -95.001 -10l-25 1h-58l-260 -6h-30l-28 -1h-70c-4.66699 4.66699 -9.66699 10.667 -15 18c66.667 230.667 157 516.667 271 858l23 71h-1l27 83c8.66699 26.667 33.5 100.667 74.5 222s66.667 199.666 77 234.999
s16.5 53.666 18.5 54.999h166l355 5l96 -5l79 5c40 0 60 -8 60 -24c66.667 -186 155.667 -453.667 267 -803s174 -545.666 188 -588.999l14 -50c4.66699 -18 11.334 -37 20.001 -57zM707.001 535.001l41.001 -0.999023l239 1c-10 79.333 -17.667 137.666 -23 174.999
l-38 171c-40 176.667 -60.667 266.667 -62 270s-2.5 6.5 -3.5 9.5s-1.83301 5 -2.5 6s-1.5 2.83301 -2.5 5.5s-2 4.5 -3 5.5s-2.16699 2.5 -3.5 4.5c-4.66699 8 -14.334 15 -29.001 21c-18 -4 -71.667 -204.667 -161 -602l-11 -66h59zM1218 1692l-294.998 -7.00195
c-20.667 12 -39.334 35.667 -56.001 71c-4 8 -6.66699 13 -8 15l-30 60c-10.667 -10 -23.667 -26.667 -39 -50s-29 -43.333 -41 -60s-21.667 -25 -29 -25h-278l-49 -3c-38 0 -57 4 -57 12c0 1.33301 0.333008 3.33301 1 6c45.333 70 105.666 154.333 180.999 253l22 35
c16.667 27.333 40.667 43.833 72 49.5s121 9.83398 269 12.501l177 3c12 -6 23.667 -17.333 35 -34s18.666 -27.167 21.999 -31.5s7.83301 -10.833 13.5 -19.5s9.83398 -14.667 12.501 -18v1l62 -92c8 -12 23.667 -33.667 47 -65l20 -28
c3.33301 -5.33301 8.33301 -12.666 15 -21.999l17 -22c10.667 -14 16 -24.5 16 -31.5s-9 -10.5 -27 -10.5l-11 1h-62z" />
    <glyph glyph-name="Atilde" unicode="&#xc3;" horiz-adv-x="1639" 
d="M1697 -11c-0.666992 -8.66699 -18.999 -12.999 -54.999 -12.999h-92l-62 -1h-61l-97 -1c-96.667 0 -177 2.33301 -241 7c-2 0.666992 -4.33301 4.66699 -7 12l-5 21c-6 68.667 -21.667 135 -47 199l-428 -4c-2.66699 -11.333 -11.334 -45 -26.001 -101
s-25.667 -98.333 -33 -127c-6.66699 -6.66699 -38.334 -10 -95.001 -10l-25 1h-58l-260 -6h-30l-28 -1h-70c-4.66699 4.66699 -9.66699 10.667 -15 18c66.667 230.667 157 516.667 271 858l23 71h-1l27 83c8.66699 26.667 33.5 100.667 74.5 222s66.667 199.666 77 234.999
s16.5 53.666 18.5 54.999h166l355 5l96 -5l79 5c40 0 60 -8 60 -24c66.667 -186 155.667 -453.667 267 -803s174 -545.666 188 -588.999l14 -50c4.66699 -18 11.334 -37 20.001 -57zM707.001 535.001l41.001 -0.999023l239 1c-10 79.333 -17.667 137.666 -23 174.999
l-38 171c-40 176.667 -60.667 266.667 -62 270s-2.5 6.5 -3.5 9.5s-1.83301 5 -2.5 6s-1.5 2.83301 -2.5 5.5s-2 4.5 -3 5.5s-2.16699 2.5 -3.5 4.5c-4.66699 8 -14.334 15 -29.001 21c-18 -4 -71.667 -204.667 -161 -602l-11 -66h59zM1003 2025l22.999 19l253 -7
c2 -0.666992 6.33301 -5.66699 13 -15c-14.667 -229.333 -109.334 -344 -284.001 -344c-36 0 -83.333 7 -142 21l-58 18c-70.667 22 -114.167 33 -130.5 33s-28 -1.5 -35 -4.5s-11.167 -8.5 -12.5 -16.5s-2.66602 -16.5 -3.99902 -25.5s-79.333 -13.5 -234 -13.5h-27
c-4 4 -6 10 -6 18c0 114.667 25.667 200.167 77 256.5s124.333 84.5 219 84.5c35.333 0 97.333 -12.333 186 -37v1c20 -7.33301 49 -16 87 -26l30 -6c2.66699 0 7.33398 -3.33301 14.001 -10l25 28c3.33301 11.333 5.33301 20 6 26zM964.001 2019l9 10l7 -17z" />
    <glyph glyph-name="Adieresis" unicode="&#xc4;" horiz-adv-x="1639" 
d="M1697 -11c-0.666992 -8.66699 -18.999 -12.999 -54.999 -12.999h-92l-62 -1h-61l-97 -1c-96.667 0 -177 2.33301 -241 7c-2 0.666992 -4.33301 4.66699 -7 12l-5 21c-6 68.667 -21.667 135 -47 199l-428 -4c-2.66699 -11.333 -11.334 -45 -26.001 -101
s-25.667 -98.333 -33 -127c-6.66699 -6.66699 -38.334 -10 -95.001 -10l-25 1h-58l-260 -6h-30l-28 -1h-70c-4.66699 4.66699 -9.66699 10.667 -15 18c66.667 230.667 157 516.667 271 858l23 71h-1l27 83c8.66699 26.667 33.5 100.667 74.5 222s66.667 199.666 77 234.999
s16.5 53.666 18.5 54.999h166l355 5l96 -5l79 5c40 0 60 -8 60 -24c66.667 -186 155.667 -453.667 267 -803s174 -545.666 188 -588.999l14 -50c4.66699 -18 11.334 -37 20.001 -57zM707.001 535.001l41.001 -0.999023l239 1c-10 79.333 -17.667 137.666 -23 174.999
l-38 171c-40 176.667 -60.667 266.667 -62 270s-2.5 6.5 -3.5 9.5s-1.83301 5 -2.5 6s-1.5 2.83301 -2.5 5.5s-2 4.5 -3 5.5s-2.16699 2.5 -3.5 4.5c-4.66699 8 -14.334 15 -29.001 21c-18 -4 -71.667 -204.667 -161 -602l-11 -66h59zM1084 2037l170 3
c40.667 0 62 -2.66699 64 -8c3.33301 -101.333 5.66602 -215.333 6.99902 -342c-2 -4 -3 -7.33301 -3 -10l-7 1l-333 -14l-26 29c0 56.667 2 126.167 6 208.5s10 127.5 18 135.5c36.667 -2 71.334 -3 104.001 -3zM956.002 1695v1v-1zM1321 1679l14 -1
c0 -11.333 -4.66699 -17 -14 -17c-4 0 -7.33301 1.33301 -10 4zM751.002 1968l1.99902 -98.002v-31c0 -72.667 0.333008 -124.667 1 -156c-6.66699 -7.33301 -33.667 -11 -81 -11l-21 1h-51l-187 -7l-24 35c0 209.333 7.33301 322.333 22 339
c24 -0.666992 74.833 -1.16699 152.5 -1.5s137.834 -1.16602 180.501 -2.49902c4.66699 -1.33301 7 -9.66602 7 -24.999l-1 -11v-32z" />
    <glyph glyph-name="Aring" unicode="&#xc5;" horiz-adv-x="1639" 
d="M1697 -11c-0.666992 -8.66699 -18.999 -12.999 -54.999 -12.999h-92l-62 -1h-61l-97 -1c-96.667 0 -177 2.33301 -241 7c-2 0.666992 -4.33301 4.66699 -7 12l-5 21c-6 68.667 -21.667 135 -47 199l-428 -4c-2.66699 -11.333 -11.334 -45 -26.001 -101
s-25.667 -98.333 -33 -127c-6.66699 -6.66699 -38.334 -10 -95.001 -10l-25 1h-58l-260 -6h-30l-28 -1h-70c-4.66699 4.66699 -9.66699 10.667 -15 18c66.667 230.667 157 516.667 271 858l23 71h-1l27 83c8.66699 26.667 33.5 100.667 74.5 222s66.667 199.666 77 234.999
s16.5 53.666 18.5 54.999h166l355 5l96 -5l79 5c40 0 60 -8 60 -24c66.667 -186 155.667 -453.667 267 -803s174 -545.666 188 -588.999l14 -50c4.66699 -18 11.334 -37 20.001 -57zM707.001 535.001l41.001 -0.999023l239 1c-10 79.333 -17.667 137.666 -23 174.999
l-38 171c-40 176.667 -60.667 266.667 -62 270s-2.5 6.5 -3.5 9.5s-1.83301 5 -2.5 6s-1.5 2.83301 -2.5 5.5s-2 4.5 -3 5.5s-2.16699 2.5 -3.5 4.5c-4.66699 8 -14.334 15 -29.001 21c-18 -4 -71.667 -204.667 -161 -602l-11 -66h59zM1027 2150.5
c58.667 -54.333 87.998 -121.331 87.998 -200.998s-28.5 -146.834 -85.5 -201.501s-122.833 -82 -197.5 -82c-120.667 0 -209 59.333 -265 178c-18.667 39.333 -28 68.166 -28 86.499s1 34.5 3 48.5s9.5 37.333 22.5 70s30.833 63 53.5 91
c48.667 61.333 114.334 92 197.001 92s153.334 -27.167 212.001 -81.5zM920 2049c-26.667 24 -57.333 36 -92 36s-65.334 -10.833 -92.001 -32.5s-43.667 -51.5 -51 -89.5c0 -46 15.167 -82.167 45.5 -108.5s63.333 -39.5 99 -39.5s66.334 11.833 92.001 35.5
s38.5 56.667 38.5 99s-13.333 75.5 -40 99.5z" />
    <glyph glyph-name="AE" unicode="&#xc6;" horiz-adv-x="2383" 
d="M2326 -14l-332.001 3.00195c-92 0 -192.333 -1.66699 -301 -5c-11.333 -5.33301 -43.333 -8 -96 -8h-51c-30.667 -1.33301 -58.667 -2 -84 -2l-40 1l-149 -2c-58 0.666992 -120.667 3.33398 -188 8.00098c-2 0.666992 -4.33301 4.66699 -7 12l-6 22
c-20.667 132 -55.667 198 -105 198h-1l-369 -4c-6 -24.667 -15.667 -62.667 -29 -114s-23 -89.333 -29 -114c-7.33301 -6.66699 -39.333 -10 -96 -10l-23 1h-59l-260 -6h-31l-27 -1h-70c-4.66699 4.66699 -9.66699 10.667 -15 18c56 193.333 141.167 463.166 255.5 809.499
s181.5 551.666 201.5 615.999s30.667 97.166 32 98.499h167l355 5l96 -5l79 5c13.333 0 24.333 -1.33301 33 -4c308 5.33301 539 8 693 8c6 -3.33301 10.667 -7 14 -11l52 -178c30 -106 49 -174.667 57 -206c-4 -4 -21 -6 -51 -6h-7c-165.333 0 -336.666 2.66699 -513.999 8
c14 -84.667 27.667 -153 41 -205l296 7c54.667 1.33301 107.167 2 157.5 2s80.833 -10 91.5 -30l7 -32c8.66699 -32 24 -80.333 46 -145h-1l40 -137c-194 -10 -352 -15 -474 -15h-57l56 -191l534 17c33.333 0 56 -5.66699 68 -17l81 -278c1.33301 -6 6.5 -21.667 15.5 -47
s13.5 -42.333 13.5 -51s-3.33301 -13.667 -10 -15zM2099 583.002l7 1l4 -3c-5.33301 0 -8 -1.33301 -8 -4v-3zM1278 -28.998l6 -5l-14 -15l-5 4zM702.999 535.002l41.0039 -1.00098c155.333 0 234.666 20.333 237.999 61c0 19.333 -3.33301 41.5 -10 66.5
s-10.667 41.167 -12 48.5l-38 171c-15.333 62.667 -35.333 151 -60 265l-4 9c0 3.33301 -0.833008 6.33301 -2.5 9s-3 5.33398 -4 8.00098s-2 4.5 -3 5.5s-2.16699 2.5 -3.5 4.5c-4.66699 8 -14.334 15 -29.001 21c-28 -2.66699 -54.833 -50.167 -80.5 -142.5
s-48.834 -185.5 -69.501 -279.5s-34.334 -154 -41.001 -180l39 -66h39z" />
    <glyph glyph-name="Ccedilla" unicode="&#xc7;" horiz-adv-x="1556" 
d="M49 797c16 152 42.6699 266.33 80.0029 342.997c71.333 148 177.666 253 318.999 315c126 55.333 263 83 411 83c248 0 429 -68 543 -204c68.667 -80.667 108.334 -181 119.001 -301l9 -94c-11.333 -10.667 -83 -16 -215 -16l-159 2h-13l-87 2l-24 -1h-20
c-18.667 0 -32.834 27.333 -42.501 82s-24.334 90.834 -44.001 108.501s-42.5 26.5 -68.5 26.5s-48.833 -4.66699 -68.5 -14s-35.834 -20.5 -48.501 -33.5s-23.334 -31.5 -32.001 -55.5c-16 -41.333 -25.667 -85.166 -29 -131.499s-5 -98.166 -5 -155.499v-24l-4 -101
c0 -184 52 -278 156 -282c26.667 0 45.334 4.66699 56.001 14c28.667 25.333 53.667 76.333 75 153c4.66699 16 10.334 29 17.001 39h38l46 -1h162l49 1l95 -1h58l59 -1h40c8 -0.666992 13.667 -7.66699 17 -21l-3 -33c-6 -78.667 -24.333 -150 -55 -214
c-56.667 -117.333 -145.834 -204.5 -267.501 -261.5s-255.167 -85.5 -400.5 -85.5c-254 0 -444.667 75 -572 225s-191 362.333 -191 637zM723.003 -1.00293l8.00195 -1.00391h17l138 -2c7.33301 -1.33301 11 -5.16602 11 -11.499s-2.16699 -13.166 -6.5 -20.499
s-11.833 -19 -22.5 -35s-20.667 -32.667 -30 -50c80 0 142 -16.667 186 -50s66 -77 66 -131c0 -72.667 -31.333 -129.667 -94 -171s-132.334 -62 -209.001 -62s-147 6.33301 -211 19s-96 28.334 -96 47.001c0 14 9.66699 37.667 29 71l13 29c0 2.66699 2 8.66699 6 18
s9.66699 16 17 20c5.33301 -2 14.666 -5.66699 27.999 -11c59.333 -24 108 -36 146 -36c73.333 0 110 21 110 63c0 29.333 -26 44 -78 44c-5.33301 -2 -16 -4.66699 -32 -8l-22 -7c-7.33301 0 -19 5.33301 -35 16l-22 14h1c-29.333 16.667 -44 36.334 -44 59.001
c34.667 60.667 70 124 106 190c2.66699 2.66699 7.66699 4.66699 15 6h5zM697.005 -286.007v-20l-5 -1l-2 19z" />
    <glyph glyph-name="Egrave" unicode="&#xc8;" horiz-adv-x="1306" 
d="M114 1238l-5.00195 262.998c0.666992 0 3 -1 7 -3c506.667 8.66699 888.334 13.334 1145 14.001c2.66699 -1.33301 4.66699 -3.33301 6 -6v-282c0 -27.333 -0.666992 -49.666 -2 -66.999c-3.33301 -10.667 -23 -16 -59 -16h-7c-161.333 0 -329.333 2.66699 -504 8
c0 -6 -0.833008 -16.667 -2.5 -32s-2.83398 -26.333 -3.50098 -33l-5 -38c-3.33301 -25.333 -5.66602 -69.333 -6.99902 -132l310 7c53.333 1.33301 92 2 116 2h16c40.667 0 67.334 -1.16699 80.001 -3.5s19 -9.16602 19 -20.499l-1 -8v-24l5 -257l-1 -1v1
c-202.667 -10 -364.667 -15 -486 -15h-47v-242l543 17c30 0 49 -4.33301 57 -13c-0.666992 -17.333 -1 -42 -1 -74l7 -272c0 -16.667 -7.33301 -26.334 -22 -29.001l-332 3c-65.333 0 -195.333 -2.33301 -390 -7l-164 -4c-116 -4 -202 -6 -258 -6l-3 2h1l-19 19v35l6 1069z
M589.998 1685l-9.00098 -3.99902c-1.33301 1.33301 -13.333 16 -36 44v-1l-31 38c-59.333 71.333 -116.666 134.833 -171.999 190.5s-83 91.834 -83 108.501c0 3.33301 3 7.66602 9 12.999c136.667 -12 283.334 -18 440.001 -18h30l6 1
c14.667 -10.667 49.167 -61.834 103.5 -153.501s88.166 -147 101.499 -166s20 -32.5 20 -40.5s-20.333 -12 -61 -12h-318z" />
    <glyph glyph-name="Eacute" unicode="&#xc9;" horiz-adv-x="1306" 
d="M114 1238l-5.00195 262.998c0.666992 0 3 -1 7 -3c506.667 8.66699 888.334 13.334 1145 14.001c2.66699 -1.33301 4.66699 -3.33301 6 -6v-282c0 -27.333 -0.666992 -49.666 -2 -66.999c-3.33301 -10.667 -23 -16 -59 -16h-7c-161.333 0 -329.333 2.66699 -504 8
c0 -6 -0.833008 -16.667 -2.5 -32s-2.83398 -26.333 -3.50098 -33l-5 -38c-3.33301 -25.333 -5.66602 -69.333 -6.99902 -132l310 7c53.333 1.33301 92 2 116 2h16c40.667 0 67.334 -1.16699 80.001 -3.5s19 -9.16602 19 -20.499l-1 -8v-24l5 -257l-1 -1v1
c-202.667 -10 -364.667 -15 -486 -15h-47v-242l543 17c30 0 49 -4.33301 57 -13c-0.666992 -17.333 -1 -42 -1 -74l7 -272c0 -16.667 -7.33301 -26.334 -22 -29.001l-332 3c-65.333 0 -195.333 -2.33301 -390 -7l-164 -4c-116 -4 -202 -6 -258 -6l-3 2h1l-19 19v35l6 1069z
M396.998 1873l-15.998 -0.996094h-49l-15 29l168 286c28.667 42 45 65.333 49 70h70l418 -10v-3c-26.667 -30.667 -70.334 -79.834 -131.001 -147.501s-105.334 -117.834 -134.001 -150.501s-53.5 -52.334 -74.5 -59.001s-55.167 -10.334 -102.5 -11.001z" />
    <glyph glyph-name="Ecircumflex" unicode="&#xca;" horiz-adv-x="1306" 
d="M114 1238l-5.00195 262.998c0.666992 0 3 -1 7 -3c506.667 8.66699 888.334 13.334 1145 14.001c2.66699 -1.33301 4.66699 -3.33301 6 -6v-282c0 -27.333 -0.666992 -49.666 -2 -66.999c-3.33301 -10.667 -23 -16 -59 -16h-7c-161.333 0 -329.333 2.66699 -504 8
c0 -6 -0.833008 -16.667 -2.5 -32s-2.83398 -26.333 -3.50098 -33l-5 -38c-3.33301 -25.333 -5.66602 -69.333 -6.99902 -132l310 7c53.333 1.33301 92 2 116 2h16c40.667 0 67.334 -1.16699 80.001 -3.5s19 -9.16602 19 -20.499l-1 -8v-24l5 -257l-1 -1v1
c-202.667 -10 -364.667 -15 -486 -15h-47v-242l543 17c30 0 49 -4.33301 57 -13c-0.666992 -17.333 -1 -42 -1 -74l7 -272c0 -16.667 -7.33301 -26.334 -22 -29.001l-332 3c-65.333 0 -195.333 -2.33301 -390 -7l-164 -4c-116 -4 -202 -6 -258 -6l-3 2h1l-19 19v35l6 1069z
M1079 1680l-294.998 -7.00195c-20.667 12 -39.334 35.667 -56.001 71c-4 8 -6.66699 13 -8 15l-30 60c-10.667 -10 -23.667 -26.667 -39 -50s-29 -43.333 -41 -60s-21.667 -25 -29 -25h-278l-49 -3c-38 0 -57 4 -57 12c0 1.33301 0.333008 3.33301 1 6
c45.333 70 105.666 154.333 180.999 253l22 35c16.667 27.333 40.667 43.833 72 49.5s121 9.83398 269 12.501l177 3c12 -6 23.667 -17.333 35 -34s18.666 -27.167 21.999 -31.5s7.83301 -10.833 13.5 -19.5s9.83398 -14.667 12.501 -18v1l62 -92
c8 -12 23.667 -33.667 47 -65l20 -28c3.33301 -5.33301 8.33301 -12.666 15 -21.999l17 -22c10.667 -14 16 -24.5 16 -31.5s-9 -10.5 -27 -10.5l-11 1h-62z" />
    <glyph glyph-name="Edieresis" unicode="&#xcb;" horiz-adv-x="1306" 
d="M114 1238l-5.00195 262.998c0.666992 0 3 -1 7 -3c506.667 8.66699 888.334 13.334 1145 14.001c2.66699 -1.33301 4.66699 -3.33301 6 -6v-282c0 -27.333 -0.666992 -49.666 -2 -66.999c-3.33301 -10.667 -23 -16 -59 -16h-7c-161.333 0 -329.333 2.66699 -504 8
c0 -6 -0.833008 -16.667 -2.5 -32s-2.83398 -26.333 -3.50098 -33l-5 -38c-3.33301 -25.333 -5.66602 -69.333 -6.99902 -132l310 7c53.333 1.33301 92 2 116 2h16c40.667 0 67.334 -1.16699 80.001 -3.5s19 -9.16602 19 -20.499l-1 -8v-24l5 -257l-1 -1v1
c-202.667 -10 -364.667 -15 -486 -15h-47v-242l543 17c30 0 49 -4.33301 57 -13c-0.666992 -17.333 -1 -42 -1 -74l7 -272c0 -16.667 -7.33301 -26.334 -22 -29.001l-332 3c-65.333 0 -195.333 -2.33301 -390 -7l-164 -4c-116 -4 -202 -6 -258 -6l-3 2h1l-19 19v35l6 1069z
M919.998 2040l170 3c40.667 0 62 -2.66699 64 -8c3.33301 -101.333 5.66602 -215.333 6.99902 -342c-2 -4 -3 -7.33301 -3 -10l-7 1l-333 -14l-26 29c0 56.667 2 126.167 6 208.5s10 127.5 18 135.5c36.667 -2 71.334 -3 104.001 -3zM791.998 1698v1v-1zM1157 1682l14 -1
c0 -11.333 -4.66699 -17 -14 -17c-4 0 -7.33301 1.33301 -10 4zM586.998 1971l1.99902 -98.0029v-31c0 -72.667 0.333008 -124.667 1 -156c-6.66699 -7.33301 -33.667 -11 -81 -11l-21 1h-51l-187 -7c-14 20.667 -22 32.334 -24 35.001c0 209.333 7.33301 322.333 22 339
c24 -0.666992 74.833 -1.16699 152.5 -1.5s137.834 -1.16602 180.501 -2.49902c4.66699 -1.33301 7 -9.66602 7 -24.999l-1 -11v-32z" />
    <glyph glyph-name="Igrave" unicode="&#xcc;" horiz-adv-x="829" 
d="M98 107c0 135.333 3.66797 229.333 11.001 282c0 290 4 582.333 12 877c-2 42 -3 84.333 -3 127v33c-2.66699 20.667 -4 39 -4 55s1.66699 26.333 5 31c142.667 -8.66699 267.667 -13 375 -13s181 2 221 6c1.33301 -2 2.33301 -7.66699 3 -17h-7v-362l7 -814
c0 -6 1 -11 3 -15v-2c2 -4 3 -8.33301 3 -13l8 -291c-3.33301 -7.33301 -9.33301 -13 -18 -17h-34l-560 -9c-6.66699 3.33301 -15.334 8.33301 -26.001 15l1 17zM529.001 2053l5.99902 1c14.667 -10.667 49.167 -61.834 103.5 -153.501s88.166 -147 101.499 -166
s20 -32.5 20 -40.5s-20.333 -12 -61 -12h-318l-6 -2c-0.666992 0 -1.66699 -0.666992 -3 -2c-1.33301 1.33301 -13.333 16 -36 44v-1l-31 38c-59.333 71.333 -116.666 134.833 -171.999 190.5s-83 91.834 -83 108.501c0 4 3 8.33301 9 13
c136.667 -12 283.334 -18 440.001 -18h30z" />
    <glyph glyph-name="Iacute" unicode="&#xcd;" horiz-adv-x="832" 
d="M102 107c0 135.333 3.66797 229.333 11.001 282c0 290 4 582.333 12 877c-2 42 -3 84.333 -3 127v33c-2.66699 20.667 -4 39 -4 55s1.66699 26.333 5 31c142.667 -8.66699 267.667 -13 375 -13s181 2 221 6c1.33301 -2 2.33301 -7.66699 3 -17h-7v-362l7 -814
c0 -6 1 -11 3 -15v-2c2 -4 3 -8.33301 3 -13l8 -291c-3.33301 -7.33301 -9.33301 -13 -18 -17h-34l-560 -9c-6.66699 3.33301 -15.334 8.33301 -26.001 15l1 17zM256.001 1671l-15.998 -0.996094h-49l-15 29l168 286c28.667 42 45 65.333 49 70h70l418 -10v-3
c-26.667 -30.667 -70.334 -79.834 -131.001 -147.501s-105.334 -117.834 -134.001 -150.501s-53.5 -52.334 -74.5 -59.001s-55.167 -10.334 -102.5 -11.001z" />
    <glyph glyph-name="Icircumflex" unicode="&#xce;" horiz-adv-x="843" 
d="M100 107c0 135.333 3.66797 229.333 11.001 282c0 290 4 582.333 12 877c-2 42 -3 84.333 -3 127v33c-2.66699 20.667 -4 39 -4 55s1.66699 26.333 5 31c142.667 -8.66699 267.667 -13 375 -13s181 2 221 6c1.33301 -2 2.33301 -7.66699 3 -17h-7v-362l7 -814
c0 -6 1 -11 3 -15v-2c2 -4 3 -8.33301 3 -13l8 -291c-3.33301 -7.33301 -9.33301 -13 -18 -17h-34l-560 -9c-6.66699 3.33301 -15.334 8.33301 -26.001 15l1 17zM878.001 1683l-294.999 -7.00195c-20.667 12 -39.667 36 -57 72c-3.33301 7.33301 -5.66602 12 -6.99902 14
l-30 60c-10.667 -10 -23.667 -26.667 -39 -50s-29 -43.333 -41 -60s-21.667 -25 -29 -25h-278l-49 -3c-38 0 -57 4 -57 12c0 1.33301 0.333008 3.33301 1 6c45.333 70 105.666 154.333 180.999 253l22 35c16.667 27.333 40.667 43.833 72 49.5s121 9.83398 269 12.501l177 3
c12 -6 23.667 -17.333 35 -34s18.666 -27.167 21.999 -31.5s7.83301 -10.833 13.5 -19.5s9.83398 -14.667 12.501 -18v1l62 -92c8 -12 23.667 -33.667 47 -65l20 -28c3.33301 -5.33301 8.66602 -12.666 15.999 -21.999l16 -22c10.667 -14 16 -24.5 16 -31.5
s-9 -10.5 -27 -10.5l-11 1h-62z" />
    <glyph glyph-name="Idieresis" unicode="&#xcf;" horiz-adv-x="829" 
d="M94 107c0 135.333 3.66797 229.333 11.001 282c0 290 4 582.333 12 877c-2 42 -3 84.333 -3 127v33c-2.66699 20.667 -4 39 -4 55s1.66699 26.333 5 31c142.667 -8.66699 267.667 -13 375 -13s181 2 221 6c1.33301 -2 2.33301 -7.66699 3 -17h-7v-362l7 -814
c0 -6 1 -11 3 -15v-2c2 -4 3 -8.33301 3 -13l8 -291c-3.33301 -7.33301 -9.33301 -13 -18 -17h-34l-560 -9c-6.66699 3.33301 -15.334 8.33301 -26.001 15l1 17zM698.001 2047l170 3c40.667 0 62 -2.66699 64 -8c3.33301 -101.333 5.66602 -215.333 6.99902 -342
c-2 -4 -3 -7.33301 -3 -10l-7 1l-333 -14l-26 29c0 56.667 2 126.167 6 208.5s10 127.5 18 135.5c36.667 -2 71.334 -3 104.001 -3zM570.001 1705v1v-1zM935.001 1689l14 -1c0 -11.333 -4.66699 -17 -14 -17c-4 0 -7.33301 1.33301 -10 4zM365.001 1978l1.99902 -98.0029
v-31c0 -72.667 0.333008 -124.667 1 -156c-6.66699 -7.33301 -33.667 -11 -81 -11l-21 1h-51l-187 -7c-14 20.667 -22 32.334 -24 35.001c0 209.333 7.33301 322.333 22 339c24 -0.666992 74.833 -1.16699 152.5 -1.5s137.834 -1.16602 180.501 -2.49902
c4.66699 -1.33301 7 -9.66602 7 -24.999l-1 -11v-32z" />
    <glyph glyph-name="Eth" unicode="&#xd0;" 
d="M513 1512l185.002 3.00195c328.667 0 557.667 -54 687 -162l9 -7h-1c102.667 -92.667 172 -221.334 208 -386.001c14 -64 21 -138 21 -222s-13.333 -168 -40 -252c-48.667 -158 -137.334 -282 -266.001 -372s-274.334 -135.667 -437.001 -137l-4 -4h-25l-264 3
c-120.667 0 -271.667 -3 -453 -9c-14 22 -21 48 -21 78l1 43v156l2 222v168c-16.667 -0.666992 -64 -1 -142 -1c-3.33301 1.33301 -11.333 6.33301 -24 15l1 14v16l2 82v11l-2 41c0 30 5 45 15 45h149c-0.666992 31.333 -1 85.666 -1 162.999v164l1 23v286
c0 5.33301 36.5 9.83301 109.5 13.5s130.833 5.5 173.5 5.5h116zM652.002 467.002l-1 -66.999c0 -70.667 14.667 -108 44 -112c69.333 1.33301 122.333 6 159 14c132.667 46 199 205.667 199 479c0 112.667 -7 189 -21 229c-26 77.333 -60.333 131.666 -103 162.999
c-36 22.667 -69.333 35 -100 37s-59.167 3.33301 -85.5 4s-45.833 1.33398 -58.5 2.00098c-12 -17.333 -20 -30.333 -24 -39l-20 -37v-57c0 -52 0.666992 -115.333 2 -190v-35h50l42 -1h66c10.667 -8.66699 16 -42.334 16 -101.001l-1 -28v-52
c0 -20.667 -9.33301 -31 -28 -31l-18 1h-121z" />
    <glyph glyph-name="Ntilde" unicode="&#xd1;" horiz-adv-x="1727" 
d="M1627 700l-1.00098 -66.998v-370l2 -176v-50l1 -47c-4 -5.33301 -20.333 -8 -49 -8h-26l-314 -4c-133.333 0 -232.666 0.333008 -297.999 1c-10 10.667 -46.333 107.667 -109 291l-191 507l-36 -5l-1 -102v-271l4 -271v-112c0 -30 -6.66699 -45.667 -20 -47
c-66 2 -129 3 -189 3h-31l-151 -4h-20l-72 -2l-3 2c-22 20.667 -33 35.667 -33 45v18l1 20l5 390c0 428 4 751.667 12 971l2 83c0 6 229.667 11.333 689 16c4 -2.66699 10 -17.334 18 -44.001v3l6 -20c49.333 -141.333 109.333 -303.5 180 -486.5s106.667 -276.5 108 -280.5
l34 2l4 815c0 5.33301 48.667 8 146 8l251 -5h74c4.66699 -220.667 7 -488.334 7 -803.001zM1044 2214l22.999 19l253 -7c2 -0.666992 6.33301 -5.66699 13 -15c-14.667 -229.333 -109.334 -344 -284.001 -344c-36.667 0 -84 7 -142 21l-58 18
c-70.667 22 -114.167 33 -130.5 33s-28 -1.5 -35 -4.5s-11.167 -8.5 -12.5 -16.5s-2.66602 -16.5 -3.99902 -25.5s-79.333 -13.5 -234 -13.5h-27c-4 4 -6 10 -6 18c0 114.667 25.667 200.167 77 256.5s124.333 84.5 219 84.5c35.333 0 97.333 -12.333 186 -37v1
c20 -7.33301 49 -16 87 -26l30 -6c2.66699 0 7.33398 -3.33301 14.001 -10l25 28c3.33301 11.333 5.33301 20 6 26zM1005 2208l9 10l7 -17z" />
    <glyph glyph-name="Ograve" unicode="&#xd2;" 
d="M610 760c0 -0.666992 -0.332031 -2.33008 -0.999023 -4.99707v-3c-2.66699 -28 -4 -59.333 -4 -94s2.83301 -71.334 8.5 -110.001s15 -77.334 28 -116.001s33.167 -70 60.5 -94c29.333 -25.333 62.166 -38 98.499 -38s67 5.16699 92 15.5s46 23.5 63 39.5
s31.833 37.667 44.5 65c32 72.667 48 185.334 48 338.001c0 155.333 -17.833 264.166 -53.5 326.499s-89.5 93.5 -161.5 93.5c-36 0 -67.5 -8.66699 -94.5 -26s-47.333 -35.333 -61 -54s-27.667 -58.334 -42 -119.001s-21.5 -116.667 -21.5 -168zM35.001 752.004
l1.99707 22.001c8 83.333 18.667 157.166 32 221.499s35 124.5 65 180.5c71.333 123.333 170.833 216.833 298.5 280.5s265.334 95.5 413.001 95.5s281.834 -29.667 402.501 -89c72 -35.333 128.333 -80 169 -134c78 -97.333 129.333 -187 154 -269s37 -176.667 37 -284
c0 -238.667 -49.333 -420.667 -148 -546l-46 -61c-62 -72 -149.667 -127.5 -263 -166.5s-225.666 -59.167 -336.999 -60.5c-190.667 0 -347 40 -469 120c-206.667 134 -310 364 -310 690zM726.998 1697l-9.00098 -3.99902c-1.33301 1.33301 -13.333 16 -36 44v-1l-31 38
c-59.333 71.333 -116.666 134.833 -171.999 190.5s-83 91.834 -83 108.501c0 3.33301 3 7.66602 9 12.999c136.667 -12 283.334 -18 440.001 -18h30l6 1c14.667 -10.667 49.167 -61.834 103.5 -153.501s88.166 -147 101.499 -166s20 -32.5 20 -40.5s-20.333 -12 -61 -12
h-318z" />
    <glyph glyph-name="Oacute" unicode="&#xd3;" 
d="M610 760c0 -0.666992 -0.332031 -2.33008 -0.999023 -4.99707v-3c-2.66699 -28 -4 -59.333 -4 -94s2.83301 -71.334 8.5 -110.001s15 -77.334 28 -116.001s33.167 -70 60.5 -94c29.333 -25.333 62.166 -38 98.499 -38s67 5.16699 92 15.5s46 23.5 63 39.5
s31.833 37.667 44.5 65c32 72.667 48 185.334 48 338.001c0 155.333 -17.833 264.166 -53.5 326.499s-89.5 93.5 -161.5 93.5c-36 0 -67.5 -8.66699 -94.5 -26s-47.333 -35.333 -61 -54s-27.667 -58.334 -42 -119.001s-21.5 -116.667 -21.5 -168zM35.001 752.004
l1.99707 22.001c8 83.333 18.667 157.166 32 221.499s35 124.5 65 180.5c71.333 123.333 170.833 216.833 298.5 280.5s265.334 95.5 413.001 95.5s281.834 -29.667 402.501 -89c72 -35.333 128.333 -80 169 -134c78 -97.333 129.333 -187 154 -269s37 -176.667 37 -284
c0 -238.667 -49.333 -420.667 -148 -546l-46 -61c-62 -72 -149.667 -127.5 -263 -166.5s-225.666 -59.167 -336.999 -60.5c-190.667 0 -347 40 -469 120c-206.667 134 -310 364 -310 690zM542.998 1681l-15.998 -0.996094h-49l-15 29l168 286c28.667 42 45 65.333 49 70h70
l418 -10v-3c-26.667 -30.667 -70.334 -79.834 -131.001 -147.501s-105.334 -117.834 -134.001 -150.501s-53.5 -52.334 -74.5 -59.001s-55.167 -10.334 -102.5 -11.001z" />
    <glyph glyph-name="Ocircumflex" unicode="&#xd4;" 
d="M610 760c0 -0.666992 -0.332031 -2.33008 -0.999023 -4.99707v-3c-2.66699 -28 -4 -59.333 -4 -94s2.83301 -71.334 8.5 -110.001s15 -77.334 28 -116.001s33.167 -70 60.5 -94c29.333 -25.333 62.166 -38 98.499 -38s67 5.16699 92 15.5s46 23.5 63 39.5
s31.833 37.667 44.5 65c32 72.667 48 185.334 48 338.001c0 155.333 -17.833 264.166 -53.5 326.499s-89.5 93.5 -161.5 93.5c-36 0 -67.5 -8.66699 -94.5 -26s-47.333 -35.333 -61 -54s-27.667 -58.334 -42 -119.001s-21.5 -116.667 -21.5 -168zM35.001 752.004
l1.99707 22.001c8 83.333 18.667 157.166 32 221.499s35 124.5 65 180.5c71.333 123.333 170.833 216.833 298.5 280.5s265.334 95.5 413.001 95.5s281.834 -29.667 402.501 -89c72 -35.333 128.333 -80 169 -134c78 -97.333 129.333 -187 154 -269s37 -176.667 37 -284
c0 -238.667 -49.333 -420.667 -148 -546l-46 -61c-62 -72 -149.667 -127.5 -263 -166.5s-225.666 -59.167 -336.999 -60.5c-190.667 0 -347 40 -469 120c-206.667 134 -310 364 -310 690zM1230 1689l-294.998 -7.00195c-20.667 12 -39.334 35.667 -56.001 71
c-4 8 -6.66699 13 -8 15l-30 60c-10.667 -10 -23.667 -26.667 -39 -50s-29 -43.333 -41 -60s-21.667 -25 -29 -25h-278l-49 -3c-38 0 -57 4 -57 12c0 1.33301 0.333008 3.33301 1 6c45.333 70 105.666 154.333 180.999 253l22 35c16.667 27.333 40.667 43.833 72 49.5
s121 9.83398 269 12.501l177 3c12 -6 23.667 -17.333 35 -34s18.666 -27.167 21.999 -31.5s7.83301 -10.833 13.5 -19.5s9.83398 -14.667 12.501 -18v1l62 -92c8 -12 23.667 -33.667 47 -65l20 -28c3.33301 -5.33301 8.33301 -12.666 15 -21.999l17 -22
c10.667 -14 16 -24.5 16 -31.5s-9 -10.5 -27 -10.5l-11 1h-62z" />
    <glyph glyph-name="Otilde" unicode="&#xd5;" 
d="M610 760c0 -0.666992 -0.332031 -2.33008 -0.999023 -4.99707v-3c-2.66699 -28 -4 -59.333 -4 -94s2.83301 -71.334 8.5 -110.001s15 -77.334 28 -116.001s33.167 -70 60.5 -94c29.333 -25.333 62.166 -38 98.499 -38s67 5.16699 92 15.5s46 23.5 63 39.5
s31.833 37.667 44.5 65c32 72.667 48 185.334 48 338.001c0 155.333 -17.833 264.166 -53.5 326.499s-89.5 93.5 -161.5 93.5c-36 0 -67.5 -8.66699 -94.5 -26s-47.333 -35.333 -61 -54s-27.667 -58.334 -42 -119.001s-21.5 -116.667 -21.5 -168zM35.001 752.004
l1.99707 22.001c8 83.333 18.667 157.166 32 221.499s35 124.5 65 180.5c71.333 123.333 170.833 216.833 298.5 280.5s265.334 95.5 413.001 95.5s281.834 -29.667 402.501 -89c72 -35.333 128.333 -80 169 -134c78 -97.333 129.333 -187 154 -269s37 -176.667 37 -284
c0 -238.667 -49.333 -420.667 -148 -546l-46 -61c-62 -72 -149.667 -127.5 -263 -166.5s-225.666 -59.167 -336.999 -60.5c-190.667 0 -347 40 -469 120c-206.667 134 -310 364 -310 690zM994.998 2025l22.999 19l253 -7c2 -0.666992 6.33301 -5.66699 13 -15
c-14.667 -229.333 -109.334 -344 -284.001 -344c-36 0 -83.333 7 -142 21l-58 18c-70.667 22 -114.167 33 -130.5 33s-28 -1.5 -35 -4.5s-11.167 -8.5 -12.5 -16.5s-2.66602 -16.5 -3.99902 -25.5s-79.333 -13.5 -234 -13.5h-27c-4 4 -6 10 -6 18
c0 114.667 25.667 200.167 77 256.5s124.333 84.5 219 84.5c35.333 0 97.333 -12.333 186 -37v1c20 -7.33301 49 -16 87 -26l30 -6c2.66699 0 7.33398 -3.33301 14.001 -10l25 28c3.33301 11.333 5.33301 20 6 26zM955.997 2019l9 10l7 -17z" />
    <glyph glyph-name="Odieresis" unicode="&#xd6;" 
d="M610 760c0 -0.666992 -0.332031 -2.33008 -0.999023 -4.99707v-3c-2.66699 -28 -4 -59.333 -4 -94s2.83301 -71.334 8.5 -110.001s15 -77.334 28 -116.001s33.167 -70 60.5 -94c29.333 -25.333 62.166 -38 98.499 -38s67 5.16699 92 15.5s46 23.5 63 39.5
s31.833 37.667 44.5 65c32 72.667 48 185.334 48 338.001c0 155.333 -17.833 264.166 -53.5 326.499s-89.5 93.5 -161.5 93.5c-36 0 -67.5 -8.66699 -94.5 -26s-47.333 -35.333 -61 -54s-27.667 -58.334 -42 -119.001s-21.5 -116.667 -21.5 -168zM35.001 752.004
l1.99707 22.001c8 83.333 18.667 157.166 32 221.499s35 124.5 65 180.5c71.333 123.333 170.833 216.833 298.5 280.5s265.334 95.5 413.001 95.5s281.834 -29.667 402.501 -89c72 -35.333 128.333 -80 169 -134c78 -97.333 129.333 -187 154 -269s37 -176.667 37 -284
c0 -238.667 -49.333 -420.667 -148 -546l-46 -61c-62 -72 -149.667 -127.5 -263 -166.5s-225.666 -59.167 -336.999 -60.5c-190.667 0 -347 40 -469 120c-206.667 134 -310 364 -310 690zM1084 2273l170 3c40.667 0 62 -2.66699 64 -8
c3.33301 -101.333 5.66602 -215.333 6.99902 -342c-2 -4 -3 -7.33301 -3 -10l-7 1l-333 -14l-26 29c0 56.667 2 126.167 6 208.5s10 127.5 18 135.5c36.667 -2 71.334 -3 104.001 -3zM955.998 1931v1v-1zM1321 1915l14 -1c0 -11.333 -4.66699 -17 -14 -17
c-4 0 -7.33301 1.33301 -10 4zM750.998 2204l1.99902 -98.002v-31c0 -72.667 0.333008 -124.667 1 -156c-6.66699 -7.33301 -33.667 -11 -81 -11l-21 1h-51l-187 -7l-24 35c0 209.333 7.33301 322.333 22 339c24 -0.666992 74.833 -1.16699 152.5 -1.5
s137.834 -1.16602 180.501 -2.49902c4.66699 -1.33301 7 -9.66602 7 -24.999l-1 -11v-32z" />
    <glyph glyph-name="multiply" unicode="&#xd7;" horiz-adv-x="1283" 
d="M973 87l-34.0029 -34.001l-276 267c-22.667 -26 -53.667 -57.833 -93 -95.5s-65 -62.5 -77 -74.5l-100 -99l-10 -3c-10 2 -25.667 13.333 -47 34s-35 33.334 -41 38.001l-29 30c-10.667 10.667 -21 20.334 -31 29.001s-18.667 16.5 -26 23.5s-16.333 16.167 -27 27.5
s-16 19.833 -16 25.5s11.833 20.834 35.5 45.501s55.334 56.167 95.001 94.5s64.5 62.5 74.5 72.5l64 65c-54.667 59.333 -129.667 136.666 -225 231.999l-20 17c-14.667 12 -22 23.167 -22 33.5s19 31.833 57 64.5l61 61c7.33301 7.33301 17 17.333 29 30
c32.667 34.667 55.334 52 68.001 52l96 -98c50.667 -52.667 110.334 -112.667 179.001 -180l272 274c2 1.33301 3.33301 2 4 2c10.667 0 54 -42 130 -126l44 -45c18 -18 28 -29.333 30 -34c-4 -4 -9 -8 -15 -12l-76 -75c-76.667 -72.667 -140.667 -135.667 -192 -189
c66.667 -64 142.667 -138.667 228 -224l20 -19c21.333 -20 32 -33.833 32 -41.5s-35.667 -45.834 -107 -114.501l-39 -37c-2 -2 -4.83301 -4.66699 -8.5 -8s-6.5 -6.33301 -8.5 -9h1zM938.997 52.999l-2 -1c1.33301 0 2 0.333008 2 1z" />
    <glyph glyph-name="Oslash" unicode="&#xd8;" 
d="M35 752l1.99902 22c8 83.333 18.667 157.166 32 221.499s35 124.5 65 180.5c71.333 123.333 170.833 216.833 298.5 280.5s266.334 95.5 416.001 95.5s289.5 -33.667 419.5 -101l119 187c-2 -2.66699 -3 -4.66699 -3 -6c2 0 10.833 -3 26.5 -9s23.5 -11 23.5 -15
c0 -13.333 -38 -76 -114 -188c99.333 -73.333 172.166 -167 218.499 -281s69.5 -235 69.5 -363c0 -238.667 -49.333 -420.667 -148 -546l-46 -61c-62 -72 -149.667 -127.667 -263 -167c-115.333 -39.333 -236.166 -59 -362.499 -59s-246.166 23.667 -359.499 71l-41 -68
c-50.667 -83.333 -84.667 -126.666 -102 -129.999l-19 6c-2.66699 0 -9.33398 2.33301 -20.001 7l32 81l85 136l-13 12c-210.667 136.667 -316 368 -316 694zM609.999 760c0 -0.666992 -0.333008 -2.33203 -1 -4.99902v-3c-2.66699 -28 -4 -63.333 -4 -106
s7.33301 -106 22 -190l383 596c-42 84 -101 126 -177 126c-36 0 -67.5 -8.66699 -94.5 -26s-47.333 -35.333 -61 -54s-27.667 -58.334 -42 -119.001s-21.5 -116.667 -21.5 -168zM1037 969.002l-370.999 -589c36 -50.667 81.333 -77.667 136 -81
c95.333 0 160.166 38.333 194.499 115s51.5 201.334 51.5 374.001c0 39.333 -3.66699 99.666 -11 180.999z" />
    <glyph glyph-name="Ugrave" unicode="&#xd9;" horiz-adv-x="1615" 
d="M1546 775l-3.00098 -280.999c0 -86 -13.833 -162 -41.5 -228s-64.167 -119.333 -109.5 -160c-123.333 -112 -305.666 -168 -546.999 -168s-429 58.667 -563 176c-47.333 40.667 -87.166 93.5 -119.499 158.5s-51.833 138.5 -58.5 220.5
c3.33301 278.667 5 536.334 5 773.001c-3.33301 0 -5 35 -5 105s3 113.333 9 130h21c98 5.33301 231.667 8 401 8c12 -2.66699 33.833 -4.33398 65.5 -5.00098s53.5 -1.66699 65.5 -3l31 -4c4.66699 -132 7.66699 -313.667 9 -545l-6 -402c0 -133.333 38.667 -200 116 -200
c32.667 0 60.167 14.333 82.5 43s34.166 61 35.499 97l4 10l3 337l1 30c0 154.667 -2 304 -6 448l-2 73c-1.33301 29.333 -2 55.666 -2 78.999s3.66699 39.333 11 48c257.333 0 451.333 -1 582 -3c4.66699 -4.66699 10.667 -9 18 -13h-1l11 -7
c-5.33301 -126 -8 -288 -8 -486v-172zM751.999 1682l-9.00098 -3.99902c-1.33301 1.33301 -13.333 16 -36 44v-1l-31 38c-59.333 71.333 -116.666 134.833 -171.999 190.5s-83 91.834 -83 108.501c0 3.33301 3 7.66602 9 12.999c136.667 -12 283.334 -18 440.001 -18h30l6 1
c14.667 -10.667 49.167 -61.834 103.5 -153.501s88.166 -147 101.499 -166s20 -32.5 20 -40.5s-20.333 -12 -61 -12h-318z" />
    <glyph glyph-name="Uacute" unicode="&#xda;" horiz-adv-x="1615" 
d="M1546 775l-3.00098 -280.999c0 -86 -13.833 -162 -41.5 -228s-64.167 -119.333 -109.5 -160c-123.333 -112 -305.666 -168 -546.999 -168s-429 58.667 -563 176c-47.333 40.667 -87.166 93.5 -119.499 158.5s-51.833 138.5 -58.5 220.5
c3.33301 278.667 5 536.334 5 773.001c-3.33301 0 -5 35 -5 105s3 113.333 9 130h21c98 5.33301 231.667 8 401 8c12 -2.66699 33.833 -4.33398 65.5 -5.00098s53.5 -1.66699 65.5 -3l31 -4c4.66699 -132 7.66699 -313.667 9 -545l-6 -402c0 -133.333 38.667 -200 116 -200
c32.667 0 60.167 14.333 82.5 43s34.166 61 35.499 97l4 10l3 337l1 30c0 154.667 -2 304 -6 448l-2 73c-1.33301 29.333 -2 55.666 -2 78.999s3.66699 39.333 11 48c257.333 0 451.333 -1 582 -3c4.66699 -4.66699 10.667 -9 18 -13h-1l11 -7
c-5.33301 -126 -8 -288 -8 -486v-172zM557.999 1674l-15.998 -0.996094h-49l-15 29l168 286c28.667 42 45 65.333 49 70h70l418 -10v-3c-26.667 -30.667 -70.334 -79.834 -131.001 -147.501s-105.334 -117.834 -134.001 -150.501s-53.5 -52.334 -74.5 -59.001
s-55.167 -10.334 -102.5 -11.001z" />
    <glyph glyph-name="Ucircumflex" unicode="&#xdb;" horiz-adv-x="1615" 
d="M1546 775l-3.00098 -280.999c0 -86 -13.833 -162 -41.5 -228s-64.167 -119.333 -109.5 -160c-123.333 -112 -305.666 -168 -546.999 -168s-429 58.667 -563 176c-47.333 40.667 -87.166 93.5 -119.499 158.5s-51.833 138.5 -58.5 220.5
c3.33301 278.667 5 536.334 5 773.001c-3.33301 0 -5 35 -5 105s3 113.333 9 130h21c98 5.33301 231.667 8 401 8c12 -2.66699 33.833 -4.33398 65.5 -5.00098s53.5 -1.66699 65.5 -3l31 -4c4.66699 -132 7.66699 -313.667 9 -545l-6 -402c0 -133.333 38.667 -200 116 -200
c32.667 0 60.167 14.333 82.5 43s34.166 61 35.499 97l4 10l3 337l1 30c0 154.667 -2 304 -6 448l-2 73c-1.33301 29.333 -2 55.666 -2 78.999s3.66699 39.333 11 48c257.333 0 451.333 -1 582 -3c4.66699 -4.66699 10.667 -9 18 -13h-1l11 -7
c-5.33301 -126 -8 -288 -8 -486v-172zM1219 1683l-294.998 -7.00195c-20.667 12 -39.334 35.667 -56.001 71c-4 8 -6.66699 13 -8 15l-30 60c-10.667 -10 -23.667 -26.667 -39 -50s-29 -43.333 -41 -60s-21.667 -25 -29 -25h-278l-49 -3c-38 0 -57 4 -57 12
c0 1.33301 0.333008 3.33301 1 6c45.333 70 105.666 154.333 180.999 253l22 35c16.667 27.333 40.667 43.833 72 49.5s121 9.83398 269 12.501l177 3c12 -6 23.667 -17.333 35 -34s18.666 -27.167 21.999 -31.5s7.83301 -10.833 13.5 -19.5s9.83398 -14.667 12.501 -18v1
l62 -92c8 -12 23.667 -33.667 47 -65l20 -28c3.33301 -5.33301 8.33301 -12.666 15 -21.999l17 -22c10.667 -14 16 -24.5 16 -31.5s-9 -10.5 -27 -10.5l-11 1h-62z" />
    <glyph glyph-name="Udieresis" unicode="&#xdc;" horiz-adv-x="1615" 
d="M1546 775l-3.00098 -280.999c0 -86 -13.833 -162 -41.5 -228s-64.167 -119.333 -109.5 -160c-123.333 -112 -305.666 -168 -546.999 -168s-429 58.667 -563 176c-47.333 40.667 -87.166 93.5 -119.499 158.5s-51.833 138.5 -58.5 220.5
c3.33301 278.667 5 536.334 5 773.001c-3.33301 0 -5 35 -5 105s3 113.333 9 130h21c98 5.33301 231.667 8 401 8c12 -2.66699 33.833 -4.33398 65.5 -5.00098s53.5 -1.66699 65.5 -3l31 -4c4.66699 -132 7.66699 -313.667 9 -545l-6 -402c0 -133.333 38.667 -200 116 -200
c32.667 0 60.167 14.333 82.5 43s34.166 61 35.499 97l4 10l3 337l1 30c0 154.667 -2 304 -6 448l-2 73c-1.33301 29.333 -2 55.666 -2 78.999s3.66699 39.333 11 48c257.333 0 451.333 -1 582 -3c4.66699 -4.66699 10.667 -9 18 -13h-1l11 -7
c-5.33301 -126 -8 -288 -8 -486v-172zM1073 2273l170 3c40.667 0 62 -2.66699 64 -8c3.33301 -101.333 5.66602 -215.333 6.99902 -342c-2 -4 -3 -7.33301 -3 -10l-7 1l-333 -14l-26 29c0 56.667 2 126.167 6 208.5s10 127.5 18 135.5c36.667 -2 71.334 -3 104.001 -3z
M944.999 1931v1v-1zM1310 1915l14 -1c0 -11.333 -4.66699 -17 -14 -17c-4 0 -7.33301 1.33301 -10 4zM739.999 2204l1.99902 -98.002v-31c0 -72.667 0.333008 -124.667 1 -156c-6.66699 -7.33301 -33.667 -11 -81 -11l-21 1h-51l-187 -7l-24 35
c0 209.333 7.33301 322.333 22 339c24 -0.666992 74.833 -1.16699 152.5 -1.5s137.834 -1.16602 180.501 -2.49902c4.66699 -1.33301 7 -9.66602 7 -24.999l-1 -11v-32z" />
    <glyph glyph-name="Yacute" unicode="&#xdd;" horiz-adv-x="1524" 
d="M1530 1507l32.998 1.00195c6.66699 -3.33301 11.667 -11.666 15 -24.999l-30 -59v1l-65 -125c-98 -181.333 -161.333 -302.333 -190 -363l-34 -65c-36.667 -70.667 -99 -195.334 -187 -374.001c-1.33301 -22.667 -2 -56.667 -2 -102v-413
c-3.33301 -10.667 -10 -16 -20 -16l-573 -4c-14.667 18.667 -22 40 -22 64l2 125v29l1 30l1 73c0 139.333 -35.667 288.666 -107 447.999c-15.333 33.333 -37.666 80.333 -66.999 141l-149 298c-4 7.33301 -14.667 27.666 -32 60.999s-36.333 69.333 -57 108v-1
c-53.333 81.333 -80 135.333 -80 162c0 3.33301 10.667 5 32 5h257c142 0 249 -1 321 -3c21.333 -4 77 -164.333 167 -481l45 -159c68 181.333 139.667 394 215 638c0.666992 5.33301 50 8 148 8h128c30.667 0 56.334 -0.666992 77.001 -2h173zM544.998 1646
l-15.998 -0.996094h-49l-15 29l168 286c28.667 42 45 65.333 49 70h70l418 -10v-3c-26.667 -30.667 -70.334 -79.834 -131.001 -147.501s-105.334 -117.834 -134.001 -150.501s-53.5 -52.334 -74.5 -59.001s-55.167 -10.334 -102.5 -11.001z" />
    <glyph glyph-name="Thorn" unicode="&#xde;" horiz-adv-x="1527" 
d="M722 1513l-0.999023 -30l3 -106c115.333 -1.33301 204 -4.66602 266 -9.99902h7c22.667 1.33301 37 2 43 2c133.333 0 247.333 -42.333 342 -127c46 -40.667 82.333 -92.834 109 -156.501s40 -129.5 40 -197.5s-6.83301 -126.167 -20.5 -174.5
s-31.834 -89.5 -54.501 -123.5c-88.667 -133.333 -259 -211.333 -511 -234l-216 -9c-2 -38 -5.33301 -118.333 -10 -241l1 -31v-82c-2 -10 -6.66699 -16 -14 -18l-572 -9c-11.333 32 -17 83.333 -17 154v407l2 411l-1 420c0.666992 1.33301 1 2.33301 1 3v107
c0 70 5.66699 121.333 17 154l572 -9c7.33301 -2 12 -8.33301 14 -19v-81zM737.001 640c180 6.66699 269.999 85 269.999 235c0 91.333 -39 149 -117 173c-43.333 14 -93.666 21 -150.999 21h-53c6.66699 -42 10 -165.333 10 -370z" />
    <glyph glyph-name="germandbls" unicode="&#xdf;" horiz-adv-x="1559" 
d="M1407 683c132.667 -81.333 198.996 -191.329 198.996 -329.996c0 -127.333 -39.333 -224 -118 -290c-102.667 -86 -236.667 -129 -402 -129s-285.666 32.667 -360.999 98l-3 -1c-40.667 40 -71 100.667 -91 182l-38 -2v-71c0 -102.667 1.33301 -155.334 4 -158.001
c-44.667 -2.66699 -94.334 -4 -149.001 -4l-337 4h-33l-5 739c0 142.667 1 253 3 331c5.33301 159.333 38 269.666 98 330.999c66.667 57.333 148.834 102 246.501 134s196.334 48 296.001 48s197.834 -9.33301 294.501 -28c210.667 -24 345.667 -97.333 405 -220
c18 -38 27 -87 27 -147s-21.333 -115.667 -64 -167c-9.33301 -10 -37.166 -36 -83.499 -78s-69.5 -73.833 -69.5 -95.5s13 -42.334 39 -62.001s55 -37.834 87 -54.501s50.333 -27 55 -31v1zM798.996 1014l-1.00293 0.00195312l32 23c22 16 39.333 29.167 52 39.5
s25.334 25 38.001 44s19 38.167 19 57.5c0 72 -42.833 108 -128.5 108s-143.834 -30.667 -174.501 -92c-25.333 -51.333 -38.666 -113 -39.999 -185l-4 -9c0.666992 -70 1 -177.333 1 -322v-365l46 45l362 3c15.333 -2 22 -15.333 20 -40c-0.666992 -4.66699 -1 -9 -1 -13
c0 -38 15.667 -57 47 -57c4.66699 0 10.334 1 17.001 3l20 1c10.667 28 16 48.667 16 62c0 30.667 -12.833 57 -38.5 79s-54.5 42.333 -86.5 61c-15.333 12.667 -39.666 30 -72.999 52c-62 42 -115.667 85.167 -161 129.5s-68 102.166 -68 173.499
s35.333 138.666 106 201.999zM719.993 30.0059l7 -15l-14 -15l-17 12l17 20l9 -1l1 -1h-3zM76.9932 -21.9941c0 2 -0.333008 3 -1 3h-4c1.33301 0.666992 3.33301 1 6 1v-2z" />
    <glyph glyph-name="agrave" unicode="&#xe0;" horiz-adv-x="1575" 
d="M564 664l9.99512 -1.00391h24c22.667 0 40.334 1.66699 53.001 5l54 7c92 6.66699 147.333 31.334 166 74.001c9.33301 21.333 14 48.333 14 81c-4 6.66699 -6 19.334 -6 38.001s-9.5 38.334 -28.5 59.001s-41.5 31 -67.5 31h-5c-64 0 -96 -54.333 -96 -163
c-3.33301 -5.33301 -8.83301 -7.33301 -16.5 -6s-26.167 2 -55.5 2h-516c3.33301 46 15.333 95.667 36 149c39.333 102.667 115.5 176.5 228.5 221.5s225.167 69.5 336.5 73.5l60 3l32 3c4 0 8 -1 12 -3h13l45 2c9.33301 0 30.333 -2.33301 63 -7l29 -4
c4.66699 -0.666992 12 -1 22 -1s31 -2.16699 63 -6.5s72 -15.833 120 -34.5c162.667 -64 261.334 -186.667 296.001 -368c14.667 -76.667 22 -161.667 22 -255c4.66699 -15.333 7 -29.333 7 -42l-5 -69v-116c0.666992 -1.33301 1 -7 1 -17l-2 -68v-9c2 -3.33301 3 -8 3 -14
l-1 -9v-21c0 -63.333 9.66699 -123.333 29 -180l10 -22h-452l-36 1c-26.667 0 -47 -0.333008 -61 -1c-21.333 40 -41.666 94.667 -60.999 164c-8.66699 -18 -23.5 -38.5 -44.5 -61.5s-36.5 -34.5 -46.5 -34.5c-98.667 -48 -173.667 -75.333 -225 -82
c-76 -12.667 -116.833 -19 -122.5 -19h-8.5c-159.333 0 -279.666 55.333 -360.999 166c-40.667 56.667 -61 122.334 -61 197.001c0 162 75.333 261.333 226 298c38.667 9.33301 113.334 19 224.001 29l33 3zM891.995 431.996l1.00098 32.001c0 33.333 -2.66699 65.333 -8 96
c-14.667 -8 -36 -17 -64 -27s-50.333 -18.5 -67 -25.5s-31.834 -19.333 -45.501 -37s-20.5 -41.834 -20.5 -72.501s9.83301 -58.667 29.5 -84s41.167 -38 64.5 -38c50 0 85.667 18 107 54l2 10l1 62v30zM766.996 1430l-9.00098 -3.99902c-1.33301 1.33301 -13.333 16 -36 44
v-1l-31 38c-59.333 71.333 -116.666 134.833 -171.999 190.5s-83 91.834 -83 108.501c0 3.33301 3 7.66602 9 12.999c136.667 -12 283.334 -18 440.001 -18h30l6 1c14.667 -10.667 49.167 -61.834 103.5 -153.501s88.166 -147 101.499 -166s20 -32.5 20 -40.5
s-20.333 -12 -61 -12h-318z" />
    <glyph glyph-name="aacute" unicode="&#xe1;" horiz-adv-x="1575" 
d="M1476 229l-1.00391 -9.00195v-21c0 -63.333 9.66699 -123.333 29 -180l10 -22h-452l-36 1c-26.667 0 -47 -0.333008 -61 -1c-21.333 40 -41.666 94.667 -60.999 164c-8.66699 -18 -23.5 -38.5 -44.5 -61.5s-36.5 -34.5 -46.5 -34.5c-98 -48 -173 -75.333 -225 -82
c-76 -12.667 -116.833 -19 -122.5 -19h-8.5c-159.333 0 -279.666 55.333 -360.999 166c-40.667 56.667 -61 122.334 -61 197.001c0 162 75.333 261.333 226 298c38.667 9.33301 113.334 19 224.001 29l33 3l46 7l10 -1h24c22.667 0 40.334 1.66699 53.001 5l54 7
c92 6.66699 147.333 31.334 166 74.001c9.33301 21.333 14 48.333 14 81c-4 6.66699 -6 19.334 -6 38.001s-9.5 38.334 -28.5 59.001s-41.5 31 -67.5 31h-5c-64 0 -96 -54.333 -96 -163c-3.33301 -5.33301 -8.83301 -7.33301 -16.5 -6s-26.167 2 -55.5 2h-516
c3.33301 47.333 15.333 97 36 149c39.333 102.667 115.5 176.5 228.5 221.5s225.167 69.5 336.5 73.5l60 3l32 3c4 0 8 -1 12 -3h13l45 2c9.33301 0 30.333 -2.33301 63 -7l29 -4c4.66699 -0.666992 12 -1 22 -1s31 -2.16699 63 -6.5s71.833 -15.833 119.5 -34.5
s88 -40.334 121 -65.001s61.5 -54.334 85.5 -89.001c45.333 -65.333 75.333 -136.5 90 -213.5s22 -162.167 22 -255.5c4.66699 -15.333 7 -29.333 7 -42l-5 -69v-116c0.666992 -1.33301 1 -7 1 -17l-2 -68v-9c2 -3.33301 3 -8 3 -14zM891.996 431.998l1.00098 32.001
c0 33.333 -2.66699 65.333 -8 96c-14.667 -8 -36 -17 -64 -27s-50.333 -18.5 -67 -25.5s-31.834 -19.333 -45.501 -37s-20.5 -41.834 -20.5 -72.501s9.83301 -58.667 29.5 -84s41.167 -38 64.5 -38c50 0 85.667 18 107 54l2 10l1 62v30zM524.997 1410l-15.998 -0.996094h-49
l-15 29l168 286c28.667 42 45 65.333 49 70h70l418 -10v-3c-26.667 -30.667 -70.334 -79.834 -131.001 -147.501s-105.334 -117.834 -134.001 -150.501s-53.5 -52.334 -74.5 -59.001s-55.167 -10.334 -102.5 -11.001z" />
    <glyph glyph-name="acircumflex" unicode="&#xe2;" horiz-adv-x="1575" 
d="M564 664l9.99512 -1.00391h24c22.667 0 40.334 1.66699 53.001 5l54 7c92 6.66699 147.333 31.334 166 74.001c9.33301 21.333 14 48.333 14 81c-4 6.66699 -6 19.334 -6 38.001s-9.5 38.334 -28.5 59.001s-41.5 31 -67.5 31h-5c-64 0 -96 -54.333 -96 -163
c-3.33301 -5.33301 -8.83301 -7.33301 -16.5 -6s-26.167 2 -55.5 2h-516c3.33301 46 15.333 95.667 36 149c39.333 102.667 115.5 176.5 228.5 221.5s225.167 69.5 336.5 73.5l60 3l32 3c4 0 8 -1 12 -3h13l45 2c9.33301 0 30.333 -2.33301 63 -7l29 -4
c4.66699 -0.666992 12 -1 22 -1s31 -2.16699 63 -6.5s72 -15.833 120 -34.5c162.667 -64 261.334 -186.667 296.001 -368c14.667 -76.667 22 -161.667 22 -255c4.66699 -15.333 7 -29.333 7 -42l-5 -69v-116c0.666992 -1.33301 1 -7 1 -17l-2 -68v-9c2 -3.33301 3 -8 3 -14
l-1 -9v-21c0 -63.333 9.66699 -123.333 29 -180l10 -22h-452l-36 1c-26.667 0 -47 -0.333008 -61 -1c-21.333 40 -41.666 94.667 -60.999 164c-8.66699 -18 -23.5 -38.5 -44.5 -61.5s-36.5 -34.5 -46.5 -34.5c-98.667 -48 -173.667 -75.333 -225 -82
c-76 -12.667 -116.833 -19 -122.5 -19h-8.5c-159.333 0 -279.666 55.333 -360.999 166c-40.667 56.667 -61 122.334 -61 197.001c0 162 75.333 261.333 226 298c38.667 9.33301 113.334 19 224.001 29l33 3zM891.995 431.996l1.00098 32.001c0 33.333 -2.66699 65.333 -8 96
c-14.667 -8 -36 -17 -64 -27s-50.333 -18.5 -67 -25.5s-31.834 -19.333 -45.501 -37s-20.5 -41.834 -20.5 -72.501s9.83301 -58.667 29.5 -84s41.167 -38 64.5 -38c50 0 85.667 18 107 54l2 10l1 62v30zM1185 1406l-294.998 -7.00195c-20.667 12 -39.334 35.667 -56.001 71
c-4 8 -6.66699 13 -8 15l-30 60c-10.667 -10 -23.667 -26.667 -39 -50s-29 -43.333 -41 -60s-21.667 -25 -29 -25h-278l-49 -3c-38 0 -57 4 -57 12c0 1.33301 0.333008 3.33301 1 6c45.333 70 105.666 154.333 180.999 253l22 35c16.667 27.333 40.667 43.833 72 49.5
s121 9.83398 269 12.501l177 3c12 -6 23.667 -17.333 35 -34s18.666 -27.167 21.999 -31.5s7.83301 -10.833 13.5 -19.5s9.83398 -14.667 12.501 -18v1l62 -92c8 -12 23.667 -33.667 47 -65l20 -28c3.33301 -5.33301 8.33301 -12.666 15 -21.999l17 -22
c10.667 -14 16 -24.5 16 -31.5s-9 -10.5 -27 -10.5l-11 1h-62z" />
    <glyph glyph-name="atilde" unicode="&#xe3;" horiz-adv-x="1575" 
d="M1476 229l-1.00391 -9.00195v-21c0 -63.333 9.66699 -123.333 29 -180l10 -22h-452l-36 1c-26.667 0 -47 -0.333008 -61 -1c-21.333 40 -41.666 94.667 -60.999 164c-8.66699 -18 -23.5 -38.5 -44.5 -61.5s-36.5 -34.5 -46.5 -34.5c-98 -48 -173 -75.333 -225 -82
c-76 -12.667 -116.833 -19 -122.5 -19h-8.5c-159.333 0 -279.666 55.333 -360.999 166c-40.667 56.667 -61 122.334 -61 197.001c0 162 75.333 261.333 226 298c38.667 9.33301 113.334 19 224.001 29l33 3l46 7l10 -1h24c22.667 0 40.334 1.66699 53.001 5l54 7
c92 6.66699 147.333 31.334 166 74.001c9.33301 21.333 14 48.333 14 81c-4 6.66699 -6 19.334 -6 38.001s-9.5 38.334 -28.5 59.001s-41.5 31 -67.5 31h-5c-64 0 -96 -54.333 -96 -163c-3.33301 -5.33301 -8.83301 -7.33301 -16.5 -6s-26.167 2 -55.5 2h-516
c3.33301 47.333 15.333 97 36 149c39.333 102.667 115.5 176.5 228.5 221.5s225.167 69.5 336.5 73.5l60 3l32 3c4 0 8 -1 12 -3h13l45 2c9.33301 0 30.333 -2.33301 63 -7l29 -4c4.66699 -0.666992 12 -1 22 -1s31 -2.16699 63 -6.5s71.833 -15.833 119.5 -34.5
s88 -40.334 121 -65.001s61.5 -54.334 85.5 -89.001c45.333 -65.333 75.333 -136.5 90 -213.5s22 -162.167 22 -255.5c4.66699 -15.333 7 -29.333 7 -42l-5 -69v-116c0.666992 -1.33301 1 -7 1 -17l-2 -68v-9c2 -3.33301 3 -8 3 -14zM891.996 431.998l1.00098 32.001
c0 33.333 -2.66699 65.333 -8 96c-14.667 -8 -36 -17 -64 -27s-50.333 -18.5 -67 -25.5s-31.834 -19.333 -45.501 -37s-20.5 -41.834 -20.5 -72.501s9.83301 -58.667 29.5 -84s41.167 -38 64.5 -38c50 0 85.667 18 107 54l2 10l1 62v30zM970.997 1751l22.999 19l253 -7
c2 -0.666992 6.33301 -5.66699 13 -15c-14.667 -229.333 -109.334 -344 -284.001 -344c-36 0 -83.333 7 -142 21l-58 18c-70.667 22 -114.167 33 -130.5 33s-28 -1.5 -35 -4.5s-11.167 -8.5 -12.5 -16.5s-2.66602 -16.5 -3.99902 -25.5s-79.333 -13.5 -234 -13.5h-27
c-4 4 -6 10 -6 18c0 114.667 25.667 200.167 77 256.5s124.333 84.5 219 84.5c35.333 0 97.333 -12.333 186 -37v1c20 -7.33301 49 -16 87 -26l30 -6c2.66699 0 7.33398 -3.33301 14.001 -10l25 28c3.33301 11.333 5.33301 20 6 26zM931.996 1745l9 10l7 -17z" />
    <glyph glyph-name="adieresis" unicode="&#xe4;" horiz-adv-x="1575" 
d="M564 664l9.99512 -1.00391h24c22.667 0 40.334 1.66699 53.001 5l54 7c92 6.66699 147.333 31.334 166 74.001c9.33301 21.333 14 48.333 14 81c-4 6.66699 -6 19.334 -6 38.001s-9.5 38.334 -28.5 59.001s-41.5 31 -67.5 31h-5c-64 0 -96 -54.333 -96 -163
c-3.33301 -5.33301 -8.83301 -7.33301 -16.5 -6s-26.167 2 -55.5 2h-516c3.33301 46 15.333 95.667 36 149c39.333 102.667 115.5 176.5 228.5 221.5s225.167 69.5 336.5 73.5l60 3l32 3c4 0 8 -1 12 -3h13l45 2c9.33301 0 30.333 -2.33301 63 -7l29 -4
c4.66699 -0.666992 12 -1 22 -1s31 -2.16699 63 -6.5s72 -15.833 120 -34.5c162.667 -64 261.334 -186.667 296.001 -368c14.667 -76.667 22 -161.667 22 -255c4.66699 -15.333 7 -29.333 7 -42l-5 -69v-116c0.666992 -1.33301 1 -7 1 -17l-2 -68v-9c2 -3.33301 3 -8 3 -14
l-1 -9v-21c0 -63.333 9.66699 -123.333 29 -180l10 -22h-452l-36 1c-26.667 0 -47 -0.333008 -61 -1c-21.333 40 -41.666 94.667 -60.999 164c-8.66699 -18 -23.5 -38.5 -44.5 -61.5s-36.5 -34.5 -46.5 -34.5c-98.667 -48 -173.667 -75.333 -225 -82
c-76 -12.667 -116.833 -19 -122.5 -19h-8.5c-159.333 0 -279.666 55.333 -360.999 166c-40.667 56.667 -61 122.334 -61 197.001c0 162 75.333 261.333 226 298c38.667 9.33301 113.334 19 224.001 29l33 3zM891.995 431.996l1.00098 32.001c0 33.333 -2.66699 65.333 -8 96
c-14.667 -8 -36 -17 -64 -27s-50.333 -18.5 -67 -25.5s-31.834 -19.333 -45.501 -37s-20.5 -41.834 -20.5 -72.501s9.83301 -58.667 29.5 -84s41.167 -38 64.5 -38c50 0 85.667 18 107 54l2 10l1 62v30zM1021 1810l170 3c40.667 0 62 -2.66699 64 -8
c3.33301 -101.333 5.66602 -215.333 6.99902 -342c-2 -4 -3 -7.33301 -3 -10l-7 1l-333 -14l-26 29c0 56.667 2 126.167 6 208.5s10 127.5 18 135.5c36.667 -2 71.334 -3 104.001 -3zM892.996 1468v1v-1zM1258 1452l14 -1c0 -11.333 -4.66699 -17 -14 -17
c-4 0 -7.33301 1.33301 -10 4zM687.996 1741l1.99902 -98.002v-31c0 -72.667 0.333008 -124.667 1 -156c-6.66699 -7.33301 -33.667 -11 -81 -11l-21 1h-51l-187 -7l-24 35c0 209.333 7.33301 322.333 22 339c24 -0.666992 74.833 -1.16699 152.5 -1.5
s137.834 -1.16602 180.501 -2.49902c4.66699 -1.33301 7 -9.66602 7 -24.999l-1 -11v-32z" />
    <glyph glyph-name="aring" unicode="&#xe5;" horiz-adv-x="1575" 
d="M1476 229l-1.00391 -9.00195v-21c0 -63.333 9.66699 -123.333 29 -180l10 -22h-452l-36 1c-26.667 0 -47 -0.333008 -61 -1c-21.333 40 -41.666 94.667 -60.999 164c-8.66699 -18 -23.5 -38.5 -44.5 -61.5s-36.5 -34.5 -46.5 -34.5c-98 -48 -173 -75.333 -225 -82
c-76 -12.667 -116.833 -19 -122.5 -19h-8.5c-159.333 0 -279.666 55.333 -360.999 166c-40.667 56.667 -61 122.334 -61 197.001c0 162 75.333 261.333 226 298c38.667 9.33301 113.334 19 224.001 29l33 3l46 7l10 -1h24c22.667 0 40.334 1.66699 53.001 5l54 7
c92 6.66699 147.333 31.334 166 74.001c9.33301 21.333 14 48.333 14 81c-4 6.66699 -6 19.334 -6 38.001s-9.5 38.334 -28.5 59.001s-41.5 31 -67.5 31h-5c-64 0 -96 -54.333 -96 -163c-3.33301 -5.33301 -8.83301 -7.33301 -16.5 -6s-26.167 2 -55.5 2h-516
c3.33301 47.333 15.333 97 36 149c39.333 102.667 115.5 176.5 228.5 221.5s225.167 69.5 336.5 73.5l60 3l32 3c4 0 8 -1 12 -3h13l45 2c9.33301 0 30.333 -2.33301 63 -7l29 -4c4.66699 -0.666992 12 -1 22 -1s31 -2.16699 63 -6.5s71.833 -15.833 119.5 -34.5
s88 -40.334 121 -65.001s61.5 -54.334 85.5 -89.001c45.333 -65.333 75.333 -136.5 90 -213.5s22 -162.167 22 -255.5c4.66699 -15.333 7 -29.333 7 -42l-5 -69v-116c0.666992 -1.33301 1 -7 1 -17l-2 -68v-9c2 -3.33301 3 -8 3 -14zM891.996 431.998l1.00098 32.001
c0 33.333 -2.66699 65.333 -8 96c-14.667 -8 -36 -17 -64 -27s-50.333 -18.5 -67 -25.5s-31.834 -19.333 -45.501 -37s-20.5 -41.834 -20.5 -72.501s9.83301 -58.667 29.5 -84s41.167 -38 64.5 -38c50 0 85.667 18 107 54l2 10l1 62v30zM994.997 1895.5
c58.667 -54.333 87.9961 -121.333 87.9961 -201s-28.5 -146.834 -85.5 -201.501s-122.833 -82 -197.5 -82c-120.667 0 -209 59 -265 177c-15.333 32.667 -25.666 66.334 -30.999 101.001c0.666992 0.666992 2.33398 10.167 5.00098 28.5s10.5 43.833 23.5 76.5
s30.833 63 53.5 91c48.667 61.333 114.334 92 197.001 92s153.334 -27.167 212.001 -81.5zM887.993 1794c-26.667 24 -57.333 36 -92 36s-65.334 -10.833 -92.001 -32.5s-43.667 -51.5 -51 -89.5c0 -46 15.167 -82.167 45.5 -108.5s63.333 -39.5 99 -39.5
s66.334 11.833 92.001 35.5s38.5 56.667 38.5 99s-13.333 75.5 -40 99.5z" />
    <glyph glyph-name="ae" unicode="&#xe6;" horiz-adv-x="2100" 
d="M1438 1033c-26 0 -89.999 2.99707 -191.999 8.99707c0 -18 1.83301 -33.333 5.5 -46s5.5 -20.667 5.5 -24l22 -88l18 -1h46l373 6c15.333 0 25.833 -2.83301 31.5 -8.5s9.66699 -15 12 -28s5.16602 -22.5 8.49902 -28.5l11 -39
c3.33301 -5.33301 5.83301 -11.666 7.5 -18.999s3.5 -13 5.5 -17l15 -51c6 -21.333 20 -63.666 42 -126.999l-269 -8h-110c-11.333 0 -39 1 -83 3l9 -36c0 -4.66699 1.66699 -10 5 -16l31 -107l18 -1h15l435 10c18 0 39.333 -5.33301 64 -16l22 -71l11 -28l-1 1l54 -180
c0.666992 -4 2.5 -8.5 5.5 -13.5s4.5 -10.167 4.5 -15.5l7 -24c3.33301 -10 5 -16.667 5 -20s-3 -5 -9 -5h-14l-69 3h-50l-12 1h-92l-8 1h-51c-53.333 0 -133.333 0.666992 -240 2c-5.33301 -2.66699 -17.333 -4 -36 -4h-97c-18.667 -0.666992 -45.834 -1 -81.501 -1
s-60.5 0.333008 -74.5 1l-88 -4v4h-62l-54 -2c-42.667 0 -64.667 6.33301 -66 19l-41 153c-4.66699 20.667 -9.16699 32.667 -13.5 36s-17.5 5 -39.5 5h-334c-9.33301 -27.333 -17.666 -56.666 -24.999 -87.999l-26 -111c-6.66699 -11.333 -37.667 -17 -93 -17l-12 1h-71
c-29.333 -2 -71 -3 -125 -3h-209l-8 -1l-16 16c0 1.33301 -0.666992 2.66602 -2 3.99902l23 70c1.33301 4.66699 4.16602 15.667 8.49902 33s10.5 32.666 18.5 45.999h-1c16.667 46.667 38 108.667 64 186l24 79h-1c20.667 62.667 54.167 162.834 100.5 300.501
s79.833 237.834 100.5 300.501l21 61c23.333 60 51.666 143.667 84.999 251h-1l8 15c24 -0.666992 60 -1 108 -1h147c6 -0.666992 17.333 -1 34 -1h101l34 -1h35l79 -1h16c32.667 0 63.334 -1.66699 92.001 -5c72.667 2.66699 173 4 301 4h53l25 1h196
c10.667 -3.33301 20.5 -20 29.5 -50s15.5 -52.333 19.5 -67s7 -24.667 9 -30l65 -213c-5.33301 -4.66699 -10.666 -7 -15.999 -7s-9 0.333008 -11 1h-14l-13 1l-213 2zM594.001 657.997l-9.00391 -52l5 -42c20 0 40 0.666992 60 2l161 -5
c2.66699 0.666992 4.33398 1 5.00098 1h5c26.667 0 43.5 3.83301 50.5 11.5s10.5 18.667 10.5 33s-5 40.166 -15 77.499v-3l-8 30c-4 12 -6 20.333 -6 25l-28 126c-3.33301 14.667 -6.66602 31 -9.99902 49l-15 78c-1.33301 2 -3.66602 9 -6.99902 21v-3l-18 80
c-5.33301 21.333 -17.666 36.333 -36.999 45c-26 -9.33301 -50 -62.666 -72 -159.999l-9 -49c-2.66699 -6.66699 -4.66699 -12.667 -6 -18l-6 -23c-10.667 -51.333 -27.667 -126 -51 -224zM-46.0029 54.9971c2 0 3.33301 -3.66602 4 -10.999s-0.333008 -11.333 -3 -12
l-11 -27c-5.33301 5.33301 -8 12.666 -8 21.999s1.66699 18 5 26h2h-2c2 4 5 8 9 12l3 -6l-1 -3c0 -2 -3 -3 -9 -3h11v2zM1150 42.998l1 -10l-10 26zM1754 1033c-3.33301 0.666992 -5.66699 2 -7 4c1.33301 0.666992 2.83301 1 4.5 1s2.5 -1.66699 2.5 -5zM1850 569.998h6
c-2.66699 -0.666992 -4 -1.66699 -4 -3v-2l-2 5c-0.666992 0 -1 0.333008 -1 1zM406.996 1404l-7 -3z" />
    <glyph glyph-name="ccedilla" unicode="&#xe7;" horiz-adv-x="1520" 
d="M786 -31l-80 -5c-40.667 0 -80.667 4.66699 -120 14c-26.667 0 -62.667 7 -108 21c-152 36 -265.333 98.333 -340 187l-18 21c-58 74.667 -95.667 175 -113 301l-3 21c-2.66699 21.333 -4 46.833 -4 76.5s5.66699 69.834 17 120.501
c42 187.333 130.333 316.666 265 387.999l135 72c100 36 224.667 54 374 54c56.667 0 109 -7.33301 157 -22l20 -6c-0.666992 0 -1 0.333008 -1 1h2c226 -60 376.333 -159.333 451 -298l2 -7c33.333 -67.333 55.666 -142.666 66.999 -225.999l-23 8h-626l-5 37
c-10.667 76.667 -28.667 127.667 -54 153l-20 12c-58.667 -4 -91.667 -84 -99 -240c-0.666992 -21.333 -1.66699 -34 -3 -38l1 -32l3 -58c0 -4.66699 0.333008 -9.66699 1 -15l10 -10h-11c3.33301 -50 13.833 -88.333 31.5 -115s35.5 -40 53.5 -40c34 0 57.333 20.667 70 62
s19 79 19 113c51.333 2.66699 128.666 4 231.999 4h38l96 -1h96l193 -1c-20.667 -214 -121.667 -365.333 -303 -454c-13.333 -4.66699 -31.666 -12.334 -54.999 -23.001l-38 -18c-106 -40.667 -203 -61 -291 -61c-9.33301 0 -15.666 1.33301 -18.999 4zM704 -1
l8.00195 -1.00391h17l138 -2c7.33301 -1.33301 11 -5.16602 11 -11.499s-2.16699 -13.166 -6.5 -20.499s-11.833 -19 -22.5 -35s-20.667 -32.667 -30 -50c80 0 142 -16.667 186 -50s66 -77 66 -131c0 -72.667 -31.333 -129.667 -94 -171s-132.334 -62 -209.001 -62
s-147 6.33301 -211 19s-96 28.334 -96 47.001c0 14 9.66699 37.667 29 71l13 29c0 2.66699 2 8.66699 6 18s9.66699 16 17 20c5.33301 -2 14.666 -5.66699 27.999 -11c59.333 -24 108 -36 146 -36c73.333 0 110 21 110 63c0 29.333 -26 44 -78 44
c-5.33301 -2 -16 -4.66699 -32 -8l-22 -7c-7.33301 0 -19 5.33301 -35 16l-22 14h1c-29.333 16.667 -44 36.334 -44 59.001c34.667 60.667 70 124 106 190c2.66699 2.66699 7.66699 4.66699 15 6h5zM678.002 -286.004v-20l-5 -1l-2 19z" />
    <glyph glyph-name="egrave" unicode="&#xe8;" horiz-adv-x="1475" 
d="M553 1226c30 8.66699 62.0039 13.0029 96.0039 13.0029s66.333 -1.33301 97 -4l42 -4c66 -6 116.667 -13.667 152 -23v1l21 -9c140 -43.333 249 -109.333 327 -198v1c18 -21.333 40.167 -53.5 66.5 -96.5s39.5 -72.833 39.5 -89.5l8 -27l5 -29
c12.667 -44.667 19 -82 19 -112s0.333008 -53 1 -69h-824v-33c4 -15.333 6 -31.333 6 -48s0.166992 -29.834 0.5 -39.501s1.16602 -19 2.49902 -28s2.16602 -16.333 2.49902 -22s1.83301 -12.334 4.5 -20.001s4.16699 -12.834 4.5 -15.501s2.33301 -8 6 -16
s6.66699 -15.5 9 -22.5s6.83301 -13.833 13.5 -20.5v1l11 -21c12.667 -14 30 -24 52 -30c36.667 8 61.5 27 74.5 57s23.833 67.333 32.5 112c24 6.66699 58 10 102 10l128 -3h369c-8 -81.333 -32 -156 -72 -224h1c-34.667 -54.667 -88.667 -101.667 -162 -141
c-207.333 -72.667 -340.333 -109 -399 -109c-10.667 0 -19.334 0.666992 -26.001 2h-23l-9 -1h-9c-5.33301 0 -12 0.666992 -20 2c-6.66699 -4 -14.667 -6 -24 -6l-87 10c-4.66699 -2 -14.167 -3 -28.5 -3s-51.833 9 -112.5 27v-1l-24 7l-24 8
c-100 29.333 -185.667 80.833 -257 154.5s-117 159.5 -137 257.5c-2 12 -5.66699 30.167 -11 54.5s-8 40.833 -8 49.5v48c0 11.333 0.333008 20 1 26v15c0 141.333 42 263.5 126 366.5s196.667 175.5 338 217.5l24 7c35.333 6 60.666 12.333 75.999 19zM852.004 712.003
l20.998 12.999c-11.333 72 -22 118.167 -32 138.5s-19.667 37.833 -29 52.5c-17.333 28 -40.166 42 -68.499 42s-52.5 -14 -72.5 -42c-35.333 -49.333 -57.666 -118.666 -66.999 -207.999c42.667 2.66699 82 4 118 4h130zM717.002 1430l-9.00098 -3.99902
c-1.33301 1.33301 -13.333 16 -36 44v-1l-31 38c-59.333 71.333 -116.666 134.833 -171.999 190.5s-83 91.834 -83 108.501c0 3.33301 3 7.66602 9 12.999c136.667 -12 283.334 -18 440.001 -18h30l6 1c14.667 -10.667 49.167 -61.834 103.5 -153.501
s88.166 -147 101.499 -166s20 -32.5 20 -40.5s-20.333 -12 -61 -12h-318z" />
    <glyph glyph-name="eacute" unicode="&#xe9;" horiz-adv-x="1475" 
d="M553 1226c30 8.66699 62.0039 13.0029 96.0039 13.0029s66.333 -1.33301 97 -4l42 -4c66 -6 116.667 -13.667 152 -23v1l21 -9c140 -43.333 249 -109.333 327 -198v1c18 -21.333 40.167 -53.5 66.5 -96.5s39.5 -72.833 39.5 -89.5l8 -27l5 -29
c12.667 -44.667 19 -82 19 -112s0.333008 -53 1 -69h-824v-33c4 -15.333 6 -31.333 6 -48s0.166992 -29.834 0.5 -39.501s1.16602 -19 2.49902 -28s2.16602 -16.333 2.49902 -22s1.83301 -12.334 4.5 -20.001s4.16699 -12.834 4.5 -15.501s2.33301 -8 6 -16
s6.66699 -15.5 9 -22.5s6.83301 -13.833 13.5 -20.5v1l11 -21c12.667 -14 30 -24 52 -30c36.667 8 61.5 27 74.5 57s23.833 67.333 32.5 112c24 6.66699 58 10 102 10l128 -3h369c-8 -81.333 -32 -156 -72 -224h1c-34.667 -54.667 -88.667 -101.667 -162 -141
c-207.333 -72.667 -340.333 -109 -399 -109c-10.667 0 -19.334 0.666992 -26.001 2h-23l-9 -1h-9c-5.33301 0 -12 0.666992 -20 2c-6.66699 -4 -14.667 -6 -24 -6l-87 10c-4.66699 -2 -14.167 -3 -28.5 -3s-51.833 9 -112.5 27v-1l-24 7l-24 8
c-100 29.333 -185.667 80.833 -257 154.5s-117 159.5 -137 257.5c-2 12 -5.66699 30.167 -11 54.5s-8 40.833 -8 49.5v48c0 11.333 0.333008 20 1 26v15c0 141.333 42 263.5 126 366.5s196.667 175.5 338 217.5l24 7c35.333 6 60.666 12.333 75.999 19zM852.004 712.003
l20.998 12.999c-11.333 72 -22 118.167 -32 138.5s-19.667 37.833 -29 52.5c-17.333 28 -40.166 42 -68.499 42s-52.5 -14 -72.5 -42c-35.333 -49.333 -57.666 -118.666 -66.999 -207.999c42.667 2.66699 82 4 118 4h130zM475.002 1410l-15.998 -0.996094h-49l-15 29
l168 286c28.667 42 45 65.333 49 70h70l418 -10v-3c-26.667 -30.667 -70.334 -79.834 -131.001 -147.501s-105.334 -117.834 -134.001 -150.501s-53.5 -52.334 -74.5 -59.001s-55.167 -10.334 -102.5 -11.001z" />
    <glyph glyph-name="ecircumflex" unicode="&#xea;" horiz-adv-x="1475" 
d="M553 1226c30 8.66699 62.0039 13.0029 96.0039 13.0029s66.333 -1.33301 97 -4l42 -4c66 -6 116.667 -13.667 152 -23v1l21 -9c140 -43.333 249 -109.333 327 -198v1c18 -21.333 40.167 -53.5 66.5 -96.5s39.5 -72.833 39.5 -89.5l8 -27l5 -29
c12.667 -44.667 19 -82 19 -112s0.333008 -53 1 -69h-824v-33c4 -15.333 6 -31.333 6 -48s0.166992 -29.834 0.5 -39.501s1.16602 -19 2.49902 -28s2.16602 -16.333 2.49902 -22s1.83301 -12.334 4.5 -20.001s4.16699 -12.834 4.5 -15.501s2.33301 -8 6 -16
s6.66699 -15.5 9 -22.5s6.83301 -13.833 13.5 -20.5v1l11 -21c12.667 -14 30 -24 52 -30c36.667 8 61.5 27 74.5 57s23.833 67.333 32.5 112c24 6.66699 58 10 102 10l128 -3h369c-8 -81.333 -32 -156 -72 -224h1c-34.667 -54.667 -88.667 -101.667 -162 -141
c-207.333 -72.667 -340.333 -109 -399 -109c-10.667 0 -19.334 0.666992 -26.001 2h-23l-9 -1h-9c-5.33301 0 -12 0.666992 -20 2c-6.66699 -4 -14.667 -6 -24 -6l-87 10c-4.66699 -2 -14.167 -3 -28.5 -3s-51.833 9 -112.5 27v-1l-24 7l-24 8
c-100 29.333 -185.667 80.833 -257 154.5s-117 159.5 -137 257.5c-2 12 -5.66699 30.167 -11 54.5s-8 40.833 -8 49.5v48c0 11.333 0.333008 20 1 26v15c0 141.333 42 263.5 126 366.5s196.667 175.5 338 217.5l24 7c35.333 6 60.666 12.333 75.999 19zM852.004 712.003
l20.998 12.999c-11.333 72 -22 118.167 -32 138.5s-19.667 37.833 -29 52.5c-17.333 28 -40.166 42 -68.499 42s-52.5 -14 -72.5 -42c-35.333 -49.333 -57.666 -118.666 -66.999 -207.999c42.667 2.66699 82 4 118 4h130zM1135 1406l-294.998 -7.00195
c-20.667 12 -39.334 35.667 -56.001 71c-4 8 -6.66699 13 -8 15l-30 60c-10.667 -10 -23.667 -26.667 -39 -50s-29 -43.333 -41 -60s-21.667 -25 -29 -25h-278l-49 -3c-38 0 -57 4 -57 12c0 1.33301 0.333008 3.33301 1 6c45.333 70 105.666 154.333 180.999 253l22 35
c16.667 27.333 40.667 43.833 72 49.5s121 9.83398 269 12.501l177 3c12 -6 23.667 -17.333 35 -34s18.666 -27.167 21.999 -31.5s7.83301 -10.833 13.5 -19.5s9.83398 -14.667 12.501 -18v1l62 -92c8 -12 23.667 -33.667 47 -65l20 -28
c3.33301 -5.33301 8.33301 -12.666 15 -21.999l17 -22c10.667 -14 16 -24.5 16 -31.5s-9 -10.5 -27 -10.5l-11 1h-62z" />
    <glyph glyph-name="edieresis" unicode="&#xeb;" horiz-adv-x="1475" 
d="M553 1226c30 8.66699 62.0039 13.0029 96.0039 13.0029s66.333 -1.33301 97 -4l42 -4c66 -6 116.667 -13.667 152 -23v1l21 -9c140 -43.333 249 -109.333 327 -198v1c18 -21.333 40.167 -53.5 66.5 -96.5s39.5 -72.833 39.5 -89.5l8 -27l5 -29
c12.667 -44.667 19 -82 19 -112s0.333008 -53 1 -69h-824v-33c4 -15.333 6 -31.333 6 -48s0.166992 -29.834 0.5 -39.501s1.16602 -19 2.49902 -28s2.16602 -16.333 2.49902 -22s1.83301 -12.334 4.5 -20.001s4.16699 -12.834 4.5 -15.501s2.33301 -8 6 -16
s6.66699 -15.5 9 -22.5s6.83301 -13.833 13.5 -20.5v1l11 -21c12.667 -14 30 -24 52 -30c36.667 8 61.5 27 74.5 57s23.833 67.333 32.5 112c24 6.66699 58 10 102 10l128 -3h369c-8 -81.333 -32 -156 -72 -224h1c-34.667 -54.667 -88.667 -101.667 -162 -141
c-207.333 -72.667 -340.333 -109 -399 -109c-10.667 0 -19.334 0.666992 -26.001 2h-23l-9 -1h-9c-5.33301 0 -12 0.666992 -20 2c-6.66699 -4 -14.667 -6 -24 -6l-87 10c-4.66699 -2 -14.167 -3 -28.5 -3s-51.833 9 -112.5 27v-1l-24 7l-24 8
c-100 29.333 -185.667 80.833 -257 154.5s-117 159.5 -137 257.5c-2 12 -5.66699 30.167 -11 54.5s-8 40.833 -8 49.5v48c0 11.333 0.333008 20 1 26v15c0 141.333 42 263.5 126 366.5s196.667 175.5 338 217.5l24 7c35.333 6 60.666 12.333 75.999 19zM852.004 712.003
l20.998 12.999c-11.333 72 -22 118.167 -32 138.5s-19.667 37.833 -29 52.5c-17.333 28 -40.166 42 -68.499 42s-52.5 -14 -72.5 -42c-35.333 -49.333 -57.666 -118.666 -66.999 -207.999c42.667 2.66699 82 4 118 4h130zM971.002 1810l170 3c40.667 0 62 -2.66699 64 -8
c3.33301 -101.333 5.66602 -215.333 6.99902 -342c-2 -4 -3 -7.33301 -3 -10l-7 1l-333 -14l-26 29c0 56.667 2 126.167 6 208.5s10 127.5 18 135.5c36.667 -2 71.334 -3 104.001 -3zM843.002 1468v1v-1zM1208 1452l14 -1c0 -11.333 -4.66699 -17 -14 -17
c-4 0 -7.33301 1.33301 -10 4zM638.002 1741l1.99902 -98.0029v-31c0 -72.667 0.333008 -124.667 1 -156c-6.66699 -7.33301 -33.667 -11 -81 -11l-21 1h-51l-187 -7c-14 20.667 -22 32.334 -24 35.001c0 209.333 7.33301 322.333 22 339
c24 -0.666992 74.833 -1.16699 152.5 -1.5s137.834 -1.16602 180.501 -2.49902c4.66699 -1.33301 7 -9.66602 7 -24.999l-1 -11v-32z" />
    <glyph glyph-name="igrave" unicode="&#xec;" horiz-adv-x="669" 
d="M612 313l0.999023 -9.00098l1 -150c0 -42 -2.66699 -82.333 -8 -121s-11.666 -58 -18.999 -58h-294l-39 -6c-40 0 -97.333 0.666992 -172 2l-19 16v13l-1 21v45c0 122 1.33301 231 4 327l3 214l8 411v28l130 1l19 -1h68l25 1l265 -4c2.66699 0.666992 4.5 1 5.5 1
s1.5 -1.66699 1.5 -5l1 -63l-1 -38v-76c0 -112.667 3.33301 -202.667 10 -270l4 -42c4 -47.333 6.66699 -105.666 8 -174.999v-27c0 -0.666992 -0.333008 -2 -1 -4v-31zM313.999 1430l-9.00098 -3.99902c-1.33301 1.33301 -13.333 16 -36 44v-1l-31 38
c-59.333 71.333 -116.666 134.833 -171.999 190.5s-83 91.834 -83 108.501c0 3.33301 3 7.66602 9 12.999c136.667 -12 283.334 -18 440.001 -18h30l6 1c14.667 -10.667 49.167 -61.834 103.5 -153.501s88.166 -147 101.499 -166s20 -32.5 20 -40.5s-20.333 -12 -61 -12
h-318z" />
    <glyph glyph-name="iacute" unicode="&#xed;" horiz-adv-x="669" 
d="M612 313l0.999023 -9.00098l1 -150c0 -42 -2.66699 -82.333 -8 -121s-11.666 -58 -18.999 -58h-294l-39 -6c-40 0 -97.333 0.666992 -172 2l-19 16v13l-1 21v45c0 122 1.33301 231 4 327l3 214l8 411v28l130 1l19 -1h68l25 1l265 -4c2.66699 0.666992 4.5 1 5.5 1
s1.5 -1.66699 1.5 -5l1 -63l-1 -38v-76c0 -112.667 3.33301 -202.667 10 -270l4 -42c4 -47.333 6.66699 -105.666 8 -174.999v-27c0 -0.666992 -0.333008 -2 -1 -4v-31zM71.999 1410l-15.998 -0.996094h-49l-15 29l168 286c28.667 42 45 65.333 49 70h70l418 -10v-3
c-26.667 -30.667 -70.334 -79.834 -131.001 -147.501s-105.334 -117.834 -134.001 -150.501s-53.5 -52.334 -74.5 -59.001s-55.167 -10.334 -102.5 -11.001z" />
    <glyph glyph-name="icircumflex" unicode="&#xee;" horiz-adv-x="669" 
d="M612 313l0.999023 -9.00098l1 -150c0 -42 -2.66699 -82.333 -8 -121s-11.666 -58 -18.999 -58h-294l-39 -6c-40 0 -97.333 0.666992 -172 2l-19 16v13l-1 21v45c0 122 1.33301 231 4 327l3 214l8 411v28l130 1l19 -1h68l25 1l265 -4c2.66699 0.666992 4.5 1 5.5 1
s1.5 -1.66699 1.5 -5l1 -63l-1 -38v-76c0 -112.667 3.33301 -202.667 10 -270l4 -42c4 -47.333 6.66699 -105.666 8 -174.999v-27c0 -0.666992 -0.333008 -2 -1 -4v-31zM732.999 1406l-294.998 -7.00195c-20.667 12 -39.334 35.667 -56.001 71c-4 8 -6.66699 13 -8 15
l-30 60c-10.667 -10 -23.667 -26.667 -39 -50s-29 -43.333 -41 -60s-21.667 -25 -29 -25h-278l-49 -3c-38 0 -57 4 -57 12c0 1.33301 0.333008 3.33301 1 6c45.333 70 105.666 154.333 180.999 253l22 35c16.667 27.333 40.667 43.833 72 49.5s121 9.83398 269 12.501l177 3
c12 -6 23.667 -17.333 35 -34s18.666 -27.167 21.999 -31.5s7.83301 -10.833 13.5 -19.5s9.83398 -14.667 12.501 -18v1l62 -92c8 -12 23.667 -33.667 47 -65l20 -28c3.33301 -5.33301 8.33301 -12.666 15 -21.999l17 -22c10.667 -14 16 -24.5 16 -31.5s-9 -10.5 -27 -10.5
l-11 1h-62z" />
    <glyph glyph-name="idieresis" unicode="&#xef;" horiz-adv-x="669" 
d="M612 313l0.999023 -9.00098l1 -150c0 -42 -2.66699 -82.333 -8 -121s-11.666 -58 -18.999 -58h-294l-39 -6c-40 0 -97.333 0.666992 -172 2l-19 16v13l-1 21v45c0 122 1.33301 231 4 327l3 214l8 411v28l130 1l19 -1h68l25 1l265 -4c2.66699 0.666992 4.5 1 5.5 1
s1.5 -1.66699 1.5 -5l1 -63l-1 -38v-76c0 -112.667 3.33301 -202.667 10 -270l4 -42c4 -47.333 6.66699 -105.666 8 -174.999v-27c0 -0.666992 -0.333008 -2 -1 -4v-31zM567.999 1810l170 3c40.667 0 62 -2.66699 64 -8c3.33301 -101.333 5.66602 -215.333 6.99902 -342
c-2 -4 -3 -7.33301 -3 -10l-7 1l-333 -14l-26 29c0 56.667 2 126.167 6 208.5s10 127.5 18 135.5c36.667 -2 71.334 -3 104.001 -3zM439.999 1468v1v-1zM804.999 1452l14 -1c0 -11.333 -4.66699 -17 -14 -17c-4 0 -7.33301 1.33301 -10 4zM234.999 1741l1.99902 -98.0029
v-31c0 -72.667 0.333008 -124.667 1 -156c-6.66699 -7.33301 -33.667 -11 -81 -11l-21 1h-51l-187 -7c-14 20.667 -22 32.334 -24 35.001c0 209.333 7.33301 322.333 22 339c24 -0.666992 74.833 -1.16699 152.5 -1.5s137.834 -1.16602 180.501 -2.49902
c4.66699 -1.33301 7 -9.66602 7 -24.999l-1 -11v-32z" />
    <glyph glyph-name="eth" unicode="&#xf0;" horiz-adv-x="1453" 
d="M-23 781l-1.99805 41c0 31.333 5 47 15 47h119c-2 16 -3 31.667 -3 47l-3 49v163c-5.33301 88 -8 155.667 -8 203v46l-5 4c1.33301 2 4.66602 3 9.99902 3h11c12.667 0 42.834 3 90.501 9s133.167 9 256.5 9h134c188.667 0 336 -16.667 442 -50s184.667 -84.333 236 -153
c106 -130.667 159 -287.667 159 -471c0 -257.333 -94.333 -448.666 -283 -573.999c-104 -68.667 -217.667 -105.667 -341 -111l-6 3l-44 -2c-16 -1.33301 -38.833 -2 -68.5 -2s-56.834 1 -81.501 3h-111l-24 1l-349 -6c-10.667 20.667 -16 42.667 -16 66v137
c1.33301 55.333 2 138.666 2 249.999v66l1 84c-20.667 -0.666992 -57.334 -1 -110.001 -1c-6 2 -14 7 -24 15l1 13v16l2 84v11zM596.002 542l-0.999023 -26.999v-22c0 -98.667 10.333 -153.667 31 -165h36c46 0 85.667 10.167 119 30.5s58.166 41.666 74.499 63.999
s30.833 62.166 43.5 119.499s19 120.333 19 189v81c-2 12 -4 34.667 -6 68s-9.33301 66.666 -22 99.999c-22.667 60.667 -56 100.834 -100 120.501s-93 29.5 -147 29.5h-27l-11 -37v2l-14 -23c0 -19.333 0.333008 -31.666 1 -36.999v-11l1 -12v-60l-2 -51v-31h49l18 -1h56
c8.66699 0 13 -34.333 13 -103l-1 -29v-53c0 -18.667 -4 -28 -12 -28c-57.333 0 -97 -0.333008 -119 -1v-55l1 -15v-43z" />
    <glyph glyph-name="ntilde" unicode="&#xf1;" horiz-adv-x="1460" 
d="M316 1196l268.001 1.00293c3.33301 -14 9.33301 -36 18 -66s17 -60 25 -90l19 -75c26.667 67.333 43 104.666 49 111.999l16 20c67.333 94.667 170.666 142 309.999 142c66 0 128.833 -19.833 188.5 -59.5s106.167 -91.334 139.5 -155.001s50 -130.834 50 -201.501
c0 -8 -1 -14.333 -3 -19v-615l1 -191h-585l-2 500l4 102c0 102 -27 153 -81 153c-58 0 -87 -48.333 -87 -145c0 -21.333 0.333008 -36 1 -44v-15l1 -17v-533l-298 -1h-299l-1 600v598zM913.001 1751l22.999 19l253 -7c2 -0.666992 6.33301 -5.66699 13 -15
c-14.667 -229.333 -109.334 -344 -284.001 -344c-36.667 0 -84 7 -142 21l-58 18c-70.667 22 -114.167 33 -130.5 33s-28 -1.5 -35 -4.5s-11.167 -8.5 -12.5 -16.5s-2.66602 -16.5 -3.99902 -25.5s-79.333 -13.5 -234 -13.5h-27c-4 4 -6 10 -6 18
c0 114.667 25.667 200.167 77 256.5s124.333 84.5 219 84.5c35.333 0 97.333 -12.333 186 -37v1c20 -7.33301 49 -16 87 -26l30 -6c2.66699 0 7.33398 -3.33301 14.001 -10l25 28c3.33301 11.333 5.33301 20 6 26zM874 1745l9 10l7 -17z" />
    <glyph glyph-name="ograve" unicode="&#xf2;" horiz-adv-x="1569" 
d="M1513 605c-1.33301 -6.66699 -2.00195 -10.668 -2.00195 -12.001v-8c-2 -110 -27.333 -209 -76 -297h1c-68 -104 -162.833 -184 -284.5 -240s-241.5 -84 -359.5 -84s-215.833 11.5 -293.5 34.5s-149.5 56.5 -215.5 100.5s-115 86.333 -147 127
c-76 96 -114 231.667 -114 407c0 6 1 11 3 15v16c-2 2.66699 -3 5.33398 -3 8.00098l2 11h-1c12.667 116.667 37.334 193.334 74.001 230.001c0 7.33301 4.66699 15.666 14 24.999v-1l15 24c78.667 100.667 168.667 169.667 270 207l35 13c44 21.333 105.667 37.333 185 48
l32 3c4.66699 0.666992 14.167 1.33398 28.5 2.00098s24.5 2 30.5 4l43 -1c2 0.666992 4.33301 1 7 1s5.66699 -0.333008 9 -1l-1 1c4 -2 10 -3 18 -3c2.66699 2.66699 7.33398 4 14.001 4c144.667 0 267.667 -29.667 369 -89l20 -9c218 -104.667 327 -283.334 327 -536.001
zM890.998 598.999c-2.66699 132.667 -21.665 222.333 -56.998 269c-14.667 19.333 -32.5 29 -53.5 29s-39.5 -12.167 -55.5 -36.5s-28.833 -62.5 -38.5 -114.5s-14.5 -98.167 -14.5 -138.5s1.83301 -75 5.5 -104s9.16699 -59.667 16.5 -92s18.666 -59.333 33.999 -81
s32.666 -32.5 51.999 -32.5c74 0 111 100.333 111 301zM764 1430l-9.00098 -3.99902c-1.33301 1.33301 -13.333 16 -36 44v-1l-31 38c-59.333 71.333 -116.666 134.833 -171.999 190.5s-83 91.834 -83 108.501c0 3.33301 3 7.66602 9 12.999
c136.667 -12 283.334 -18 440.001 -18h30l6 1c14.667 -10.667 49.167 -61.834 103.5 -153.501s88.166 -147 101.499 -166s20 -32.5 20 -40.5s-20.333 -12 -61 -12h-318z" />
    <glyph glyph-name="oacute" unicode="&#xf3;" horiz-adv-x="1569" 
d="M1513 605c-1.33301 -6.66699 -2.00195 -10.668 -2.00195 -12.001v-8c-2 -110 -27.333 -209 -76 -297h1c-68 -104 -162.833 -184 -284.5 -240s-241.5 -84 -359.5 -84s-215.833 11.5 -293.5 34.5s-149.5 56.5 -215.5 100.5s-115 86.333 -147 127
c-76 96 -114 231.667 -114 407c0 6 1 11 3 15v16c-2 2.66699 -3 5.33398 -3 8.00098l2 11h-1c12.667 116.667 37.334 193.334 74.001 230.001c0 7.33301 4.66699 15.666 14 24.999v-1l15 24c78.667 100.667 168.667 169.667 270 207l35 13c44 21.333 105.667 37.333 185 48
l32 3c4.66699 0.666992 14.167 1.33398 28.5 2.00098s24.5 2 30.5 4l43 -1c2 0.666992 4.33301 1 7 1s5.66699 -0.333008 9 -1l-1 1c4 -2 10 -3 18 -3c2.66699 2.66699 7.33398 4 14.001 4c144.667 0 267.667 -29.667 369 -89l20 -9c218 -104.667 327 -283.334 327 -536.001
zM890.998 598.999c-2.66699 132.667 -21.665 222.333 -56.998 269c-14.667 19.333 -32.5 29 -53.5 29s-39.5 -12.167 -55.5 -36.5s-28.833 -62.5 -38.5 -114.5s-14.5 -98.167 -14.5 -138.5s1.83301 -75 5.5 -104s9.16699 -59.667 16.5 -92s18.666 -59.333 33.999 -81
s32.666 -32.5 51.999 -32.5c74 0 111 100.333 111 301zM522 1410l-15.998 -0.996094h-49l-15 29l168 286c28.667 42 45 65.333 49 70h70l418 -10v-3c-26.667 -30.667 -70.334 -79.834 -131.001 -147.501s-105.334 -117.834 -134.001 -150.501s-53.5 -52.334 -74.5 -59.001
s-55.167 -10.334 -102.5 -11.001z" />
    <glyph glyph-name="ocircumflex" unicode="&#xf4;" horiz-adv-x="1569" 
d="M1513 605c-1.33301 -6.66699 -2.00195 -10.668 -2.00195 -12.001v-8c-2 -110 -27.333 -209 -76 -297h1c-68 -104 -162.833 -184 -284.5 -240s-241.5 -84 -359.5 -84s-215.833 11.5 -293.5 34.5s-149.5 56.5 -215.5 100.5s-115 86.333 -147 127
c-76 96 -114 231.667 -114 407c0 6 1 11 3 15v16c-2 2.66699 -3 5.33398 -3 8.00098l2 11h-1c12.667 116.667 37.334 193.334 74.001 230.001c0 7.33301 4.66699 15.666 14 24.999v-1l15 24c78.667 100.667 168.667 169.667 270 207l35 13c44 21.333 105.667 37.333 185 48
l32 3c4.66699 0.666992 14.167 1.33398 28.5 2.00098s24.5 2 30.5 4l43 -1c2 0.666992 4.33301 1 7 1s5.66699 -0.333008 9 -1l-1 1c4 -2 10 -3 18 -3c2.66699 2.66699 7.33398 4 14.001 4c144.667 0 267.667 -29.667 369 -89l20 -9c218 -104.667 327 -283.334 327 -536.001
zM890.998 598.999c-2.66699 132.667 -21.665 222.333 -56.998 269c-14.667 19.333 -32.5 29 -53.5 29s-39.5 -12.167 -55.5 -36.5s-28.833 -62.5 -38.5 -114.5s-14.5 -98.167 -14.5 -138.5s1.83301 -75 5.5 -104s9.16699 -59.667 16.5 -92s18.666 -59.333 33.999 -81
s32.666 -32.5 51.999 -32.5c74 0 111 100.333 111 301zM1182 1406l-294.998 -7.00195c-20.667 12 -39.334 35.667 -56.001 71c-4 8 -6.66699 13 -8 15l-30 60c-10.667 -10 -23.667 -26.667 -39 -50s-29 -43.333 -41 -60s-21.667 -25 -29 -25h-278l-49 -3c-38 0 -57 4 -57 12
c0 1.33301 0.333008 3.33301 1 6c45.333 70 105.666 154.333 180.999 253l22 35c16.667 27.333 40.667 43.833 72 49.5s121 9.83398 269 12.501l177 3c12 -6 23.667 -17.333 35 -34s18.666 -27.167 21.999 -31.5s7.83301 -10.833 13.5 -19.5s9.83398 -14.667 12.501 -18v1
l62 -92c8 -12 23.667 -33.667 47 -65l20 -28c3.33301 -5.33301 8.33301 -12.666 15 -21.999l17 -22c10.667 -14 16 -24.5 16 -31.5s-9 -10.5 -27 -10.5l-11 1h-62z" />
    <glyph glyph-name="otilde" unicode="&#xf5;" horiz-adv-x="1569" 
d="M1513 605c-1.33301 -6.66699 -2.00195 -10.668 -2.00195 -12.001v-8c-2 -110 -27.333 -209 -76 -297h1c-68 -104 -162.833 -184 -284.5 -240s-241.5 -84 -359.5 -84s-215.833 11.5 -293.5 34.5s-149.5 56.5 -215.5 100.5s-115 86.333 -147 127
c-76 96 -114 231.667 -114 407c0 6 1 11 3 15v16c-2 2.66699 -3 5.33398 -3 8.00098l2 11h-1c12.667 116.667 37.334 193.334 74.001 230.001c0 7.33301 4.66699 15.666 14 24.999v-1l15 24c78.667 100.667 168.667 169.667 270 207l35 13c44 21.333 105.667 37.333 185 48
l32 3c4.66699 0.666992 14.167 1.33398 28.5 2.00098s24.5 2 30.5 4l43 -1c2 0.666992 4.33301 1 7 1s5.66699 -0.333008 9 -1l-1 1c4 -2 10 -3 18 -3c2.66699 2.66699 7.33398 4 14.001 4c144.667 0 267.667 -29.667 369 -89l20 -9c218 -104.667 327 -283.334 327 -536.001
zM890.998 598.999c-2.66699 132.667 -21.665 222.333 -56.998 269c-14.667 19.333 -32.5 29 -53.5 29s-39.5 -12.167 -55.5 -36.5s-28.833 -62.5 -38.5 -114.5s-14.5 -98.167 -14.5 -138.5s1.83301 -75 5.5 -104s9.16699 -59.667 16.5 -92s18.666 -59.333 33.999 -81
s32.666 -32.5 51.999 -32.5c74 0 111 100.333 111 301zM968 1751l22.999 19l253 -7c2 -0.666992 6.33301 -5.66699 13 -15c-14.667 -229.333 -109.334 -344 -284.001 -344c-36.667 0 -84 7 -142 21l-58 18c-70.667 22 -114.167 33 -130.5 33s-28 -1.5 -35 -4.5
s-11.167 -8.5 -12.5 -16.5s-2.66602 -16.5 -3.99902 -25.5s-79.333 -13.5 -234 -13.5h-27c-4 4 -6 10 -6 18c0 114.667 25.667 200.167 77 256.5s124.333 84.5 219 84.5c35.333 0 97.333 -12.333 186 -37v1c20 -7.33301 49 -16 87 -26l30 -6
c2.66699 0 7.33398 -3.33301 14.001 -10l25 28c3.33301 11.333 5.33301 20 6 26zM928.999 1745l9 10l7 -17z" />
    <glyph glyph-name="odieresis" unicode="&#xf6;" horiz-adv-x="1569" 
d="M1513 605c-1.33301 -6.66699 -2.00195 -10.668 -2.00195 -12.001v-8c-2 -110 -27.333 -209 -76 -297h1c-68 -104 -162.833 -184 -284.5 -240s-241.5 -84 -359.5 -84s-215.833 11.5 -293.5 34.5s-149.5 56.5 -215.5 100.5s-115 86.333 -147 127
c-76 96 -114 231.667 -114 407c0 6 1 11 3 15v16c-2 2.66699 -3 5.33398 -3 8.00098l2 11h-1c12.667 116.667 37.334 193.334 74.001 230.001c0 7.33301 4.66699 15.666 14 24.999v-1l15 24c78.667 100.667 168.667 169.667 270 207l35 13c44 21.333 105.667 37.333 185 48
l32 3c4.66699 0.666992 14.167 1.33398 28.5 2.00098s24.5 2 30.5 4l43 -1c2 0.666992 4.33301 1 7 1s5.66699 -0.333008 9 -1l-1 1c4 -2 10 -3 18 -3c2.66699 2.66699 7.33398 4 14.001 4c144.667 0 267.667 -29.667 369 -89l20 -9c218 -104.667 327 -283.334 327 -536.001
zM890.998 598.999c-2.66699 132.667 -21.665 222.333 -56.998 269c-14.667 19.333 -32.5 29 -53.5 29s-39.5 -12.167 -55.5 -36.5s-28.833 -62.5 -38.5 -114.5s-14.5 -98.167 -14.5 -138.5s1.83301 -75 5.5 -104s9.16699 -59.667 16.5 -92s18.666 -59.333 33.999 -81
s32.666 -32.5 51.999 -32.5c74 0 111 100.333 111 301zM1018 1810l170 3c40.667 0 62 -2.66699 64 -8c3.33301 -101.333 5.66602 -215.333 6.99902 -342c-2 -4 -3 -7.33301 -3 -10l-7 1l-333 -14l-26 29c0 56.667 2 126.167 6 208.5s10 127.5 18 135.5
c36.667 -2 71.334 -3 104.001 -3zM890 1468v1v-1zM1255 1452l14 -1c0 -11.333 -4.66699 -17 -14 -17c-4 0 -7.33301 1.33301 -10 4zM685 1741l1.99902 -98.002v-31c0 -72.667 0.333008 -124.667 1 -156c-6.66699 -7.33301 -33.667 -11 -81 -11l-21 1h-51l-187 -7l-24 35
c0 209.333 7.33301 322.333 22 339c24 -0.666992 74.833 -1.16699 152.5 -1.5s137.834 -1.16602 180.501 -2.49902c4.66699 -1.33301 7 -9.66602 7 -24.999l-1 -11v-32z" />
    <glyph glyph-name="divide" unicode="&#xf7;" horiz-adv-x="1282" 
d="M892 664l283 1.99902c16 0 24 -0.333008 24 -1l-9 -203v-46l1 -11c-3.33301 -4.66699 -14 -7 -32 -7l2 1c-138.667 -4 -246 -6 -322 -6h-25c-42 0 -97 -2.66699 -165 -8l-254 -9c-181.333 -6 -273 -9 -275 -9c-10.667 14.667 -16 33.334 -16 56.001
c0 146.667 12 230.667 36 252h59zM742 -0.000976562c-25.333 -16 -54.668 -24.001 -88.001 -24.001s-65.5 12 -96.5 36s-46.5 58 -46.5 102s14 80.833 42 110.5s62 44.5 102 44.5s75.333 -13.333 106 -40s45.834 -64.667 45.501 -114s-21.833 -87.666 -64.5 -114.999z
M767.498 1044c30.333 -25.333 45.501 -55.832 45.501 -91.499s-9 -65.834 -27 -90.501c-33.333 -44.667 -73 -67 -119 -67s-82.5 13.167 -109.5 39.5s-40.5 61 -40.5 104s14.5 77.667 43.5 104s63.167 39.5 102.5 39.5s74.166 -12.667 104.499 -38z" />
    <glyph glyph-name="oslash" unicode="&#xf8;" horiz-adv-x="1455" 
d="M260 -153l-31.998 11l19 80c2.66699 5.33301 7 13.5 13 24.5s10.333 19.5 13 25.5l61 116l-28 19c-62 42 -117.667 97 -167 165v-1c-60 95.333 -97.333 223.333 -112 384l-3 61l4 22c20.667 212 78.667 373.333 174 484l24 26c34 36.667 82.667 68.667 146 96l40 17
c77.333 34 167 53 269 57h4c22.667 0 41 1 55 3c103.333 -2.66699 198 -18.667 284 -48l139 257c0 1.33301 11.667 -3 35 -13l32 -15c0 -2 3.66699 -3 11 -3l6 -3c0 -18.667 -18.833 -61.834 -56.5 -129.501s-61.167 -112.167 -70.5 -133.5
c3.33301 -2.66699 12.666 -9 27.999 -19c54 -38 90.333 -69.333 109 -94l21 -29c97.333 -122.667 146 -281.667 146 -477s-44.667 -349.666 -134 -462.999l-42 -53c-58 -68 -139.667 -118.333 -245 -151s-201.5 -49 -288.5 -49s-178.167 14.333 -273.5 43
c-7.33301 -13.333 -17.333 -33 -30 -59c-25.333 -50.667 -46.333 -89.667 -63 -117s-32.334 -41 -47.001 -41l-28 7h-13zM843.002 1054c-35.333 29.333 -78.167 44 -128.5 44s-89.833 -14.833 -118.5 -44.5s-50.667 -72.5 -66 -128.5h1c-12.667 -36 -19 -86.333 -19 -151
v-50c0 -70.667 7.66699 -152 23 -244zM914.001 963l-308.999 -595.999c41.333 -18.667 76.666 -28 105.999 -28s56 4.33301 80 13s43.833 19.5 59.5 32.5s29.167 30.5 40.5 52.5c20 38.667 32.667 81.167 38 127.5s8 99.166 8 158.499v38c0 54.667 -7.66699 122 -23 202z
M1241 1615h1h-1z" />
    <glyph glyph-name="ugrave" unicode="&#xf9;" horiz-adv-x="1538" 
d="M691 1100l-1.99902 -635.001c0 -68 24.333 -102 73 -102c40.667 0 61 36 61 108v724l329 1h326l1 -1195h-560l-47 162c-85.333 -132.667 -202.333 -199 -351 -199c-128 0 -235.667 36.667 -323 110l1 7c-11.333 3.33301 -25.333 15.5 -42 36.5
s-29.334 39.167 -38.001 54.5c-43.333 78.667 -65 194.334 -65 347.001l1 32v644h318l318 1v-96zM749.001 1430l-9.00098 -3.99902c-1.33301 1.33301 -13.333 16 -36 44v-1l-31 38c-59.333 71.333 -116.666 134.833 -171.999 190.5s-83 91.834 -83 108.501
c0 3.33301 3 7.66602 9 12.999c136.667 -12 283.334 -18 440.001 -18h30l6 1c14.667 -10.667 49.167 -61.834 103.5 -153.501s88.166 -147 101.499 -166s20 -32.5 20 -40.5s-20.333 -12 -61 -12h-318z" />
    <glyph glyph-name="uacute" unicode="&#xfa;" horiz-adv-x="1538" 
d="M691 1100l-1.99902 -635.001c0 -68 24.333 -102 73 -102c40.667 0 61 36 61 108v724l329 1h326l1 -1195h-560l-47 162c-85.333 -132.667 -202.333 -199 -351 -199c-128 0 -235.667 36.667 -323 110l1 7c-11.333 3.33301 -25.333 15.5 -42 36.5
s-29.334 39.167 -38.001 54.5c-43.333 78.667 -65 194.334 -65 347.001l1 32v644h318l318 1v-96zM506.001 1410l-15.998 -0.996094h-49l-15 29l168 286c28.667 42 45 65.333 49 70h70l418 -10v-3c-26.667 -30.667 -70.334 -79.834 -131.001 -147.501
s-105.334 -117.834 -134.001 -150.501s-53.5 -52.334 -74.5 -59.001s-55.167 -10.334 -102.5 -11.001z" />
    <glyph glyph-name="ucircumflex" unicode="&#xfb;" horiz-adv-x="1538" 
d="M691 1100l-1.99902 -635.001c0 -68 24.333 -102 73 -102c40.667 0 61 36 61 108v724l329 1h326l1 -1195h-560l-47 162c-85.333 -132.667 -202.333 -199 -351 -199c-128 0 -235.667 36.667 -323 110l1 7c-11.333 3.33301 -25.333 15.5 -42 36.5
s-29.334 39.167 -38.001 54.5c-43.333 78.667 -65 194.334 -65 347.001l1 32v644h318l318 1v-96zM1167 1406l-294.998 -7.00195c-20.667 12 -39.334 35.667 -56.001 71c-4 8 -6.66699 13 -8 15l-30 60c-10.667 -10 -23.667 -26.667 -39 -50s-29 -43.333 -41 -60
s-21.667 -25 -29 -25h-278l-49 -3c-38 0 -57 4 -57 12c0 1.33301 0.333008 3.33301 1 6c45.333 70 105.666 154.333 180.999 253l22 35c16.667 27.333 40.667 43.833 72 49.5s121 9.83398 269 12.501l177 3c12 -6 23.667 -17.333 35 -34s18.666 -27.167 21.999 -31.5
s7.83301 -10.833 13.5 -19.5s9.83398 -14.667 12.501 -18v1l62 -92c8 -12 23.667 -33.667 47 -65l20 -28c3.33301 -5.33301 8.33301 -12.666 15 -21.999l17 -22c10.667 -14 16 -24.5 16 -31.5s-9 -10.5 -27 -10.5l-11 1h-62z" />
    <glyph glyph-name="udieresis" unicode="&#xfc;" horiz-adv-x="1538" 
d="M691 1100l-1.99902 -635.001c0 -68 24.333 -102 73 -102c40.667 0 61 36 61 108v724l329 1h326l1 -1195h-560l-47 162c-85.333 -132.667 -202.333 -199 -351 -199c-128 0 -235.667 36.667 -323 110l1 7c-11.333 3.33301 -25.333 15.5 -42 36.5
s-29.334 39.167 -38.001 54.5c-43.333 78.667 -65 194.334 -65 347.001l1 32v644h318l318 1v-96zM1002 1810l170.001 3c40.667 0 62 -2.66699 64 -8c3.33301 -101.333 5.66602 -215.333 6.99902 -342c-2 -4 -3 -7.33301 -3 -10l-7 1l-333 -14l-26 29
c0 56.667 2 126.167 6 208.5s10 127.5 18 135.5c37.333 -2 72 -3 104 -3zM874.002 1468v1v-1zM1239 1452l14 -1c0 -11.333 -4.66699 -17 -14 -17c-4 0 -7.33301 1.33301 -10 4zM669.002 1741l1.99902 -98.0029v-31c0 -72.667 0.333008 -124.667 1 -156
c-6.66699 -7.33301 -33.667 -11 -81 -11l-21 1h-51l-187 -7c-14 20.667 -22 32.334 -24 35.001c0 209.333 7.33301 322.333 22 339c24 -0.666992 74.833 -1.16699 152.5 -1.5s137.834 -1.16602 180.501 -2.49902c4.66699 -1.33301 7 -9.66602 7 -24.999l-1 -11v-32z" />
    <glyph glyph-name="yacute" unicode="&#xfd;" horiz-adv-x="1403" 
d="M238 -139c62 21.333 93.002 81.668 93.002 181.001c0 37.333 -12.667 96.333 -38 177l-16 50c-78 250 -175.667 558.667 -293 926h305l301 1l45 -259c3.33301 -28.667 8.66602 -69.334 15.999 -122.001s12.666 -92.334 15.999 -119.001l97 500h591v2l20 -2l-5 -20h-2
l-264 -732c-27.333 -68.667 -47.666 -126.167 -60.999 -172.5s-28.333 -89.833 -45 -130.5s-45.834 -120.5 -87.501 -239.5s-81.5 -212.5 -119.5 -280.5c-60 -102 -155.667 -157.333 -287 -166l-94 -1l-81 -4c-15.333 0 -28.333 1 -39 3
c-4.66699 -1.33301 -11.667 -2 -21 -2l-61 3l-39 -3c-3.33301 0 -11.666 0.666992 -24.999 2h-84l-19 51c-1.33301 4 -2 9.16699 -2 15.5s0.333008 10.833 1 13.5v7l1 10v114c0 78.667 -0.333008 137 -1 175c9.33301 1.33301 19.5 2 30.5 2s19.833 -1 26.5 -3
c9.33301 2 21.666 3 36.999 3h8c5.33301 3.33301 17.333 6.33301 36 9s33 5.33398 43 8.00098s15.667 4 17 4v-1zM439.002 1410l-15.998 -0.996094h-49l-15 29l168 286c28.667 42 45 65.333 49 70h70l418 -10v-3c-26.667 -30.667 -70.334 -79.834 -131.001 -147.501
s-105.334 -117.834 -134.001 -150.501s-53.5 -52.334 -74.5 -59.001s-55.167 -10.334 -102.5 -11.001z" />
    <glyph glyph-name="thorn" unicode="&#xfe;" horiz-adv-x="1366" 
d="M105 714l2.99902 661v265l-7 105c4 9.33301 24.333 14 61 14h465c2 -3.33301 3 -14.666 3 -33.999v-325l254 -10h16l7 1h22c98 0 187.667 -26.667 269 -80h-1c50.667 -35.333 92.334 -87 125.001 -155s49 -138.667 49 -212c0 -140.667 -65.667 -264.334 -197 -371.001
c-82 -42 -182 -66.667 -300 -74l-35 -2c-27.333 -4.66699 -75 -7 -143 -7h-14c-10 0 -22.333 -1 -37 -3v-108c0 -122 3 -229.333 9 -322c-5.33301 -10 -26.333 -15 -63 -15h-475c-6 16 -10.333 31 -13 45v313c0 22 0.666992 39 2 51v263zM627.999 1119
c-5.33301 -5.33301 -12.668 -17.333 -22.001 -36v-71l-4 -37c-6 -55.333 -9 -96.5 -9 -123.5s7 -52.833 21 -77.5h-1c0 -3.33301 1.16699 -7 3.5 -11s3.5 -6.33301 3.5 -7l10 10c4 -2 16 -3 36 -3c52 0 102.667 13.833 152 41.5s74 72.5 74 134.5s-12.667 104.833 -38 128.5
s-55.166 38.167 -89.499 43.5s-74.5 8 -120.5 8h-16z" />
    <glyph glyph-name="ydieresis" unicode="&#xff;" horiz-adv-x="1403" 
d="M238 -139c62 21.333 93.002 81.668 93.002 181.001c0 37.333 -12.667 96.333 -38 177l-16 50c-78 250 -175.667 558.667 -293 926h305l301 1l45 -259c3.33301 -28.667 8.66602 -69.334 15.999 -122.001s12.666 -92.334 15.999 -119.001l97 500h591v2l20 -2l-5 -20h-2
l-264 -732c-27.333 -68.667 -47.666 -126.167 -60.999 -172.5s-28.333 -89.833 -45 -130.5s-45.834 -120.5 -87.501 -239.5s-81.5 -212.5 -119.5 -280.5c-60 -102 -155.667 -157.333 -287 -166l-94 -1l-81 -4c-15.333 0 -28.333 1 -39 3
c-4.66699 -1.33301 -11.667 -2 -21 -2l-61 3l-39 -3c-3.33301 0 -11.666 0.666992 -24.999 2h-84l-19 51c-1.33301 4 -2 9.16699 -2 15.5s0.333008 10.833 1 13.5v7l1 10v114c0 78.667 -0.333008 137 -1 175c9.33301 1.33301 19.5 2 30.5 2s19.833 -1 26.5 -3
c9.33301 2 21.666 3 36.999 3h8c5.33301 3.33301 17.333 6.33301 36 9s33 5.33398 43 8.00098s15.667 4 17 4v-1zM935.002 1810l170.001 3c40.667 0 62 -2.66699 64 -8c3.33301 -101.333 5.66602 -215.333 6.99902 -342c-2 -4 -3 -7.33301 -3 -10l-7 1l-333 -14l-26 29
c0 56.667 2 126.167 6 208.5s10 127.5 18 135.5c37.333 -2 72 -3 104 -3zM807.003 1468v1v-1zM1172 1452l14 -1c0 -11.333 -4.66699 -17 -14 -17c-4 0 -7.33301 1.33301 -10 4zM602.003 1741l1.99902 -98.0029v-31c0 -72.667 0.333008 -124.667 1 -156
c-6.66699 -7.33301 -33.667 -11 -81 -11l-21 1h-51l-187 -7c-14 20.667 -22 32.334 -24 35.001c0 209.333 7.33301 322.333 22 339c24 -0.666992 74.833 -1.16699 152.5 -1.5s137.834 -1.16602 180.501 -2.49902c4.66699 -1.33301 7 -9.66602 7 -24.999l-1 -11v-32z" />
    <glyph glyph-name="dotlessi" unicode="&#x131;" horiz-adv-x="669" 
d="M612 313l0.999023 -9.00098l1 -150c0 -42 -2.66699 -82.333 -8 -121s-11.666 -58 -18.999 -58h-294l-39 -6c-40 0 -97.333 0.666992 -172 2l-19 16v13l-1 21v45c0 122 1.33301 231 4 327l3 214l8 411v28l130 1l19 -1h68l25 1l265 -4c2.66699 0.666992 4.5 1 5.5 1
s1.5 -1.66699 1.5 -5l1 -63l-1 -38v-76c0 -112.667 3.33301 -202.667 10 -270l4 -42c4 -47.333 6.66699 -105.666 8 -174.999v-27c0 -0.666992 -0.333008 -2 -1 -4v-31z" />
    <glyph glyph-name="Lslash" unicode="&#x141;" horiz-adv-x="1264" 
d="M837 1130c54 19.333 86.3359 28.999 97.0029 28.999c33.333 -69.333 54 -117.5 62 -144.5s14.167 -45.667 18.5 -56s6.5 -18 6.5 -23s-3.66699 -9.16699 -11 -12.5l-294 -106l-9 -26v-378l42 -23c120.667 7.33301 237.5 11 350.5 11s170.167 -5.66699 171.5 -17
c-4.66699 -18.667 -7 -38.667 -7 -60v-23c0 -35.333 2.33301 -60.666 7 -75.999c0 -101.333 -0.333008 -179 -1 -233c-4 -17.333 -333 -26 -987 -26c-32.667 0 -82.334 0.666992 -149.001 2c-11.333 21.333 -17 54.333 -17 99l3 65v459l-21 -2
c-4.66699 -0.666992 -15.334 -4.66699 -32.001 -12l-38 -15c-8.66699 1.33301 -18.334 5 -29.001 11l-24 77l-15 33c-19.333 58 -29 92.5 -29 103.5s1.33301 17.667 4 20s6.66699 4.66602 12 6.99902s10 4.33301 14 6s9.66699 3.66699 17 6s12 3.83301 14 4.5l26 9l-1 -1
l103 34v198l1 48c0 10.667 -0.666992 37.334 -2 80.001v11l-5 144c0 79.333 7.66699 134.333 23 165c12.667 -0.666992 31 -1 55 -1h46l168 2c191.333 0 297.333 -12.333 318 -37l-9 -348v-48l122 45zM1270 379.999c6.66699 11.333 13.333 17 20 17l7 -17l-10 -8h-1z" />
    </font>
</defs>
</svg>
