<svg version="1.1" id="_x31__иконка" xmlns="http://www.w3.org/2000/svg" xmlns:xlink="http://www.w3.org/1999/xlink" x="0px"
	 y="0px" viewBox="0 0 260 340" style="enable-background:new 0 0 260 340;" xml:space="preserve">
<style type="text/css">
	.st0{fill:#FFFFFF;}
	.st1{fill:#FAF284;}
	.st2{opacity:0.7;fill:#D9D9D9;}
	.st3{fill:#747E8C;}
	.st4{fill:#81589F;}
	.st5{fill:#4D59A1;}
	.st6{fill:#F2F2F2;}
</style>
<polygon class="st0" points="182,0 0,0 0,340 260,340 260,78 "/>
<g id="содержание">
	<rect x="13" y="14" class="st1" width="54" height="54"/>
</g>
<polygon id="тень" class="st2" points="260,78 182,78 260,156 "/>
<g id="Слой_4">
	<rect x="83" y="14" class="st3" width="91" height="8"/>
	<rect x="83" y="60" class="st3" width="91" height="8"/>
	<rect x="13" y="83" class="st3" width="169" height="8"/>
	<rect x="13" y="106" class="st3" width="227" height="8"/>
	<rect x="13" y="129" class="st3" width="227" height="8"/>
	<rect x="13" y="228" class="st3" width="227" height="8"/>
	<rect x="13" y="251" class="st3" width="105" height="8"/>
	<rect x="139" y="156" class="st3" width="101" height="8"/>
	<rect x="139" y="179" class="st3" width="101" height="8"/>
	<rect x="139" y="200" class="st3" width="101" height="8"/>
	<rect x="13" y="274" class="st3" width="105" height="8"/>
	<rect x="13" y="297" class="st3" width="105" height="8"/>
	<rect x="13" y="320" class="st3" width="227" height="8"/>
	<rect x="83" y="37" class="st3" width="91" height="8"/>
	<rect x="17" y="156" class="st4" width="101" height="53"/>
	<rect x="139" y="252" class="st5" width="101" height="53"/>
</g>
<polygon class="st6" points="182,78 260,78 182,0 "/>
</svg>
