<?xml version="1.0" encoding="utf-8"?>
<!-- Generator: Adobe Illustrator 21.0.0, SVG Export Plug-In . SVG Version: 6.00 Build 0)  -->
<svg version="1.1" id="Слой_1" xmlns="http://www.w3.org/2000/svg" xmlns:xlink="http://www.w3.org/1999/xlink" x="0px" y="0px"
	 viewBox="0 0 433 437" style="enable-background:new 0 0 433 437;" xml:space="preserve">
<style type="text/css">
	.st0{fill:#C1272D;}
	.st1{fill:none;stroke:#FFFFFF;stroke-width:5;stroke-miterlimit:10;}
	.st2{fill:#FFFFFF;}
	.st3{fill:none;stroke:#FFFFFF;stroke-width:6;stroke-miterlimit:10;}
	.st4{fill:none;stroke:#C1272D;stroke-width:22;stroke-miterlimit:10;}
</style>
<g>
	<g id="рука_2_">
		<line class="st0" x1="52.7" y1="154.5" x2="62.2" y2="158.6"/>
		<g>
			<path class="st0" d="M53.7,155c2.8,1.4-7.1-5.5-10.1-4.5c-3,1-3.2,7.2-5,11.9c-2.8,7.6-4.4,13.6-5,15.9c-2.5,9.7-3.2,17.3-4,24.8
				c-1.3,12.8-2.1,21.8-1,33.8c0.5,5.6-0.2,18.9,5,24.8c2.2,2.5,5,4,5,4c3.7,1.9,20.3,5.5,40.7,19.9"/>
			<g>
				<path class="st0" d="M383.4,142.5c1.8,3,3.7,6.4,5.5,10c1.2,2.5,1.6,3.7,3.6,8.2c2.6,5.9,3.7,8.1,4.6,10
					c2.8,6.3,3.7,12.4,5.5,24.6c0.7,4.8,1.5,10.1,1.8,17.3c0,0.4,0,5.1,0,14.6c0,6.3,0,10.2-0.9,15.5c-0.3,1.9-0.7,3.5-0.9,4.6"/>
				<g>
					<path class="st0" d="M403.2,246.1c0.2,0.3,0.5,0.5,0.8,0.6c-0.5-0.1-1.1,0.1-1.6,0.2c-0.3,0.1-0.7,0.1-1,0.1
						c-2,0.1-3.9,0.3-5.8,0.6c-1.4,0.2-2.8,0.4-4,1.1"/>
				</g>
				<g>
					<path class="st0" d="M403.9,245.9"/>
				</g>
				<g>
					<path class="st0" d="M403.9,245.9"/>
				</g>
				<g>
					<path class="st0" d="M404,246.2"/>
				</g>
				<g>
					<g id="руки_2_">
						<path class="st0" d="M331.9,280.8c-0.4-1.8-0.8-3.7-1.2-5.5L81.2,285.5c-0.7,1.3-1.6,3.3-2.3,5.6c-0.6,2.1-1.3,4.6-1.1,7.9
							c0.1,1.7,0.3,4.8,2.3,7.9c0.7,1.2,2,3.3,4.5,4.5c1.4,0.7,3.2,0.9,6.8,1.1c2,0.1,3.5,0.3,5.6,0c1.4-0.2,2.9-0.4,4.5-1.1
							c1.5-0.7,1.6-1.1,3.4-2.3c1.9-1.2,6.3-5.7,5.6-2.3c0.4,3.4-0.6,3-1.1,7.9c-0.3,3-0.6,6.2,1.1,9c0.8,1.3,1.8,2.1,3.4,3.4
							c1.1,0.9,2.9,2.4,5.6,3.4c0.7,0.3,3.8,1.4,7.9,1.1c2.5-0.2,4.5-0.8,5.6-1.1c4.2-1.3,5.9-3,6.8-2.3c0.6,0.5-0.2,1.6,0,4.5
							c0.1,1.2,0.2,3,1.1,4.5c0.7,1.1,1.5,1.5,4.5,3.4c5.3,3.2,4.8,3,5.6,3.4c2.1,0.9,5.1,2.2,7.9,1.1c0.9-0.3,1.9-0.9,2.3-1.1
							c1.5-0.9,1.9-1.4,3.4-2.3c1.4-0.8,1.4-0.6,2.3-1.1c2.3-1.5,2.7-3.5,3.4-3.4c0.6,0.1,0.5,1.8,1.1,5.6c0.5,3.4,0.9,4.2,1.1,4.5
							c0.9,1.6,2.2,2.5,3.4,3.4c0.4,0.3,2,1.4,4.5,2.3c2.5,0.9,5,1.8,7.9,1.1c3.2-0.7,4.8-2.9,5.6-2.3c0.7,0.5-0.2,1.9,0,4.5
							c0.3,3,1.8,5.1,2.3,5.6c0.4,0.6,1.9,2.4,4.5,3.4c1.6,0.6,3.7,0.4,7.9,0c4.6-0.4,6.2-0.9,6.8-1.1c1.5-0.5,3-1,4.5-2.3
							c1.5-1.3,2.3-2.7,3.4-4.5c0.5-0.8,1.1-2,2.3-4.5c1.1-2.2,1.4-2.9,2.3-3.4c1.2-0.6,2.5-0.2,3.4,0c5.3,1.3,10.7-1.3,12.4-2.3
							c2.3-1.2,6.1-3.8,5.6-5.6c-0.3-1.2-2.4-1.8-2.3-2.3c0.1-0.4,2.2,0,2.3,0c3.8,0.7,12.5,1.4,19.2-1.1c2-0.7,4.7-1.8,6.8-4.5
							c0.5-0.7,3.3-4.3,2.3-7.9c-0.7-2.3-2.7-4-2.3-4.5c0.2-0.3,0.9-0.1,1.1,0c3,0.9,11.8,2.1,18.1,0c2.2-0.7,3.8-1.8,4.5-2.3
							c0.9-0.6,2.9-2,4.5-4.5c1.4-2.2,1.9-4.3,2.3-5.6c1-4.2-0.1-5.6,1.1-6.8c1.3-1.3,3.1,0,7.9,0c5.6,0,9.4-1.9,10.2-2.3
							c1.5-0.8,3.8-2,5.6-4.5c0.3-0.4,0.8-1.2,1.4-2.6C331.5,288.7,331.4,284.6,331.9,280.8z"/>
						<line class="st0" x1="168.8" y1="339.1" x2="175.6" y2="321.4"/>
						<polyline class="st0" points="138.8,329.5 142.2,323.9 145.5,311.4 						"/>
						<line class="st0" x1="225.1" y1="318.8" x2="248.9" y2="340.2"/>
						<line class="st0" x1="244.3" y1="299.6" x2="275.4" y2="321.6"/>
						<line class="st0" x1="272.6" y1="277" x2="305.3" y2="303"/>
						<path class="st0" d="M160.1,158l58.8-0.1C201.7,144.4,178.7,148.7,160.1,158z"/>
						<path class="st0" d="M87.3,171.8c-5.3-2.8-10-9.9-16.3-10.3c-2.4-0.1-3.8-1.6-4.5-3.3l-5.4,0c12.5,4,23.7,15.3,36.5,17.4
							C94,174.8,90.5,173.4,87.3,171.8z"/>
						<path class="st0" d="M154.5,158c-0.1,0.6-0.3,1.2-0.6,1.7c1.7-0.7,2.7,0.1,4.5-0.8c0.6-0.3,1.2-0.6,1.7-0.9L154.5,158z"/>
						<path class="st0" d="M340,264.5c-3.5,2.7-6.7,5.8-9.3,9.7l3.3-1.3C335.3,269.8,337.3,267,340,264.5z"/>
						<path class="st0" d="M380.5,250.5c2.1,0,4.2,0.2,6.3,0.6c0.2,0,0.4,0.1,0.5,0.2l17.1-6.9C396.7,246.2,388.8,248.7,380.5,250.5
							z"/>
						<path class="st0" d="M332.4,277.7c1.1-4.8,3.3-9.1,7.1-12.8l45.7-119.7c-0.5,0.3,0-3.6-5.9-1.4c-8.1,3.1-14.6,9.1-21.9,12.8
							c-11.9,5.5-22.8,10-35.6,13.7c-5.5,0.9-10,0.9-15.5,0c-29.2-7.3-56.5-14.6-85.7-13.7c-21.9,1.8-43.8,10-58.4,27.4
							c-1.8,2.7-2.7,4.6-4.6,6.4c-4.6,8.2-13.7,26.4-14.6,27.4c-1.8,5.5-4.6,10.9-0.9,16.4c10.9,12.8,31,4.6,40.1-6.4
							c10.9-13.7,21-39.2,41.9-31.9c10.9,3.6,17.3,13.7,25.5,21c2.7,1.8,6.4,3.6,9.1,5.5c11.9,4.6,24.6,8.2,35.6,16.4
							c13.7,11.9,25.5,23.7,37.4,37.4C332.1,276.6,332.3,277.1,332.4,277.7z"/>
						<g>
							<path class="st0" d="M79.5,284.4c8.3,7.6,17.3,15.6,27.2,21.5c5-3,10.9-5,15.9-7.9c5-2,9.9-2,14.9,0s10.9,7,8.4,13.4
								c-0.3-0.5-0.3-0.5,0,0c-0.3-8.7,11.1-12.1,18.1-10.6c9.2,2,11.9,12.7,11,20.9c2.9-0.5-1.8-2.6,0,0c5.4-5.3,15-5.2,20.3,0.2
								c6.2,6.4,2.7,15.8,1.6,23.5c0.4-0.3,0.6-0.4,0.8-0.7c-0.3,0.2-0.6,0.5-0.8,0.7c6.1-3,12.2-7.7,19.4-7
								c5.4,0.5,11.5,4.3,11.7,10.3"/>
						</g>
						<line class="st0" x1="193" y1="354.3" x2="198.6" y2="345.3"/>
					</g>
				</g>
			</g>
		</g>
	</g>
	<g>
		<path class="st0" d="M58.5,168.4c15.2,17.5,39.2,26.9,62.2,24.2c1.2,1.6-0.9,3.5-2.7,4.4c-12.7,6.1-25.3,12.2-38,18.3
			c8.6,0.8,17.2,1.6,25.8,2.4c-4.6,3.2-9.3,6.2-14.1,9c1.1,0.8,2.2,1.5,3.3,2.3"/>
		<g>
			<path class="st0" d="M57.5,169.5c15.8,17.8,39.6,27.1,63.2,24.7c-0.5-0.4-1-0.7-1.4-1.1c1.1,2.8-17.8,10.3-20.1,11.5
				c-6.6,3.2-13.3,6.4-19.9,9.6c-1.5,0.7-0.6,2.7,0.8,2.8c8.6,0.8,17.2,1.6,25.8,2.4c-0.3-0.9-0.5-1.9-0.8-2.8
				c-4.6,3.2-9.3,6.2-14.1,9c-1,0.6-0.9,2,0,2.6c1.1,0.8,2.2,1.5,3.3,2.3c1.6,1.1,3.1-1.5,1.5-2.6c-1.1-0.8-2.2-1.5-3.3-2.3
				c0,0.9,0,1.7,0,2.6c4.8-2.8,9.5-5.9,14.1-9c1.3-0.9,0.7-2.7-0.8-2.8c-8.6-0.8-17.2-1.6-25.8-2.4c0.3,0.9,0.5,1.9,0.8,2.8
				c9.2-4.4,18.4-8.9,27.7-13.3c3.6-1.7,16-5,13.7-11.1c-0.2-0.6-0.8-1.2-1.4-1.1c-23,2.3-45.8-6.5-61.1-23.8
				C58.3,165.9,56.2,168,57.5,169.5L57.5,169.5z"/>
		</g>
	</g>
	<g>
		<path class="st0" d="M62.6,198.3c4.9,23.3,17.8,44.9,36,60.3c9.5-7.7,20.7-13.1,32.6-15.7c0.9-0.2,1.9-0.4,2.9-0.1
			c1.2,0.4,2,1.5,2.5,2.7c3.6,7.8-1.2,18.3-9.5,20.6c7.7-7,18.2-10.9,28.6-10.7c-7,6.7-16.5,10.9-26.3,11.4
			c-1.4,0.1-2.8-0.4-3.7-1.4c-2.7-2.9,0.8-7,4.4-7.7c1-0.2,2.1-0.2,2.7,0.9c0.8,1.3,0.2,3-1.1,3.8c-4.8,3-9.9,6.5-15.7,6.8
			c-5.1,0.3-10.7-2.7-11.6-7.7c1-1.4,3.5-0.4,3.7,1.3c0.2,1.7-1.4,3.2-3.1,3.5s-3.4-0.2-4.9-0.9c-7.7-3-14.8-7.7-20.6-13.6
			c3.9,6,11.1,9.4,18.3,10.2c7.2,0.9,14.4-0.5,21.4-2.1c32.7-7.6,64.8-21.4,98.4-19.7c-3,6.6-9.8,11.4-17.1,11.8
			c-1.2,0.1-2.5-0.3-3.5-1c-2.5-1.9-1.7-4.7-0.4-6.7c2.5-4,6.9-6.7,11.6-7.1c-1.6,6.4-7,11.5-13.2,13.7s-13.1,1.9-19.5,0.2
			c-2.8-0.7-6-2.3-5.5-5.6c0.2-1.3,1.6-2.7,2.9-3c4.1-0.9,6.7,3,6.5,6.6c-0.1,2.7-1.6,5.2-3.3,7.3c-2.2,2.6-4.8,4.9-7.8,6.6
			c-2.5,1.5-6,2.4-8.3,0.6c-2.3-1.8-0.2-6.8,2.4-5.4c-4.7,8-15.5,9.2-24.7,9.6c0.6,4.9,7.1,5.9,12,5.6c36.5-2.2,73.1-4.4,109.6-6.6
			c17-1,35.2-2.5,47.4-15.5c3.6-3.8,5.3-9,4.4-14.2c-0.2-1.2-0.6-2.4-2.2-2.5c-1,0-1.8,0.5-2.4,1.3c-9.3,12.9-20.6,25.6-35.6,31
			c0.6-10.5,6.7-20.6,15.7-26.1c-3.3,10-11,18.6-20.6,22.8c-1.8-3-0.8-7.4,2.1-9.3c-5.8,11.9-16.8,21.1-29.5,24.6
			c-0.9-14.2,4.4-28.8,14.2-39.1c-3.3,12.1-14.3,21.7-26.7,23.3c5.3-10.9,16.1-18.9,28.1-20.9c-2,4.7-6.7,8.1-11.8,8.6
			c8.4-8.9,18.6-16.1,29.8-21c1.9-0.8,5.2-0.4,4.6,1.5c-16,7-35.3,6.1-50.5-2.7c-3.1-1.8-5.7-4.4-7.4-7.6c-0.5-1-1-2.2-0.6-3.2
			c0.3-0.8,1-1.3,1.6-1.8c6.1-4.2,14.5-5.6,21-2s9.7,12.8,5.8,19c-2.5-3.6-5.1-7.1-7.6-10.7c-4.5-6.4-9.4-13-16.5-16.2
			c-9.9-4.4-22.8,0.1-28,9.6c-1.9,3.6-2.8,7.7-4.6,11.3s-4.9,7.1-9,7.5c-2.8,0.3-5.6-0.9-8.1-2.2c-8.7-4.6-16.3-11.2-24.9-16
			c-16.3-9.1-35.3-11.7-54-12.7c-3.1-0.2-6.4-0.4-8.7-2.7c-1.3-1.3-1.9-3.4-1.1-5.1c1-2.2,3.5-2.6,5.7-2.8
			c29.4-3.2,59.9-6.2,87.7,3.9c1,0.3,2,0.6,3,0.5c5.5-0.3,5-6.2,2-8.6c-2.3-1.8-5.5-2.1-8.4-2.3c-10-0.6-20-1-30-1.2
			c-1.6,0-1.8-2.4-0.2-2.7c15.2-2.3,30.5-3.6,45.8-4c3.7-0.1,7.3,2,8.9,5.3c2.7,5.9-3,10.8-8.3,13.3c-18.9,9-40.8,9.4-60.2,17.2
			c-9.9,4-19.3,10-29.8,11.7c-6.4,1-13.6,0.6-18.6,4.8c61.7,16.9,127.4,8.1,190.7,17.4c11.9,1.8,24.5,4.6,32.6,13.4
			c1.5,1.7,2.9,3.5,4.9,4.6c2,1.1,4.8,1.1,6.2-0.6c0.6-0.8,0.9-1.9,1.2-2.9c2.7-9.7,12.6-26.6,22.2-29.5c1.7-0.5,1.3-3.1-0.5-2.9
			c-4,0.5-11.7,19.3-15.6,22.7c16.7-7.1,32.5-15.4,49.1-22.5"/>
		<g>
			<path class="st0" d="M45.3,203.1c5.7,26.2,20.3,50.7,40.7,68.2c8,6.9,17.3,6.4,25.5,0c-2.8,2.2,1.5-1,1.7-1.1
				c0.9-0.6,1.8-1.2,2.8-1.8c2.6-1.6,5.4-2.8,8-4.3c2.5-1.4-3.7,1.3,1-0.5c1.3-0.5,2.6-1,3.9-1.4c1.3-0.4,2.6-0.8,4-1.2
				c0.5-0.1,1.1-0.3,1.6-0.4c2.3-0.6,2.2-0.5-0.3,0.2c-3-0.8-6.1-1.6-9.1-2.5c-4.6-7.7-6.3-9.7-5-5.8c-0.2-2.8-0.3-3.2-0.2-1.2
				c0.9-7.2-1,2.6,0.2-1c1.2-3.3-3.3,4.3,0.4-0.7c-1.4,1.3-1.2,1.1,0.8-0.5c-1.7,0.9-1.4,0.8,1-0.4c5.8,10,11.7,20.1,17.5,30.1
				c1.6-1.3,1.7-1.4,0.2-0.3c0.9-0.6,1.8-1.2,2.8-1.8c0.9-0.6,1.9-1.1,2.9-1.6c-1.8,0.7-1.7,0.6,0.3-0.1c2.1-0.7,4.2-1.3,6.4-1.7
				c-3.9,0.8,2.5,0,3.4,0c-4.2-10.2-8.5-20.5-12.7-30.7c-0.8,0.8-1.6,1.5-2.4,2.2c1.5-1.2,1.4-1.2-0.3,0c-0.6,0.3-6.5,3.3-2.9,1.8
				c-2,0.8-4.1,1.3-6.2,1.9c-2.1,0.4-2.1,0.4,0,0.1c-2.3,0.1-2.2,0.2,0.5,0.2c2.6,1.5,5.3,3.1,7.9,4.6c4.7,16.3,0.7,23.5-12.3,21.7
				c-2.6-1.5-5.3-3.1-7.9-4.6c0.3,0.3,0.5,0.5,0.8,0.8c-1.5-2.6-3.1-5.3-4.6-7.9c-0.1-0.9-0.3-1.8-0.4-2.7c0.8-3,1.6-6.1,2.5-9.1
				c4.4-3.9,5.3-5,2.5-3.1c-0.9,0.6-1.8,1.1-2.7,1.6c-0.9,0.5-1.9,1-2.8,1.5c1.9-0.8,1.9-0.9-0.1-0.2c2.1-0.1,2.3-0.2,0.4-0.1
				c2.6,0.5,3,0.4,1-0.1c2.6,0.8,5.4,2.8,6.1,5.6c-2.8,6.8-5.5,13.6-8.3,20.3c0.2-0.2,0.5-0.4,0.7-0.6c-3,0.8-6.1,1.6-9.1,2.5
				c-1-0.1-1.9-0.2-2.9-0.4c-2.6-1.5-5.3-3.1-7.9-4.6c0.2,0.2,0.5,0.4,0.7,0.7c-1.5-2.6-3.1-5.3-4.6-7.9c0.1,0.3,0.2,0.6,0.4,0.9
				c0-3.2,0-6.4,0-9.6c0.9-1.6,1.9-3.3,2.8-4.9c2.6-1.5,5.3-3.1,7.9-4.6c5.5,0.7,6.7,0.5,3.4-0.4c1.7,0.8,1.7,0.7-0.2-0.2
				c-1.7-0.9-3.4-1.8-5.1-2.8c-0.6-0.4-5.1-3.7-2.4-1.5c-1.7-1.4-3.3-2.9-4.9-4.5c-6.4-6.4-16.6-6.8-23.6-1.4
				c-6.6,5.1-9.8,15.9-4.6,23.2c9,12.7,22.7,19.3,38.3,19.4c13.9,0.1,28-4.4,41.3-8.1c12.4-3.5,24.7-7.3,37.3-10.2
				c3.3-0.7,6.5-1.4,9.8-2c1.5-0.3,3-0.5,4.5-0.8c5.8-0.9-3.4,0.3,2.4-0.3c6.7-0.7,13.3-1,20-0.7c-5.2-9-10.4-18.1-15.5-27.1
				c-0.6,1.2-2.8,3.6-0.3,1.2c-1.2,1.2-3.5,2.3-0.8,1c-3.3,1.5,2.9,0.1-1,0.6c-0.5,0.1-0.9,0.2-1.4,0.3c4.7-1.1,8.8,0.8,12.5,5.5
				c0.8,3,1.6,6.1,2.5,9.1c0.1,1.3-0.8,3.3-1.4,4.5c-0.4,0.5-0.7,0.9-1.1,1.4c1.2-1.2,1.3-1.3,0.3-0.4c-2.3,1.4,2.4-0.4-0.3,0.3
				c-2.6,0.6,1.9-0.1,1.9-0.1c-7.4-7.4-14.8-14.8-22.1-22.1c-1.3,4.4,1.6-3.3-0.4,0.8c0.6-1.2,1.6-1.9,0.2-0.4
				c-3,3.2,2.8-1.7-0.8,0.7c-2.8,1.8,2-0.1-0.4,0.3c-0.6,0.1-4.4,0.9-1.4,0.6c-1.5,0.2-3-0.1-4.5,0c-1.3-0.1-1.2-0.1,0.3,0.1
				c-0.6-0.1-1.2-0.2-1.8-0.4c-10.3-2.9,10.6,3.3,5.9,14.8c-1.5,2.6-3.1,5.3-4.6,7.9c-0.4,0.4-0.9,0.8-1.3,1.1
				c-3,0.8-6.1,1.6-9.1,2.5c-3.9-0.3-6.7-2.1-8.3-5.5c-3-2.3-3.9-5.4-2.8-9.2c0.8-1.5,0.8-1.7,0.2-0.6c-0.7,1-0.6,0.9,0.3-0.3
				c-0.6,0.5-3.3,4.1-1.6,1.6c-0.5,0.3-1,0.6-1.5,0.9c4.2-2,8.5-1.1,12.9,2.7c1.5,2.6,3.1,5.3,4.6,7.9c-3.2,9.9-3.6,13.1-1.1,9.5
				c-2.2,2.2-4.3,4.3-6.5,6.5c-1,0.4-1.9,0.8-2.9,1.2c-3.2,0-6.4,0-9.6,0c0.3,0.1,0.6,0.2,0.8,0.2c-3.6-8.8-7.2-17.6-10.8-26.4
				c0.8-1.2,2.1-1.8,0.4-0.6c1-0.7,2.2-2,0.7-0.5c-0.4,0.2-0.7,0.4-1.1,0.6c0.6-0.3,1.3-0.5,1.9-0.8c-0.7,0.6-2.3,0.8-3.2,1
				c-0.9,0.2-1.8,0.3-2.6,0.6c-2.4,0.7,3.2-0.2,0.7-0.1c-2,0.1-4,0.3-6.1,0.4c-12.1,0.5-20,11-17.4,22.8c5.7,25.5,39.8,18.2,58.3,17
				c21.6-1.3,43.2-2.6,64.8-3.9c18.1-1.1,37.6-0.8,54.7-7.7c10.2-4.2,20.3-10.5,26.2-20.1c6.9-11.2,7.9-28.5-3.4-37.2
				c-8.9-6.9-21.7-4.4-28.4,4.3c-0.8,1-1.6,2.1-2.3,3.1c-0.2,0.3-3.4,4.3-1.1,1.5c-1.5,1.9-3.1,3.8-4.7,5.6c-1.6,1.8-3.3,3.6-5,5.2
				c-0.8,0.7-1.5,1.5-2.3,2.2c-0.3,0.3-3.6,3-1.8,1.6c1.7-1.3-1,0.7-1.4,0.9c-1.1,0.7-2.2,1.5-3.3,2.1c-0.9,0.5-1.9,1-2.8,1.5
				c-3.3,1.9,2.4-0.8-1.5,0.7c7.6,5.8,15.2,11.6,22.8,17.4c0.2-2.2,0.4-1-0.1,0.3c0.3-0.9,0.5-2,0.7-2.9c0.4-1.7,0.5-1.4-0.2,0.1
				c0.5-1.1,1.1-2.2,1.8-3.3c0.2-0.3,2-3,0.7-1.3c-1.2,1.7,0.8-0.8,1-1c0.7-0.7,1.5-1.4,2.2-2.1c1.8-1.8-3.2,2.2,0.6-0.3
				c-8.8-6.8-17.6-13.6-26.4-20.3c-0.6,1.8-0.6,1.3,0.1-0.1c-0.6,1.1-1.1,2.2-1.8,3.3c-0.5,0.9-1.1,1.7-1.6,2.5
				c-1.3,2.1,2.7-2.6-0.5,0.4c-0.7,0.7-1.4,1.4-2.1,2.1c-1.3,1.2-1.2,0.9,0.1,0c-2.1,1.4-4.2,2.7-6.5,3.7c8.2,2.2,16.4,4.3,24.6,6.5
				c2.1,3.2,2.1,6.3-0.1,9.3c-2.4,4-2.6,5-0.6,3.2c-9.4-7.3-18.8-14.5-28.3-21.8c-0.7,1.3-1.3,2.6-2.1,3.9c-0.3,0.5-3.2,4.4-0.6,1.1
				c-1.9,2.3-3.9,4.3-6.1,6.3c-2.7,2.5,2.4-1.2-1,0.7c-1.3,0.7-2.5,1.6-3.8,2.3c-0.4,0.2-4.1,1.9-1.8,1c2.2-0.9-2.9,0.9-3.4,1
				c7.6,5.8,15.2,11.6,22.8,17.4c-0.1-1.6-0.1-3.2-0.1-4.8c0-0.6,0.6-5.6-0.1-1.5c0.5-3.2,1.4-6.2,2.3-9.2c1.1-3.6-1.3,2,0.6-1.6
				c0.8-1.4,1.4-2.8,2.3-4.2c0.7-1.1,1.5-2.2,2.2-3.3c0.7-1,0.6-0.9-0.4,0.5c0.7-0.8,1.4-1.6,2.1-2.4c-10-5.8-20.1-11.7-30.1-17.5
				c-0.4,1.4-2.1,4-0.2,1.1c-0.6,1-1.3,2.1-1.8,3.1c-0.8,1.8,2-2-0.2,0.4c-1,1.1-2,2-3.1,3c1.7-1.7,1.2-0.8-0.4,0.2
				c-1,0.6-2.1,1.1-3.1,1.8c3-1.9,0.3-0.1-1.1,0.2c-1.4,0.4-2.8,0.6-4.2,0.9c6.8,8.8,13.6,17.6,20.3,26.4c0.7-1.3,1.4-2.5,2.1-3.8
				c1.6-2.8-1.2,1,0.2-0.4c0.9-0.9,1.6-1.8,2.5-2.6c0.7-0.6,4.1-3,0.8-0.9c2.1-1.3,4.1-2.5,6.3-3.7c-3.6,1.9,0.3,0,1.1-0.2
				c1.4-0.4,2.8-0.7,4.3-1c-6.8-8.8-13.6-17.6-20.3-26.4c-0.4,0.9-0.8,1.7-1.3,2.4c0.5-1.2,1.4-2,2.5-2.6c-1.8,1-1.6,1,0.5,0
				c-0.9,0.3-1.8,0.5-2.7,0.5c5.8,10,11.7,20.1,17.5,30.1c2.1-2.2,4.3-4.3,6.6-6.3c1-0.9,2.1-1.8,3.2-2.7c-2.8,2.1,1.6-1,1.7-1.1
				c2.3-1.6,4.7-3,7.1-4.4c1.5-0.8,3-1.5,4.4-2.3c4.5-2.5-4.6,1.4-6.7,0.5c-2.6-1.5-5.3-3.1-7.9-4.6c0.2,0.2,0.3,0.4,0.5,0.6
				c-1.8-4.2-3.5-8.5-5.3-12.7c0,0.3,0,0.6,0,0.9c4.4-5.8,8.8-11.6,13.2-17.4c-2,0.8-4,1.6-6.1,2.3c-1.3,0.4-2.6,0.7-4,1
				c-0.3,0.1-3.7,0.8-1.6,0.4c2-0.4-1.3,0.1-1.7,0.2c-1.1,0.1-2.2,0.1-3.3,0.2c-2.5,0-4.9-0.1-7.4-0.3c1.8,0.2,1.6,0.3-0.1-0.1
				c-1.1-0.2-2.1-0.5-3.2-0.7c-2.1-0.5-4.2-1.2-6.2-2c1.7,0.6,1.1,0.5-0.2-0.2c-1.2-0.6-2.3-1.4-3.5-2c-2.3-1.1,2,1.6,0.1-0.1
				c-0.7-0.8-0.7-0.7-0.1,0.1c1.2,1.4,1.7,3.1,1.5,5.1c-0.8,3-1.6,6.1-2.5,9.1c-4.1,3.6-5.1,4.8-2.9,3.5c1.2-0.6,0.9-0.5-0.9,0.3
				c0.5-0.2,4.5-1.2,1.9-0.7c-2.5,0.5,1.4,0.1,2,0.1c-2.1-0.3-2.5-0.3-1.2,0c1.2,0.4,0.9,0.2-0.9-0.4c2.5,1.3-0.2-0.6-1.1-1.2
				c-0.8-1.2-0.8-1.1,0.1,0.3c-0.2-0.6-0.5-1.3-0.7-1.9c0.9,3.6,0.8-3.3,0.3,0.3c0.1-0.8,0.2-1.5,0.4-2.3c-0.6,1.9-0.4,1.6,0.4-0.8
				c10.4,0,20.7,0,31.1,0c-11.8-16.7-23.2-35.9-45.9-37.4c-10.5-0.7-20.6,3.2-28.6,9.7c-3.5,2.9-6.5,6.4-8.7,10.4
				c-1.6,2.9-2.7,6-3.9,9.1c-0.4,1.1-0.8,2.2-1.2,3.3c0.6-1.3,0.6-1.4,0.1-0.5c-2,3.4-0.2,0.1,1.5-0.9c2.1-1.1,4.4-1.3,6.8-0.8
				c1.6,0.9,1.5,0.8-0.4-0.2c-4.1-2.2-7.9-4.8-11.7-7.4c-8.4-5.8-16.6-10.7-26-14.5c-8.4-3.4-17.2-5.4-26.1-6.8
				c-5.6-0.8-11.3-1.5-17-2c-2.3-0.2-4.7-0.5-7-0.5c-2-0.2-1.8-0.1,0.8,0.2c-7.4-2.2-5.4,3.8,5.7,18c-2.2,2.2-4.3,4.3-6.5,6.5
				c-1,0.7-6.5,1-2.4,0.6c2.1-0.2,4.2-0.4,6.3-0.7c3.9-0.4,7.9-0.8,11.8-1.1c7.3-0.6,14.5-1,21.8-1.1c3.6,0,7.2,0,10.8,0.2
				c1.8,0.1,3.6,0.2,5.4,0.4c1.2,0.1,2.4,0.2,3.6,0.4c2,0.2,2.4,0.3,1.2,0.1c-1.6-0.2,3.1,0.6,3.8,0.7c2.1,0.4,4.1,0.8,6.1,1.3
				c3.5,0.9,6.9,2.2,10.3,3.1c10.3,2.8,21.7-0.3,27.2-10.1c5-8.9,3-21.3-4.7-28.1c-7.6-6.8-17.1-7.4-26.8-7.9
				c-3.8-0.2-7.5-0.4-11.3-0.5c-2.2-0.1-4.4-0.1-6.6-0.2c-0.9,0-1.9,0-2.8-0.1c-2.6-0.1-2.5,0,0.2,0.3c3.6,2.8,7.2,5.5,10.8,8.3
				c-0.1-0.2-0.3-0.4-0.4-0.6c0.8,3,1.6,6.1,2.5,9.1c0-0.3,0-0.5,0-0.8c-0.8,3-1.6,6.1-2.5,9.1c0.1-0.2,0.2-0.4,0.4-0.7
				c-2.2,2.2-4.3,4.3-6.5,6.5c-2.3,1.2-2.2,1.5,0.3,0.9c-1.3,0.2-1.3,0.2,0,0c2.2-0.3,4.4-0.5,6.7-0.8c3.8-0.4,7.6-0.8,11.5-1.1
				c3.8-0.3,7.7-0.5,11.5-0.7c2.1-0.1,4.6,0.2,6.7-0.2c1.6,0,1.3-0.1-1.1-0.3c-1-0.3-1.8-0.7-2.6-1.3c-3.8-2.7-5-8.6-2.8-12.7
				c0.6-1.2,4.2-3.5,1.4-1.9c-1.3,0.7-2.6,1.4-4,2c3-1.4-1.5,0.5-2.1,0.8c-7.1,2.5-14.5,4.2-21.9,5.7c-15.4,3.3-29.6,7.4-43.9,14.1
				c-1.5,0.7-3.1,1.4-4.6,2.2c-1.9,0.9-2.1,0.9-0.4,0.2c-0.8,0.3-1.6,0.6-2.4,0.9c-1.8,0.7-3.7,1.3-5.6,1.7c-1,0.2-5.9,0.9-1.5,0.4
				c-8.5,0.9-17.5,1.5-24.7,6.9c-6,4.4-9.6,10.1-8.6,17.9c0.9,7,6,13.1,12.9,15c53.4,14.4,109,10.9,163.6,14.7
				c6.9,0.5,13.8,1.1,20.6,1.9c1.2,0.1,2.5,0.3,3.7,0.5c6.1,0.8-3.4-0.6,2.7,0.4c3,0.5,6,0.9,9,1.6c2.5,0.5,4.9,1.2,7.3,2
				c0.7,0.2,5,2.3,1.3,0.4c0.9,0.4,1.8,0.9,2.6,1.3c1.3,0.7,2.6,1.5,3.7,2.4c-2.9-2.2-0.7-0.5-0.3,0c2.4,2.9,5.3,5.7,8.5,7.8
				c8.6,5.7,20.7,5.2,28.3-2c3.5-3.3,5.2-7.1,6.6-11.6c0.2-0.7,0.4-1.4,0.6-2c1.6-4.7-1,1.7,0.5-1.4c1-2,2.1-4.1,3.3-6
				c0.7-1.2,1.6-2.4,2.3-3.6c0.5-0.8,2.1-2.5-0.3,0.3c0.6-0.7,3.6-5,4.5-4.8c-0.6,0.4-1.2,0.9-1.8,1.3c0.6-0.5,1.2-0.9,1.9-1.2
				c1.7-0.9,1.3-0.7-1.4,0.6c1.4-0.6,2.9-1.2,4.3-1.8c13.6-7.1,12.4-26.1,0.4-33.8c-8.3-5.4-19.2-2.1-25.4,4.7
				c-3.7,4.1-6.4,9-9.1,13.8c-1.1,1.9-2.1,3.8-3.3,5.7c-0.4,0.7-0.9,1.3-1.2,2c-1.5,2.8,3.3-3.5,0.7-0.9c-6.4,6.3-6.8,16.6-1.4,23.6
				c5.9,7.6,14.8,8.2,23.2,4.6c16.6-7.1,32.6-15.4,49.1-22.5c8.7-3.7,11.3-17.1,6.5-24.6c-5.8-9-15.3-10.5-24.6-6.5
				c-16.6,7.1-32.6,15.4-49.1,22.5c7.3,9.4,14.5,18.8,21.8,28.3c4-4,6.7-9.2,9.4-14.1c1.3-2.3,2.5-4.6,3.9-6.8
				c0.9-1.4,3.4-4-0.4,0.3c0.3-0.4,0.6-0.7,1-1.1c-1.8,1.7-3.9,2.9-6.2,3.6c-3.2,0-6.4,0-9.6,0c0.3,0.1,0.6,0.1,0.9,0.2
				c-2.6-1.5-5.3-3.1-7.9-4.6c0.2,0.2,0.4,0.4,0.5,0.6c-1.5-2.6-3.1-5.3-4.6-7.9c0,0.3,0.1,0.6,0.1,0.8c0-3.2,0-6.4,0-9.6
				c-0.1,0.3-0.2,0.5-0.3,0.8c2.8-3.6,5.5-7.2,8.3-10.8c0.9-0.3,1.7-0.6,2.6-1c-1.4,0.6-2.9,1.2-4.3,1.8c-0.7,0.3-1.3,0.6-1.9,0.9
				c-2.2,1.3-4.6,3.2-6.5,4.8c-3.7,3.1-6.7,7-9.6,10.9c-4.5,6.1-9.6,14.3-11.1,21.8c-0.9,4.4-4.9,3.2,9.1-2.1
				c3.2-1.2,6.4-2.4,9.5-3.6c1.6,1.4,2,1.6,1,0.7c-1-1.4-2.6-2.9-3.9-4.1c-3.8-3.5-8.2-6.7-12.8-8.9c-8.4-4-17-6.2-26.2-7.6
				c-41.5-6.2-83.4-5.1-125.2-7.6c-24.1-1.5-41.9-3.5-65.5-9.8c1.4,11,2.9,21.9,4.3,32.9c0.8-0.6,1.6-1,2.4-1.6
				c-2.4,1.7-1.6,0.5-0.2,0.3c0,0,4.9-0.8,2.1-0.4c-2.4,0.3,0.8,0,1.4-0.1c6-0.7,11.8-1.5,17.5-3.5c5.4-2,10.7-4.4,15.9-6.9
				c2-1,4.1-2,6.2-2.9c-0.7,0.3-2.9,1.1,0.4-0.1c1.6-0.6,3.3-1.2,4.9-1.7c19.7-6.3,41.5-7.1,59.7-17.6c12.9-7.5,20.5-22.8,12.9-36.9
				c-3.3-6.1-9-10.8-15.6-12.9c-6-1.9-12.3-1.4-18.4-1c-11.8,0.6-23.6,1.9-35.3,3.5c-8.3,1.1-15,4.1-18.5,12.3
				c-4.4,10.5,1.6,22.7,12.5,25.8c5.7,1.6,12.5,0.9,18.3,1.1c5.6,0.2,11.3,0.6,16.9,0.8c1.8,0.1,1.7,0.9-0.3-0.1
				c-2.1-1.1-4.4-3.2-5.6-5.2c-1-1.5-1.4-3.9-1.5-5.7c3.4-4.5,6.8-9,10.2-13.6c1.8-0.1,3.6-0.2,5.4-0.3c0.1-0.9-14-4-15.6-4.3
				c-21.9-4.4-44-3.6-66.1-1.4c-13.8,1.4-30.2,1.9-34.2,18.5c-2.2,9.1,1.7,18,8.9,23.5c5.7,4.4,12.4,5.3,19.4,5.7
				c5,0.3,9.9,0.7,14.9,1.3c-3.5-0.4,3.2,0.6,3.9,0.7c2.9,0.5,5.7,1.1,8.5,1.9c2.2,0.6,4.5,1.2,6.7,2c1.1,0.4,2.2,0.8,3.3,1.2
				c0.5,0.2,3.1,1.3,0.5,0.2c4.8,2.2,9.3,4.8,13.6,7.7c11,7.4,22.9,17.7,37,15.8c8.5-1.1,14.9-5.8,19.9-12.6c2.1-2.9,3.4-6,4.7-9.4
				c0.4-1.1,0.8-2.2,1.2-3.3c0.3-0.8,0.6-1.6,0.9-2.5c0.4-1.2,0.4-1.1-0.1,0.3c0.8-0.3,1.1-3.9-0.7,0.4c0.4-0.9,1.6-1.5,2.2-2.3
				c1.5-1.9-3.4,2.3,0,0.2c2.7-1.7-2.1,0.2-0.2-0.1c0.8-0.1,1.8-0.4,2.5-0.7c1.6-0.8-3.4-0.2-0.3,0.1c0.4,0,0.9,0,1.3,0
				c1.7,0.1,1.7,0.1,0.2,0c-2.3-1.2,0.6,0.4,1.4,0.6c-3.4-1-1.2-0.5-0.4,0.1c3.9,2.8-2.1-2.5,1.2,1c0.7,0.7,1.5,1.5,2.2,2.2
				c0.3,0.3,3.4,4.3,1.2,1.2c3.6,4.8,6.9,9.7,10.4,14.5c7.5,10.5,24.1,12.7,31.1,0c8.6-15.6,2.6-36.2-13.5-44.3
				c-16.2-8.2-47.6-2.5-48.4,19.9c-0.7,19.1,20.5,30.5,36.4,34.1c14.8,3.3,30.8,2.6,44.9-3.3c7.4-3.1,13.3-8.7,13.2-17.4
				c0-11.2-8.6-19.1-19.4-19.8c-6.9-0.5-13.2,2.8-19.1,6c-9.8,5.3-18.9,12.4-26.7,20.5c-5.3,5.6-7.2,15.1-2.8,21.8
				c4.7,7.3,12,9.5,20.3,8.3c9.4-1.4,18.4-8.4,22.5-16.9c7.2-14.7-4.6-29.3-20.3-26.4c-16.4,3-31.3,14.4-38.9,29.1
				c-3.4,6.6-3.2,14,1.4,20c4.8,6.2,11.5,7.6,18.9,6.5c18.7-2.9,34-18.1,39.3-35.8c5.1-17-17.9-30.8-30.1-17.5
				c-13,14.1-20.4,32.6-19.5,51.8c0.5,11.4,11.1,20.8,22.8,17.4c17.2-5,32.2-16.8,40.3-32.9c4.1-8.1,2.7-17.5-4.6-23.2
				c-7.5-5.8-16.7-4.4-23.6,1.4c-9.5,7.9-9.7,20.8-4.9,31.1c4.4,9.4,16.5,10.3,24.6,6.5c14-6.6,23.9-19.2,28.9-33.6
				c5.2-14.8-13.6-28.5-26.4-20.3c-14.8,9.4-23.2,24.2-24.6,41.6c-0.9,11,12.3,21.3,22.8,17.4c10.3-3.9,19.2-9.3,27.3-16.7
				c3.2-2.9,6.1-6,8.9-9.3c1.7-2,3.3-4.1,5-6.2c1-1.2,1.9-2.5,2.9-3.7c0.7-1,3-2.7,0.6-0.5c-2.6,1.5-5.3,3.1-7.9,4.6
				c0.4-0.1,0.9-0.2,1.3-0.3c-3.2,0-6.4,0-9.6,0c0.3,0.1,0.7,0.2,1,0.2c-2.6-1.5-5.3-3.1-7.9-4.6c-2.8-9.7-4.1-12.2-3.8-7.4
				c0.4-2,0.4-2.3,0.1-1c-0.4,1.2-0.2,1,0.4-0.7c-1,1.5-1.1,1.8-0.3,0.7c1.2-1.5-2.5,2.2-2.9,2.6c2.3-2-0.1,0-1.2,0.7
				c-1.3,0.8-2.6,1.3-3.9,2.1c3.3-1.9-0.2,0.1-1.2,0.4c-2.8,1-5.7,1.7-8.7,2.3c-0.5,0.1-6,0.9-3.6,0.6c2.5-0.3-2.4,0.2-2.9,0.3
				c-3.3,0.3-6.6,0.5-9.8,0.7c-8.3,0.5-16.6,1-24.9,1.5c-16.6,1-33.2,2-49.8,3c-8.3,0.5-16.6,1-24.9,1.5c-3.7,0.2-7.4,0.6-11.1,0.6
				c-2.7,0-2.6-0.3,0,0.2c-1.9-0.6-1.5-0.3,1.1,0.7c2.5,1.7,4.3,4,5.4,6.7c-5.8,7.6-11.6,15.2-17.4,22.8c15.9-0.7,31-4.3,40.3-18.5
				c6.5-9.9-0.1-23.3-10.8-26.4c-14-4.1-26.1,7.5-26.1,21.2c0.1,15.9,17.1,23.6,30.6,19c10.5-3.6,21-13.2,24.3-24
				c3.5-11.6-0.7-24.1-11.6-30c-14.4-7.8-33,3.2-32.5,19.8c0.4,13.4,12.1,20.8,24,22.7c21.2,3.4,43-5.8,49.6-27.6
				c1.8-6.1-0.2-13.1-4.6-17.5c-5-5-10.9-5.6-17.5-4.6c-20.1,2.9-36.6,30.4-17.3,45.3c15.7,12.1,39.2,0,47.1-15.8
				c6.2-12.4-1.4-26.5-15.5-27.1c-24.9-1.1-49.2,5.4-72.9,12.2c-11.2,3.2-22.4,6.6-33.8,8.9c0.1,0-4.8,0.9-3,0.6
				c2-0.3-2.6,0.2-3,0.3c-1.5,0.1-3-0.2-4.5,0c-2.5,0.3,3,0.9-0.8,0c-0.9-0.2-1.9-0.5-2.8-0.7c-3.8-1,1.3,1.1-0.4-0.2
				c-1.5-1.1-2.3-1.6-0.5,0c-0.8-0.7-3.3-3.9-1-0.6c-9.4,7.3-18.8,14.5-28.3,21.8c10.2,10.2,27.7,23,43,19.1
				c11.1-2.8,19.3-15.3,15.3-26.5c-4-11.2-19-19.3-29.8-11.1c-6.6,5-10.4,11.9-8.3,20.3c2.3,9.2,9.5,16.3,18.5,19.3
				c8.7,2.9,17.4,1.4,25.6-2.3c7.5-3.4,15-7.8,18.3-15.7c5.5-13-4.2-27.9-18.4-28.1c-10.5-0.1-19.7,7.3-23.2,16.8
				c-4.1,11.4,3.6,24.9,15.4,27.6c15.9,3.6,33.8-5.5,45.1-15.9c11.6-10.7,2.5-30.8-12.7-30.7c-15.6,0-29.6,5.8-41.4,16
				c-13.6,11.7,0.8,35.6,17.5,30.1c10.8-3.5,19.2-11.6,22.5-22.5c3.1-10.1,1.4-22.7-6.4-30.3c-9.7-9.3-23.1-5.6-34.1-1.2
				c-10.4,4.1-19.2,9.5-27.9,16.4c8.5,0,17,0,25.5,0c-4.4-3.8-8.6-7.9-12.4-12.3c-0.3-0.3-3-3.6-1.6-1.9c1.4,1.7-1.2-1.7-1.4-2
				c-1.7-2.4-3.3-4.8-4.8-7.3c-1.4-2.3-2.6-4.6-3.8-7c-0.6-1.2-1.2-2.4-1.7-3.6c-2.2-4.7,1.2,3.3-0.7-1.6c-2.1-5.5-3.8-11-5-16.7
				c-2-9.2-13.2-15.5-22.1-12.6C48.2,184.1,43.1,193.2,45.3,203.1L45.3,203.1z"/>
		</g>
	</g>
	<g>
		<path class="st0" d="M378,165.5c0.2,4.3,0.3,8.7,0.5,13c0.5-3.7,1.1-7.4,1.6-11.1c0.3-2,0.6-4,0.4-6c-0.3-3.2-1.5-6.8,0.5-9.3
			c1.8,5.4,3.3,10.8,4.7,16.3c2.2,9.2,3.8,18.7,3.2,28.2c0,0.4-0.1,0.7-0.3,1c-0.5,0.4-1.2,0.1-1.7-0.3c-2.8-2.3-2.9-6.4-2.8-10
			c0,2.1-1.2,4.1-2.9,5.2c-0.6,0.4-1.4,0.6-1.9,0.1c-0.3-0.3-0.3-0.7-0.4-1.1c-0.5-4.2,0.8-8.5,3.5-11.7c0.7,0.7,0.4,1.9-0.1,2.7
			c-0.9,1.4-2.4,2.5-4,2.6s-3.4-1-3.8-2.6c-0.4-1.6,1.1-3.5,2.7-3.3c-0.6,3.1-3.2,5.5-6,7c-1.9,1-4.2,1.8-6.1,1
			c-2-0.8-3.1-3.7-1.6-5.2c1.2-1.2,3.5-0.7,4.6,0.6c1.1,1.3,1.3,3.2,1.2,4.9c-0.6,6.1-5.8,11.4-11.9,12.1c2.4-2.9,6.1-4.6,9.8-4.5
			c1.1,2.1-0.8,4.5-2.6,6c-5.9,5-12.9,8.6-20.3,10.6c0.7-1.8,1.8-3.5,3.5-4.5s4-1,5.5,0.2c1.3,1.1,1.8,3.1,1.2,4.6s-2.4,2.6-4.1,2.4
			c3.4-1.9,7.1-3.3,11-4.2c1-0.2,2.3-0.3,2.8,0.5c0.5,0.7,0.2,1.8-0.3,2.5c-1.2,1.9-3.2,3.2-5.4,3.7c2.9-5.4,8-9.5,13.9-11.2
			c-3.7,4.6-8.5,8.2-13.8,10.5c-1.1,0.4-2.6,0.7-3.1-0.3c-0.3-0.6-0.1-1.3,0.1-1.9c1.1-2.5,3.4-4.2,5.7-5.7c1.6-1.1,3.5-2.2,5.5-1.8
			c1.9,0.4,3.4,3,2,4.4c1.3-5.2,2.6-10.4,3.9-15.6c0.2-0.9,0.5-1.8,1-2.5c0.2,8.5-0.2,17-1,25.5c1,0.7,2-0.9,2.2-2.1
			c0.8-4.2,1.5-8.5,2.3-12.7c0.4-2.4,1.3-5.3,3.7-5.7c2.5,6.8,1.3,14.4,0,21.6c3.5-5.3,6-11.3,7.3-17.6c0.8,5.1,1.2,10.2,1.1,15.4
			c3.4-5.1,4.4-11.8,2.7-17.7c-1.5,1.6-1.5,4.2-1.4,6.4c0.6,8.1,1.8,16.2,3.6,24.2c0.8,3.4,1.7,6.8,2.7,10.1
			c-5.5,1.2-11,2.3-16.5,3.5c-4.2,0.9-8.5,1.8-12.5,3.3c1,1.8,3.6,1.4,5.6,0.7c6.6-2.4,13.3-4.8,19.9-7.2c-0.8,0.4-1.6,0.7-2.4,1.1
			c1-0.1,2.1-0.2,3.1-0.3"/>
		<g>
			<path class="st0" d="M372,165.5c0.2,4.3,0.3,8.7,0.5,13c0.2,6.4,10.8,8.6,11.8,1.6c0.7-4.7,1.5-9.4,2.1-14.1
				c0.2-2,0.3-3.9,0.1-5.9c-0.1-1.4-0.9-3.5-0.1-4.9c-3.7-0.5-7.3-1-11-1.4c2.2,6.9,4.2,13.9,5.7,21c0.7,3.5,1.4,7,1.7,10.6
				c0.3,3.1,1.1,7.7,0.1,10.7c1.4-1.4,2.8-2.8,4.2-4.2c-0.3,0.1-0.6,0.1-0.8,0.2c1.5,0.2,3.1,0.4,4.6,0.6c-1.2-0.6-0.7-4.2-0.7-5.3
				c0.1-7.9-11.1-7.5-12,0c-0.8,0.9,0.1,0.8,2.7-0.4c1.4,1.4,2.8,2.8,4.2,4.2c-1.1-2.9,0.9-6,2.5-8.2c-3.5,0-6.9,0-10.4,0
				c-0.3-5.5,0.3-4.8,1.5,2.1c-2.5-2.5-4.9-4.9-7.4-7.4c-0.6,1.9-1.8,2.3-3.2,3.4c-1.6,1.7-3.3,3.4-4.9,5.1c0,0.8-0.1,1.7-0.4,2.5
				c-1.1,3.1-4,4.7-7.1,5.2c1.9,3.3,3.9,6.7,5.8,10c1.6-1.8,3.2-2.7,5.6-2.8c-1.9-1.5-3.9-2.9-5.8-4.4c0.2-1.2-0.1-1.1-1,0.2
				c-0.9,0.7-1.8,1.4-2.7,2.1c-1.4,0.9-2.8,1.8-4.2,2.6c-3.4,1.9-7,3.3-10.8,4.4c2.3,2.9,4.5,5.9,6.8,8.8c1-1.9,1.3-4,0.8-6.2
				c1,3.7,2,7.5,3,11.2c1.8-0.9,3.6-1.8,5.5-2.4c0.8-0.3,1.6-0.5,2.4-0.7c2.2-0.4,2.2-0.6-0.2-0.5c-0.9-1.2-1.8-2.4-2.8-3.6
				c0.1,0.4,0.1,0.8,0.2,1.3c0.2-1.5,0.4-3.1,0.6-4.6c-0.6,1.4-0.8,1.8-2.3,2.2c2.3,2.9,4.5,5.9,6.8,8.8c2.4-4.1,5.8-7,10.3-8.4
				c-1.9-3.3-3.9-6.7-5.8-10c-1.7,2-3.6,4-5.7,5.6c-0.8,0.6-1.8,1.2-2.7,1.7c-0.7,0.4-1.4,0.8-2.1,1.1c-1.2,0.4-0.9,0.6,0.8,0.7
				c0.9,1.2,1.8,2.4,2.8,3.6c0.4,2.3,0.5,1.1,1.9-0.1c0.4-0.3,0.8-0.5,1.1-0.8c2.5-1,2.3-2.9-0.8-5.6c3.7,1.5,7.3,3.1,11,4.6
				c1.3-5.2,1.9-11.9,4.3-16.7c-3.7-1-7.5-2-11.2-3c0.1,8.5-0.2,17-1,25.5c-0.3,3.3,3,5.9,6,6c5.2,0.2,7.4-3.8,8.3-8.3
				c0.5-2.4,0.9-4.8,1.3-7.3c0.2-1.4,0.8-2.9,0.8-4.2c0-1.4,1.2-1.6-0.6-0.9c-2.5-1.4-4.9-2.8-7.4-4.2c1.9,6.1,1.1,12.2,0,18.4
				c-1.1,6.5,7.1,10.7,11,4.6c3.7-5.9,6.4-12.2,7.9-19c-3.9,0-7.7,0-11.6,0c0.7,4.6,0.9,9.1,0.9,13.8c0,6,8.1,8,11.2,3
				c4.2-6.8,5.3-14.6,3.3-22.3c-1.4-5.3-8.2-5.5-11-1.4c-4.1,5.9-1.8,14.8-0.9,21.3c1.1,8.1,2.8,16.2,5.3,24
				c1.4-2.5,2.8-4.9,4.2-7.4c-9.7,2.1-19.7,3.5-29.1,6.8c-4.3,1.5-5.8,6.6-2.6,10c3.7,4,8.6,3.2,13.2,1.6c6-2.1,12.1-4.3,18.1-6.5
				c-1.5-3.7-3.1-7.3-4.6-11c-0.8,0.4-1.6,0.7-2.4,1.1c-5.3,2.5-2.8,11.7,3,11.2c1-0.1,2.1-0.2,3.1-0.3c7.6-0.6,7.7-12.7,0-12
				c-1,0.1-2.1,0.2-3.1,0.3c1,3.7,2,7.5,3,11.2c0.8-0.4,1.6-0.7,2.4-1.1c6.1-2.9,1.8-13.3-4.6-11c-3.9,1.4-7.8,2.8-11.8,4.2
				c-1.8,0.7-3.6,1.3-5.4,2c-0.9,0.3-1.8,0.7-2.7,1c-1.7,0.3-1.6,0.6,0.3,0.9c-0.9,3.3-1.8,6.7-2.6,10c9.3-3.3,19.4-4.8,29.1-6.8
				c3.1-0.7,5.1-4.4,4.2-7.4c-1.9-6.1-3.3-12.2-4.4-18.5c-0.6-3.2-1-6.4-1.3-9.6c-0.2-2.2-1.2-6.1,0.1-8.1c-3.7-0.5-7.3-1-11-1.4
				c1.2,4.7,0.4,9-2.1,13.1c3.7,1,7.5,2,11.2,3c0-5.7-0.5-11.3-1.4-17c-0.9-5.9-10.3-5.5-11.6,0c-1.3,5.9-3.5,11.1-6.7,16.2
				c3.7,1.5,7.3,3.1,11,4.6c1.4-8.3,2.6-16.6,0-24.8c-0.9-2.9-4.3-5.4-7.4-4.2c-4.2,1.6-6.5,4.4-7.7,8.7c-0.6,2.2-0.8,4.5-1.2,6.7
				c-0.3,1.5-0.5,3-0.8,4.5c-0.1,0.7-1.1,3.2-0.2,2.2c1.4-0.6,2.8-1.2,4.2-1.8c-0.3,0-0.6,0-1,0c2,2,4,4,6,6c0.8-8.5,1.1-17,1-25.5
				c-0.1-5.6-8.4-8.6-11.2-3c-2.9,5.9-3.9,13.2-5.5,19.6c-1.6,6.4,7.6,10.7,11,4.6c3.5-6.3-1.3-13.9-8.6-13.4
				c-5.7,0.3-12.4,5.5-14.9,10.5c-3.1,6.2,1.7,12.8,8.6,11.4c6.8-1.4,13.4-7.2,17.6-12.3c3.6-4.3,0.3-12-5.8-10
				c-7.5,2.4-13.5,7.1-17.5,13.9c-2.6,4.4,1.7,10.4,6.8,8.8c6.1-1.9,14.4-9.7,8.3-16.3c-5.3-5.7-15.7,0-21.1,2.7
				c-5.2,2.7-2.9,11.6,3,11.2c8.2-0.5,13.8-9.3,8-16.4c-5.9-7.2-16-2.7-19.2,4.5c-2,4.5,1.3,10.4,6.8,8.8c9.7-2.8,30.5-10.8,27.1-24
				c-0.6-2.5-3.2-4.5-5.8-4.4c-5.5,0.2-10.3,2.2-14.1,6.3c-4.2,4.6,0,11.1,5.8,10c7.9-1.4,14.5-7.7,16-15.6
				c1.4-7.7-4.4-17.8-13.4-13.5c-7.4,3.6-5.3,14.4,1.9,16.7c8.3,2.7,17.2-4.6,19.5-12.2c1.4-4.7-3.1-8.2-7.4-7.4
				c-9.4,1.8-9,15-0.2,17.4c8.2,2.2,15.8-6.4,12.2-14c-2.2-4.5-7.9-3.2-10.4,0c-3.6,4.8-7.9,16.8-1,21c7.3,4.4,13.2-4.4,13.9-10.6
				c-4,0-8,0-12,0c-0.1,5.5,0.7,11.9,5.8,15.2c2.3,1.5,5.4,1.7,7.8,0.3c2.9-1.7,3.2-5,3.4-8.1c0.6-14.9-3.6-30.2-8.1-44.2
				c-1.6-4.9-8.2-5.9-11-1.4c-2.6,4.1-1.7,7.8-1.4,12.3c0.3,5.1-1.1,10.4-1.8,15.5c3.9,0.5,7.9,1.1,11.8,1.6
				c-0.2-4.3-0.3-8.7-0.5-13C383.7,157.8,371.7,157.8,372,165.5L372,165.5z"/>
		</g>
	</g>
	<g>
		<path class="st0" d="M399.2,241c-0.2,0.6,0,1.3,0.4,1.8c0.4,0.5,0.9,0.9,1.5,1.2c-1.2,0.3-2.5,0.6-3.8,0.7
			c-0.9,0.1-1.9,0.2-2.7,0.6c-0.3,0.2-0.6,0.4-0.9,0.5c-0.6,0.3-1.2,0.5-1.8,0.6c-0.8,0.2-1.6,0.4-2.4,0.6c0-0.3,0.4-0.5,0.7-0.7
			c0.7-0.3,1.4-0.6,2.2-0.9c0.7-0.3,1.4-0.6,2.2-0.7c1-0.2,2.1-0.1,3.1,0c0.9,0.1,1.8,0.1,2.7,0.2c-1.3,0.2-2.5,0.4-3.8,0.6
			c0.5,0,1,0,1.5,0c-0.5,0-1.1,0-1.6,0.1c0.5,0.2,1.1,0.1,1.6,0.1c1.1-0.1,2.3-0.2,3.4-0.3"/>
		<g>
			<path class="st0" d="M397.7,241c-0.3,2,1,3.3,2.6,4.3c0.1-0.9,0.2-1.8,0.4-2.7c-2,0.5-4.2,0.5-6.1,1.2c-1.8,0.7-3.5,1.4-5.4,1.9
				c0.6,0.7,1.1,1.5,1.7,2.2c0.5-0.8,3.6-1.5,4.5-1.6c1.6-0.2,3.4,0.2,5.1,0.3c-0.1-1-0.3-2-0.4-2.9c-1.3,0.2-2.5,0.4-3.8,0.6
				c-1.7,0.3-1.2,2.9,0.4,2.9c0.5,0,1,0,1.5,0c0-1,0-2,0-3c-0.8,0-1.3,0.1-2,0.2c-1.4,0.2-1.4,2.7,0,2.9c1.8,0.3,3.6,0,5.4-0.2
				c1.9-0.2,1.9-3.2,0-3c-1.5,0.1-3.2,0.5-4.6,0.3c0,1,0,1.9,0,2.9c0.4,0,0.8,0,1.2-0.1c1.9,0,1.9-3,0-3c-0.5,0-1,0-1.5,0
				c0.1,1,0.3,2,0.4,2.9c1.3-0.2,2.5-0.4,3.8-0.6c1.8-0.3,1.2-2.8-0.4-2.9c-2.4-0.2-5-0.6-7.3,0.2c-1.6,0.5-3.9,1.1-4.8,2.7
				c-0.7,1.1,0.5,2.5,1.7,2.2c1.9-0.5,3.6-1.1,5.4-1.8c1.9-0.8,4.2-0.8,6.2-1.3c1.3-0.3,1.4-2.1,0.4-2.7c-0.8-0.3-1.1-0.9-1.1-1.8
				C401,239.1,398,239.1,397.7,241L397.7,241z"/>
		</g>
	</g>
	<g>
		<path class="st0" d="M77.5,271.9c-0.9,2.3,0.4,4.9,2,6.8c1.6,1.9,3.5,3.8,4,6.2c0,0.2,0.1,0.5-0.1,0.7c-0.2,0.3-0.6,0.2-1,0.1
			c-2.9-0.9-4.8-4.1-4.2-7.1c0.9,0.5,0.8,1.8,1,2.7c0.5,1.8,2.4,2.9,4.1,3.7c1.6,0.8,3.2,1.5,5,1.9c4.5,1,9.4-0.6,12.4-4.1
			c0.3,0.1,0.6,0.3,0.6,0.7c-0.7,0.5-1.7,0.6-2.6,0.4c0.4-0.7,1.2-1.5,1.8-1c0.4,0.3,0.4,0.9,0.1,1.3s-0.7,0.6-1.2,0.7
			c-0.6,0.2-1.3,0.4-1.7,0c-0.5-0.4-0.2-1.4,0.4-1.2c-0.9,0.1-1.8,0.2-2.7,0.2c-0.6,0-1.4-0.4-1.2-0.9c0.1-0.2,0.3-0.3,0.5-0.4
			c0.8-0.4,1.8-0.6,2.7-0.4c-0.4,1.1-1.5,1.8-2.7,1.8c0-0.6,0.4-1.2,1-1.3c0.3,0,0.3,0.4,0.2,0.6s-0.4,0.3-0.7,0.3
			c-0.5,0.1-0.9,0.2-1.4,0.3c-0.7,0.1-1.3,0.2-2,0.1c-0.7-0.1-1.3-0.6-1.4-1.3c-0.1-0.7,0.4-1.4,1.1-1.3c0.6,0.4,0.3,1.5-0.4,1.6
			c-0.3-0.6,0.2-1.4,0.8-1.5c-0.1,0.7-0.6,1.3-1.3,1.5c-0.7,0.3-1.7,0-2-0.7s0.4-1.7,1.2-1.4c0.6,0.5,0.4,1.5-0.2,2
			s-1.4,0.7-2.1,0.8c-0.6-0.5-0.4-1.6,0.3-1.9c0.7-0.3,1.6,0.3,1.7,1c0,0.8-0.9,1.4-1.6,1.2c-0.2-0.1-0.4-0.2-0.5-0.5
			c-0.1-0.5,0.4-0.8,0.8-1c0.7-0.3,1.4-0.5,2.1-0.7c0.3-0.1,0.7-0.2,1,0c0.4,0.3,0.4,1,0,1.4c-0.4,0.4-1,0.4-1.5,0.5
			c-0.2,0-0.4,0-0.6,0c-0.4-0.2-0.4-0.8-0.1-1.1c0.3-0.3,0.8-0.4,1.2-0.4c0.1,0.4,0.1,0.8,0,1.3c-0.3,1.3-2.1,2-3.2,1.2
			c-1.1-0.8-1.1-2.7-0.1-3.5c0.5,0.8-0.4,2.1-1.3,1.9c-0.3-1,0.3-2.2,1.3-2.6c-0.5,1.1-1.5,1.9-2.6,2.1c-0.2,0-0.4,0-0.5-0.1
			c-0.1-0.1-0.2-0.3-0.2-0.5c-0.1-0.9,0.1-1.8,0.7-2.4c1.1,1,0.8,3-0.5,3.7c-0.6-0.4-0.7-1.4-0.1-1.9c0.5-0.5,1.5-0.3,1.9,0.3
			c0.4,0.6,0,1.5-0.6,1.8c-0.1,0-0.2,0.1-0.3,0.1c-0.3,0-0.5-0.4-0.5-0.8c-0.1-0.8,0-1.5,0.2-2.2c0.3,0.6,0.6,1.3,0.4,2
			c-0.2,0.7-1.1,1.1-1.7,0.6c-0.2-0.2-0.3-0.4-0.4-0.7c-0.5-1.5-0.7-3-0.6-4.5c0.6-0.1,0.9,1,0.3,1.3c-0.6,0.2-1.3-0.5-1.1-1.1
			c0.2-0.6,0.9-1,1.5-0.8c0.1,0,0.3,0.1,0.4,0.2c0.3,0.3-0.1,0.8-0.5,0.8c-0.4,0-0.7-0.3-1-0.6c-0.9-1-1.6-2-2.3-3.2
			c0,0.6-0.8,0.9-1.3,0.5c-0.5-0.3-0.6-1-0.4-1.6c0.4,0,0.8,0.2,1,0.5"/>
		<g>
			<path class="st0" d="M76.1,271.5c-0.5,2.5-0.1,4.6,1.3,6.8c0.6,1,1.4,1.8,2.1,2.7c0.7,1.1,1.6,2.1,2.7,3
				c-1.9-1.4-2.7-3.1-2.3-5.3c-0.9,0.4-1.7,0.7-2.6,1.1c1.4,1.8,1,3.7,3.1,5.3c2,1.6,5.2,2.9,7.7,3.5c5.2,1.2,10.2-0.7,13.9-4.4
				c-0.6,0.1-1.2,0.2-1.8,0.2c0,0,0.1,0.1,0.1,0.1c0.3-0.7,0.6-1.5,0.9-2.2c-0.7,0.1-1.4,0.2-2.2,0.3c0.4,0.8,0.9,1.5,1.3,2.3
				c-0.5,0.2-1,0.3-1.5,0.5c1.5-0.5,1.3-3.2-0.4-2.9c-0.9,0.2-1.8,0.2-2.6,0c-0.1,0.6-0.2,1.2-0.2,1.8c0.7-0.1,1.4-0.3,2.2-0.4
				c-0.4-0.8-0.9-1.5-1.3-2.3c-0.6,0.4-1.2,0.8-1.8,1.2c0.6,0.6,1.2,1.2,1.8,1.8c0.1-0.2,0.2-0.3,0.3-0.5c-0.6-0.1-1.2-0.2-1.8-0.2
				c-0.5-1.3-1.3-1.7-2.3-1.1c-0.7-0.2-1.4-0.4-2.1-0.5c0-0.2,0.1-0.3,0.1-0.5c0.8,0.4,1.5,0.9,2.3,1.3c0-0.1,0.1-0.2,0.1-0.2
				c-0.7-0.7-1.4-1.4-2.1-2.1c-0.3,0.6-0.5,1.1-0.8,1.7c-0.5-0.4-1-0.7-1.4-1.1c-0.4,0.3-0.8,0.6-1.2,0.9c0.6,0.2,1.1,0.5,1.7,0.7
				c0.6,0.6,1.3,0.8,2.1,0.6c-0.6-0.5-1.3-1-1.9-1.4c-0.2-0.1-0.3-0.2-0.5-0.3c-0.9-0.3-1.9-0.5-2.8-0.8c-0.1,0.2-0.1,0.3-0.2,0.5
				c0.6,0.5,1.3,1,1.9,1.4c0.2-0.4,0.4-0.8,0.6-1.3c-0.7-0.7-1.4-1.4-2.1-2.1c0,0.2,0,0.5-0.1,0.7c-0.9,0-1.7,0-2.6,0
				c-0.1,0.6-0.2,1.2-0.3,1.8c0.8,0.1,1.6,0.2,2.4,0.3c0.2-0.5,0.4-1,0.7-1.5c-1,0-1.9,0-2.9,0c0.8-0.8,1-1.8,0.8-2.9
				c-0.8,0.4-1.5,0.9-2.3,1.3c-0.1-0.3-0.2-0.5-0.3-0.8c0.6-0.2,1.1-0.5,1.7-0.7c0.4,0.1-2-3.8-2.1-4c-0.6-1-1.9-0.9-2.6,0
				c0.4-0.1,0.8-0.2,1.1-0.3c-0.8,0.4-1.5,0.9-2.3,1.3c0.3,0.2,0.7,0.3,1,0.5c1.7,0.8,3.3-1.8,1.5-2.6c-0.3-0.2-0.7-0.3-1-0.5
				c-1-0.5-2.2,0.1-2.3,1.3c-0.2,3,2.7,4.2,4.5,1.8c-0.9,0-1.7,0-2.6,0c1.2,2,3.1,5.6,5.9,4.1c0.5-0.3,0.7-0.8,0.7-1.3
				c0-0.2,0-0.3,0-0.5c0-0.5-0.3-1.1-0.7-1.3c-3.5-1.6-5.9,3.5-1.9,4.5c0.7,0.2,1.3-0.1,1.7-0.7c0.9-1.2,0.6-2.7-0.8-3.3
				c-1-0.5-2.3,0.1-2.3,1.3c0,2.2-0.1,6.6,2.9,6.8c2.7,0.2,3-2.7,2.2-4.6c-0.5-1.2-2.5-1.6-2.9,0c-0.3,1.5-0.8,4.1,1.2,4.8
				c1.5,0.5,2.9-0.8,3.1-2.2c0.7-4.3-7.3-3.7-4.6,1.2c0.5,0.9,1.7,0.9,2.4,0.3c1.7-1.6,2-3.5,0.8-5.5c-0.6-1-2-1-2.6,0
				c-3,5.2,2.5,6.7,5.2,2.3c0.8-1.2-0.8-2.9-2.1-2.1c-1.5,1-2.1,2-2.1,3.9c0,1,0.9,1.7,1.9,1.4c1.8-0.4,2.6-1.5,2.4-3.4
				c-0.2-1.5-1.9-2-2.8-0.8c-4,5.5,6.2,9,6,1.8c0-0.9-0.9-1.8-1.9-1.4c-2,0.7-4.1,3.4-1,4.5c2.7,0.9,4.6-1.8,3.6-4.1
				c-0.2-0.5-0.8-0.7-1.3-0.7c-2.1-0.1-4.6,0.6-5.4,2.8c-0.2,0.5,0,1.1,0.4,1.5c2.4,2.3,6.2-0.8,3.9-3.4c-2.4-2.6-5.3,0.6-4,3.3
				c0.3,0.6,1.1,0.8,1.7,0.7c2.5-0.6,4.2-2,3.3-4.6c-0.2-0.6-0.8-1.2-1.4-1.1c-6,0.7,0.3,9.2,3.4,2.8c0.6-1.2-0.7-3-2.1-2.1
				c-1.3,1-1.5,1.2-1.6,2.8c-0.1,1.1,1.3,1.9,2.3,1.3c1.4-0.9,1.8-2.2,0.9-3.6c-0.4-0.8-1.3-0.9-2.1-0.5c-3.5,1.5-1.4,5,1.6,5.4
				c1.7,0.2,7.3-1.3,4.4-3.8c-0.5-0.4-1.2-0.6-1.8-0.2c-1.1,0.7-1.3,1-1.7,2.2c-0.4,1.2,0.8,2.1,1.8,1.8c1.8-0.4,2.6-1,3.6-2.5
				c0.6-1-0.2-2.3-1.3-2.3c-1.7,0-3,0.2-4.3,1.3c-0.5,0.5-0.5,1.2-0.2,1.8c0.9,2.1,3.2,1.7,5.2,1.4c-0.1-1-0.3-2-0.4-2.9
				c-4,1.2,0.2,6.7,3.7,3.2c2.8-2.8-1.4-5.7-3.9-2.3c-0.7,1,0.3,2.2,1.3,2.3c1.6,0.1,1.4,0.1,3-0.4c1-0.4,1.3-1.3,0.9-2.2
				c-0.3-0.6-0.6-0.9-1.2-1.2c-0.6-0.3-1.3-0.3-1.8,0.2c-4,4.2-9,4.7-14.1,2.5c-2.6-1.1-3.8-1.8-5.1-4.5c-0.5-1.1-0.4-1.4-1.2-2.4
				c-0.9-1.1-2.5-0.1-2.6,1.1c-0.2,3.1,2.5,10.1,6.8,8.5c1.3-0.5,1.4-1.4,1.4-2.7c-0.2-4.9-7.2-6.7-6-12.2
				C79.3,270.5,76.4,269.6,76.1,271.5L76.1,271.5z"/>
		</g>
	</g>
	<g>
		<path class="st0" d="M67.7,161.9c-1.4-0.3-5.6-1-5.8-2.1c-1.7-0.1-3.3-0.1-5-0.2"/>
		<g>
			<path class="st0" d="M68.1,160.4c-0.9-0.2-4.5-0.6-4.9-1.4c-0.2-0.5-0.8-0.7-1.3-0.7c-1.7-0.1-3.3-0.1-5-0.2
				c-1.9-0.1-1.9,2.9,0,3c1.7,0.1,3.3,0.1,5,0.2c-0.4-0.2-0.9-0.5-1.3-0.7c0.9,2.1,4.8,2.3,6.7,2.8C69.2,163.8,70,160.9,68.1,160.4
				L68.1,160.4z"/>
		</g>
	</g>
	<g>
		<path class="st0" d="M82.4,170.4c-9.1-1.4-17.2-6.2-26.2-7.9c2.2,3.3,8.2,3.8,11.6,4.9c4.5,1.4,9.4,2.6,13.6,4.8
			c-3.7,1.6-7.7-0.2-11.3-1.3c-3.9-1.2-7.8-2.5-11.7-3.7c3.1,1.8,6.4,3.4,9.7,4.7c3.1,1.2,6.6,1.9,9.4,3.7
			c-6.4,1.2-12.6-2.4-18.1-4.9c2.7-3.5-1.8-8.2-3.7-10.9c5.5-1.6,13,2.9,18.2,4.2"/>
		<g>
			<path class="st0" d="M82.8,168.9c-9-1.6-17.2-6-26.2-7.9c-1.5-0.3-2.4,1.4-1.5,2.5c2.4,3,6.1,3.7,9.6,4.6
				c5.4,1.3,10.9,2.9,15.9,5.4c0.1-0.9,0.2-1.8,0.4-2.7c-6.5,2-16-3-22.2-5c-1.6-0.5-2.6,1.9-1.2,2.7c6.1,3.4,13.1,5,19.1,8.4
				c0.3-0.9,0.5-1.9,0.8-2.8c-6.3,0.8-11.8-2.1-17.4-4.7c0.2,0.7,0.4,1.4,0.5,2.1c2.6-4.7-1-8.6-3.7-12.4c-0.3,0.7-0.6,1.5-0.9,2.2
				c5.9-1.3,11.9,2.7,17.4,4.2c1.9,0.5,2.7-2.4,0.8-2.9c-6.3-1.7-12.3-5.6-19-4.2c-0.9,0.2-1.4,1.4-0.9,2.2c1.7,2.3,5.5,6.1,3.7,9.3
				c-0.4,0.7-0.2,1.7,0.5,2.1c6.1,2.9,12,6,18.9,5.1c1.4-0.2,2.2-2,0.8-2.8c-6-3.5-13-5-19.1-8.4c-0.4,0.9-0.8,1.8-1.2,2.7
				c7.1,2.3,16.3,7.3,23.8,5c1.2-0.4,1.6-2.1,0.4-2.7c-4.2-2.1-8.7-3.5-13.2-4.8c-3.9-1.1-9-1.4-11.7-4.8c-0.5,0.8-1,1.7-1.5,2.5
				c9,1.9,17.1,6.3,26.2,7.9C83.9,172.1,84.7,169.3,82.8,168.9L82.8,168.9z"/>
		</g>
	</g>
	<g>
		<path class="st0" d="M87,173.3c-0.8,0.5-4.2,2.4-5.2,1.7c-1.3-1,1.6-2.6,2.3-2c1.5,1.2-4.8,5.8-6.5,4.8c-1.5-0.9,0.1-3.3,1.4-3.5
			c2.3-0.4,1.3,2.4,0.4,3.5c-0.8,1-2.8,2.7-4.2,2.8c-2.1,0.1-1.6-1.3-0.3-2.7c0.8-0.9,3-2.6,3.4-0.7c0.3,1.3-2.8,3.5-3.8,3.8
			c-4.7,1.3,2.5-5.2,3.6-2.3c0.8,2.2-7.4,5.8-5.5,0.7c0.3-0.9,1.9-2.6,3-1.7c1.6,1.3-1.6,3.4-2.5,3.9c-1.1,0.6-3.9,1.8-4-0.3
			c-0.1-1.1,3.4-3.5,4-2.4c0.6,1.1-3.3,3.2-4.1,2c-1.1-1.6,1.9-3.5,3.1-3.6c-0.8,2.7-5.1,4.9-7.6,5.4c-5.1,1-0.6-5.6,1.3-5
			c2.9,0.9-3.9,5.4-3.9,2.2c0.1-2.4,5.9-4.5,7.7-5c-0.8,0.9-6.1,6.6-6.6,5c-0.6-1.7,4.4-4.1,5.3-2.9c1.2,1.6-3.7,4.8-5.4,3.1
			c-2.3-2.2,2.3-5,2.3-2.4c0,2.3-4.5,3.9-6.2,4c-4.3,0.1-1.3-3.6,1.1-4.4c2.8-1,5.1,3,2.5,4.3c-2.9,1.4-1.2-4,0.7-4.9
			c0,1.5-2.6,5-3.9,2.7c-0.9-1.5,1.9-3.8,2.7-2c0.8,1.6-2.9,3.6-3.9,2c-1.4-2.2,2.4-4.5,3.8-5.1c0,1.7-3.2,3.7-4.3,2.1
			c-1.6-2.2,2.1-4.1,3.7-4.4c-0.2,1.3-2,4.7-3.8,4.3c-2.3-0.6,0.7-3.6,2.1-3.6c2.6-0.1-0.4,3.7-2.2,1.7c-1-1.1,0.2-5.5,1.4-4.4
			c1.4,1.3-1.9,3-3.3,2.1c-1.8-1.3-1-4.2,0.9-4.9c2.8-1,2.8,3,0.8,3.3c-2.6,0.4-2.3-4.2-1.6-5.6c0.9,1.3,1.2,2.8,0.8,4.3
			c-0.8-0.5-1.7-2-1.2-3c0.5-1,1.6-1.2,1.5,0.1c-0.8-2.3-1.6-4.6-2.3-6.9c8.1,3.9,16.9,5.6,25.3,8.6"/>
		<g>
			<path class="st0" d="M86.2,172c-2.2,1.3-4.2,2.2-6.2,3.7c-1.4,1-2.6,2.4-4,3.3c1.4-0.9-4.3,1.4-1.5,2.2c-0.1,0,2.2-2,2.3-1.6
				c0-0.2-2.2,0.9-2.5,0.9c-0.7-0.6-1.3-0.7-1.9-0.1c-0.4,0.2-0.8,0.3-1.2,0.5c-0.8,0.7-0.5,0.6,0.8-0.5c-1.1-0.9-1-1.5,0.5-1.6
				c-0.6-0.7-1.1-1.5-1.7-2.2c-1,2.2-8.2,7.2-6.1,2.1c-1,0.7-1.1,0.8-0.3,0.2c0.5-0.3,1-0.6,1.5-0.9c1.3-0.7,2.7-1.2,4.1-1.6
				c-0.5-0.8-1-1.7-1.5-2.5c-0.8,0.8-1.5,1.6-2.3,2.4c-0.3,0.3-1.3,1-1.5,1.4c-0.6,2,1.9,0.4,2,0.7c-0.2-0.4-6.8,1.6-7.8,1.8
				c0-0.1-0.1-0.2-0.1-0.3c0.7-1.2,1.6-1.2,2.5-0.2c0.9,1.1,1.4,1.1,1.5,0.1c0.2-0.7,0.6-1.4,1.3-1.8c-0.7-0.6-1.5-1.1-2.2-1.7
				c-0.4,2-0.9,0.2,0.9-0.7c-0.7-0.6-1.5-1.1-2.2-1.7c-0.6,0.1-0.2,0,1.2-0.4c-0.6-0.6-1.2-1.2-1.8-1.8c-1.1,4.2-3.6-4.2-2.7-6.4
				c-0.9,0.1-1.8,0.2-2.7,0.4c0.2,1.2,0.4,2.4,0.6,3.6c0.9-0.4,1.7-0.7,2.6-1.1c-0.3-0.4-0.7-0.8-1-1.2c-0.5-0.4-1-0.7-1.4-1.1
				c0.1,0.3,0.2,0.6,0.2,0.8c1-0.3,1.9-0.5,2.9-0.8c-0.8-2.3-1.6-4.6-2.3-6.9c-0.7,0.6-1.5,1.1-2.2,1.7c8.2,3.8,17.1,5.8,25.6,8.8
				c1.8,0.6,2.6-2.3,0.8-2.9c-8.3-2.9-16.9-4.7-24.9-8.5c-1.1-0.5-2.6,0.3-2.2,1.7c0.7,2.3,1.5,4.6,2.3,6.9c0.6,1.8,3.4,1.1,2.9-0.8
				c-0.1-0.3-0.2-0.6-0.2-0.8c-0.2-0.6-0.8-1.1-1.4-1.1c-3.9,0-3,4.4-1.1,6.3c1,1,2.4,0.2,2.6-1.1c0.2-2-0.1-3.3-1-5.1
				c-0.6-1.3-2.3-0.7-2.7,0.4c-0.9,2.3-1,6.6,2,7.4c2.6,0.7,4.8-2.4,3.6-4.7c-3.3-6.5-11.6,7-3,6.7c2.1-0.1,5.4-2.7,3-4.8
				c-2.5-2.2-4.3,2-4.3,3.9c0.2,8.6,10.7-0.7,4.5-1.6c-2.4-0.4-6,3-4.5,5.4c2.5,4.1,6.6-2.1,7.2-4.3c0.3-1.1-0.7-2.2-1.8-1.8
				c-2.6,0.7-7,3.6-4.5,6.8c2.3,2.9,6.2,0,7-2.6c0.4-1.3-1.1-2.3-2.2-1.7c-2.4,1.2-7.8,6.1-3.1,8.3c2.6,1.2,7-2.2,5-4.9
				c-2.1-2.8-6.3,0.5-5.2,3.5c1.7,4.5,6.2-0.1,6.8-2.7c0.3-1.2-1.1-2.5-2.2-1.7c-1.8,1.3-4.7,5.6-2.1,7.5c2.8,2.1,5.5-2.3,4.3-4.7
				c-3.9-8.4-14.9,5.6-5.4,5c2.7-0.2,8.9-2.9,7.1-6.6c-1.4-2.8-5.2-0.9-5.6,1.7c-0.6,4.3,4.6,4.3,7.1,2.6c2-1.5,3.2-4.8,0-5.5
				c-2.3-0.5-8.3,2.9-5.9,5.8c2.4,2.9,7.4-3.5,8.8-5c1-1.1,0-2.9-1.5-2.5c-2.2,0.6-12.9,5.2-7.7,8.7c2.5,1.7,8.2-2.3,5.9-5.1
				c-2.6-3.2-7.5,2.3-6.8,5.2c1.6,5.8,11.4-1.4,12.7-4.2c0.5-1.1-0.3-2.6-1.7-2.2c-2.2,0.6-6,3.3-3.9,6c1.6,2,5.7,0.5,6.6-1.6
				c2.4-5.9-11.1-1.1-5.8,3.2c2.2,1.8,6.5-0.7,7.9-2.5c1.5-2,1-5.4-2.1-4.9c-5.8,0.9-3.5,11.1,3.3,6.1c5.3-3.9-1.8-8-5.4-3
				c-3.7,5.3,8.3,3.8,7.5-2c-1.1-7.5-13,5.7-4.4,5c2.9-0.2,7.2-4.1,6.4-7.3c-0.6-2.7-3.9-2.4-5.4-0.5c-2.2,2.7-0.1,5.6,3.1,4.9
				c2.1-0.5,7.2-3.6,6.1-6.4c-1-2.7-5.5-1-5.7,1.4c-0.4,4.5,6.2,1.4,7.8,0.5C89.4,173.6,87.9,171,86.2,172L86.2,172z"/>
		</g>
	</g>
	<g>
		<path class="st0" d="M85.9,172.8c-1.2,1.1-2.6,1.9-4.2,2.2c0.4-1.4,1.6-2.5,2.9-3.1"/>
		<g>
			<path class="st0" d="M84.8,171.8c-1,1-2.2,1.6-3.5,1.8c0.6,0.6,1.2,1.2,1.8,1.8c0.4-1,1.2-1.7,2.2-2.2c1.7-0.9,0.2-3.5-1.5-2.6
				c-1.7,0.9-2.9,2.2-3.6,4c-0.4,1.1,0.8,2.1,1.8,1.8c1.8-0.4,3.5-1.3,4.9-2.6C88.4,172.6,86.2,170.4,84.8,171.8L84.8,171.8z"/>
		</g>
	</g>
	<g>
		<path class="st0" d="M85.6,172.5c-0.6,1.3-1.8,2.3-3.1,2.8c-0.1-1.3,1.5-2.4,2.5-2.9"/>
		<g>
			<path class="st0" d="M84.3,171.7c-0.5,1-1.2,1.8-2.2,2.1c0.6,0.5,1.3,1,1.9,1.4c0-0.3-0.1,0.1,0-0.2c0.1-0.2,0,0,0.1-0.1
				c0.1-0.2,0.2-0.3,0.4-0.5c0.3-0.3,0.8-0.6,1.3-0.8c1.7-0.9,0.2-3.5-1.5-2.6c-1.6,0.9-3.4,2.2-3.3,4.2c0,0.9,0.9,1.8,1.9,1.4
				c1.7-0.6,3.2-1.8,4-3.5c0.3-0.7,0.2-1.6-0.5-2.1C85.7,170.8,84.6,171,84.3,171.7L84.3,171.7z"/>
		</g>
	</g>
	<g>
		<path class="st0" d="M87.6,173.8c-1.3,0.6-5.5,2.3-6.9,1.4c-2.1-1.4,1.9-3.1,3.1-3.4"/>
		<g>
			<path class="st0" d="M86.8,172.5c-1.7,0.7-3.3,1.1-5,1.5c0,0-0.3-0.1-0.3,0c0,0,0,0.5,0.1,0.6c0.1,0.2-0.2,0,0.1-0.1
				c0.1,0,0.3-0.2,0.4-0.3c0.6-0.4,1.3-0.7,2.1-0.9c1.9-0.5,1.1-3.4-0.8-2.9c-2.2,0.6-6.8,3.1-4,5.7c2.3,2.2,6.6,0,9-1
				C90.1,174.3,88.6,171.7,86.8,172.5L86.8,172.5z"/>
		</g>
	</g>
	<g>
		<path class="st0" d="M93.5,175.8c-1.4,0.6-7.2,1.8-5.7-1.6"/>
		<g>
			<path class="st0" d="M92.7,174.5c0.3-0.1-0.2,0.1-0.3,0.1c-0.3,0.1-0.5,0.1-0.8,0.2c-0.5,0.1-1,0.2-1.6,0.2
				c-0.4,0-0.9-0.1-1.2-0.1c-0.3,0,0.2,0.1,0.1,0.2c0.1,0-0.2,0.2,0,0c0,0,0.2-0.5,0.2-0.5c0.7-1.8-2.2-2.6-2.9-0.8
				c-0.9,2.2,0.5,4,2.8,4.2c1.7,0.2,3.6-0.2,5.1-0.9C96,176.3,94.5,173.8,92.7,174.5L92.7,174.5z"/>
		</g>
	</g>
	<g>
		<path class="st0" d="M88.6,174.2c-1.1,0.9-2.4,1.6-3.8,2c0.9-0.9,1.9-1.7,3-2.4"/>
		<g>
			<path class="st0" d="M87.5,173.1c-0.9,0.8-2,1.3-3.1,1.7c0.5,0.8,1,1.7,1.5,2.5c0.8-0.9,1.7-1.5,2.7-2.1c1.7-0.9,0.2-3.5-1.5-2.6
				c-1.2,0.7-2.4,1.6-3.3,2.6c-1,1.1,0,3,1.5,2.5c1.7-0.5,3.1-1.3,4.5-2.4c0.6-0.5,0.5-1.6,0-2.1C89,172.5,88.2,172.6,87.5,173.1
				L87.5,173.1z"/>
		</g>
	</g>
	<g>
		<path class="st0" d="M52.4,156c7.6,5,16.6,8,25.4,10.5"/>
		<g>
			<path class="st0" d="M51.6,157.3c8,5,16.8,8,25.8,10.6c1.9,0.5,2.7-2.4,0.8-2.9c-8.7-2.5-17.3-5.4-25-10.3
				C51.5,153.7,50,156.3,51.6,157.3L51.6,157.3z"/>
		</g>
	</g>
	<g>
		<path class="st0" d="M149.8,164.2c10.6-0.7,21.1-1.6,31.7-1.5c9.7,0.1,19.9,0.1,28.8-4.2c-2-0.1-4,0.5-5.6,1.8
			c0.5-0.4,1-0.7,1.6-1.1c-1.1,0.8-2.3,1.5-3.6,1.9c-0.1-0.7,0-1.4,0.4-2c-0.4,0.4-0.8,0.8-1.2,1.3c0.8-0.6,1.7-1.1,2.6-1.6
			c-0.4,1.6-2.2,1.2-0.9-0.2c-1.1,2.2-3.5-0.5-1.3-1.1c-0.5,4.4-5.5,1.7-2.4,0.3c-0.2,0.8-0.6,1.5-1.3,1.9c-0.5-0.9-0.3-1.8,0.6-2.3
			c-0.4,0.9-1.4,2.4-2.5,2.8c-1.2,0.4-1.8,0-0.7-1.2c0.4,0.9,0.1,1.7-0.9,2c-0.3-1.1,0.1-2.2,1.1-2.9c-0.5,1-1.8,2.7-3.1,2.1
			c-1.1-0.4-1.3-1.7-0.1-2.2c0.2,1.3-0.7,2.6-2,2.8c0.4-1.5,1.8-2.4,3.3-2.1c-0.4,0.9-2.3,3.5-3.6,2.9c-1.5-0.7,0.2-3,1.1-3.4
			c-0.1,1.7-1.7,3.2-3.4,3c0.2-1.5,1.2-2.7,2.5-3.4c-0.2,1.1-1.8,3.9-3.3,3.5c-1.7-0.4-1.4-3.7,0.4-3.9c-0.1,1.2-1.7,4-3.3,3.5
			c-2-0.7,0.7-3,1.9-3.2c-0.3,1.1-1.7,3.4-3.1,3.2c-1.9-0.3-0.9-2.3,0.3-2.9c0,1.4-0.9,2.7-2.2,3.1c-0.4-1.2,0.5-2.4,1.7-2.6
			c-1.2,4.9-5.9,0.4-3-0.5c0.6,2.1-2.5,3.7-3,1.6c-0.5-2.1,3.4-1.6,1.6,0.7c-1.2,1.5-5.3-0.2-4-2.1c0.6-0.8,1.2-0.1,1.2,0.5
			c-0.1,1-1.9,1.6-2.7,1.6c0-1.9,3.6-2.6,1.9-0.2c-1,1.5-4.4,1.3-3.9-1c0.4-2.2,2.8-0.2,1.1,1.3c-1.9,1.7-2.2-1.9,0.3-2.2
			c-0.5,1.6-5.4,4.6-5.8,1.5c-0.4-3,4.5,1.3-0.2,1.4c0.5-1.5,1.9-2.6,3.5-2.7c-0.7,4.3-5,0.1-2.2-0.2c-0.1,0.9-1.6,3.1-2.8,2.5
			c-1.1-0.5,0-2.1,1-2.2c0.2,1.3-0.8,2.4-2.1,2.4c0.3-3.1,3.3-0.9,0.9-0.1c-0.1-0.9-0.1-1.1,0.6-1.6c-0.4,1.3-1.7,2.1-3,1.9
			c1-0.7,2.2-1.1,3.4-1.3c-3.9-0.7-7.9,0.3-11.7,2.4"/>
		<g>
			<path class="st0" d="M149.8,165.7c11.4-0.8,22.8-1.6,34.3-1.5c9.3,0,18.4-0.6,27-4.4c1.4-0.6,0.7-2.9-0.8-2.8
				c-2.4,0.1-4.3,0.7-6.4,2c0.5,0.9,1,1.7,1.5,2.6c0.5-0.4,1-0.7,1.6-1.1c1.6-1.1,0.1-3.7-1.5-2.6c-1,0.7-2.1,1.3-3.3,1.8
				c0.6,0.5,1.3,1,1.9,1.4c0.1-0.4,0.1-0.8,0.2-1.3c0.6-1.5-1.1-3.1-2.4-1.8c-0.4,0.4-0.8,0.8-1.2,1.3c-1.2,1.2,0.4,3.4,1.8,2.4
				c0.8-0.6,1.6-1.1,2.6-1.6c-0.7-0.7-1.4-1.4-2.1-2.1c0.3,0.1,0.7,0.2,1,0.4c0.1,0.6,0.2,1.2,0.2,1.8c0.1-0.3,0.3-0.6,0.4-0.8
				c0.8-1.5-1.2-3.1-2.4-1.8c0.2,0.4,0.3,0.8,0.5,1.2c-0.7-0.6-1.5-1.1-2.2-1.7c-0.1,0.7-0.1,1.3-0.2,2c-0.7-0.6-1.5-1.1-2.2-1.7
				c-0.3,0.4-0.6,0.9-0.9,1.3c0.8,0.2,1.7,0.4,2.5,0.7c0.1-0.3,0.2-0.5,0.2-0.8c-0.8-0.6-1.6-1.2-2.4-1.8c-0.2,1-0.4,2.1-0.5,3.1
				c-0.9-0.3-1.9-0.5-2.8-0.8c-0.2,0.3-0.3,0.6-0.5,0.9c0.9,0.4,1.7,0.7,2.6,1.1c0.2-0.6,0.4-1.2,0.6-1.8c-0.8-0.6-1.6-1.2-2.4-1.8
				c-0.3,0.6-0.6,1.2-0.9,1.8c-0.9-0.4-1.7-0.7-2.6-1.1c-0.4,0.5-0.8,1-1.2,1.5c0.7,0.7,1.4,1.4,2.1,2.1c0.7-0.5,1.3-0.9,2-1.4
				c-0.4-0.8-0.9-1.5-1.3-2.3c-0.4,0.5-0.5,1-0.4,1.6c-0.7-0.6-1.5-1.1-2.2-1.7c-0.7,0.6-1.3,1.3-2,1.9c0.5,0.6,1,1.3,1.4,1.9
				c0.6-0.8,1.2-1.6,1.8-2.5c-0.7-0.6-1.5-1.1-2.2-1.7c-0.3,0.4-0.5,0.9-0.8,1.3c-0.7-0.6-1.5-1.1-2.2-1.7c0.1,0.7,0.3,1.4,0.4,2.1
				c-0.6-0.6-1.2-1.2-1.8-1.8c-0.2,0.6-0.4,1.3-0.6,1.9c-0.7-0.6-1.5-1.1-2.2-1.7c-0.5,0.7-1,1.5-1.6,2.2c0.8,0.4,1.5,0.9,2.3,1.3
				c0.2-0.4,0.4-0.7,0.6-1.1c-0.6-0.6-1.2-1.2-1.8-1.8c-0.3,0.4-0.5,0.8-0.8,1.2c-0.8-0.4-1.5-0.9-2.3-1.3c-1.8,0.2-3.6,0.5-5.4,0.7
				c0.5,0.6,1,1.3,1.4,1.9c-0.5-0.3-1.1-0.7-1.6-1c-0.6-0.7-1.1-1.5-1.7-2.2c-1.1,1.9-2.8,1.9-4.7,2.1c0.4,0.8,0.9,1.5,1.3,2.3
				c0.9-0.7,1.8-1.3,2.6-2c-0.6-0.6-1.2-1.2-1.8-1.8c-0.1,0.5-0.2,1.1-0.3,1.6c-0.6-0.6-1.2-1.2-1.8-1.8c0.1,0.7,0.3,1.4,0.4,2
				c-0.8-0.4-1.5-0.9-2.3-1.3c-0.3,0.3-0.6,0.6-1,0.9c0.6,0.6,1.2,1.2,1.8,1.8c-0.4-0.6-0.9-1.2-1.3-1.8c0.8,0.4,1.5,0.9,2.3,1.3
				c0.1-0.2,0.1-0.4,0.2-0.6c-0.8-0.6-1.6-1.2-2.4-1.8c-0.6,0.4-1.1,0.8-1.7,1.2c0.3,0.9,0.5,1.9,0.8,2.8c0.9-0.6,1.9-1,3-1.2
				c1.8-0.4,1.2-2.8-0.4-2.9c-4.5-0.6-8.4,0.5-12.4,2.6c-1.7,0.9-0.2,3.5,1.5,2.6c3.6-1.9,7-2.7,10.9-2.2c-0.1-1-0.3-2-0.4-2.9
				c-1.4,0.3-2.5,0.8-3.7,1.5c-1.2,0.7-0.8,2.9,0.8,2.8c2.2-0.2,3.2-0.7,4.3-2.6c0.8-1.5-1.2-3.1-2.4-1.8c-0.9,1-1.1,1.3-1.1,2.7
				c0,1.2,1.3,1.8,2.3,1.3c4.2-2.2-1.7-7-3.1-1.5c-0.3,1.1,0.7,2.1,1.8,1.8c2.2-0.6,2.9-1.6,3.2-3.8c0.1-1.2-1.4-1.8-2.3-1.3
				c-1.9,1-2.6,2.3-1.5,4.2c0.3,0.5,0.8,0.7,1.3,0.7c2.3,0,3.5-1.5,4.2-3.6c0.4-1.1-0.8-2.2-1.8-1.8c-5.1,1.6,2,9,4,2.1
				c0.3-1.2-0.8-2.1-1.8-1.8c-2.2,0.4-3.4,1.4-4.4,3.4c-0.5,0.9,0.1,2.4,1.3,2.3c6.6-0.7,1.7-7.2-0.7-4.8c-1.4,1.4-0.3,4,1.3,4.6
				c2.4,0.9,5.6-1.5,6.7-3.5c0.6-1.1-0.4-2.6-1.7-2.2c-3.8,1.3-3.3,7.1,0.5,5.2c4.4-2.3-1-8-2.8-3.6c-1.6,4.1,4.5,5.5,6.5,2.5
				c2.5-3.8-3.6-5.2-4.6-1c-0.2,0.8,0.4,2,1.4,1.9c2.5-0.3,6.2-3.1,2.8-5.2c-0.4-0.3-1.1-0.3-1.5,0c-3,2-0.9,5.5,2.2,5.8
				c2.6,0.2,5.7-3.1,2.9-5.1c-2.4-1.6-5,1.2-3.6,3.5c2,3.3,5.7,0.2,5.6-2.7c0-1.2-1.2-1.8-2.3-1.3c-4.5,2.4,2.6,9.2,5.2,2.2
				c0.4-1-0.8-2.3-1.8-1.8c-2,0.8-2.8,1.7-2.8,4c0,1.1,1.3,1.9,2.3,1.3c1.8-1,2.5-2,2.9-4c0.2-1.1-1.1-2.6-2.2-1.7
				c-1.5,1.2-3.2,3.6-1.1,5.2c2.8,2.1,5.3-1.6,6.1-3.7c0.4-1-0.8-2.2-1.8-1.8c-1.9,0.7-5.1,3.1-3,5.4c2.6,2.9,5.7-1.5,6.3-3.8
				c0.3-1.4-1-2.2-2.2-1.7c-2.2,1-3.2,4.4-1,6.1c2.8,2.2,5.4-1.7,6.2-4c0.4-1.2-1.1-2.4-2.2-1.7c-1.7,1.2-2.5,2.2-3.2,4.3
				c-0.3,0.8,0.5,2,1.4,1.9c2.7-0.3,4.2-1.4,4.9-4.1c0.3-1.2-1.1-2.5-2.2-1.7c-1.7,1.2-3.7,4.1-1.4,5.8c2.4,1.8,4.9-1.4,5.9-3.2
				c0.5-1-0.1-2.3-1.3-2.3c-2.2,0-3.6,0.8-4.6,2.9c-0.7,1.4,0.7,2.7,2.1,2.1c2-0.9,2.5-2,2.7-4.1c0.1-1.3-1.7-1.9-2.6-1.1
				c-1.4,1.4-1.7,3.5,0.5,4.5c2.3,1.1,4.1-1,5.2-2.7c0.9-1.5-1.2-3-2.4-1.8c-1.2,1.2-1.6,2.2-1.5,4c0.1,1.4,1.5,1.9,2.6,1.1
				c1.4-1.1,1.5-1.3,1.3-3.1c-0.1-1.5-2-2-2.8-0.8c-0.2,0.3-0.4,0.6-0.6,0.9c-0.3,0.4-0.3,1.1,0,1.5c2.2,2.8,5.1-0.4,6.3-2.5
				c0.8-1.4-1.2-3.1-2.4-1.8c-1.3,1.5-1.4,1.7-1,3.7c0.2,1.1,1.8,1.4,2.5,0.7c1-1,1.1-1.3,1.7-2.6c0.5-1.3-1.2-2.3-2.2-1.7
				c-4.8,2.9,3,8.2,4.6,1.4c0.3-1.3-1-2.4-2.2-1.7c-3.7,2.2,0.3,6.6,3.2,3.5c-0.8-0.6-1.6-1.2-2.4-1.8c-0.1,0.3-0.3,0.6-0.4,0.8
				c-0.3,0.7-0.2,1.3,0.2,1.8c0.1,0.1,0.2,0.2,0.3,0.4c0.3,0.4,1,0.5,1.5,0.4c1.1-0.4,1.4-0.7,2-1.7c0.7-1.3-0.7-2.8-2.1-2.1
				c-0.9,0.4-1.8,0.9-2.6,1.6c0.6,0.8,1.2,1.6,1.8,2.4c0.4-0.4,0.8-0.8,1.2-1.3c-0.8-0.6-1.6-1.2-2.4-1.8c-0.5,1.2-0.6,1.5-0.6,2.8
				c0,0.9,1,1.8,1.9,1.4c1.4-0.6,2.7-1.2,4-2.1c-0.5-0.9-1-1.7-1.5-2.6c-0.5,0.4-1,0.7-1.6,1.1c-1.5,1.1-0.2,3.6,1.5,2.6
				c1.4-1.1,3.1-1.6,4.9-1.6c-0.3-0.9-0.5-1.9-0.8-2.8c-9.2,4.1-19.2,4-29.1,4c-10.3,0-20.5,0.8-30.7,1.5
				C147.9,162.8,147.9,165.8,149.8,165.7L149.8,165.7z"/>
		</g>
	</g>
	<g>
		<path class="st0" d="M164.3,158.3c-1.1,0.6-2.9,1.4-3.9,1c-1.4,1.5,1.5,1.9,1.3,3.2c-0.4,1.9-2.2,0.1-2-1.2
			c-0.1,0.1-2.5,1-2.2-0.3c-0.3,0.7-0.5,1-0.7,0c-1,0.3-1,0-0.2-0.7c-0.6,0-1.2,0-1.8,0.1"/>
		<g>
			<path class="st0" d="M163.5,157c-0.7,0.4-1.8,1.1-2.7,0.9c-0.7-0.1-1.3,0.1-1.7,0.7c-0.6,0.8-0.8,1.9-0.2,2.8
				c0.2,0.3,0.5,0.8,0.9,0.9c0.6,0.3,0.1,0.5,1,0c1-0.5,0.4-0.2,0.4-1c0-1.1-1.3-1.9-2.3-1.3c-0.1,0-0.2,0.1-0.3,0.1
				c-0.1,0-0.2,0-0.3,0.1c-0.5,0.1-0.3,0.4,0.6,0.9c0.1-1.4-2.2-2.1-2.8-0.8c0,0.1-0.1,0.2-0.1,0.3c0.6-0.1,1.2-0.2,1.8-0.2
				c-0.1,0-0.1-0.1-0.2-0.1c0.2,0.3,0.5,0.6,0.7,0.9c0-0.2-0.1-0.3-0.1-0.5c-0.2-0.8-1.1-1.2-1.8-1c-0.1,0-0.2,0-0.3,0
				c0.5,0.4,1,0.7,1.4,1.1c0,0,0-0.1,0-0.1c-0.1,0.4-0.1,0.8-0.2,1.2c0.1-0.1,0.2-0.2,0.3-0.3c0.9-0.9,0.2-2.6-1.1-2.6
				c-0.6,0-1.2,0-1.8,0.1c-1.9,0.1-1.9,3.1,0,3c0.6,0,1.2,0,1.8-0.1c-0.4-0.9-0.7-1.7-1.1-2.6c-0.7,0.6-1.2,1.3-0.9,2.2
				c0.2,0.7,0.8,1.1,1.4,1.1c0.4,0,0.7-0.1,1.1-0.1c-0.6-0.3-1.2-0.7-1.8-1c0.2,0.7,0.4,1.1,1,1.5c0.5,0.4,1.4,0.2,1.8-0.2
				c0.3-0.3,0.4-0.5,0.6-0.9c-0.9-0.3-1.9-0.5-2.8-0.8c-0.2,2.4,2.9,2.5,4.4,1.6c-0.8-0.4-1.5-0.9-2.3-1.3c0,1.8,1.8,4.6,3.9,3.2
				c0.8-0.5,1.2-1.7,1-2.7c-0.1-0.5-0.4-0.9-0.7-1.2c-0.1-0.1-0.3-0.3-0.5-0.4c-0.5-0.3-0.1-0.2-0.2-0.1c-0.6,0.2-1.1,0.5-1.7,0.7
				c1.8,0.4,3.4-0.4,5-1.2C166.8,158.7,165.2,156.1,163.5,157L163.5,157z"/>
		</g>
	</g>
	<g>
		<path class="st0" d="M161.8,160.2c0-0.3,0-0.5-0.1-0.8c0,0,0-0.1-0.1-0.1s-0.1,0-0.1,0"/>
		<g>
			<path class="st0" d="M163.3,160.2c0-0.6,0-1.3-0.5-1.8c-0.6-0.7-1.7-0.8-2.3-0.1c-0.5,0.6-0.6,1.5,0,2.1c0.6,0.6,1.6,0.6,2.1,0
				c0,0,0,0,0,0c-0.4,0.1-0.7,0.3-1.1,0.4c0,0,0,0,0.1,0c-0.4-0.2-0.9-0.5-1.3-0.7c0-0.1,0-0.1-0.1-0.2c0,0.1,0,0.2,0,0.3
				c0,0.8,0.7,1.5,1.5,1.5C162.6,161.6,163.3,161,163.3,160.2L163.3,160.2z"/>
		</g>
	</g>
</g>
<g id="рука_1_">
	<line class="st1" x1="52.7" y1="154.5" x2="62.2" y2="158.6"/>
	<g>
		<path class="st1" d="M53.7,155c2.8,1.4-7.1-5.5-10.1-4.5c-3,1-3.2,7.2-5,11.9c-2.8,7.6-4.4,13.6-5,15.9c-2.5,9.7-3.2,17.3-4,24.8
			c-1.3,12.8-2.1,21.8-1,33.8c0.5,5.6-0.2,18.9,5,24.8c2.2,2.5,5,4,5,4c3.7,1.9,20.3,5.5,40.7,19.9"/>
		<g>
			<path class="st1" d="M383.4,142.5c1.8,3,3.7,6.4,5.5,10c1.2,2.5,1.6,3.7,3.6,8.2c2.6,5.9,3.7,8.1,4.6,10
				c2.8,6.3,3.7,12.4,5.5,24.6c0.7,4.8,1.5,10.1,1.8,17.3c0,0.4,0,5.1,0,14.6c0,6.3,0,10.2-0.9,15.5c-0.3,1.9-0.7,3.5-0.9,4.6"/>
			<g>
				<g>
					<path class="st2" d="M402.2,247.2c0.4,0.4,0.6,0.6,1.1,0.9c0.3-0.9,0.5-1.9,0.8-2.8c-4.2,0.1-9.4,0.4-13.3,2.1
						c-1.8,0.8-0.2,3.4,1.5,2.6c3.3-1.5,8.1-1.6,11.8-1.7c1.5,0,2-2,0.8-2.8c-0.2-0.1-0.3-0.3-0.5-0.4
						C403,243.7,400.9,245.8,402.2,247.2L402.2,247.2z"/>
				</g>
			</g>
			<g>
				<g>
					<path class="st2" d="M403.9,247.4c1.9,0,1.9-3,0-3C402,244.4,402,247.4,403.9,247.4L403.9,247.4z"/>
				</g>
			</g>
			<g>
				<g>
					<path class="st2" d="M403.9,247.4c1.9,0,1.9-3,0-3C402,244.4,402,247.4,403.9,247.4L403.9,247.4z"/>
				</g>
			</g>
			<g>
				<g>
					<path class="st2" d="M404,247.7c1.9,0,1.9-3,0-3C402,244.7,402,247.7,404,247.7L404,247.7z"/>
				</g>
			</g>
			<g>
				<g id="руки_1_">
					<path class="st1" d="M330.7,275.3c1.1,5.6,2.8,12.2,2.3,14.7c-0.7,3.4-1.8,5-2.3,5.6c-1.8,2.6-4.1,3.7-5.6,4.5
						c-0.8,0.4-4.6,2.2-10.2,2.3c-4.8,0-6.6-1.3-7.9,0c-1.2,1.2-0.2,2.6-1.1,6.8c-0.3,1.3-0.8,3.4-2.3,5.6c-1.6,2.5-3.6,3.9-4.5,4.5
						c-0.7,0.5-2.3,1.5-4.5,2.3c-6.3,2.1-15.1,0.9-18.1,0c-0.2-0.1-0.9-0.3-1.1,0c-0.5,0.6,1.6,2.2,2.3,4.5c1,3.6-1.7,7.2-2.3,7.9
						c-2.1,2.7-4.8,3.8-6.8,4.5c-6.7,2.5-15.4,1.9-19.2,1.1c-0.1,0-2.1-0.4-2.3,0c-0.2,0.4,2,1.1,2.3,2.3c0.5,1.9-3.3,4.4-5.6,5.6
						c-1.8,0.9-7.2,3.6-12.4,2.3c-0.9-0.2-2.2-0.6-3.4,0c-0.9,0.5-1.2,1.2-2.3,3.4c-1.2,2.5-1.8,3.7-2.3,4.5c-1,1.8-1.8,3.2-3.4,4.5
						c-1.5,1.3-3,1.7-4.5,2.3c-0.6,0.2-2.1,0.7-6.8,1.1c-4.2,0.4-6.3,0.6-7.9,0c-2.6-1-4.1-2.8-4.5-3.4c-0.5-0.6-2-2.7-2.3-5.6
						c-0.2-2.7,0.7-4,0-4.5c-0.9-0.6-2.4,1.5-5.6,2.3c-2.9,0.6-5.4-0.3-7.9-1.1c-2.5-0.9-4.1-2-4.5-2.3c-1.2-0.9-2.5-1.8-3.4-3.4
						c-0.2-0.4-0.6-1.1-1.1-4.5c-0.6-3.9-0.5-5.5-1.1-5.6c-0.7-0.1-1.1,1.9-3.4,3.4c-0.9,0.6-0.8,0.3-2.3,1.1
						c-1.5,0.9-1.9,1.4-3.4,2.3c-0.4,0.2-1.4,0.8-2.3,1.1c-2.8,1-5.8-0.2-7.9-1.1c-0.8-0.3-0.3-0.2-5.6-3.4
						c-3.1-1.8-3.8-2.2-4.5-3.4c-0.9-1.6-1.1-3.3-1.1-4.5c-0.2-2.9,0.6-4,0-4.5c-0.9-0.7-2.6,0.9-6.8,2.3c-1.1,0.4-3.1,1-5.6,1.1
						c-4.1,0.3-7.2-0.9-7.9-1.1c-2.7-1-4.5-2.5-5.6-3.4c-1.6-1.3-2.6-2.1-3.4-3.4c-1.7-2.8-1.4-6-1.1-9c0.5-4.9,1.5-4.5,1.1-7.9
						c0.6-3.4-3.8,1-5.6,2.3c-1.7,1.1-1.9,1.6-3.4,2.3c-1.7,0.8-3.1,1-4.5,1.1c-2.1,0.3-3.7,0.1-5.6,0c-3.6-0.3-5.3-0.4-6.8-1.1
						c-2.5-1.3-3.8-3.3-4.5-4.5c-1.9-3.1-2.2-6.2-2.3-7.9c-0.2-3.3,0.5-5.8,1.1-7.9c0.7-2.4,1.6-4.3,2.3-5.6"/>
					<line class="st1" x1="168.8" y1="339.1" x2="175.6" y2="321.4"/>
					<polyline class="st1" points="138.8,329.5 142.2,323.9 145.5,311.4 					"/>
					<line class="st3" x1="225.1" y1="318.8" x2="248.9" y2="340.2"/>
					<line class="st3" x1="244.3" y1="299.6" x2="275.4" y2="321.6"/>
					<line class="st3" x1="272.6" y1="277" x2="305.3" y2="303"/>
					<path class="st1" d="M218.9,157.9c-17.8-13.9-41.7-8.9-60.6,1c-2,1-3,0-5,1c-15.9,7-31.8,14.9-48.7,15.9
						c-15.9,2-28.8-12.9-43.6-17.6"/>
					<path class="st1" d="M404.4,244.5c-10.6,2.4-21.5,6.1-33.4,7.9c-15.5,2.7-31,8.2-40.3,21.8"/>
					<path class="st1" d="M333,282.1c-0.2-1.4-0.2-4.2-1.1-6c-11.9-13.7-23.7-25.5-37.4-37.4c-10.9-8.2-23.7-11.9-35.6-16.4
						c-2.7-1.8-6.4-3.6-9.1-5.5c-8.2-7.3-14.6-17.3-25.5-21c-21-7.3-31,18.2-41.9,31.9c-9.1,10.9-29.2,19.1-40.1,6.4
						c-3.6-5.5-0.9-10.9,0.9-16.4c0.9-0.9,10-19.1,14.6-27.4c1.8-1.8,2.7-3.6,4.6-6.4c14.6-17.3,36.5-25.5,58.4-27.4
						c29.2-0.9,56.5,6.4,85.7,13.7c5.5,0.9,10,0.9,15.5,0c12.8-3.6,23.7-8.2,35.6-13.7c7.3-3.6,13.8-9.7,21.9-12.8
						c5.9-2.3,5.4,1.7,5.9,1.4"/>
					<g>
						<g>
							<path class="st2" d="M77.9,286c8.7,8,17.6,15.7,27.7,21.9c0.7,0.4,1.6,0.4,2.3,0c3.1-1.8,6.3-3.2,9.6-4.7
								c3.9-1.8,7.4-4.2,11.8-4.4c6.3-0.3,17,4,14.5,12.1c1.4-0.2,2.7-0.4,4.1-0.5c-0.1-0.1-0.2-0.3-0.2-0.4
								c-1.4-2.5-5.3-0.2-3.9,2.3c0.1,0.1,0.2,0.3,0.2,0.4c1.1,2,4.1,1.1,4.2-1.1c0.2-7.5,10.4-10.2,16.4-8.1
								c7.4,2.5,8.7,11.7,8.2,18.4c-0.1,1.4,1.5,2.6,2.8,2.2c2.7-0.9,3.7-4,0.7-5.4c-3.1-1.4-4.7,1.8-3.3,4.3
								c0.7,1.3,2.5,1.4,3.5,0.5c5.3-4.7,14.7-4.4,18.5,2.2c3.3,5.7,0.6,13.3-0.4,19.4c-0.4,2.3,2,3.6,3.8,2.2
								c0.3-0.2,0.6-0.4,0.8-0.7c2.3-1.8-0.9-5-3.2-3.2c-0.3,0.2-0.6,0.4-0.8,0.7c-2.1,1.7,0.6,4.6,2.7,3.5c4.5-2.3,9-5.5,14-6.5
								c5.5-1.1,13,1.5,13.7,7.8c0.3,2.8,4.8,2.9,4.5,0c-0.7-6.5-5.7-11-12.1-12.3c-8.3-1.6-15.3,3.5-22.4,7
								c0.9,1.2,1.8,2.4,2.7,3.5c0.3-0.2,0.6-0.4,0.8-0.7c2.3-1.8-0.9-5-3.2-3.2c-0.3,0.2-0.6,0.4-0.8,0.7c1.3,0.7,2.5,1.5,3.8,2.2
								c1.4-8.9,4.8-19.7-3.2-26.6c-6.5-5.6-16.2-4.8-22.5,0.7c1.2,0.2,2.4,0.3,3.5,0.5c0,0-0.1,0-0.1,0c-0.4,0.6-0.7,1.3-1.1,1.9
								c-0.6-0.2-1.3-0.5-1.9-0.7c0.2-0.7,0.4-1.5,0.6-2.2c0,0,0,0,0-0.1c0.9,0.7,1.9,1.4,2.8,2.2c0.8-9.6-2.8-21.4-13.7-23.2
								c-8.7-1.4-19.7,3.1-19.9,13c1.4-0.4,2.8-0.8,4.2-1.1c-0.1-0.1-0.2-0.3-0.2-0.4c-1.4-2.5-5.3-0.2-3.9,2.3
								c0.1,0.1,0.2,0.3,0.2,0.4c1,1.7,3.6,1.3,4.1-0.5c2.5-8.2-4.2-14.5-11.6-16.8c-4.6-1.4-10-1.4-14.4,0.6
								c-5.5,2.4-11.2,5.2-16.4,8.2c0.8,0,1.5,0,2.3,0c-9.8-6-18.3-13.5-26.7-21.2C79,280.9,75.8,284.1,77.9,286L77.9,286z"/>
						</g>
					</g>
					<line class="st1" x1="193" y1="354.3" x2="198.6" y2="345.3"/>
				</g>
			</g>
		</g>
	</g>
</g>
<g id="круг">
	<circle class="st4" cx="216.3" cy="219.5" r="203.5"/>
</g>
</svg>
