<?xml version="1.0" encoding="utf-8"?>
<!-- Generator: Adobe Illustrator 21.0.0, SVG Export Plug-In . SVG Version: 6.00 Build 0)  -->
<svg version="1.1" id="Слой_1" xmlns="http://www.w3.org/2000/svg" xmlns:xlink="http://www.w3.org/1999/xlink" x="0px" y="0px"
	 viewBox="0 0 623.5 509" style="enable-background:new 0 0 623.5 509;" xml:space="preserve">
<style type="text/css">
	.st0{opacity:0.5;fill:#B3B3B3;}
	.st1{fill:#B3B3B3;}
	.st2{fill:#DDE0E5;}
	.st3{fill:#073B43;}
	.st4{fill:#8C9EA0;}
	.st5{fill:#00D5C4;}
	.st6{fill:#FFFFFF;}
	.st7{fill:#4F5667;}
	.st8{fill:#EDB78B;}
	.st9{fill:#86745E;}
	.st10{fill:#C4DA85;}
	.st11{fill:#E296BF;}
	.st12{fill:#6D7A7D;}
	.st13{fill:#9782A1;}
	.st14{fill:#8ECDF6;}
	.st15{fill:#EEC2CE;}
	.st16{fill:#52AC62;}
	.st17{fill:#FCFF80;}
</style>
<g id="монитор">
	<path id="низ_тень" class="st0" d="M423.6,470H201.3c-4,0-7.3-3.3-7.3-7.3v-11.3c0-4,3.3-7.3,7.3-7.3h222.3
		c4,0,7.3,3.3,7.3,7.3v11.3C430.9,466.7,427.6,470,423.6,470z"/>
	<rect id="ножка_тень" x="251.9" y="414" class="st1" width="122" height="32"/>
	<rect id="ножка" x="249.4" y="414.5" class="st2" width="122" height="31.5"/>
	<path class="st1" d="M523.4,411.5h-418c-6.6,0-12-5.4-12-12v-285c0-6.6,5.4-12,12-12h418c6.6,0,12,5.4,12,12v285
		C535.4,406.1,530,411.5,523.4,411.5z"/>
	<path class="st3" d="M520.4,414.5h-418c-6.6,0-12-5.4-12-12v-285c0-6.6,5.4-12,12-12h418c6.6,0,12,5.4,12,12v285
		C532.4,409.1,527,414.5,520.4,414.5z"/>
	<path id="низ" class="st4" d="M422.1,471.5H199.8c-4,0-7.3-3.3-7.3-7.3v-11.3c0-4,3.3-7.3,7.3-7.3h222.3c4,0,7.3,3.3,7.3,7.3
		v11.3C429.4,468.2,426.1,471.5,422.1,471.5z"/>
	<rect x="106.9" y="121" class="st5" width="407" height="279"/>
	<rect x="109.9" y="124" class="st6" width="401" height="273"/>
	<rect x="109.9" y="124" class="st7" width="401" height="13"/>
</g>
<g id="содержимое_сайта_1_">
	<g>
		<rect x="158.7" y="151" class="st8" width="78.5" height="20"/>
		<rect x="237.7" y="151" class="st8" width="78.5" height="20"/>
		<rect x="316.7" y="151" class="st9" width="78.5" height="20"/>
		<rect x="395.7" y="151" class="st8" width="76.3" height="20"/>
	</g>
	<g>
		<rect x="157.4" y="185.1" class="st10" width="85" height="65.9"/>
		<rect x="386.9" y="184" class="st11" width="85" height="28"/>
		<rect x="253.4" y="185.1" class="st12" width="109.5" height="5.9"/>
		<rect x="253.4" y="205.1" class="st12" width="109.5" height="6.9"/>
		<rect x="253.4" y="195.1" class="st12" width="109.5" height="6.9"/>
		<rect x="253.4" y="224.1" class="st12" width="219" height="7"/>
		<rect x="253.4" y="244.1" class="st12" width="219" height="7"/>
		<rect x="253.4" y="234.1" class="st12" width="219" height="7"/>
	</g>
	<rect x="157.4" y="276.1" class="st13" width="53" height="53"/>
	<rect x="157.4" y="342.1" class="st12" width="38" height="6"/>
	<rect x="157.4" y="354.1" class="st12" width="53" height="6"/>
	<rect x="157.4" y="366.1" class="st12" width="53" height="6"/>
	<rect x="157.4" y="378.1" class="st12" width="48" height="6"/>
	<rect x="419.4" y="275.1" class="st14" width="53" height="53"/>
	<rect x="450.4" y="341.1" class="st12" width="22" height="6"/>
	<rect x="419.4" y="341.1" class="st12" width="22" height="6"/>
	<rect x="419.4" y="353.1" class="st12" width="53" height="6"/>
	<rect x="419.4" y="365.1" class="st12" width="53" height="6"/>
	<rect x="419.4" y="377.1" class="st12" width="22" height="6"/>
	<rect x="245.9" y="276" class="st15" width="53" height="53"/>
	<rect x="246.4" y="342.1" class="st12" width="53" height="6"/>
	<rect x="246.4" y="354.1" class="st12" width="22" height="6"/>
	<rect x="277.4" y="354.1" class="st12" width="22" height="6"/>
	<rect x="246.4" y="366.1" class="st12" width="53" height="6"/>
	<rect x="246.4" y="378.1" class="st12" width="53" height="6"/>
	<rect x="332.4" y="274.1" class="st16" width="53" height="53"/>
	<rect x="332.4" y="340.1" class="st12" width="53" height="6"/>
	<rect x="332.4" y="352.1" class="st12" width="53" height="6"/>
	<rect x="352.4" y="364.1" class="st12" width="33" height="6"/>
	<rect x="332.4" y="376.1" class="st12" width="44" height="6"/>
	<rect x="199.4" y="342.1" class="st12" width="11" height="6"/>
	<rect x="332.4" y="364.1" class="st12" width="11" height="6"/>
</g>
<g id="Слой_2">
	<g>
		<g>
			<path class="st17" d="M20.7,40.9C38.2,58.5,55.8,76,73.3,93.6c5.5,5.5,14-3,8.5-8.5C64.3,67.5,46.7,50,29.2,32.4
				C23.7,27,15.2,35.4,20.7,40.9L20.7,40.9z"/>
		</g>
	</g>
	<g>
		<g>
			<path class="st17" d="M547.7,449.9c17.6,17.6,35.1,35.1,52.7,52.7c5.5,5.5,14-3,8.5-8.5c-17.6-17.6-35.1-35.1-52.7-52.7
				C550.7,436,542.2,444.4,547.7,449.9L547.7,449.9z"/>
		</g>
	</g>
	<g>
		<g>
			<path class="st17" d="M74,442.1c-18,17.1-36,34.2-54,51.3c-5.6,5.3,2.9,13.8,8.5,8.5c18-17.1,36-34.2,54-51.3
				C88.1,445.2,79.6,436.8,74,442.1L74,442.1z"/>
		</g>
	</g>
	<g>
		<g>
			<path class="st17" d="M598,33.1c-18,17.1-36,34.2-54,51.3c-5.6,5.3,2.9,13.8,8.5,8.5c18-17.1,36-34.2,54-51.3
				C612.1,36.2,603.6,27.8,598,33.1L598,33.1z"/>
		</g>
	</g>
	<g>
		<g>
			<path class="st17" d="M9.9,267c20.4,0,40.9,0,61.3,0c7.7,0,7.7-12,0-12c-20.4,0-40.9,0-61.3,0C2.2,255,2.2,267,9.9,267L9.9,267z"
				/>
		</g>
	</g>
	<g>
		<g>
			<path class="st17" d="M554.9,267c20.4,0,40.9,0,61.3,0c7.7,0,7.7-12,0-12c-20.4,0-40.9,0-61.3,0C547.2,255,547.2,267,554.9,267
				L554.9,267z"/>
		</g>
	</g>
	<g>
		<g>
			<path class="st17" d="M314.6,67.7c0-20.4,0-40.9,0-61.3c0-7.7-12-7.7-12,0c0,20.4,0,40.9,0,61.3
				C302.6,75.4,314.6,75.4,314.6,67.7L314.6,67.7z"/>
		</g>
	</g>
</g>
</svg>
