<svg version="1.1" id="_x31__иконка" xmlns="http://www.w3.org/2000/svg" xmlns:xlink="http://www.w3.org/1999/xlink" x="0px"
	 y="0px" viewBox="0 0 260 340" style="enable-background:new 0 0 260 340;" xml:space="preserve">
<polygon class="st0" points="182,0 0,0 0,340 260,340 260,78 "/>
<polygon id="тень" class="st1" points="260,78 182,78 260,156 "/>
<g id="Слой_4">
	<rect x="13" y="14" class="st2" width="161" height="8"/>
	<rect x="13" y="37" class="st2" width="161" height="8"/>
	<rect x="13" y="60" class="st2" width="161" height="8"/>
	<rect x="182" y="106" class="st2" width="58" height="8"/>
	<rect x="182" y="127" class="st2" width="58" height="8"/>
	<rect x="13" y="305" class="st2" width="227" height="8"/>
	<rect x="13" y="290" class="st2" width="227" height="8"/>
	<rect x="182" y="148" class="st2" width="58" height="8"/>
	<rect x="182" y="169" class="st2" width="58" height="8"/>
	<rect x="182" y="190" class="st2" width="58" height="8"/>
	<rect x="182" y="211" class="st2" width="58" height="8"/>
	<rect x="182" y="232" class="st2" width="58" height="8"/>
	<rect x="13" y="320" class="st2" width="227" height="8"/>
</g>
<g id="схема">
	<rect x="135.4" y="155.5" class="st3" width="34.7" height="17.3"/>
	<rect x="135.4" y="220.5" class="st3" width="34.7" height="17.3"/>
	<rect x="13" y="187.1" class="st3" width="34.7" height="17.3"/>
	<rect x="13" y="146.3" class="st3" width="34.7" height="17.3"/>
	<rect x="67.1" y="212.6" class="st4" width="34.7" height="29.6"/>
	<rect x="47.7" y="259.6" class="st5" width="72.4" height="17.3"/>
	<polygon class="st6" points="57.9,181 84.4,164.7 109.9,181 84.4,197.3 	"/>
	<polygon class="st6" points="57.9,135.1 84.4,118.8 109.9,135.1 84.4,151.4 	"/>
	<ellipse class="st7" cx="84.4" cy="93.3" rx="25.5" ry="13.3"/>
	<ellipse class="st7" cx="153.8" cy="268.7" rx="25.5" ry="13.3"/>
	<rect x="83.9" y="107" class="st8" width="1" height="11.2"/>
	<rect x="83.9" y="151.9" class="st8" width="1" height="12.2"/>
	
		<rect x="43.1" y="121.3" transform="matrix(-1.836970e-16 1 -1 -1.836970e-16 178.697 91.4848)" class="st8" width="1" height="27.5"/>
	
		<rect x="50.7" y="212.6" transform="matrix(-1.836970e-16 1 -1 -1.836970e-16 279.1869 176.6717)" class="st8" width="1" height="30.6"/>
	
		<rect x="118.2" y="211.2" transform="matrix(-1.836970e-16 1 -1 -1.836970e-16 346.6566 109.202)" class="st8" width="1" height="33.5"/>
	
		<rect x="131.9" y="113.2" transform="matrix(-1.836970e-16 1 -1 -1.836970e-16 267.4546 2.7273)" class="st8" width="1" height="43.9"/>
	
		<rect x="38" y="260.1" transform="matrix(-1.836970e-16 1 -1 -1.836970e-16 307.2424 230.2323)" class="st8" width="1" height="17.3"/>
	<rect x="29.8" y="134.6" class="st8" width="1" height="11.2"/>
	<rect x="29.8" y="164.2" class="st8" width="1" height="22.4"/>
	<rect x="83.9" y="197.8" class="st8" width="1" height="14.3"/>
	<rect x="84.9" y="242.8" class="st8" width="1" height="16.7"/>
	<rect x="36" y="205" class="st8" width="1" height="22.4"/>
	<rect x="153.3" y="134.6" class="st8" width="1" height="20.4"/>
	<rect x="152.9" y="238.5" class="st8" width="1" height="16.5"/>
	<rect x="29.8" y="205" class="st8" width="1" height="63.3"/>
	<rect x="152.8" y="173.5" class="st8" width="1" height="47"/>
</g>
<polygon id="уголок" class="st9" points="182,78 260,78 182,0 "/>
</svg>
