<?xml version="1.0" encoding="utf-8"?>
<!-- Generator: Adobe Illustrator 21.0.0, SVG Export Plug-In . SVG Version: 6.00 Build 0)  -->
<svg version="1.1" id="окно" xmlns="http://www.w3.org/2000/svg" xmlns:xlink="http://www.w3.org/1999/xlink" x="0px" y="0px"
	 viewBox="0 0 357 281" style="enable-background:new 0 0 357 281;" xml:space="preserve">
<style type="text/css">
	.st0{opacity:0.4;fill:#808080;}
	.st1{fill:#AAAAAA;}
	.st2{fill:#F4F4F4;}
	.st3{fill:#C1272D;}
	.st4{fill:#FFE000;}
	.st5{fill:#64FF00;}
	.st6{clip-path:url(#SVGID_2_);}
	.st7{clip-path:url(#SVGID_4_);fill:#998675;}
	.st8{clip-path:url(#SVGID_4_);}
	.st9{opacity:0.3;clip-path:url(#SVGID_6_);}
	.st10{clip-path:url(#SVGID_8_);}
	.st11{clip-path:url(#SVGID_10_);}
	.st12{clip-path:url(#SVGID_12_);}
	.st13{clip-path:url(#SVGID_14_);}
	.st14{clip-path:url(#SVGID_16_);}
	.st15{clip-path:url(#SVGID_18_);}
	.st16{clip-path:url(#SVGID_4_);fill:#6CAFDF;}
	.st17{clip-path:url(#SVGID_4_);fill:#D1DBE8;}
	.st18{clip-path:url(#SVGID_4_);fill:#204453;}
	.st19{clip-path:url(#SVGID_4_);fill:#00C0D9;}
	.st20{clip-path:url(#SVGID_4_);fill:#00C4BF;}
	.st21{clip-path:url(#SVGID_20_);fill:#ED1E79;}
	.st22{opacity:0.3;clip-path:url(#SVGID_20_);}
	.st23{clip-path:url(#SVGID_22_);}
	.st24{clip-path:url(#SVGID_24_);}
	.st25{clip-path:url(#SVGID_26_);fill:none;stroke:#000000;stroke-width:17;stroke-miterlimit:10;}
	.st26{clip-path:url(#SVGID_20_);fill:#ED8324;}
	.st27{clip-path:url(#SVGID_20_);fill:#FF9161;}
	.st28{clip-path:url(#SVGID_20_);fill:#FF7955;}
	.st29{clip-path:url(#SVGID_20_);fill:#1B1464;}
	.st30{clip-path:url(#SVGID_28_);fill:#00FFFF;}
	.st31{clip-path:url(#SVGID_20_);fill:none;stroke:#1B1464;stroke-width:17;stroke-miterlimit:10;}
	.st32{clip-path:url(#SVGID_20_);fill:#FFFFFF;}
	.st33{fill:#F7931E;}
	.st34{fill:#999999;}
</style>
<rect id="тень" x="2.5" y="1" class="st0" width="353.2" height="276.9"/>
<rect x="0.5" y="6.3" class="st1" width="350.9" height="259.6"/>
<rect x="0.5" y="20.3" class="st2" width="350.9" height="259.6"/>
<g id="Слой_4">
	<path class="st3" d="M10,18L10,18c2.8,0,5-2.2,5-5v0c0-2.8-2.2-5-5-5h0c-2.8,0-5,2.2-5,5v0C5,15.8,7.2,18,10,18z"/>
	<path class="st4" d="M23,18L23,18c2.8,0,5-2.2,5-5v0c0-2.8-2.2-5-5-5h0c-2.8,0-5,2.2-5,5v0C18,15.8,20.2,18,23,18z"/>
	<path class="st5" d="M36,18L36,18c2.8,0,5-2.2,5-5v0c0-2.8-2.2-5-5-5h0c-2.8,0-5,2.2-5,5v0C31,15.8,33.2,18,36,18z"/>
</g>
<g>
	<g>
		<defs>
			<rect id="SVGID_1_" x="-17" y="-27" width="380" height="380"/>
		</defs>
		<clipPath id="SVGID_2_">
			<use xlink:href="#SVGID_1_"  style="overflow:visible;"/>
		</clipPath>
		<g class="st6">
			<defs>
				<rect id="SVGID_3_" x="-17" y="-27" width="380" height="380"/>
			</defs>
			<clipPath id="SVGID_4_">
				<use xlink:href="#SVGID_3_"  style="overflow:visible;"/>
			</clipPath>
			<polygon class="st7" points="5,270.9 335.6,270.9 321.4,262.7 19.6,262.5 			"/>
			<g class="st8">
				<defs>
					<rect id="SVGID_5_" x="-17" y="-27" width="380" height="380"/>
				</defs>
				<clipPath id="SVGID_6_">
					<use xlink:href="#SVGID_5_"  style="overflow:visible;"/>
				</clipPath>
				<g class="st9">
					<g>
						<defs>
							<rect id="SVGID_7_" x="14.5" y="237.1" width="42.6" height="29.6"/>
						</defs>
						<clipPath id="SVGID_8_">
							<use xlink:href="#SVGID_7_"  style="overflow:visible;"/>
						</clipPath>
						<rect x="14.5" y="237.1" class="st10" width="42.6" height="29.6"/>
					</g>
				</g>
				<g class="st9">
					<g>
						<defs>
							<rect id="SVGID_9_" x="65.5" y="226.5" width="42.6" height="40.3"/>
						</defs>
						<clipPath id="SVGID_10_">
							<use xlink:href="#SVGID_9_"  style="overflow:visible;"/>
						</clipPath>
						<rect x="65.5" y="226.5" class="st11" width="42.6" height="40.3"/>
					</g>
				</g>
				<g class="st9">
					<g>
						<defs>
							<rect id="SVGID_11_" x="119.4" y="179.3" width="42.6" height="87.4"/>
						</defs>
						<clipPath id="SVGID_12_">
							<use xlink:href="#SVGID_11_"  style="overflow:visible;"/>
						</clipPath>
						<rect x="119.4" y="179.3" class="st12" width="42.6" height="87.4"/>
					</g>
				</g>
				<g class="st9">
					<g>
						<defs>
							<rect id="SVGID_13_" x="174.9" y="204.4" width="42.6" height="62.3"/>
						</defs>
						<clipPath id="SVGID_14_">
							<use xlink:href="#SVGID_13_"  style="overflow:visible;"/>
						</clipPath>
						<rect x="174.9" y="204.4" class="st13" width="42.6" height="62.3"/>
					</g>
				</g>
				<g class="st9">
					<g>
						<defs>
							<rect id="SVGID_15_" x="228.1" y="156.5" width="42.6" height="111.7"/>
						</defs>
						<clipPath id="SVGID_16_">
							<use xlink:href="#SVGID_15_"  style="overflow:visible;"/>
						</clipPath>
						<rect x="228.1" y="156.5" class="st14" width="42.6" height="111.7"/>
					</g>
				</g>
				<g class="st9">
					<g>
						<defs>
							<rect id="SVGID_17_" x="282.1" y="86.6" width="42.6" height="181.6"/>
						</defs>
						<clipPath id="SVGID_18_">
							<use xlink:href="#SVGID_17_"  style="overflow:visible;"/>
						</clipPath>
						<rect x="282.1" y="86.6" class="st15" width="42.6" height="181.6"/>
					</g>
				</g>
			</g>
			<rect x="13" y="238.6" class="st16" width="42.6" height="29.6"/>
			<rect x="63.9" y="228" class="st17" width="42.6" height="40.3"/>
			<rect x="117.9" y="180.9" class="st18" width="42.6" height="87.4"/>
			<rect x="173.4" y="205.9" class="st19" width="42.6" height="62.3"/>
			<rect x="226.6" y="158.1" class="st17" width="42.6" height="111.7"/>
			<rect x="280.5" y="88.1" class="st18" width="42.6" height="181.6"/>
			<rect x="18.8" y="145.8" transform="matrix(0.866 -0.5 0.5 0.866 -62.1919 60.2497)" class="st20" width="125" height="0.9"/>
			
				<rect x="162.4" y="97.3" transform="matrix(0.4235 -0.9059 0.9059 0.4235 -22.5277 221.618)" class="st20" width="0.9" height="62.3"/>
			
				<rect x="165" y="85.6" transform="matrix(0.6898 -0.724 0.724 0.6898 12.2363 201.1637)" class="st20" width="151.7" height="1.4"/>
			<g class="st8">
				<defs>
					<rect id="SVGID_19_" x="-17" y="-27" width="380" height="380"/>
				</defs>
				<clipPath id="SVGID_20_">
					<use xlink:href="#SVGID_19_"  style="overflow:visible;"/>
				</clipPath>
				<path class="st21" d="M33.9,175.5c0,2.3-1.9,4.2-4.2,4.2c-2.3,0-4.2-1.9-4.2-4.2c0-2.3,1.9-4.2,4.2-4.2
					C32,171.4,33.9,173.2,33.9,175.5"/>
				<path class="st21" d="M138.8,116.3c0,2.3-1.9,4.2-4.2,4.2s-4.2-1.9-4.2-4.2c0-2.3,1.9-4.2,4.2-4.2S138.8,114,138.8,116.3"/>
				<path class="st21" d="M193.5,139.1c0,2.3-1.9,4.2-4.2,4.2c-2.3,0-4.2-1.9-4.2-4.2c0-2.3,1.9-4.2,4.2-4.2
					C191.6,134.9,193.5,136.8,193.5,139.1"/>
				<path class="st21" d="M298.4,30.4c0,2.3-1.9,4.2-4.2,4.2c-2.3,0-4.2-1.9-4.2-4.2c0-2.3,1.9-4.2,4.2-4.2
					C296.5,26.2,298.4,28.1,298.4,30.4"/>
				<g class="st22">
					<g>
						<defs>
							<rect id="SVGID_21_" x="203.4" y="174.5" width="58.3" height="96.4"/>
						</defs>
						<clipPath id="SVGID_22_">
							<use xlink:href="#SVGID_21_"  style="overflow:visible;"/>
						</clipPath>
						<path class="st23" d="M253.8,176.9l-3.2-1.3c-6.6-2.8-14.2,0.3-17,6.9l-29.3,69.1c-2.8,6.6,0.3,14.2,6.9,17l3.2,1.3
							c6.6,2.8,14.2-0.3,17-6.9l29.3-69.1C263.5,187.3,260.4,179.7,253.8,176.9"/>
					</g>
				</g>
				<g class="st22">
					<g>
						<defs>
							<rect id="SVGID_23_" x="243.3" y="159.8" width="20.1" height="27.1"/>
						</defs>
						<clipPath id="SVGID_24_">
							<use xlink:href="#SVGID_23_"  style="overflow:visible;"/>
						</clipPath>
						<path class="st24" d="M248,186.3l-0.2-0.1c-3.7-1.6-5.5-5.9-3.9-9.6l5.2-12.4c1.6-3.7,5.9-5.5,9.6-3.9l0.2,0.1
							c3.7,1.6,5.5,5.9,3.9,9.6l-5.2,12.4C256.1,186.2,251.7,187.9,248,186.3"/>
					</g>
				</g>
				<g class="st22">
					<g>
						<defs>
							<rect id="SVGID_25_" x="222.7" y="49.6" width="121.7" height="122"/>
						</defs>
						<clipPath id="SVGID_26_">
							<use xlink:href="#SVGID_25_"  style="overflow:visible;"/>
						</clipPath>
						
							<ellipse transform="matrix(5.418048e-02 -0.9985 0.9985 5.418048e-02 157.7017 387.6829)" class="st25" cx="283.5" cy="110.6" rx="54.6" ry="54.4"/>
					</g>
				</g>
				<path class="st26" d="M252.3,176.1l-3.2-1.3c-6.6-2.8-14.2,0.3-17,6.9l-29.3,69.1c-2.8,6.6,0.3,14.2,6.9,17l3.2,1.3
					c6.6,2.8,14.2-0.3,17-6.9l29.3-69.1C261.9,186.5,258.9,178.9,252.3,176.1"/>
				<path class="st27" d="M209.6,259.8L209.6,259.8c3.2,1.4,6.9-0.1,8.3-3.4l25.9-61.1c1.4-3.2-0.1-6.9-3.4-8.3
					c-3.2-1.4-6.9,0.1-8.3,3.4l-25.9,61.1C204.9,254.8,206.4,258.5,209.6,259.8"/>
				<path class="st28" d="M219.5,261.8L219.5,261.8c0.7,0.3,1.5,0,1.8-0.7l25-59.1c0.3-0.7,0-1.5-0.7-1.8c-0.7-0.3-1.5,0-1.8,0.7
					l-25,59.1C218.5,260.7,218.8,261.5,219.5,261.8"/>
				<path class="st29" d="M246.5,185.6l-0.2-0.1c-3.7-1.6-5.5-5.9-3.9-9.6l5.2-12.4c1.6-3.7,5.9-5.5,9.6-3.9l0.2,0.1
					c3.7,1.6,5.5,5.9,3.9,9.6l-5.2,12.4C254.5,185.4,250.2,187.2,246.5,185.6"/>
				<g class="st22">
					<g>
						<defs>
							<rect id="SVGID_27_" x="233.2" y="59" width="99.2" height="101.7"/>
						</defs>
						<clipPath id="SVGID_28_">
							<use xlink:href="#SVGID_27_"  style="overflow:visible;"/>
						</clipPath>
						<path class="st30" d="M332.4,112.6c-1.5,28-24.9,49.6-52.3,48.1c-27.4-1.5-48.3-25.4-46.8-53.5c1.5-28,24.9-49.6,52.3-48.1
							C312.9,60.6,333.9,84.5,332.4,112.6"/>
					</g>
				</g>
				
					<ellipse transform="matrix(5.418048e-02 -0.9985 0.9985 5.418048e-02 157.0229 385.4463)" class="st31" cx="282" cy="109.8" rx="54.6" ry="54.4"/>
				<path class="st32" d="M252,103c0.6-2.9,2.4-9.6,8.4-15.2c5.5-5.3,11.6-6.7,15.2-7.6c1.5-0.4,8.1-1.9,16,0c4.3,1,5.9,2.4,6.8,3.8
					c1,1.6,1.5,3.9,0.8,6.1c-0.7,2.1-2.5,4-4.6,4.6c-2.6,0.7-3.9-0.8-8.4-1.5c-1.1-0.2-3.8-0.5-6.8,0c-1.7,0.3-8,1.3-11.4,6.1
					c-2.4,3.4-1.2,5.7-3.8,7.6c-2,1.5-5,1.8-7.6,0.8C253.5,106.3,252.3,103.5,252,103"/>
			</g>
		</g>
	</g>
</g>
<rect x="14.5" y="31.5" class="st33" width="111" height="5"/>
<rect x="15" y="44" class="st34" width="141" height="5"/>
<rect x="15" y="57" class="st34" width="141" height="5"/>
<rect x="15" y="70" class="st34" width="65" height="5"/>
<rect x="95" y="70" class="st34" width="61" height="5"/>
<rect x="15" y="86" class="st34" width="88" height="5"/>
</svg>
