<?xml version="1.0" encoding="utf-8"?>
<!-- Generator: Adobe Illustrator 21.0.0, SVG Export Plug-In . SVG Version: 6.00 Build 0)  -->
<svg version="1.1" xmlns="http://www.w3.org/2000/svg" xmlns:xlink="http://www.w3.org/1999/xlink" x="0px" y="0px"
	 viewBox="0 0 428 405" style="enable-background:new 0 0 428 405;" xml:space="preserve">
<style type="text/css">
	.st0{opacity:0.6;fill:none;stroke:#000000;stroke-width:10;stroke-miterlimit:10;}
	.st1{fill:none;stroke:#B3B3B3;stroke-width:10;stroke-miterlimit:10;}
	.st2{opacity:0.3;}
	.st3{fill:#FFFF00;}
	.st4{fill:#CEC800;}
	.st5{fill:#F3F7F4;}
	.st6{fill:#1F9FFF;}
	.st7{fill:none;}
	.st8{font-family:'MyriadPro-Regular';}
	.st9{font-size:70px;}
	.st10{letter-spacing:4;}
	.st11{letter-spacing:3;}
	.st12{fill:#2D2D2D;}
</style>
<g id="Слой_4">
	<circle id="Тень" class="st0" cx="260" cy="81" r="72"/>
	<circle class="st1" cx="259" cy="79" r="72"/>
</g>
<g id="тень_ключ">
	<g class="st2">
		<polygon points="325.5,217.5 325.5,382.5 351.5,407.5 378.5,381.5 378.5,365.5 394.5,348.5 378.5,333.5 394.5,318.5 378.5,301.5 
			394.5,286.5 379.5,269.5 379.5,217.5 		"/>
		<polygon points="335.5,220.5 346.5,220.5 343.5,381.5 352.5,393.5 333.5,379.5 		"/>
		<path d="M349.5,71.5c-42.2,0-76.5,33.7-76.5,75.3c0,41.6,34.3,75.3,76.5,75.3s76.5-33.7,76.5-75.3
			C426,105.2,391.7,71.5,349.5,71.5z M356.2,123.2c-1.4,3.9-4,6.7-7.5,8.4c-0.7,0.6-1.5,1.2-2.3,1.7c-4.3,2.3-9.5,1.9-14.1,0.3
			c-2.2-0.5-4.2-1.4-6-2.6c-3.7-2.3-6.2-5.1-6.8-10c-0.5-4.1,0.3-8.3,2.4-12c0.4-0.8,0.9-1.6,1.5-2.3c5.3-6.7,15.8-8.6,23.8-6.2
			C356.8,103.3,359.4,114.5,356.2,123.2z"/>
		<path d="M354.3,71.5c-41,0-74.3,34.3-74.3,76.5c0,42.2,33.2,76.5,74.3,76.5s74.3-34.3,74.3-76.5
			C428.5,105.8,395.3,71.5,354.3,71.5z M352.5,127.3c-1.2,2.4-3.3,4.3-6.2,5.3c-9.4,3.1-20.4,2-24.9-7.4c-0.1-0.2-0.2-0.5-0.3-0.7
			c-0.1-0.1-0.1-0.3-0.2-0.4c-0.2-0.4-0.3-0.9-0.5-1.3c-0.1-0.3-0.2-0.6-0.3-0.9c0-0.1,0-0.2-0.1-0.2c-1-4.1-0.5-8.2,1.2-11.6
			c0.7-1.5,1.6-2.9,2.7-4.1c2.6-2.9,6.2-4.9,10.4-5.6c9.7-1.6,20.8,1.5,22.2,12.7C357.3,118.3,355.7,123.4,352.5,127.3z"/>
	</g>
</g>
<g id="ключ">
	<g>
		<polygon class="st3" points="322.5,215.5 322.5,380.5 348.5,405.5 375.5,379.5 375.5,363.5 391.5,346.5 375.5,331.5 391.5,316.5 
			375.5,299.5 391.5,284.5 376.5,267.5 376.5,215.5 		"/>
		<polygon class="st4" points="332.5,218.5 343.5,218.5 340.5,379.5 349.5,391.5 330.5,377.5 		"/>
		<path class="st5" d="M346.5,69.5c-42.2,0-76.5,33.7-76.5,75.3c0,41.6,34.3,75.3,76.5,75.3s76.5-33.7,76.5-75.3
			C423,103.2,388.7,69.5,346.5,69.5z M353.2,121.2c-1.4,3.9-4,6.7-7.5,8.4c-0.7,0.6-1.5,1.2-2.3,1.7c-4.3,2.3-9.5,1.9-14.1,0.3
			c-2.2-0.5-4.2-1.4-6-2.6c-3.7-2.3-6.2-5.1-6.8-10c-0.5-4.1,0.3-8.3,2.4-12c0.4-0.8,0.9-1.6,1.5-2.3c5.3-6.7,15.8-8.6,23.8-6.2
			C353.8,101.3,356.4,112.5,353.2,121.2z"/>
		<path class="st3" d="M351.3,69.5c-41,0-74.3,34.3-74.3,76.5c0,42.2,33.2,76.5,74.3,76.5s74.3-34.3,74.3-76.5
			C425.5,103.8,392.3,69.5,351.3,69.5z M349.5,125.3c-1.2,2.4-3.3,4.3-6.2,5.3c-9.4,3.1-20.4,2-24.9-7.4c-0.1-0.2-0.2-0.5-0.3-0.7
			c-0.1-0.1-0.1-0.3-0.2-0.4c-0.2-0.4-0.3-0.9-0.5-1.3c-0.1-0.3-0.2-0.6-0.3-0.9c0-0.1,0-0.2-0.1-0.2c-1-4.1-0.5-8.2,1.2-11.6
			c0.7-1.5,1.6-2.9,2.7-4.1c2.6-2.9,6.2-4.9,10.4-5.6c9.7-1.6,20.8,1.5,22.2,12.7C354.3,116.3,352.7,121.4,349.5,125.3z"/>
	</g>
</g>
<g id="тень">
	<path class="st2" d="M256.5,152.6l-50.3-26.5c-4.4,2.5-11.3,2.6-14.1-1.9c-1.1-1.8-1.4-4-1.1-6.1l-39.3-20.7l-5.9-3.1
		c-14.4-7.6-32.3-2-39.9,12.4L5.5,297.5c-7.6,14.4-2,32.3,12.4,39.9l110.8,58.3c14.4,7.6,32.3,2,39.9-12.4l100.4-190.8
		C276.5,178,270.9,160.2,256.5,152.6z"/>
	<path class="st2" d="M242.1,102.7c-1.2-2.7-3.3-4.9-5.9-6.1l-30.8-14.4c-3.1-1.5-6.6-1.9-10-1.4l-69.7,10.7l144.5,76.6L242.1,102.7
		z M208.1,124.7c-4,3.8-12.8,4.7-16.1-0.6c-1.4-2.2-1.5-5-0.8-7.5c0-0.5,0.1-0.9,0.2-1.4c1.5-6,8.1-8.3,13.6-6.4
		C211.8,111.2,213.2,119.9,208.1,124.7z"/>
	<path class="st2" d="M136.2,91.2"/>
</g>
<g id="Слой_6">
	<path class="st6" d="M254.5,150.6l-50.3-26.5c-4.4,2.5-11.3,2.6-14.1-1.9c-1.1-1.8-1.4-4-1.1-6.1l-39.3-20.7l-5.9-3.1
		c-14.4-7.6-32.3-2-39.9,12.4L3.5,295.5c-7.6,14.4-2,32.3,12.4,39.9l110.8,58.3c14.4,7.6,32.3,2,39.9-12.4l100.4-190.8
		C274.5,176,268.9,158.2,254.5,150.6z"/>
	<path class="st6" d="M240.1,100.7c-1.2-2.7-3.3-4.9-5.9-6.1l-30.8-14.4c-3.1-1.5-6.6-1.9-10-1.4l-69.7,10.7l144.5,76.6L240.1,100.7
		z M206.1,122.7c-4,3.8-12.8,4.7-16.1-0.6c-1.4-2.2-1.5-5-0.8-7.5c0-0.5,0.1-0.9,0.2-1.4c1.5-6,8.1-8.3,13.6-6.4
		C209.8,109.2,211.2,117.9,206.1,122.7z"/>
	<path class="st6" d="M134.2,89.2"/>
</g>
<g id="Слой_1">
	<g id="Слой_5">
		<path class="st1" d="M201.6,122.4C192.4,110.4,187,95.3,187,79c0-39.8,32.2-72,72-72s72,32.2,72,72c0,15.3-0.9,23.3-9,35"/>
	</g>
	
		<rect x="44.4" y="206.3" transform="matrix(0.4695 -0.8829 0.8829 0.4695 -139.1283 262.116)" class="st7" width="208.4" height="81"/>
	<text transform="matrix(0.4695 -0.8829 0.8829 0.4695 107.7639 343.1194)" class="st2 st8 st9 st10"> WWW</text>
	
		<rect x="40.4" y="207.3" transform="matrix(0.4695 -0.8829 0.8829 0.4695 -142.1334 259.1147)" class="st7" width="208.4" height="81"/>
	<text transform="matrix(0.4695 -0.8829 0.8829 0.4695 103.7639 344.1194)"><tspan x="0" y="0" class="st8 st9 st11"> </tspan><tspan x="18.3" y="0" class="st12 st8 st9 st11">WWW</tspan></text>
</g>
</svg>
